<?xml version="1.0" standalone="no"?>
<!DOCTYPE svg PUBLIC "-//W3C//DTD SVG 1.1//EN" "http://www.w3.org/Graphics/SVG/1.1/DTD/svg11.dtd" >
<svg xmlns="http://www.w3.org/2000/svg" xmlns:xlink="http://www.w3.org/1999/xlink" version="1.1">
<metadata>
Created by FontForge 20170731 at Wed May 31 00:53:03 2023
 By Aleksey,,,
Copyright (c) 2019 by Hendra Pratama. All rights reserved.
</metadata>
<defs>
<font id="Bellarina" horiz-adv-x="585" >
  <font-face 
    font-family="Bellarina"
    font-weight="400"
    font-stretch="normal"
    units-per-em="2048"
    panose-1="0 0 0 0 0 0 0 0 0 0"
    ascent="1536"
    descent="-512"
    x-height="377"
    cap-height="1404"
    bbox="-6325.06 -1243 7731.95 1710.63"
    underline-thickness="102"
    underline-position="-307"
    unicode-range="U+0020-F6C0"
  />
<missing-glyph horiz-adv-x="696" 
 />
    <glyph glyph-name="t_t" unicode="tt" horiz-adv-x="589" 
d="M104 760q207 35 480 63q212 228 336 330q9 7 21.5 6t21.5 -10q7 -9 5.5 -22t-10.5 -21q-102 -83 -282 -275h6q228 18 293 21q249 265 358 354q14 16 32.5 12.5t22.5 -19.5t-12 -36q-4 -4 -6 -4l-6 -8q-58 -58 -277 -293q159 6 293 6q286 3 379 -16q28 -14 21 -41
q-3 -11 -14.5 -17t-22.5 -4q-69 21 -289 21h-74q-136 0 -348 -10l-414 -447q-371 -466 -518 -753q-26 -49 -32 -78v-4h2q14 -10 10 -33q-4 -12 -15.5 -18t-23.5 -3q-29 9 -33 39q-7 39 37 125q77 148 221 355q-2 0 -2 -3q-98 -92 -174 -92q-37 0 -65 25q-25 25 -25 70
q0 75 53 172q75 139 283 387q83 100 190 219q-249 -25 -413 -53q-19 -2 -29 10t-4.5 26.5t24.5 18.5zM635 469q93 118 283 322q-30 -2 -230 -17l-70 -6q-127 -140 -235 -270q-191 -228 -277 -377q-6 -11 -13.5 -26.5t-15.5 -38t-12.5 -42t-2.5 -35.5t12 -22q41 -21 149 59
q78 62 246 242q32 43 90 115t76 96z" />
    <glyph glyph-name="i_t" unicode="it" horiz-adv-x="835" 
d="M72 -549q123 232 720 984q19 24 27 34l33 41q-475 -446 -664 -451q-55 -1 -84.5 31t-29.5 82q0 32 16 72q11 24 27 47.5t29.5 39.5t34.5 35t31.5 27t30.5 23t21 16q26 19 47 0q18 -17 5 -36q-3 -4 -7 -7q-103 -75 -157 -170q-24 -39 -9 -71t62 -23q205 39 858 649
q-327 -28 -574 -69q-19 -2 -28.5 10t-4 26.5t24.5 18.5q246 43 578 71l69 5l172 163q4 7 11 11l30 30l74 70l27 23q14 16 32.5 12.5t22.5 -19.5t-12 -36q-92 -74 -254 -246q279 20 526 20q286 3 379 -16q28 -14 21 -41q-3 -11 -14.5 -17t-22.5 -4q-69 21 -289 21h-74
q-241 0 -583 -25q-181 -194 -306 -350q-651 -814 -743 -1012q-10 -17 -23 -21t-21.5 3.5t-12.5 20t4 28.5zM403 512q-9 9 -9.5 22.5t7.5 22.5l43 33l39 24q10 6 23.5 3t19.5 -15q6 -9 3 -22t-15 -19q-6 -2 -19.5 -10.5t-17.5 -11.5q-18 -12 -31 -25q-7 -10 -21.5 -10.5
t-21.5 8.5z" />
    <glyph glyph-name="l_l" unicode="ll" horiz-adv-x="835" 
d="M514 -6q-82 -131 -163.5 -326.5t-67.5 -247.5q3 -5 1 -10.5t-2 -8.5t-4 -6.5t-5.5 -5t-5.5 -4t-5 -3.5q-18 0 -27 5t-12 19q-18 81 58 263.5t170 342.5q15 29 49 80q-111 -80 -193 -119q-100 -49 -172 -49q-58 0 -90 35q-25 25 -25 72q0 79 72 202q92 161 283 388
q160 191 344 379t287 272q9 7 21.5 6t21.5 -10q7 -9 5.5 -22t-10.5 -21q-98 -79 -279.5 -265.5t-342.5 -379.5q-191 -228 -277 -377q-47 -80 -59 -137q-13 -49 4 -66q11 -12 34 -14.5t64 8t93 35.5q165 82 342 245q303 422 757 859q207 207 283 251q12 6 24.5 2.5
t18.5 -14.5t2.5 -23t-14.5 -18q-62 -32 -271 -241q-224 -221 -347 -357q-325 -360 -562 -739z" />
    <glyph glyph-name="d_y" unicode="dy" horiz-adv-x="1654" 
d="M373 -684q-30 96 63 205q100 115 310 256t452 260l78 37l4 8l39 68l-45 -31q-106 -74 -180 -74q-36 0 -60 21q-34 32 -18 96q4 20 12 33q-100 -55 -172 -82q-132 -50 -203 -50q-85 0 -102 60q-12 41 18.5 116t79.5 134l-63 -62q-187 -159 -316 -221q-66 -34 -125 -37
q-65 0 -96 47q-33 52 12.5 118.5t128.5 113.5q117 67 242 67q68 0 121 -18l12 -6l23 22q152 134 307 303l39 45l22 29q62 78 146 175t134 152.5t56 61.5q20 23 43 4.5t6 -41.5q-29 -41 -86.5 -108.5t-131 -150.5t-97.5 -111l-45 -51l-18 -23q-1 -1 -18 -21.5t-39 -47
t-53.5 -66t-61 -78t-62 -83t-56 -81t-43 -72.5t-23.5 -58t3 -36q32 -43 226 33q53 21 137 64.5t129 70.5l35 37q45 42 73 49q12 3 24 -2.5t15 -17.5t-2.5 -24t-17.5 -15t-49 -35q-3 -3 -8 -7.5t-8.5 -8t-6.5 -7.5q-1 -3 -12 -14l-4 -4l-27 -35q-32 -52 -39 -78q-7 -29 2 -34
q10 -10 51 2q52 17 113 57q128 84 219 197q2 4 10 8q0 1 2 2q1 1 1.5 1t1.5 1q20 15 38.5 -2t6.5 -39q-1 -1 -17 -26.5t-50.5 -79.5t-70.5 -109q285 121 416 153q12 3 23 -2.5t14 -17.5q3 -13 -4 -24.5t-19 -14.5q-127 -32 -405 -149l-90 -41l-17 -25l-139 -190
q-406 -531 -653 -576q-44 -8 -82 14.5t-53 65.5zM498 -702q121 22 282 173.5t332 376.5q55 72 72 97l18 26l-69 -37q-213 -111 -389 -232.5t-261 -221.5q-71 -79 -53 -144q7 -22 26 -32.5t42 -5.5zM244 145q110 53 260 179l6 4l-43 8q-124 14 -246 -57q-47 -27 -77.5 -58.5
t-40 -54t-1.5 -33.5q9 -18 41 -18q47 4 101 30z" />
    <glyph glyph-name="d_g" unicode="dg" horiz-adv-x="1757" 
d="M451 -684q-30 96 63 205q100 115 310 256t452 260l78 37l4 8l104 156l6 10l-8 -4q-72 -45 -117 -70q-93 -51 -155 -72q-92 -27 -127 0q-7 7 -10 13q-29 36 -19 80q-100 -55 -172 -82q-132 -50 -203 -50q-85 0 -102 60q-12 41 18.5 116t79.5 134l-63 -62
q-187 -159 -316 -221q-66 -34 -124 -37q-66 0 -97 47q-33 52 13 118.5t129 113.5q117 67 241 67q68 0 121 -18l12 -6l23 22q152 134 307 303l39 45l23 29q62 78 146 175t133.5 152.5t55.5 61.5q13 15 30 11.5t23 -18t-3 -30.5q-29 -41 -87 -108.5t-131 -150t-98 -111.5
l-45 -51l-18 -23q-1 -1 -18 -21.5t-39 -47t-53.5 -66t-61 -78t-62 -83t-56 -81t-43 -72.5t-23.5 -58t3 -36q32 -43 226 33q57 23 147 70.5t129 70.5q4 4 10 4l19 13q85 47 176 47q86 0 164 -41l2 -2l4 2q17 11 38 26.5t23 16.5q20 15 38.5 -2t6.5 -39q-1 -1 -16.5 -26.5
t-48 -77.5t-66.5 -103l-6 -8l2 2q292 121 414 151q12 3 23 -2.5t14 -17.5q3 -13 -4 -24.5t-19 -14.5q-127 -32 -405 -149l-90 -41l-17 -25l-139 -190q-406 -531 -653 -576q-44 -8 -82 14.5t-53 65.5zM575 -702q121 22 283 173.5t332 376.5q55 72 72 97l18 26l-70 -37
q-212 -111 -388 -232.5t-261 -221.5q-71 -79 -53 -144q8 -22 26 -32t41 -6zM248 145q110 53 260 179l6 4l-43 8q-124 14 -246 -57q-47 -27 -77.5 -58.5t-40 -54t-1.5 -33.5q9 -18 41 -18q47 4 101 30zM1116 150q18 0 53 12q63 21 146 67l76 43l34 23l-8 4q-53 16 -96 16
q-75 0 -145 -39q-44 -27 -65.5 -58.5t-16.5 -55.5l6 -10q4 -2 16 -2z" />
    <glyph glyph-name="a_t" unicode="at" horiz-adv-x="1171" 
d="M408 -549q123 232 720 984q7 9 10.5 13t8 10t8.5 11l39 49q-496 -457 -657 -432q-49 7 -67.5 53t1.5 82l-55 -33l-47 -24q-96 -50 -187 -80q-105 -31 -141 0l-6 6q-23 26 -23 57q0 37 25 68q36 54 123 98q112 56 233 56q70 0 135 -23l21 -8h2l49 35l2 2l4 2q6 6 8 6v2
q23 17 42 -5.5t-3 -41.5l-6 -6l-6 -4l-2 -2q-68 -61 -92 -95q-23 -34 -20.5 -57.5t26.5 -28.5q130 -23 846 629q-327 -28 -574 -69q-19 -2 -28.5 10t-4 26.5t24.5 18.5q246 43 578 71l73 7q18 16 50.5 46.5t35.5 33.5q126 132 224 215q14 16 32.5 12.5t22.5 -19.5t-12 -36
q-92 -74 -254 -246q279 20 526 20q286 3 379 -16q27 -13 20 -41q-3 -11 -14 -17t-22 -4q-69 21 -289 21h-74q-242 0 -584 -25q-174 -187 -305 -350q-651 -814 -743 -1012q-10 -17 -23 -21t-21.5 3.5t-12.5 20t4 28.5zM102 129q30 4 62 14q85 27 176 76q69 34 135 74l6 4
l-16 4q-35 6 -72 6q-105 0 -205 -49q-74 -38 -102 -80q-17 -26 -10 -41l4 -4q0 -4 22 -4z" />
    <glyph glyph-name="u_t" unicode="ut" horiz-adv-x="1050" 
d="M287 -549q126 238 684 940q-346 -312 -506 -315q-55 -1 -75.5 33t-6.5 86q-182 -132 -279 -132q-38 0 -63 25q-34 34 -14 98q14 45 55 95q31 39 78 79q50 40 76 46q12 3 22.5 -4.5t13.5 -20.5q3 -12 -3.5 -23t-18.5 -12q-14 -4 -51 -33q-41 -32 -70 -71q-36 -48 -43 -76
q-8 -23 -2 -35q12 -12 53 0q49 9 115 51q136 78 231 183q17 17 37 6.5t17 -31.5q-3 -9 -29 -45t-39 -59q-13 -22 -20 -38.5t-9.5 -32.5t7.5 -22t34 -2q191 35 756 566q3 4 63 69q-8 -2 -20 -2q-324 -28 -575 -69q-19 -2 -29 10t-4.5 26.5t24.5 18.5q246 43 578 71l84 7
q193 206 299 295q14 16 32.5 12.5t22.5 -19.5t-12 -36q-92 -74 -254 -246q279 20 526 20q286 3 379 -16q28 -14 21 -41q-3 -11 -14.5 -17t-22.5 -4q-69 21 -289 21h-74q-241 0 -583 -25q-181 -194 -306 -350q-651 -814 -743 -1012q-10 -17 -23 -21t-21.5 3.5t-12.5 20
t4 28.5z" />
    <glyph glyph-name="e_t" unicode="et" horiz-adv-x="942" 
d="M588 760q247 43 577 71q40 5 54 5l34 32q52 41 177 156h2q62 62 116 109q14 16 32.5 12.5t22.5 -19.5t-12 -36q-49 -40 -112 -103l-9 -10l-59 -55l-74 -78q279 20 527 20q286 3 379 -16q27 -13 20 -41q-3 -11 -14.5 -17t-22.5 -4q-69 21 -289 21h-73q-242 0 -584 -25
q-174 -187 -305 -350q-653 -817 -744 -1012q-10 -17 -23 -21t-21.5 3.5t-12.5 20t4 28.5q19 36 50 85t64.5 98t81 115t85.5 117.5t93.5 124t89.5 117t89.5 115t77.5 98.5t68.5 86.5t48.5 61.5l80 98q-125 -106 -267 -209q-101 -72 -172 -119t-155.5 -96t-154.5 -72t-126 -22
t-82 31t-26 76q0 54 30 102q51 84 154 141q111 62 182 31l17 -8q31 -22 16 -60q-14 -28 -74 -68.5t-133 -64t-111 -4.5q-22 -42 -22 -71q0 -42 51 -45q88 -5 228.5 73.5t340.5 223.5q209 151 447 366q-302 -27 -553 -67q-19 -2 -28.5 10t-4 26.5t24.5 18.5zM356 377
q-92 12 -211 -98q28 -11 102.5 26t108.5 72z" />
    <glyph glyph-name="B_e_l_l_a_r_i_n_a.1_swsh" unicode="Bellarina" horiz-adv-x="8073" 
d="M268 -426q-32 32 -32 74q0 55 51 112q86 99 303 199q11 6 90 41l92 125q109 147 270 354q-90 8 -147 25q-68 18 -96 51q-44 47 -15 109q46 101 258 108q100 0 211 -27q231 289 467 562q-64 6 -137 6q-182 0 -364 -33q-171 -30 -329 -85t-299.5 -135t-250.5 -191
t-166 -242q-39 -91 -39 -183q0 -95 43 -163q62 -95 174 -95q47 0 97 17q12 3 22.5 -3t13.5 -18q5 -11 -0.5 -23t-17.5 -16q-59 -20 -115 -20q-71 0 -129.5 33t-95.5 92q-53 83 -53 196q0 105 45 207q61 141 176.5 260t264 202t310.5 139.5t336 86.5q179 33 371 33
q119 0 195 -10q136 153 180 184q11 7 23 5t20 -13q8 -9 6 -22.5t-12 -20.5q-46 -34 -146 -143q138 -24 235.5 -74t137.5 -123q31 -57 31 -108q0 -83 -70 -166q-91 -110 -297 -209q-65 -31 -197 -78l-77 -25q56 -54 89 -135.5t21 -179.5l105 16q165 22 237 27q53 62 125 102
q111 62 182 31l17 -8q31 -22 16 -60q-14 -28 -74 -68.5t-132.5 -64t-110.5 -4.5l-8 -14q-25 -51 -15 -80q17 -41 84 -41q75 0 187.5 40.5t164.5 68.5q41 21 84.5 45.5t78 45.5t42.5 25h2q79 122 232 306q160 191 344 379t287 272q9 7 21.5 6t21.5 -10q7 -9 5.5 -22
t-10.5 -21q-98 -79 -279.5 -265.5t-342.5 -379.5q-191 -228 -277 -377q-47 -80 -59 -137q-13 -49 4 -66q11 -12 34 -14.5t64 8t93 35.5q165 82 342 245q303 422 757 859q207 207 283 251q12 6 24.5 2.5t18.5 -14.5t2.5 -23t-14.5 -18q-62 -32 -271 -241q-224 -221 -347 -357
q-325 -360 -562 -739q-68 -104 -147 -287q856 72 1789 72q630 0 1171.5 -37t887.5 -107q12 -3 19 -13.5t5 -22.5q-3 -12 -14 -19t-23 -4q-340 70 -875.5 105.5t-1167.5 35.5q-987 0 -1821 -75q-69 -176 -55 -222q3 -5 1 -10.5t-2 -8.5t-4 -6.5t-5.5 -5t-5.5 -4t-5 -3.5
q-18 0 -27 5t-12 19q-16 66 45 229q-807 -77 -1224 -194q-12 -3 -23 3.5t-14 18.5t2.5 23t17.5 14q455 127 1266 199q68 160 158 313q15 29 49 80q-111 -80 -193 -119q-100 -49 -172 -49q-58 0 -90 35q-25 25 -25 72q0 72 56 172q-92 -50 -109 -58q-80 -40 -187.5 -76
t-193.5 -36q-116 0 -143 78q-20 55 14 120q-191 -21 -305 -38l-6 -3l-4 -16q-26 -80 -74 -158q-97 -160 -284 -282.5t-402 -186.5q-199 -61 -371 -61q-203 0 -301 88zM565 -201q0 1 1 4t1 4q3 32 47 95q-189 -82 -284 -181q-17 -22 -25.5 -37t-9 -33t15.5 -32
q75 -72 256 -72q166 0 355 58q210 64 387 180t264 264q31 49 57 113l6 18l-37 -4q-540 -97 -880 -229q-5 -9 -18.5 -28.5t-18.5 -29.5q-48 -74 -55 -94l-2 -10q-7 -18 -29 -18q-13 2 -22 10.5t-9 21.5zM5327 102q39 52 49 62l16 18q-84 -44 -147 -69q-133 -50 -215 -50
q-91 0 -111 60q-20 70 90 180q32 33 73.5 69t65 54.5t29.5 22.5q11 7 23 4.5t20 -13.5q7 -11 5 -23t-13 -20q-3 -2 -26.5 -20t-63 -52t-70.5 -65q-15 -15 -32 -34.5t-33 -47.5t-8 -39q11 -14 43.5 -15t73 9t72.5 19.5t56 19.5q57 23 148 70.5t129 70.5q4 4 10 4l43 50
q7 10 20.5 11t22.5 -7t10 -21t-6 -22l-57 -66q92 46 214 83.5t193 29.5q27 -3 35 -26t-8 -46q-6 -8 -35.5 -42.5t-48 -63t-18.5 -45.5q6 -17 47.5 -15t96 15t97.5 30q95 39 189 94q37 37 96 64q100 51 223 51q73 0 144 -24l22 -9l15 11l34 22l4 2l2 2q2 2 4 3.5t3.5 2.5
t1.5 2q23 17 42 -5.5t-3 -41.5l-7 -6l-6 -4l-2 -2q-52 -41 -92 -92q-35 -41 -35 -64v-10q3 -6 21 -12q37 -12 174 -12q86 -2 291 6q366 14 456 37q12 3 24 -4t13 -19q3 -12 -3.5 -23t-18.5 -14q-96 -24 -469 -39q-205 -8 -293 -6q-141 0 -193 14q-35 10 -51.5 34t-11.5 55
q0 18 10 38l2 5l-2 -2l-94 -50q-115 -54 -187 -75q-51 -15 -83 -15q-38 0 -60 19q0 4 -4 4q-20 26 -20 55v2q-76 -37 -115 -51q-123 -49 -219 -49q-37 0 -58 8q-47 19 -47 66q0 44 33 86q33 46 68 86q-119 -11 -265 -73.5t-231 -129.5l-41 -47q-11 -13 -28 -11.5t-24 13
t1 28.5zM1423 688q18 -8 51.5 -26.5t41.5 -22.5l32 -23l15 2q167 52 290 109q196 96 277 195q55 64 55 125q0 35 -22 77q-36 65 -132 109t-237 65q-195 -223 -475 -571q23 -7 104 -39zM1587 236l68 10q12 105 -25 181t-94 122l-59 -14q-211 -53 -357 -56
q-187 -237 -299 -391l-37 -51q323 117 803 199zM4205 70q3 17 73 100l-51 -25q-184 -84 -274 -59q-35 11 -52.5 34t-13.5 54q2 14 10 37l2 4l-47 -27l-47 -24q-97 -51 -186 -80q-105 -31 -141 0l-7 6q-22 25 -22 57q0 38 24 68q36 54 123 98q112 56 234 56q70 0 135 -23
l20 -8h2l50 35l2 2l4 2q6 6 8 6v2q23 17 42 -5.5t-3 -41.5l-6 -6l-6 -4l-2 -2q-61 -55 -93 -95q-34 -40 -34 -65q-1 -3 -1 -5t0.5 -3t0.5 -2q7 -7 20 -11q69 -18 233 58q109 48 201 110q2 0 4 2q15 15 42.5 45.5t35.5 38.5q7 10 20.5 11t22.5 -7t10 -21t-6 -22l-67 -79
q98 50 225 94.5t192 32.5q18 -4 27 -16.5t7 -27t-11 -26.5q-21 -26 -52 -27q-23 0 -22 16q1 8 8 19l7 6h-9q-108 -11 -242 -74t-239 -137q-9 -6 -20 -17t-35.5 -37.5t-44.5 -47.5q-17 -20 -39.5 -6t-11.5 37zM1042 711q-83 -3 -135.5 -23t-66.5 -51q-12 -24 2 -41
q17 -17 69 -33q78 -27 181 -22l108 137l12 14q-93 19 -170 19zM6341 158q23 0 63 12q71 20 176 72q94 46 135 71l7 4l-19 5q-36 8 -78 8q-101 0 -196 -45q-35 -18 -54 -31l-8 -10q-2 -1 -4.5 -3.5t-5 -4t-6 -4t-6.5 -3.5q-13 -13 -19 -22q-19 -27 -10 -41l4 -4q0 -4 21 -4z
M3539 129q28 4 61 14q87 27 177 76q69 34 135 74l6 4l-17 4q-35 6 -71 6q-105 0 -205 -49q-74 -38 -102 -80q-18 -27 -11 -41l4 -4q0 -4 23 -4zM1462 594l6 2l-28 14q-7 5 -22.5 13t-18.5 10q-92 36 -121 43q-28 -34 -29 -35l-80 -98q150 14 293 51zM5294 539q-6 10 -2 23.5
t16 17.5l33 22l33 29q9 9 22 8t21 -10q9 -9 8 -22t-10 -21q-21 -21 -35 -31q-37 -26 -45 -31q-10 -4 -22.5 0t-18.5 15zM2333 377q-92 12 -211 -98q28 -11 102.5 26t108.5 72z" />
    <glyph glyph-name=".notdef" horiz-adv-x="696" 
 />
    <glyph glyph-name=".null" horiz-adv-x="0" 
 />
    <glyph glyph-name="nonmarkingreturn" horiz-adv-x="682" 
 />
    <glyph glyph-name="space" unicode=" " horiz-adv-x="696" 
 />
    <glyph glyph-name="exclam" unicode="!" horiz-adv-x="733" 
d="M397 264q1 8 25 51q7 11 25.5 37t25.5 37q17 27 41.5 60.5t59 78.5t53.5 72q5 6 79.5 104t110.5 144.5t98 126t102 127t62 69.5q26 19 47 -2q8 -7 8 -20.5t-8 -22.5q-22 -21 -63.5 -70.5t-97 -119.5t-102 -130t-106.5 -138t-83 -107l-150 -203q-31 -45 -49 -75t-18 -33
q-3 -12 -14 -19.5t-23 -5.5q-12 5 -19 16t-4 23zM287 -6q-12 1 -18.5 11t-4.5 22q0 4 2 6q0 6 6 18q10 15 13 17q2 5 7.5 13t6.5 11q17 21 43 10q21 -21 8 -45q-2 -1 -16 -20l-6 -14q0 -3 -4 -7q0 -12 -12 -19t-25 -3z" />
    <glyph glyph-name="quotedbl" unicode="&#x22;" horiz-adv-x="468" 
d="M111 858q-13 26 16 41q18 4 29 27q16 19 16 59q0 12 9.5 21.5t21.5 9.5t21 -9.5t9 -21.5q0 -51 -24 -94q-26 -38 -59 -49q-12 -5 -23.5 -0.5t-15.5 16.5zM236 858q-10 26 16 41q16 3 31 27q16 24 16 59q-1 12 8 21.5t21 9.5q13 0 21.5 -9t10.5 -22q0 -53 -26 -94
q-21 -34 -58 -49q-12 -5 -24 -0.5t-16 16.5z" />
    <glyph glyph-name="numbersign" unicode="#" horiz-adv-x="1544" 
d="M221 297q0 11 9 22t20 11q103 10 379 18q87 102 198 223q-239 -3 -407 -16q-12 -2 -23 6t-12 21q0 11 9 21.5t20 10.5q179 18 471 21q171 186 278 287q9 9 21.5 9t21.5 -9t9 -22.5t-9 -20.5q-87 -81 -237 -244q117 0 321 -4q166 181 283 291q9 9 21.5 9t21.5 -9t9 -22.5
t-9 -20.5q-100 -95 -244 -252q70 -2 195 -11q13 -1 21.5 -10.5t6.5 -21.5q0 -13 -10 -22t-22 -7q-180 11 -246 12q-34 -36 -199 -221q198 -7 285 -14q13 -1 22 -11t7 -22q0 -13 -10.5 -22t-22.5 -7q-186 13 -332 15q-124 -141 -211 -260q-8 -11 -20 -13.5t-23 4.5
q-9 8 -11 21t5 22q104 139 180 228h-330q-151 -180 -211 -262q-8 -11 -20 -13.5t-23 4.5q-9 8 -11 21t5 22q85 114 181 226q-140 -2 -322 -15q-12 -2 -23 6t-12 21zM713 348q26 0 81 1t83 1t81.5 -1t79.5 -1q77 90 197 221q-74 2 -227 2h-97q-107 -114 -198 -223z" />
    <glyph glyph-name="dollar" unicode="$" horiz-adv-x="669" 
d="M90 -78q-28 17 -18 43q20 51 90 174q-81 67 -92 170q-2 12 6 23t20 12q12 2 23 -6.5t12 -20.5q9 -74 62 -124q31 57 139 247q-75 78 -82 133q-10 68 27.5 120t99.5 77q78 33 155 18q18 30 46 79t38 65q5 10 17.5 13.5t23.5 -3.5q11 -6 15 -18.5t-2 -24.5l-76 -129l20 -12
q45 -29 45 -92q0 -40 -24 -78q-8 -11 -20 -13t-23 5q-23 17 -8 43q18 30 15 52t-19 34l-17 10q-97 -164 -155 -268l47 -50q59 -66 75 -114q24 -76 -26 -137q-62 -76 -168 -76q-64 0 -123 30q-68 -126 -84 -163q-4 -11 -16.5 -16.5t-22.5 -2.5zM457 188q29 37 16 78
q-15 43 -63 94q-4 4 -11 11.5t-13 13.5t-11 10q-25 -44 -70 -124.5t-63 -112.5q51 -23 94 -23q77 0 121 53zM401 715q-48 -21 -72.5 -55.5t-17.5 -75.5q3 -29 47 -80l4 -8q35 62 138 235q-50 3 -99 -16z" />
    <glyph glyph-name="percent" unicode="%" horiz-adv-x="1112" 
d="M221 346q-33 20 -49 57.5t-16 75.5q0 69 50 149t118 120l6 4q-9 15 2 34q43 53 102 62q74 7 113 -72q14 -32 14 -69q0 -76 -47 -163t-96 -136q-114 -111 -197 -62zM375 453q56 54 98.5 148.5t15.5 150.5q-17 38 -49 34q-15 -3 -30 -12h6q13 0 21.5 -9.5t8.5 -21.5
q-3 -30 -32 -30q-58 3 -127 -78q-70 -83 -70 -158q0 -24 10 -46.5t27 -31.5q42 -25 121 54zM197 -12q-10 7 -12.5 20t5.5 23q104 132 695 776q9 9 21.5 10t21.5 -8q9 -8 10 -21t-8 -22q-20 -22 -111 -122t-166 -183t-165.5 -184t-156 -176t-91.5 -109q-8 -9 -21 -10t-22 6z
M668 -6q-33 20 -49.5 57.5t-16.5 75.5q0 69 50 148.5t118 119.5l6 4q-10 16 2 35q45 56 103 62q71 10 112 -70q15 -35 15 -70q0 -77 -47.5 -163.5t-96.5 -135.5q-110 -110 -196 -63zM821 100q57 57 99.5 150.5t15.5 148.5q-17 39 -49 35q-16 0 -31 -12h6q13 0 22 -9.5
t9 -21.5q-2 -12 -11.5 -21.5t-21.5 -9.5q-59 3 -127 -77q-32 -36 -50.5 -79t-18.5 -77q0 -24 9.5 -47t26.5 -33q42 -25 121 53z" />
    <glyph glyph-name="ampersand" unicode="&#x26;" horiz-adv-x="1425" 
d="M340 309q56 73 184 164l113 78l43 31l-10 26q-43 111 -43 203q0 37 10 82q21 85 73.5 128.5t118.5 43.5q29 0 62 -10q51 -18 83 -60t32 -98q0 -60 -35 -117q-58 -98 -187 -198l-26 -21l12 -26q62 -118 158 -232l6 -4l16 12q129 91 207 178q7 10 20.5 11.5t22.5 -6.5
q22 -22 2 -43q-79 -91 -215 -191l-12 -8l47 -45q99 -89 184 -125q12 -5 17.5 -16t1.5 -23t-16.5 -17.5t-24.5 -0.5q-120 49 -250 182l-10 10l-4 -2q-118 -78 -209 -121q-147 -75 -256 -84q-85 -7 -127.5 35t-42.5 109q0 84 55 155zM449 70q93 9 235 77q56 29 135 76l64 41
l-47 55q-71 93 -123 191l-6 14l-35 -24q-96 -67 -111 -78q-125 -89 -172 -150q-45 -57 -45 -116q0 -41 26 -65t79 -21zM731 618l17 13q119 93 170 180q26 48 26 86q0 37 -20.5 63t-53.5 37q-52 17 -102.5 -10.5t-69.5 -107.5q-8 -31 -8 -72q0 -66 27 -152z" />
    <glyph glyph-name="quotesingle" unicode="'" horiz-adv-x="616" 
d="M236 858q-10 26 16 41q16 3 31 27q16 24 16 59q-1 12 8 21.5t21 9.5q13 0 21.5 -9t10.5 -22q0 -53 -26 -94q-21 -34 -58 -49q-12 -5 -24 -0.5t-16 16.5z" />
    <glyph glyph-name="parenleft" unicode="(" horiz-adv-x="1144" 
d="M573 -545q-303 303 -303 682q0 293 176 590q165 282 436.5 504.5t524.5 302.5q12 4 24 -2.5t15 -18.5q4 -12 -2.5 -22.5t-18.5 -15.5q-156 -49 -326.5 -159t-331 -273.5t-267.5 -346.5q-166 -286 -166 -557q0 -357 284 -641q8 -8 8 -21t-8 -22q-9 -9 -22.5 -9t-22.5 9z
" />
    <glyph glyph-name="parenright" unicode=")" horiz-adv-x="1230" 
d="M53 -391q-3 12 4 23t19 14q264 74 493.5 304.5t348.5 528.5q96 242 96 463q0 378 -271 598q-9 8 -10 21t6 22q8 11 21 12t22 -8q150 -122 221.5 -288t71.5 -359q0 -232 -100 -483q-82 -202 -215 -379.5t-307.5 -308t-360.5 -181.5q-12 -4 -23 2.5t-16 18.5z" />
    <glyph glyph-name="asterisk" unicode="*" horiz-adv-x="395" 
d="M86 645q-9 6 -11.5 16t3.5 19q12 21 45 59q-14 2 -41 2q-9 0 -17 7t-8 16q0 11 7.5 19t17.5 8q13 0 63 -5q-10 31 -20 43q-6 8 -5 18.5t9 16.5q21 14 35 -6q5 -7 26 -49l17 14q34 25 47 29q26 7 33 -14q6 -21 -17 -33q-4 0 -32 -21l-9 -6l74 -8q9 -2 15.5 -10.5
t5.5 -18.5q-2 -9 -10 -15t-17 -5l-84 8l4 -6l12 -37q5 -9 1 -19.5t-13 -13.5q-9 -4 -18.5 0t-12.5 13q-7 13 -16 43l-4 6q-25 -28 -47 -60q-11 -21 -33 -10z" />
    <glyph glyph-name="plus" unicode="+" horiz-adv-x="882" 
d="M338 215q-10 7 -16 19t0 22q15 35 63 119q-74 0 -125 2q-32 0 -35 26q0 11 9 22t20 11q5 0 28.5 1t39.5 1q14 0 46 -1t52 -1l82 142q6 10 19 13t22 -5q11 -6 14 -18.5t-4 -22.5l-61 -111q25 0 68.5 -2t60.5 -2q13 0 21.5 -10.5t6.5 -22.5q0 -13 -10 -20.5t-23 -7.5
q-39 0 -88.5 1t-72.5 1q-11 -18 -37 -64.5t-41 -73.5t-39 -18z" />
    <glyph glyph-name="comma" unicode="," horiz-adv-x="587" 
d="M342 2q-6 17 3 26.5t21.5 16t12.5 14.5q-2 3 -4 7q-5 9 -1.5 21t13.5 19t24.5 4t20.5 -14q19 -29 -4 -73q-18 -27 -49 -37q-28 -7 -37 16z" />
    <glyph glyph-name="hyphen" unicode="-" horiz-adv-x="933" 
d="M225 403q0 11 9 22t20 11q6 0 25.5 1t33.5 1q136 0 308 -8q13 0 21.5 -10.5t6.5 -22.5q0 -13 -10 -20.5t-23 -7.5q-70 1 -165 3.5t-191 4.5q-32 0 -35 26z" />
    <glyph glyph-name="period" unicode="." horiz-adv-x="565" 
d="M348 66q-14 14 -14 34t14 33t33 13t33 -13t14 -33t-14 -34t-33 -14t-33 14z" />
    <glyph glyph-name="slash" unicode="/" horiz-adv-x="1204" 
d="M268 -205q-9 8 -11 21t5 22q121 165 644.5 731.5t695.5 728.5q9 9 21.5 9t21.5 -9t9 -22.5t-9 -20.5q-172 -166 -693.5 -729t-640.5 -723q-8 -11 -20 -13t-23 5z" />
    <glyph glyph-name="zero" unicode="0" horiz-adv-x="649" 
d="M82 20q-49 26 -70 84.5t-14 118.5q10 125 123 279t244 223l14 6h-10q-5 0 -13 4q-9 6 -9.5 18.5t7.5 22.5q84 99 174 115q119 23 166 -94q17 -46 17 -84q0 -88 -54 -204.5t-118.5 -205t-124.5 -147.5q-153 -150 -267 -150q-37 0 -65 14zM375 195q95 95 183.5 246.5
t88.5 260.5q0 41 -10 64q-35 79 -107 65q-70 -16 -129 -88l-8 -6l13 4q45 17 75 19q13 0 22 -8.5t7 -20.5q-3 -13 -13.5 -23t-21.5 -10q-76 -4 -172.5 -82.5t-166.5 -188.5t-79 -200q-12 -120 52 -151q37 -21 105.5 3.5t160.5 115.5z" />
    <glyph glyph-name="one" unicode="1" horiz-adv-x="460" 
d="M-59 -41q-12 6 -15 17.5t4 23.5q117 205 506 766l-10 -6q-34 -22 -96.5 -66.5t-77.5 -54.5q-30 -15 -43 8q-6 9 -2 22.5t16 20.5q25 17 87 61t111 74t99 49q22 8 34 -9t-1 -36q-432 -615 -569 -854q-7 -12 -20 -16.5t-23 0.5z" />
    <glyph glyph-name="two" unicode="2" horiz-adv-x="606" 
d="M412 2q-19 23 -88 37q-56 12 -164 16q-156 3 -275 -16h-2l-6 -2l-16 -4q-19 -3 -28 10.5t-2 29.5t26 21l22 4l8 2q136 39 340 170q117 75 203.5 152.5t114.5 138.5q33 70 33 125q0 78 -66 105q-28 14 -76 14q-102 0 -217 -72q-12 -8 -24.5 -6t-18.5 12q-6 11 -2.5 23
t14.5 20q134 86 258 86q51 0 99 -20q94 -42 94 -154q0 -73 -37 -151q-36 -75 -130.5 -160t-215.5 -162q-69 -45 -170 -98l-25 -12h97q242 -8 293 -74q20 -28 -2 -42q-18 -11 -33 2z" />
    <glyph glyph-name="three" unicode="3" horiz-adv-x="669" 
d="M160 -4q-80 7 -147.5 43.5t-98.5 83.5q-8 10 -5 23t15 20q11 9 23 8t20 -10q23 -38 81 -69.5t126 -37.5q171 -11 279 146q30 47 30 90q0 50 -41 104q-37 42 -90 65.5t-104 20.5q-26 -1 -29 22q-2 25 20 36q6 3 13 4q54 8 130 35.5t140 64.5q81 51 104 83q24 32 11 63
q-5 11 -37 16q-42 7 -90 -2q-56 -9 -103.5 -31t-70.5 -51q-9 -11 -22.5 -13t-22.5 5q-9 6 -9 19.5t9 23.5q35 42 94 69t121 37q34 6 69 6q98 0 119 -47q25 -55 -13.5 -111t-119.5 -106q-83 -50 -182 -84q70 -30 113 -82q53 -63 53 -139q0 -66 -41 -127q-69 -101 -159 -143
t-185 -35z" />
    <glyph glyph-name="four" unicode="4" horiz-adv-x="622" 
d="M154 -16q-12 3 -17.5 13.5t0.5 22.5q10 24 99 170l96 144q-37 -2 -115 -2q-172 0 -221 37q-13 8 -11.5 23t15.5 26q83 66 231 199t263 243q8 9 21 10t24 -6q16 -19 -7 -45q-235 -227 -452 -405l-10 -6l14 -5q44 -10 143 -10q101 0 146 2l57 84q52 78 111.5 165t103 149.5
t51.5 74.5q6 12 20 16.5t23 -1.5q11 -6 13.5 -17.5t-4.5 -23.5q-105 -149 -269 -391l-35 -52h31q12 0 19.5 -8.5t7.5 -21.5q-5 -12 -16 -21.5t-23 -9.5q-39 0 -62 -2l-112 -170q-78 -125 -94 -160q-6 -12 -18 -18.5t-23 -3.5z" />
    <glyph glyph-name="five" unicode="5" horiz-adv-x="565" 
d="M-100 287q1 12 13 21t24 7q12 0 19 -9t5 -21q-8 -36 -8 -74q0 -80 45 -120t117 -42q88 -2 171.5 49.5t119.5 137.5q24 62 24 112q0 92 -70.5 143t-173.5 46l-41 -2h-2q-14 -3 -24 4q-10 11 -7 25.5t15 23.5l4 2l2 2q22 22 84 104q95 125 107 148l4 8q3 11 15.5 18.5
t23.5 3.5q44 -10 126.5 -13.5t131.5 -0.5q13 0 22 -7.5t8 -18.5q-2 -14 -11 -23.5t-21 -9.5q-40 -4 -80 -4q-97 0 -170 12l-4 2q-11 -21 -46 -70t-57 -75l-30 -39l-23 -27l27 -2q116 -3 184 -70t68 -172q0 -66 -29 -137q-45 -109 -149.5 -171.5t-211.5 -59.5
q-92 2 -152.5 57.5t-60.5 157.5q0 27 11 84z" />
    <glyph glyph-name="six" unicode="6" horiz-adv-x="591" 
d="M-4 164q-9 66 14 143t70 146q80 117 274 276q68 57 135 103.5t93 58.5q12 6 24.5 2t16.5 -16q4 -10 -2.5 -22.5t-18.5 -18.5q-48 -19 -213 -152q-103 -86 -178 -164l-10 -10q83 39 151 39q37 0 76 -17q104 -53 109 -180q4 -73 -27 -140.5t-82 -113.5t-114 -72.5
t-124 -25.5q-88 3 -137 47.5t-57 116.5zM475 342q-5 94 -80 135q-63 31 -172 -22q-10 -5 -22.5 -0.5t-16.5 14.5q-4 8 -2 12l2 11l-4 -5q-48 -61 -49 -63q-42 -62 -61.5 -127t-12.5 -117q10 -116 144 -119q65 -2 129.5 34t106.5 103t38 144z" />
    <glyph glyph-name="seven" unicode="7" horiz-adv-x="544" 
d="M-33 27q23 75 109 200.5t200 259.5q164 193 293 301l21 15q-55 -2 -182 -2q-121 0 -162 6q-12 2 -18.5 12t-2.5 23q3 12 15 20t24 6q53 -6 139 -6q47 0 151 2.5t138 1.5q22 -2 24 -24t-20 -33q-56 -29 -160 -128t-214 -228q-113 -132 -195 -251.5t-102 -183.5
q-3 -12 -14 -19.5t-23 -6.5q-12 2 -18 12t-3 23z" />
    <glyph glyph-name="eight" unicode="8" horiz-adv-x="622" 
d="M166 -8q-65 6 -116 40t-68 83q-44 112 122 262q60 54 146 117l29 22q-12 14 -27 37q-31 54 -31 102q0 56 34 105t89 80q70 39 148 39q89 0 137 -60v-4q22 -40 22 -92q0 -71 -43.5 -141.5t-118.5 -110.5q-25 -16 -40 10q-4 10 0.5 22.5t15.5 18.5q74 40 105.5 111t9.5 133
l-7 12l-14 17q-27 22 -78 22q-55 0 -112 -31q-84 -48 -84 -120q0 -39 22 -76l23 -35h2l28 20l33 25q12 7 24.5 6t18.5 -10q7 -11 3.5 -23t-15.5 -20l-59 -45l16 -23q44 -66 53 -86q47 -88 47 -155q0 -63 -37 -111q-57 -80 -130 -114t-148 -27zM397 164q21 30 21 69
q0 59 -39 132l-33 55l-35 49l-30 -20q-93 -70 -138 -113q-131 -118 -104 -191q13 -35 52 -61.5t93 -30.5q124 -11 213 111z" />
    <glyph glyph-name="nine" unicode="9" 
d="M-8 8q-3 10 3 22.5t17 18.5q52 21 221 154q92 68 189 162l24 28l-4 -2q-100 -41 -192 -22q-61 13 -98 57.5t-37 116.5q0 97 55 178.5t135.5 124t161.5 39.5q88 -1 136 -46t54 -118q4 -65 -23 -142t-79 -147q-92 -121 -289 -274q-165 -130 -235 -164q-28 -12 -39 14z
M483 473q9 9 23 4l10 -2l10 19q77 117 68 213q-10 113 -139 116q-64 2 -128 -31.5t-107.5 -98t-43.5 -140.5q0 -102 98 -123q44 -11 100.5 0.5t108.5 42.5z" />
    <glyph glyph-name="colon" unicode=":" horiz-adv-x="995" 
d="M512 434q-14 14 -14 34t14 34t33 14t33 -14t14 -34t-14 -34t-33 -14t-33 14zM389 66q-13 14 -13 34t13 33t33 13t33 -13t13 -33t-13 -34t-33 -14t-33 14z" />
    <glyph glyph-name="semicolon" unicode=";" horiz-adv-x="1003" 
d="M512 434q-14 14 -14 34t14 34t33 14t33 -14t14 -34t-14 -34t-33 -14t-33 14zM342 2q-6 17 3 26.5t21.5 16t12.5 14.5q-2 3 -4 7q-5 9 -1.5 21t13.5 19t24.5 4t20.5 -14q19 -29 -4 -73q-18 -27 -49 -37q-28 -7 -37 16z" />
    <glyph glyph-name="less" unicode="&#x3c;" horiz-adv-x="878" 
d="M621 715q11 7 23 4t18 -14q6 -10 2.5 -22.5t-13.5 -18.5q-47 -28 -197 -122.5t-243 -148.5q32 -24 179 -114.5t208 -151.5q9 -9 9 -21.5t-9 -21.5t-21.5 -9t-21.5 9q-61 60 -220 156t-208 147q-12 12 -6.5 27.5t22.5 23.5q77 34 153.5 78t175 106.5t149.5 92.5z" />
    <glyph glyph-name="equal" unicode="=" horiz-adv-x="878" 
d="M266 485q0 11 9 22t20 11q6 0 25.5 1t33.5 1q136 0 308 -8q13 0 21.5 -10.5t6.5 -22.5q0 -13 -10 -20.5t-23 -7.5q-70 1 -165 3.5t-191 4.5q-32 0 -35 26zM225 301q0 11 9 22t20 11q6 0 25.5 1t33.5 1q136 0 308 -8q13 0 21.5 -10.5t6.5 -22.5q0 -13 -10 -21t-23 -8
q-70 1 -165 3.5t-191 4.5q-13 0 -23.5 7t-11.5 20z" />
    <glyph glyph-name="greater" unicode="&#x3e;" horiz-adv-x="839" 
d="M156 109q-7 28 20 38q123 36 459 201l31 17l-25 12q-52 32 -127 84q-150 102 -213 157q-9 9 -9.5 22t7.5 22q9 9 21.5 10t21.5 -6q70 -61 207 -156l123 -80q57 -33 69 -33q23 -1 28 -24.5t-15 -32.5q-132 -68 -303 -147.5t-256 -104.5q-12 -3 -23.5 3t-15.5 18z" />
    <glyph glyph-name="question" unicode="?" horiz-adv-x="1058" 
d="M432 238q-11 5 -16 15.5t2 22.5q48 82 129 139t158 84t178 69t168 89q73 49 73 150q0 52 -23.5 104.5t-65.5 96t-110 71t-149 27.5q-42 0 -67 -4q-126 -17 -206.5 -84t-109.5 -152q-10 -31 -10 -75q0 -37 8 -58q21 -55 76 -61q27 -7 27 -35q-2 -13 -12 -21.5t-23 -5.5
q-91 12 -125 101q-15 38 -15 77q0 41 17 97q33 103 126.5 180t237.5 98q25 4 74 4q94 0 173.5 -33t130.5 -85.5t79.5 -116.5t28.5 -129q0 -129 -99 -197q-60 -41 -137 -75t-141.5 -57t-128 -50.5t-117.5 -70t-90 -101.5q-4 -12 -16.5 -16t-24.5 2zM342 84q2 2 2 6q2 3 4 9
t4 7q0 1 8 17q2 7 8.5 16t6.5 11q6 10 19.5 13t23.5 -3q11 -8 13.5 -20t-5.5 -23l-12 -23q-6 -12 -6 -14q-5 -2 -5 -6v-2q-3 -12 -13.5 -18.5t-22.5 -4.5q-12 1 -19.5 12t-5.5 23z" />
    <glyph glyph-name="at" unicode="@" horiz-adv-x="1226" 
d="M301 -164q-95 22 -158 84t-63 156q0 36 12 80q35 132 157.5 239t275.5 162t298 55q26 0 66 -4q146 -14 233 -92q70 -63 70 -151q0 -39 -16 -89q-27 -78 -89 -134.5t-131.5 -81.5t-138.5 -25q-38 0 -76 10q-35 10 -51.5 33.5t-11.5 54.5q0 13 6 25l6 14l-82 -43
q-112 -57 -174 -74q-40 -14 -74 -14q-41 0 -63 25q-25 28 -25 59q0 29 21 61q35 53 113 93q100 51 208 51q69 0 142 -25l22 -8q23 14 47 33l11 10q2 0 3.5 1t2.5 1v2q23 17 42 -5.5t-3 -41.5l-13 -12h-2q-58 -52 -92 -95q-34 -40 -37 -65q0 -15 23 -21q32 -8 57 -8
q89 0 178.5 53.5t122.5 147.5q12 37 12 65q0 63 -49 109q-72 63 -198 76q-20 2 -60 2q-135 0 -276 -51t-252 -147t-143 -212q-9 -35 -9 -63q0 -71 47 -116.5t125 -63.5q45 -11 101 -11q70 0 130.5 19.5t92.5 54.5q9 9 22.5 10t22.5 -8t9 -21.5t-9 -21.5q-41 -46 -113 -70
t-155 -24q-60 0 -115 12zM416 115q65 17 164 67q52 26 129 72h2l-41 10q-128 18 -236 -39q-68 -35 -90 -71q-19 -31 -2 -48q4 -2 18 -2q24 0 56 11z" />
    <glyph glyph-name="A" unicode="A" horiz-adv-x="1632" 
d="M993 -389q8 302 -166 616l-2 2l-43 9q-83 15 -182 47l-51 16l-686 -500q-348 -224 -477 -209q-11 -2 -21.5 7t-11.5 22q-3 13 5 26t21 9q85 -29 431 186q15 9 22 13l649 471l-37 16q-181 82 -274.5 187t-56.5 188q41 90 139 90q44 0 96 -19q149 -51 314 -227q4 -5 38 -45
l15 -16l1282 968l2 2h4v3l4 2q24 14 40.5 -10.5t-7.5 -41.5l-6 -6h-2q-19 -15 -43 -51q-40 -53 -91 -133q-126 -193 -260 -438q-107 -190 -229 -424l-55 -113q272 18 415 55q11 5 22.5 -1t14.5 -19q4 -10 -1.5 -22t-16.5 -15q-152 -41 -465 -61l-63 -134
q-110 -228 -207 -460q-6 -16 -21 -19.5t-27.5 5t-11.5 24.5zM1204 90l51 103l-24 2q-177 0 -311 20l-17 2l10 -18q96 -200 127 -385l9 -66l12 29q68 157 143 313zM1231 256h53l72 141q147 286 227 428q171 301 264 443l13 18l-1108 -833l24 -35q38 -50 72 -105l18 -28h-6
q179 -29 371 -29zM729 383l-27 33l-94 -70l8 -4l117 -31l51 -10l-22 33zM516 379l23 -8l125 92l-9 12l-39 43q-155 166 -288 213q-41 14 -74 14q-63 0 -84 -55q-12 -12 -0.5 -47.5t47.5 -75.5q82 -92 252 -168q12 -7 47 -20z" />
    <glyph glyph-name="B" unicode="B" horiz-adv-x="1955" 
d="M268 -426q-32 32 -32 74q0 55 51 112q86 99 303 199q11 6 90 41l92 125q109 147 270 354q-90 8 -147 25q-68 18 -96 51q-44 47 -15 109q46 101 258 108q100 0 211 -27q231 289 467 562q-64 6 -137 6q-182 0 -364 -33q-171 -30 -329 -85t-299.5 -135t-250.5 -191
t-166 -242q-39 -91 -39 -183q0 -95 43 -163q62 -95 174 -95q47 0 97 17q12 3 22.5 -3t13.5 -18q5 -11 -0.5 -23t-17.5 -16q-59 -20 -115 -20q-71 0 -129.5 33t-95.5 92q-53 83 -53 196q0 105 45 207q61 141 176.5 260t264 202t310.5 139.5t336 86.5q179 33 371 33
q119 0 195 -10q136 153 180 184q11 7 23 5t20 -13q8 -9 6 -22.5t-12 -20.5q-46 -34 -146 -143q138 -24 235.5 -74t137.5 -123q31 -57 31 -108q0 -83 -70 -166q-91 -110 -297 -209q-65 -31 -197 -78l-77 -25q56 -54 89 -135.5t21 -179.5l105 16q142 21 252 29q12 3 22 -5
t10 -20q3 -12 -4.5 -22t-19.5 -12q-223 -24 -371 -47l-6 -3l-4 -16q-26 -80 -74 -158q-97 -160 -284 -282.5t-402 -186.5q-199 -61 -371 -61q-203 0 -301 88zM565 -201q0 1 1 4t1 4q3 32 47 95q-189 -82 -284 -181q-17 -22 -25.5 -37t-9 -33t15.5 -32q75 -72 256 -72
q166 0 355 58q210 64 387 180t264 264q31 49 57 113l6 18l-37 -4q-540 -97 -880 -229q-5 -9 -18.5 -28.5t-18.5 -29.5q-48 -74 -55 -94l-2 -10q-7 -18 -29 -18q-13 2 -22 10.5t-9 21.5zM1423 688q18 -8 51.5 -26.5t41.5 -22.5l32 -23l15 2q167 52 290 109q196 96 277 195
q55 64 55 125q0 35 -22 77q-36 65 -132 109t-237 65q-195 -223 -475 -571q23 -7 104 -39zM1587 236l68 10q12 105 -25 181t-94 122l-59 -14q-211 -53 -357 -56q-187 -237 -299 -391l-37 -51q323 117 803 199zM1042 711q-83 -3 -135.5 -23t-66.5 -51q-12 -24 2 -41
q17 -17 69 -33q78 -27 181 -22l108 137l12 14q-93 19 -170 19zM1462 594l6 2l-28 14q-7 5 -22.5 13t-18.5 10q-92 36 -121 43q-28 -34 -29 -35l-80 -98q150 14 293 51z" />
    <glyph glyph-name="C" unicode="C" horiz-adv-x="1705" 
d="M217 -463q-178 112 -166 375q7 153 68 313t159 302t226 273.5t269 234t289.5 177.5t285.5 111q128 35 254 35q79 0 153 -19q96 -26 151.5 -90.5t55.5 -167.5q0 -98 -60.5 -203.5t-153 -194.5t-206 -169.5t-217.5 -136t-188 -86.5q-12 -4 -23 1t-16 17q-4 12 1 23t17 16
q69 25 152 68t171.5 99.5t170.5 125.5t147.5 140.5t104.5 150t39 149.5q0 155 -162 199q-55 16 -137 16q-109 0 -240 -32q-132 -35 -275 -108t-279 -172t-259.5 -226t-218 -263t-152.5 -289t-65 -298q-11 -227 137 -320q92 -57 244 -57q56 0 131 10q229 36 472.5 165.5
t395.5 301.5q7 9 20.5 9.5t22.5 -7.5q22 -22 2 -43q-160 -180 -412.5 -314.5t-492.5 -170.5q-73 -12 -144 -12q-164 0 -272 67z" />
    <glyph glyph-name="D" unicode="D" horiz-adv-x="1982" 
d="M35 -412q-15 34 -15 58q0 71 78 143q111 100 344 180l72 25l66 84q227 296 477 592q328 395 524 614q-131 35 -283 35q-164 0 -333 -40t-320 -113t-273.5 -185t-185.5 -246q-36 -71 -36 -160q0 -126 82 -213.5t206 -87.5q28 0 78 11q13 3 24.5 -4t14.5 -19t-4 -23
t-19 -14q-50 -12 -96 -12q-151 0 -249.5 107.5t-98.5 259.5q0 96 41 182q67 142 196 260.5t288.5 196t338 120.5t351.5 43q180 0 325 -45q191 210 256 260q10 8 23.5 6t19.5 -12q8 -10 6 -23t-12 -20q-65 -51 -229 -233q188 -74 288 -221q78 -121 78 -260q0 -142 -74 -295.5
t-206 -300.5l-39 -43l22 2l271 16q12 0 21 -9t9 -22q1 -12 -7.5 -21t-20.5 -9l-269 -17l-92 -6l-22 -23q-230 -216 -504 -364q-173 -94 -354.5 -154.5t-341.5 -83.5q-79 -12 -156 -12q-213 0 -260 96zM1634 186l13 2h2q161 161 253.5 329t92.5 319q0 120 -66 223
q-96 140 -282 207q-227 -254 -543 -635q-285 -342 -475 -590q-9 -9 -15 -18q392 109 1020 163zM348 -262q0 1 1 3t1 3q9 36 72 123l29 41q-219 -76 -310 -164q-79 -71 -51 -129q20 -39 107 -53q40 -6 92 -6q59 0 151 10q342 47 676 229q241 129 447 314l12 10l-55 -4
q-577 -57 -969 -172l-80 -113q-54 -80 -61 -100l-4 -11q-6 -16 -29 -16q-13 1 -22 12t-7 23z" />
    <glyph glyph-name="E" unicode="E" horiz-adv-x="1783" 
d="M180 86q98 113 250 215t326 174l10 2l-6 4q-143 99 -148 244q-5 106 43.5 203t136 170t194 127.5t226.5 87.5q161 45 318 45q161 0 280.5 -51t163.5 -154q15 -38 15 -70q0 -93 -93 -159q-64 -47 -133 -47q-42 0 -67 22q-10 7 -12 20.5t6 22.5q7 10 20 12t23 -6
q11 -14 51.5 -7.5t77.5 32.5q77 56 63 133l-6 24l-18 29q-43 66 -140.5 100.5t-226.5 34.5q-149 0 -303 -43q-117 -31 -218.5 -82t-179.5 -117t-120.5 -150.5t-38.5 -174.5q6 -133 149 -211l19 -10l32 12q201 65 326 78q54 4 80 4q147 0 180 -76q0 -1 1 -3t1 -3
q8 -53 -35 -90q-33 -28 -94 -45q-60 -14 -145 -14q-78 0 -137 10q-112 15 -187 49l-26 10l-60 -20q-171 -68 -317 -168.5t-238 -210.5q-108 -128 -108 -234q0 -85 69.5 -147t173.5 -90t224 -27q264 0 516.5 99.5t455.5 310.5q9 9 22 8.5t21 -8.5q9 -7 9.5 -20.5t-7.5 -22.5
q-213 -220 -478 -324t-541 -104q-145 0 -264.5 37.5t-193 112.5t-73.5 173q0 135 131 283zM1319 444q47 11 70 31q12 9 12 23l2 4l-6 8q-29 29 -117 29q-45 0 -74 -4q-116 -13 -254 -56l-26 -10l26 -6q86 -23 109 -27q59 -6 110 -6q91 0 148 14z" />
    <glyph glyph-name="F" unicode="F" horiz-adv-x="1703" 
d="M199 430q-93 133 -93 277q0 118 61 223.5t167 175.5q100 66 217.5 109.5t246.5 63.5t239.5 27t250.5 7q34 0 98.5 -1t94.5 -1q164 -4 282 -11q134 157 187 191q29 11 43 -12q8 -9 5 -22t-13 -19q-43 -29 -144 -142q85 -6 309 -24t372 -26.5t274 -8.5q136 0 219 10
q14 2 25 -5.5t12 -20.5q0 -12 -9 -22.5t-20 -10.5q-85 -10 -225 -10q-172 0 -548.5 27.5t-459.5 31.5q-54 -61 -107 -125q-233 -284 -485 -618q-17 -21 -59 -78q238 4 377 4h155q12 0 21 -10t8 -23q1 -12 -8.5 -20.5t-22.5 -8.5q-42 0 -117 1t-110 1q-180 0 -350 -6
q-253 -342 -359 -493q-35 -109 -104 -212.5t-148 -166.5v-2q-6 -15 -28 -15q-12 2 -21 12.5t-8 22.5q2 2 2 6q2 10 11.5 27t31.5 48.5t31 45.5q65 103 151 221q3 4 13.5 21t17.5 25q2 9 6.5 30t5.5 31q17 130 -38.5 229.5t-153.5 132.5h-4q-18 -6 -29 13q-2 2 -2 4t-1 5
t-1 5q-1 12 8 21.5t21 11.5q352 30 567 37l88 116q304 399 485 619l78 92q-71 4 -209 8q-36 0 -108.5 1t-108.5 1q-287 0 -505.5 -37.5t-401.5 -150.5q-95 -58 -152 -153t-57 -203q0 -122 78 -240q29 -43 0 -55q-21 -9 -40 6q-6 6 -9 12zM612 326q78 -59 115.5 -144.5
t34.5 -175.5l252 344q-181 -6 -402 -24z" />
    <glyph glyph-name="G" unicode="G" horiz-adv-x="1705" 
d="M590 344q-3 12 4.5 23t19.5 14q610 102 1076 102q75 0 112 -2q14 0 23.5 -8t9.5 -20q-1 -13 -11.5 -22t-23.5 -11q-17 0 -52 1t-54 1q-18 0 -56 -1t-57 -1l-2 -4q-46 -94 -199 -234l-6 -6l-24 -31q-30 -36 -127 -163q-352 -469 -539 -842q-4 -10 -17 -14t-22 2
q-12 6 -16 17.5t2 23.5q174 350 508 802l26 35l-24 -18q-171 -117 -221 -146q-391 -233 -629 -233q-113 0 -182 55q-91 73 -91 219q0 161 100.5 369.5t250.5 380.5l55 61q144 166 335.5 302.5t366 215t332.5 113.5q96 21 174 21q189 0 289 -105q53 -56 53 -135q0 -35 -8 -62
q-32 -108 -154 -208.5t-315 -167.5q-12 -5 -24 0.5t-15 17.5q-4 12 1.5 23t17.5 16q183 66 293.5 156.5t136.5 179.5q23 82 -31 139q-76 84 -236 84q-76 0 -161 -18q-149 -31 -319 -107t-359 -210t-332 -298q-111 -116 -202 -259t-140 -279q-47 -130 -47 -232
q0 -117 65 -170q52 -43 144 -43q221 0 598 228q221 131 409 294l33 29h2q65 83 78 98t31.5 37t31.5 37.5t23 26.5q-400 -19 -870 -101q-11 -1 -21.5 7.5t-13.5 19.5z" />
    <glyph glyph-name="H" unicode="H" horiz-adv-x="1705" 
d="M184 -438q-11 8 -13 20t5 23q48 71 110.5 159t166.5 230t147 201q-283 -21 -504 -50q-12 -3 -22 5t-13 20q-2 12 6.5 23t20.5 12q213 29 559 55q160 226 244 356q191 295 258 480q36 104 31 159q-3 57 -43 78q-53 27 -129 27q-108 0 -248.5 -49t-274.5 -133
q-187 -118 -291 -256t-73 -244q4 -12 -2.5 -24t-18.5 -15t-23 2.5t-14 17.5q-10 38 -10 70q0 124 114 257.5t286 242.5q137 86 284.5 139t268.5 53q96 0 159 -35q78 -41 78 -145q0 -115 -83 -282t-218 -375q-103 -158 -215 -318q297 22 647 39l8 12q107 171 272.5 425.5
t258.5 390.5q210 304 278 354q9 7 22 5t21 -11q7 -11 5 -23t-13 -20q-65 -52 -262 -340q-200 -293 -516 -789q77 4 204.5 10t174.5 9q12 0 21.5 -9t9.5 -22q1 -12 -8 -21.5t-21 -9.5l-420 -20q-202 -321 -358 -598q-60 -104 -125 -223q-47 -92 -47 -107h-2l-3 -10
q-8 -19 -28 -19q-12 0 -20.5 9.5t-8.5 21.5v6q2 23 53 127q58 111 127 225q118 212 338 564q-282 -13 -655 -41q-64 -90 -228.5 -315t-226.5 -316q-6 -10 -19 -12t-22 4z" />
    <glyph glyph-name="I" unicode="I" horiz-adv-x="1531" 
d="M659 1196q-2 12 6 23t21 12q389 60 936 104q44 44 74 64q9 7 22 5t21 -13q5 -9 1.5 -22.5t-14.5 -20.5l-6 -5q380 28 684 43q14 0 23.5 -8t9.5 -20q1 -13 -8 -23t-21 -10q-352 -19 -757 -49q-69 -77 -207 -248q-32 -41 -90 -114t-89 -113t-83.5 -109.5t-108.5 -146.5
q-205 -282 -422 -608q-99 -153 -139 -218q-43 -74 -51 -92q242 34 370 45q319 29 506 29q143 0 238 -14q12 -3 19 -13t5 -22q-1 -13 -11.5 -21t-22.5 -6q-99 15 -238 15q-209 0 -489 -29q-210 -21 -570 -73.5t-504 -82.5q-12 -2 -22.5 5.5t-11.5 19.5q-3 12 3.5 23t18.5 14
q138 29 643 102q2 2 2 4v6q4 24 62 123q67 109 141 217q163 246 424 613q56 78 108.5 147.5t81.5 106.5t90.5 115t90.5 114q92 118 168 203q-529 -46 -869 -99q-12 -2 -23 6.5t-12 20.5z" />
    <glyph glyph-name="J" unicode="J" horiz-adv-x="1376" 
d="M-1047 -1182l-4 2q-94 67 -94 172q0 92 72 193q148 205 518 416q281 162 646 302.5t763 233.5l47 66q224 318 354 569q104 198 142 340q29 118 -4 137q-53 27 -129 27q-108 0 -248.5 -49t-274.5 -133q-187 -118 -291 -256t-73 -244q4 -12 -2.5 -24t-18.5 -15
q-12 -4 -23 2t-14 18q-10 38 -10 70q0 124 114 257.5t286 242.5q137 86 284.5 139t268.5 53q98 0 159 -34q49 -26 49 -105q0 -39 -14 -100q-35 -142 -145 -355q-140 -267 -359 -577l-8 -10l49 10q224 47 422 72q13 1 23 -7t12 -20t-6.5 -23t-20.5 -12q-217 -28 -417 -70
l-115 -24l-29 -39q-119 -160 -192 -248q-137 -167 -277 -314.5t-296 -282.5t-303.5 -231t-299.5 -153t-285 -57q-143 0 -256 61zM623 -166q49 62 96 123l80 102l-66 -16q-357 -91 -680 -220t-577 -276q-367 -211 -498 -399q-63 -88 -63 -156q0 -62 55 -108l14 -12h-2
q102 -54 225 -54q153 0 333 80t364.5 222.5t363.5 321t355 392.5z" />
    <glyph glyph-name="K" unicode="K" horiz-adv-x="1705" 
d="M184 -387q0 1 1 3t1 3q8 34 70 129q107 154 162 229q187 260 336 451l12 16q-102 0 -182 21q-64 14 -99 49q-44 44 -16 107q26 58 96 65q55 5 142 -29q75 -32 157 -88q257 327 462.5 571.5t272.5 297.5q11 7 23 6t20 -10q7 -11 6 -23t-10 -20q-62 -49 -261.5 -286.5
t-461.5 -569.5l13 -9l51 11q170 42 393.5 126.5t439.5 188.5q317 153 500 297q202 155 193 254q-2 12 6.5 22.5t21.5 10.5q12 1 21.5 -7t11.5 -20q10 -132 -215 -309q-203 -155 -512 -303q-217 -106 -445 -192t-403 -128h-2l25 -18q46 -40 47 -41q207 -188 369.5 -431
t214.5 -487q2 -12 -5.5 -23t-19.5 -14t-23 4t-14 19q-34 159 -123 327t-200 305t-240 253q-30 28 -92 78l-17 12l-28 -6q-24 -4 -35 -4l-47 -62q-169 -220 -334 -446q-76 -106 -158 -230q-38 -56 -63 -106l-4 -13q-10 -17 -29 -14q-13 1 -22 11t-7 22zM791 508h24q8 8 10 12
q-71 51 -141 80q-67 28 -113 25q-34 -3 -47 -29q-10 -26 6 -39q22 -22 68 -33q87 -21 193 -16z" />
    <glyph glyph-name="L" unicode="L" horiz-adv-x="1658" 
d="M1896 -668q-54 115 -331 226q-240 95 -604 161q-212 39 -396 54l-65 6l-35 -25q-153 -113 -309 -153q-45 -9 -64 -9q-46 0 -84 21q-41 27 -41 78q0 38 23 80l4 6q68 73 364 69q12 0 34.5 -1t33.5 -1l53 -4l23 19q68 57 103.5 92.5t103.5 116.5l36 45l-6 -2
q-76 -13 -135 -13q-23 0 -69 4q-155 20 -245.5 122t-109.5 280q-1 12 7 21.5t20 11.5t23 -6.5t12 -20.5q33 -310 301 -346q36 -4 59 -4q68 0 170 20l35 6l33 43q134 179 307 443q51 80 138 218.5t149 234t112 165.5q91 124 145 171q94 81 162 42q107 -68 107 -221
q0 -140 -88 -328q-86 -179 -233.5 -346.5t-327.5 -275.5q-241 -133 -430 -189l-39 -10l-17 -20q-73 -94 -109.5 -135t-103.5 -103l-45 -41h4q195 -16 400 -53q166 -30 317.5 -70.5t291.5 -93t239 -119.5t133 -139q6 -11 1.5 -23t-16.5 -18q-10 -5 -22.5 -0.5t-18.5 14.5z
M141 -340q127 34 254 119l6 4l-43 2q-132 0 -215 -12q-73 -11 -98 -33l-4 -2l-4 -12q-22 -45 4 -60q33 -22 100 -6zM1280 385q172 102 313.5 263t223.5 333q81 176 81 299t-77 170q-19 13 -54.5 -10t-72 -64.5t-61.5 -72.5t-36 -48q-50 -69 -112 -164.5t-148 -232.5
t-139 -219q-138 -213 -242 -354l-51 -70l4 2q168 55 371 168z" />
    <glyph glyph-name="M" unicode="M" horiz-adv-x="2754" 
d="M2097 -502q11 152 195 469q90 155 145.5 242t159.5 235q311 438 467 625q86 103 86 135q0 45 -164 -55q-163 -97 -389.5 -279t-403.5 -346l-127 -121l-57 -57q-20 -47 -51 -110q-121 -254 -225 -377q-60 -73 -113 -99q-71 -31 -119 19q-8 8 -8 22q0 46 59 129
q43 62 144 179q79 91 207 219l53 53l41 100q46 122 67 203q26 104 29 160t-10 69l-2 2q-39 50 -144 -4q-124 -62 -297 -235q-137 -137 -294 -328l-27 -31l-35 -53q-113 -166 -306 -415.5t-224 -292.5q-11 -17 -28 -15t-23.5 16.5t2.5 32.5q289 421 538 732l27 32l43 66
q248 386 248 635q0 105 -43 190q-70 133 -218.5 202t-336.5 69q-134 0 -271 -35q-124 -32 -230.5 -89.5t-188.5 -137t-129 -185t-46 -223.5v-29l11 -39q32 -117 127.5 -185.5t224.5 -68.5q52 0 125 17q12 3 23 -4t14 -19q4 -12 -2.5 -23t-18.5 -14q-74 -18 -141 -18
q-163 0 -279.5 93.5t-142.5 250.5v4q-9 139 40 262t140 213.5t207.5 154.5t249.5 99q139 37 289 37q132 0 246.5 -31t210.5 -100.5t149 -171.5q51 -96 51 -223q0 -186 -115 -418l-6 -12l2 2q18 20 50 52.5t42 43.5q182 182 314 248q69 32 121 32q56 0 90 -34l10 -11l6 -8
q21 -30 21 -86q0 -68 -33 -190q-21 -74 -49 -156l-11 -29l23 23l65 61q171 161 402.5 345.5t400.5 285.5q139 84 209 84q53 0 53 -47q0 -67 -100 -199q-21 -28 -99.5 -131t-130 -171t-121.5 -163t-118 -163q-113 -161 -168.5 -248t-132.5 -225q-178 -310 -190 -443
q0 -12 -10.5 -21t-22.5 -8q-12 2 -20 11.5t-7 21.5zM1593 -184q37 16 93 82q88 106 192 309l4 12l-45 -47q-65 -69 -96 -104q-85 -95 -139 -172q-34 -51 -46 -82h-2q16 -10 39 2z" />
    <glyph glyph-name="N" unicode="N" horiz-adv-x="1867" 
d="M-287 -508q-6 11 -2 23t15 18q150 80 484.5 395.5t641.5 655t395 493.5l6 13l9 18q11 32 26 53q15 22 38.5 10t14.5 -38q-3 -9 -26 -62l-4 -6l-4 -12q-178 -537 -254 -1422q203 305 369.5 539.5t331.5 442t307 354.5t282 254t270 163q12 6 24 1.5t17 -15.5
q5 -12 0.5 -24.5t-16.5 -16.5q-132 -57 -278.5 -174t-292.5 -273t-317.5 -376.5t-336.5 -455.5t-366 -539q-13 -19 -35.5 -12t-22.5 30q2 170 64 630t143 730l-45 -58q-136 -177 -410.5 -465.5t-561.5 -550t-423 -335.5q-12 -6 -24.5 -2.5t-18.5 14.5z" />
    <glyph glyph-name="O" unicode="O" horiz-adv-x="1486" 
d="M164 -500l-2 2q-144 83 -144 301q0 211 129 500l15 31l-6 18q-21 70 -21 162q0 38 2 61q14 161 102.5 318.5t214 270.5t275 180.5t281.5 60.5q42 -2 84 -12t87.5 -30t87.5 -56.5t72 -85.5q68 -113 68 -271q0 -186 -90 -440q-58 -165 -172 -342l-25 -39l25 4
q102 24 277 89.5t251 103.5q12 6 24 1.5t17 -16.5q6 -10 2 -22.5t-16 -18.5q-89 -44 -282.5 -113.5t-315.5 -95.5l-35 -6l-22 -32q-111 -148 -232 -263q-135 -130 -273 -207t-257 -77q-63 0 -121 24zM1034 111l31 43q135 200 197 376q86 245 86 420q0 147 -58 238
q-48 77 -125 113.5t-159 41.5q-119 6 -256.5 -56.5t-254 -167.5t-200 -252.5t-96.5 -297.5q-5 -57 2 -125l4 -26l6 12q116 225 266 395q181 211 318 219q12 1 21 -6.5t11 -19.5q2 -14 -6.5 -23.5t-21.5 -9.5q-53 -5 -125.5 -57t-151.5 -144q-167 -191 -289 -444l-4 -8
l15 -33q106 -201 444 -215q18 -2 60 -2q116 0 286 29zM772 -197q80 77 154 166l57 70l-59 -6q-96 -13 -179 -13q-29 0 -59 3q-263 10 -403 131q-51 45 -84 98l-4 6l-19 -47q-96 -236 -96 -406q0 -173 96 -239l14 -10q46 -19 95 -19q101 0 228.5 70.5t258.5 195.5z" />
    <glyph glyph-name="P" unicode="P" horiz-adv-x="1705" 
d="M362 -475v6q5 23 70 129q15 23 158 227q59 83 260 353q-70 10 -128 38.5t-92.5 76t-25.5 102.5q1 12 11 19t24 5q12 -1 19.5 -12t5.5 -23q-9 -54 61 -98.5t168 -52.5q22 29 81.5 106.5t92.5 120.5q366 474 608 758q-90 20 -215 20q-68 0 -139 -6q-258 -24 -523 -131
t-458 -276q-135 -119 -199.5 -236t-64.5 -213q0 -27 8 -63q18 -71 76.5 -114.5t148.5 -43.5q51 0 103 14q12 3 23 -3.5t14 -18.5t-4 -23t-19 -14q-66 -16 -117 -16q-109 0 -185 54t-99 148q-11 46 -11 78q0 113 71.5 241.5t215.5 256.5q200 176 473.5 286t540.5 136
q71 6 137 6q141 0 268 -31q128 150 178 189q9 8 23 5.5t21 -12.5q8 -9 5.5 -22.5t-12.5 -20.5q-47 -37 -151 -159q197 -73 241 -236q15 -53 15 -102q0 -96 -47 -190.5t-128 -174.5t-190.5 -149.5t-231.5 -118t-255 -77t-258 -30.5h-6q-165 -217 -283 -383
q-78 -104 -158 -225q-59 -92 -59 -106l-4 -11q-11 -19 -31 -16q-12 2 -20 11.5t-7 21.5zM1966 1059q-40 142 -225 203q-246 -286 -625 -777q-80 -103 -145 -190q179 10 360.5 71t323.5 152.5t231.5 213t89.5 243.5q0 48 -10 84z" />
    <glyph glyph-name="Q" unicode="Q" horiz-adv-x="1464" 
d="M190 -479q-1 0 -2 1t-2 1q-143 83 -143 301q0 88 25 194q-45 9 -126.5 24.5t-97.5 18.5q-13 1 -20.5 12.5t-5.5 24.5q1 12 12 18.5t23 4.5l229 -43q31 111 92 246l16 34l-8 19q-22 74 -22 155q0 18 4 64q11 129 70.5 257.5t150.5 232t199.5 183t226.5 120.5t223 36
q94 -5 184.5 -48t149.5 -136q68 -113 68 -270q0 -187 -90 -441q-58 -162 -168.5 -336t-247.5 -323q466 -136 827 -303q11 -5 16 -16.5t1 -24.5q-5 -11 -18 -15.5t-25 1.5q-366 169 -850 309l-41 -41q-135 -130 -272.5 -207.5t-256.5 -77.5q-63 0 -121 25zM862 -109
q140 149 254 324.5t172 335.5q84 237 84 418q0 149 -57 239q-48 77 -124.5 114t-158.5 42q-96 5 -204.5 -33.5t-210 -113t-186.5 -170.5t-140.5 -216t-65.5 -241q-6 -57 0 -105l6 -45l5 11q119 225 266 395q184 210 317 221q13 0 23 -8.5t12 -20.5q0 -13 -8.5 -22.5
t-20.5 -9.5q-110 -9 -276 -199q-165 -192 -291 -447l-2 -4l18 -34q14 -28 45 -62q9 -9 9 -21.5t-9 -21.5t-21.5 -8t-21.5 10l-30 33l-23 35l-22 -56q-42 -103 -58 -165q383 -79 719 -175zM799 -176q6 10 16 16q-356 101 -688 166q-23 -104 -23 -178q0 -171 99 -242l14 -10
l-2 2q41 -20 96 -20q102 0 229 70.5t259 195.5z" />
    <glyph glyph-name="R" unicode="R" horiz-adv-x="1941" 
d="M279 -479v6q4 13 14 30.5t33.5 51.5t29.5 43l174 215q96 118 371 434q-76 14 -139.5 48t-99.5 87.5t-21 112.5q23 74 76 96q23 10 63 10q35 0 68 -8q98 -25 250 -125l4 4q393 449 678 740q-146 47 -342 47q-257 2 -531 -79t-485 -230q-172 -125 -246 -254.5t-59 -231.5
q12 -79 77 -129.5t166 -50.5q30 0 68 6q12 1 23 -7t14 -20q2 -12 -6 -22.5t-21 -11.5q-47 -7 -76 -7q-125 0 -207.5 63t-99.5 169q-18 124 65.5 268t266.5 277q217 156 500.5 239.5t550.5 81.5q228 0 391 -59q116 116 166 153q26 15 45 -10q7 -9 4 -22t-12 -21
q-51 -34 -142 -125q199 -89 228 -264q6 -35 6 -68q0 -110 -62 -213t-167.5 -183t-240 -140.5t-284.5 -93.5l-12 -2l14 -13q187 -160 326 -307.5t364 -423.5q7 -9 6 -22.5t-10 -22.5q-11 -7 -24 -5.5t-19 9.5q-224 276 -360.5 421t-321.5 304l-53 43l-18 -2
q-115 -16 -213 -16q-51 0 -76 2q-290 -336 -395 -465q-92 -111 -170 -215q-65 -85 -70 -100l-4 -13q-6 -14 -29 -14q-13 3 -21 13t-5 22zM1145 489l61 -43q8 -7 27 -20t27 -20l38 -31l9 2q127 24 245.5 68t217 105.5t168.5 134t102.5 158.5t17.5 173q-27 151 -215 227
q-249 -252 -698 -754zM831 588q-31 6 -56.5 7t-45 -14.5t-27.5 -48.5q-15 -58 61.5 -112.5t184.5 -63.5l109 121q-137 87 -226 111zM1204 360l10 2l-47 35l-63 47l-80 -94q82 -3 180 10z" />
    <glyph glyph-name="S" unicode="S" horiz-adv-x="1392" 
d="M504 -403q-70 18 -132.5 46t-117.5 69.5t-95 92.5t-61.5 117.5t-19.5 140.5q0 13 8 22.5t20 8.5q32 0 29 -33q-2 -102 51 -186.5t138.5 -138t195.5 -80.5q103 -25 195 -25q113 0 205.5 33.5t138.5 95.5q33 42 33 84q0 46 -48 107q-38 50 -102 115t-124 119.5
t-125.5 123.5t-113.5 132.5t-79 141t-31 154.5q0 49 12 99q23 92 83.5 174t138 141t175 109t186.5 81t181 54q140 35 275 35q162 0 277.5 -53.5t144.5 -157.5v-5q10 -58 -9.5 -120.5t-63 -122.5t-96.5 -114t-120 -107q-33 -25 -52.5 -5t13.5 52q274 221 268 387v20l-12 25
q-33 67 -123.5 102t-220.5 35q-131 0 -266 -33q-119 -27 -235 -75t-218.5 -113t-174.5 -151.5t-93 -180.5q-9 -52 -9 -70q0 -68 30 -139.5t76 -132t109.5 -127.5t122 -121t122 -118t102.5 -113q61 -77 61 -148q0 -60 -45 -120q-58 -76 -162.5 -115t-230.5 -39
q-109 0 -211 27z" />
    <glyph glyph-name="T" unicode="T" horiz-adv-x="1329" 
d="M199 532q-93 133 -93 277q0 118 61 223.5t167 175.5q100 66 217.5 109.5t246.5 63.5t239.5 27t250.5 7q34 0 98.5 -1t94.5 -1q156 -3 368 -16q72 76 101 94q29 11 43 -12q8 -9 5 -22t-13 -19t-54 -45q63 -5 220 -17.5t239 -18.5t200.5 -12t207.5 -6q126 0 217 11
q14 2 25 -6t12 -21q0 -12 -9 -22.5t-20 -10.5q-87 -10 -227 -10q-95 0 -220.5 6t-214.5 12.5t-253 19t-232 17.5q-83 -90 -193 -223q-233 -284 -485 -618q-339 -446 -504 -682q-45 -64 -149 -218q-60 -94 -60 -102l-4 -12q-6 -15 -28 -15q-12 2 -21 12.5t-8 22.5q2 2 2 6
q4 22 68 121q65 103 151 221q165 236 504 682q304 399 485 619q79 96 162 190q-175 10 -293 13q-36 0 -108.5 1t-108.5 1q-286 0 -505 -38t-402 -151q-95 -58 -152 -153t-57 -203q0 -122 78 -240q37 -57 124 -97t193 -40q239 0 420 201q8 7 21.5 7.5t21.5 -7.5q23 -27 2 -41
q-104 -114 -225 -166.5t-242 -52.5t-220.5 45.5t-143.5 113.5z" />
    <glyph glyph-name="U" unicode="U" horiz-adv-x="1748" 
d="M1163 -743q-84 55 -84 206q0 140 64 324q38 107 100 224.5t127 207.5q-181 -160 -350.5 -283t-344.5 -207.5t-298 -84.5q-147 0 -213 116q-4 4 -4 9q-10 34 -10 86q0 298 477 817q308 336 782 733q7 9 20.5 8.5t22.5 -12.5q7 -9 6 -21.5t-10 -21.5q-494 -419 -776 -725
q-508 -555 -459 -828l4 -16l8 -14q57 -72 160 -72q325 0 1063 659l72 64l67 86q173 218 797 881q13 11 27.5 9t24 -14.5t1.5 -25.5q-79 -136 -351.5 -436.5t-516.5 -542.5l-25 -31q-245 -321 -338 -575q-24 -66 -43.5 -156t-19.5 -164q0 -118 55 -145q13 -7 16 -21t-2 -24
q-16 -26 -49 -10z" />
    <glyph glyph-name="V" unicode="V" horiz-adv-x="1261" 
d="M98 -512q-47 56 -47 197q0 163 62.5 428t147.5 513t170.5 454t135.5 280q6 11 17.5 15.5t21.5 0.5q11 -3 18 -17.5t1 -23.5q-107 -183 -227.5 -503.5t-203.5 -647.5t-83 -508q0 -102 30 -143l2 -2q30 -5 76 16t96 56t116 94t122.5 114.5t131 133.5t126 134t121.5 134
q149 165 347 415t377.5 486.5t239.5 308.5q10 10 21.5 11t21.5 -9q10 -7 12.5 -20t-5.5 -23q-64 -75 -241 -307.5t-377 -486t-349 -418.5q-18 -19 -75.5 -82.5t-98 -107.5t-108.5 -114.5t-120.5 -120t-119.5 -106t-119.5 -91.5t-107 -58t-95.5 -22q-24 0 -37 20z" />
    <glyph glyph-name="W" unicode="W" horiz-adv-x="1966" 
d="M768 -61q-149 -149 -310 -239.5t-278 -90.5q-48 0 -80 14q-116 52 -116 244q0 181 102 401q57 122 144 252.5t205.5 268t277.5 269.5t334 230q10 6 23.5 3t19.5 -13q6 -12 2 -24.5t-13 -18.5q-172 -97 -327.5 -226t-271.5 -263t-200.5 -260.5t-138.5 -243.5
q-96 -208 -96 -373q0 -74 21.5 -123.5t58.5 -64.5q50 -21 145 7t199 93q176 113 305 256l19 20l6 23l14 49q61 197 162 379.5t176 241.5q12 8 23 4q35 -3 52.5 -28.5t14.5 -61.5q-6 -59 -49 -150q-86 -177 -279 -412l-43 -51l-22 -22q-19 -78 -19 -146q0 -95 38 -156.5
t120 -70.5q111 -13 234.5 56.5t232 190t211 275t178 312t125 299.5t60.5 239q4 50 4 78q0 92 -22 167.5t-66 102.5q-11 6 -15 18t4 23q5 11 17 14t24 -4q62 -35 89.5 -125t27.5 -200q0 -30 -4 -80q-7 -76 -37.5 -180.5t-79 -223.5t-115.5 -244.5t-144 -244.5t-167.5 -222
t-182.5 -177.5t-193.5 -111.5t-196.5 -24q-77 11 -127.5 64.5t-67.5 126t-8 154.5zM1137 541q39 75 43 127q2 11 -2 20v2l-4 -4q-57 -54 -133 -187t-136 -288l-10 -33l14 17q156 199 228 346z" />
    <glyph glyph-name="X" unicode="X" horiz-adv-x="1619" 
d="M-444 -446q-16 25 4 45q544 450 1368 948q-125 281 -408 821q-13 25 12 43q12 5 24.5 1.5t16.5 -15.5q251 -473 406 -817l227 135q203 119 487.5 264t481.5 235q164 77 274 111q124 37 168 21q12 -5 18.5 -17t2.5 -22q-14 -31 -41 -21q-29 14 -131 -20q-98 -29 -264 -107
q-218 -101 -492.5 -239.5t-468.5 -255.5l-237 -142q233 -529 342 -973q3 -10 -4 -20.5t-17 -13.5q-13 -4 -25 3t-14 21q-109 434 -334 953q-836 -510 -1353 -943q-21 -17 -43 5z" />
    <glyph glyph-name="Y" unicode="Y" horiz-adv-x="1443" 
d="M313 -842q-14 6 -18.5 19.5t2.5 23.5q95 156 252.5 359.5t382 475t303.5 370.5q-20 -14 -78 -55.5t-100.5 -71.5t-112.5 -76t-126 -79.5t-128 -70.5t-132 -61t-124.5 -39.5t-118.5 -15.5q-101 0 -165 53q-72 60 -72 172q0 113 67.5 261t182.5 298q259 337 680 600
q10 6 23 3t20 -13q6 -11 3 -23t-14 -20q-44 -27 -98 -65t-154 -115t-210 -184.5t-201 -223.5q-110 -139 -175 -279t-65 -239q0 -84 51 -123q48 -37 129 -37q82 0 196.5 42.5t219.5 102t232 145t208.5 147t176.5 135.5t110 85q232 261 301 336q106 119 247 269t157 163
q5 5 14 7q9 4 23.5 -4t15.5 -25q0 -11 -4 -14q-24 -50 -159 -206.5t-275 -305.5q-167 -179 -350 -353l-17 -16l-31 -33q-123 -142 -159 -186q-154 -185 -238.5 -288.5t-219 -271t-235.5 -303t-178 -251.5q-7 -11 -19 -17.5t-20 -1.5z" />
    <glyph glyph-name="Z" unicode="Z" horiz-adv-x="1425" 
d="M1853 -526q-75 53 -185 98.5t-221.5 77t-260.5 59.5t-264 45t-271.5 33t-244 23t-221 16.5t-165.5 11.5h-10l-28 -6q-33 -8 -72 -8q-79 0 -143 41q-22 12 -13.5 35.5t33.5 19.5q65 -8 201 -18l14 -2l16 6q76 27 164 90q294 198 621 493q91 83 271 249t280 257t232.5 202
t230.5 179q-122 -4 -271 -4q-778 0 -1063 82q-12 5 -18.5 16t-3.5 23t14 18t23 2q284 -86 987 -86q210 0 444 9q17 1 24 -10.5t2 -27t-20 -24.5q-117 -71 -241.5 -166.5t-239 -197.5t-233 -214t-243.5 -229t-250.5 -228t-273.5 -225t-294 -208l-29 -15l43 -4
q443 -39 624 -62q807 -103 1090 -302q10 -6 12 -19t-4 -22q-8 -11 -21 -13t-22 5z" />
    <glyph glyph-name="bracketleft" unicode="[" horiz-adv-x="1347" 
d="M827 -371q-49 21 -163 21q-66 0 -101 -2q-177 -6 -182 -6q-86 0 -135 10q-14 2 -21.5 14t-3.5 25q6 17 19 39l12 22v2q14 31 76 131q20 34 145 232q43 68 101 159t96 150.5t51 81.5q50 80 196.5 302t241 380t166.5 311q6 15 25 19q23 2 69 2q54 0 181 -8.5t190 -6.5
q12 0 21.5 -8.5t9.5 -21.5q1 -12 -8 -21.5t-21 -9.5q-68 -2 -199 6.5t-188 7.5l-33 -2l-22 -47q-72 -144 -166.5 -299.5t-224 -351.5t-185.5 -285l-250 -391l-145 -231q-63 -103 -68 -119l-8 -17l-6 -10l25 -2q53 -1 74 -1t81 2t84 3q33 2 98 2q132 0 193 -26q26 -13 16 -41
q-6 -12 -18 -16.5t-23 1.5z" />
    <glyph glyph-name="backslash" unicode="\" horiz-adv-x="1705" 
d="M1374 -205q-11 -7 -23 -5t-20 13q-119 160 -640 723.5t-693 728.5q-9 7 -9 20.5t9 22.5t21.5 9t21.5 -9q171 -162 694.5 -728.5t644.5 -731.5q7 -9 5 -22t-11 -21z" />
    <glyph glyph-name="bracketright" unicode="]" horiz-adv-x="1402" 
d="M676 -430q-57 0 -182.5 5t-184.5 5q-42 0 -108 -4q-12 -2 -22 7t-11 22q-2 12 7 22t22 11q35 4 114 4q56 0 164 -4t143 -5l41 -2v2q74 120 490 914q286 550 436 844l8 14h-24l-129 6q-106 4 -150 4q-50 0 -90 -4q-12 -3 -22.5 5t-12.5 20q-3 12 5 22t20 12q47 7 102 7
q52 0 150 -4l127 -7q61 0 65 2h2q19 5 30.5 -9.5t4.5 -33.5q-18 -41 -467 -907q-447 -856 -504 -934q-10 -14 -24 -14z" />
    <glyph glyph-name="asciicircum" unicode="^" horiz-adv-x="808" 
d="M231 252q-23 19 -8 43q16 27 40.5 61t44 59t56.5 68.5t52 60.5t58.5 66t49.5 56q13 19 35 7.5t19 -34.5q-6 -11 14 -76q8 -30 47 -137q40 -110 55 -141q5 -10 0.5 -22.5t-16.5 -18.5q-11 -6 -23 -2.5t-18 14.5q-12 26 -55 147l-18 48t-20 55t-12 41l-6 26l-22 -24
q-11 -13 -43 -49.5t-42 -48t-33.5 -39t-34 -41t-27 -35t-28 -38.5t-22.5 -36q-17 -23 -43 -10z" />
    <glyph glyph-name="underscore" unicode="_" horiz-adv-x="1427" 
d="M416 -78q0 11 8.5 22t19.5 11q86 8 474 8q28 0 69 -1t51 -1q13 0 22 -10.5t7 -22.5q0 -13 -10 -20.5t-23 -7.5q-61 1 -230.5 -1.5t-248.5 -2.5h-104q-32 0 -35 26z" />
    <glyph glyph-name="grave" unicode="`" horiz-adv-x="534" 
d="M279 494v2l-13 6l-16 10l-43 29l-39 28l-23 15q0 2 -2 2l-4 4q-7 11 -6 23t10 20q9 7 20 7t19 -7l21 -15l39 -26l41 -29q2 -1 8 -4.5t8 -5.5l8 -4l2 -2q23 -16 10 -39q-6 -10 -18 -14.5t-22 0.5z" />
    <glyph glyph-name="a" unicode="a" horiz-adv-x="811" 
d="M37 84l-6 6q-23 26 -23 57q0 37 25 68q36 54 123 98q112 56 233 56q70 0 135 -23l21 -8h2l49 35l2 2l4 2q6 6 8 6v2q23 17 42 -5.5t-3 -41.5l-6 -6l-6 -4l-2 -2q-58 -52 -92 -95q-35 -41 -35 -65v-10q7 -7 20 -11q69 -18 234 58q109 48 201 110q10 8 23 6t20 -12
q8 -9 5.5 -22.5t-12.5 -20.5q-76 -56 -213 -119q-184 -84 -274 -59q-35 11 -52.5 34t-13.5 54q1 8 11 37l2 4l-47 -27l-47 -24q-96 -50 -187 -80q-105 -31 -141 0zM98 129q30 4 62 14q85 27 176 76q69 34 135 74l6 4l-16 4q-35 6 -72 6q-105 0 -205 -49q-74 -38 -102 -80
q-17 -26 -10 -41l4 -4q0 -4 22 -4z" />
    <glyph glyph-name="b" unicode="b" horiz-adv-x="692" 
d="M6 -12q-14 10 -14 26q0 4 1 8t1 5q3 11 37 73l78 131q108 179 237 369q341 517 457 625q9 8 22.5 7.5t20.5 -9.5q9 -9 9 -22.5t-9 -22.5q-107 -97 -449 -611q-143 -216 -235 -368l12 12q11 13 35.5 35t32.5 30q85 75 141 115q78 54 121 45q27 -3 39 -28l4 -9
q16 -43 -18 -102.5t-93 -116.5l-35 -33q79 11 218.5 65.5t236.5 106.5q11 6 23 2.5t18 -14.5q6 -12 2.5 -24.5t-14.5 -18.5q-156 -82 -322 -138.5t-293 -57.5h-16l-12 -2q-62 -11 -95 30v2l-18 -20l-53 -58q-13 -18 -29 -30q-1 0 -4 -2.5t-6 -3.5h-3q-4 -1 -8 -1.5t-9.5 1
t-10.5 4.5zM236 129h8l12 2q48 17 113 70q59 52 94 106q26 42 26 62v8h-4q-22 -4 -67 -37q-61 -40 -133 -109l-70 -65l-27 -25l5 -2q10 -10 43 -10z" />
    <glyph glyph-name="c" unicode="c" horiz-adv-x="589" 
d="M135 131q14 -37 84 -35q154 10 332 103q55 28 121 70t67 42q12 6 24.5 3t18.5 -15q6 -11 2.5 -23t-14.5 -18l-48 -31q-47 -31 -91.5 -56t-111.5 -57t-144 -53t-152 -26q-117 -3 -145 76q-23 68 28 147q51 84 154 141q111 62 182 31l17 -8q31 -22 16 -60q-20 -43 -74 -65
q-19 -10 -34 4t6 33q30 30 39 47q-35 9 -111 -27q-60 -27 -121.5 -100.5t-44.5 -122.5z" />
    <glyph glyph-name="d" unicode="d" horiz-adv-x="712" 
d="M219 -401q-29 9 -33 39q-7 38 37 124q45 82 113 183q97 144 250 352l41 53l-43 -39q-187 -159 -316 -221q-66 -34 -125 -37q-65 0 -96 47q-33 52 12.5 118.5t128.5 113.5q117 67 242 67q68 0 121 -18l12 -6l23 22q152 134 307 303l39 45l22 29q62 78 146 175t134 152.5
t56 61.5q20 23 43 4.5t6 -41.5q-29 -41 -86.5 -108.5t-131 -150.5t-97.5 -111l-45 -51l-18 -23q-92 -115 -232 -297q-246 -326 -342 -475q-62 -90 -108 -176q-28 -52 -33 -78v-4h2q14 -10 10 -33q-4 -12 -15.5 -17.5t-23.5 -2.5zM242 145q110 53 260 179l6 4l-43 8
q-124 14 -246 -57q-47 -27 -77.5 -58.5t-40 -54t-1.5 -33.5q9 -18 41 -18q47 4 101 30z" />
    <glyph glyph-name="e" unicode="e" 
d="M45 111q-23 67 29 147q52 84 153 141q111 62 183 31l16 -8q31 -22 16 -60q-14 -28 -74 -68.5t-132.5 -64t-110.5 -4.5l-8 -14q-25 -51 -15 -80q17 -41 84 -41q75 0 188 40.5t165 68.5q41 21 84.5 46t77.5 45.5t42 24.5q12 6 24.5 3t18.5 -15q6 -11 2.5 -23t-14.5 -18
q-126 -77 -205 -117q-80 -40 -187.5 -76t-193.5 -36q-116 0 -143 78zM377 377q-92 12 -211 -98q28 -11 102.5 26t108.5 72z" />
    <glyph glyph-name="f" unicode="f" horiz-adv-x="438" 
d="M-248 -692q-2 0 -6 4q-27 40 -27 100q0 62 31 160q45 149 166 369q28 52 119 198l59 94l-26 17q-16 6 -17.5 21.5t10.5 27t29 6.5l31 -6l16 -4l25 39q68 95 242.5 320t228.5 286q7 9 20.5 9.5t22.5 -7.5t10 -21t-8 -22q-55 -62 -228 -286t-235 -314l-10 -12h8
q90 -11 205 -11q88 0 123 9q11 3 22.5 -3t14.5 -18q4 -12 -3.5 -24t-19.5 -15q-36 -10 -141 -10q-121 0 -209 10l-19 2l19 -28q31 -61 31 -154q-3 -152 -91 -358q-87 -186 -190 -301q-53 -59 -100 -82q-58 -30 -103 4zM-92 -573q102 110 180 286q86 198 86 332q0 74 -24 127
l-13 16l-49 -82q-66 -96 -117 -196q-114 -199 -161 -356q-43 -127 -21 -191l6 -8l-4 2q8 -4 21 -3.5t39 19.5t57 54z" />
    <glyph glyph-name="g" unicode="g" horiz-adv-x="794" 
d="M-512 -684q-30 96 63 205q100 115 310 256t452 260l78 37l4 8l105 156l6 10l-8 -4q-72 -45 -117 -70q-91 -50 -156 -72q-92 -27 -127 0q-7 7 -10 13q-20 26 -20 59q0 42 31.5 84t82.5 72q85 47 176 47q86 0 164 -41l2 -2l4 2q17 11 39 26.5t23 16.5q20 15 38.5 -2
t6.5 -39q-1 -1 -16.5 -26.5t-48 -77.5t-66.5 -103l-6 -8l2 2q294 122 413 151q12 3 23 -2.5t14 -17.5q3 -13 -3.5 -24.5t-18.5 -14.5q-129 -32 -406 -149l-90 -41l-16 -25l-140 -190q-406 -531 -653 -576q-44 -8 -82 14.5t-53 65.5zM-387 -702q121 22 282 173.5t332 376.5
q55 73 72 97l18 26l-69 -37q-212 -111 -388 -232.5t-261 -221.5q-72 -79 -54 -144q7 -22 26 -32.5t42 -5.5zM154 150q18 0 53 12q60 20 145 67l76 43l35 23l-8 4q-53 16 -97 16q-75 0 -145 -39q-44 -27 -65.5 -58.5t-16.5 -55.5l6 -10q5 -2 17 -2z" />
    <glyph glyph-name="h" unicode="h" horiz-adv-x="913" 
d="M4 100q3 8 105 152q363 508 796 950q9 9 22.5 9.5t22.5 -7.5q8 -9 8.5 -22.5t-8.5 -22.5q-387 -397 -688 -801l-88 -120q371 174 463 137q19 -6 26.5 -23t0.5 -37q-12 -24 -55 -75t-56 -90q21 -15 57 -15q53 0 185 45q60 23 134 62t105 59q11 7 24 5t19 -13q7 -11 5 -23
t-13 -20q-35 -22 -113 -63t-141 -64q-123 -47 -209 -47q-74 0 -104 41q-8 12 -9 27t5 31.5t13.5 32t20.5 33.5t22 30t22 27t16 19q-80 4 -275.5 -81t-240.5 -138l-19 -26q-15 -23 -39.5 -10t-13.5 38z" />
    <glyph glyph-name="i" unicode="i" horiz-adv-x="479" 
d="M51 123q-20 70 90 180q32 33 73.5 69t65 54.5t29.5 22.5q11 7 23 4.5t20 -13.5q7 -11 5 -23t-13 -20q-3 -2 -26.5 -20t-63 -52t-70.5 -65q-15 -15 -32 -34.5t-33 -47.5t-8 -39q11 -14 43.5 -15t73 9t72.5 19.5t56 19.5q57 23 148 70.5t129 70.5q11 7 23 5t18 -13
q7 -11 5 -23t-13 -20q-34 -22 -130.5 -73.5t-158.5 -75.5q-133 -50 -215 -50q-91 0 -111 60zM426 539q-6 10 -2 23.5t16 17.5l33 22l33 29q9 9 22 8t21 -10q9 -9 8 -22t-10 -21q-21 -21 -35 -31q-37 -26 -45 -31q-10 -4 -22.5 0t-18.5 15z" />
    <glyph glyph-name="j" unicode="j" horiz-adv-x="538" 
d="M-860 -885q-97 50 -86 164q5 80 59 162q104 148 365 314.5t583 305.5l97 39l24 43q20 32 50 83.5t38 64.5l19 35l-8 -7q-95 -58 -105 -63q-12 -6 -24.5 -2.5t-18.5 14.5t-2.5 23t14.5 18q85 49 213 137q20 14 38.5 -2t6.5 -38q-1 -1 -17 -30t-49 -89.5t-69 -120.5
l-18 -31l33 12q195 70 311 97q12 3 23 -3t14 -18t-4 -24t-19 -15q-140 -34 -309 -94l-100 -39l-35 -57q-114 -180 -215 -322q-423 -583 -701 -583q-57 0 -108 26zM-100 -291q96 136 174 256l28 45l-18 -6q-312 -134 -567.5 -296.5t-352.5 -301.5q-45 -63 -51 -131
q-3 -74 53 -104q43 -19 82 -19q130 0 299 152t353 405zM451 559q-7 9 -6 22t10 21q13 9 28 31l25 33q8 11 21 13t22 -5q11 -8 13 -20t-5 -23l-11 -15q-11 -15 -18 -22q-19 -27 -36 -39q-9 -8 -22.5 -7t-20.5 11z" />
    <glyph glyph-name="k" unicode="k" horiz-adv-x="808" 
d="M975 248q-32 -21 -92.5 -51.5t-145.5 -67t-179 -58.5t-163 -16q-70 6 -113 45.5t-46 106.5q-57 -34 -138 -113t-143 -170q-15 -23 -39 -9t-14 40q189 297 475.5 650t521.5 593q9 9 21.5 9.5t21.5 -7.5q9 -9 9.5 -22.5t-7.5 -22.5q-375 -381 -770 -911q102 72 251.5 137
t219.5 49q27 -6 33 -29t-8 -43q-33 -51 -111.5 -88.5t-145.5 -51.5t-104 -13v-2q2 -31 27.5 -55.5t64.5 -28.5q95 -12 247.5 46t299.5 138q20 9 33.5 1.5t12.5 -26t-19 -30.5zM596 373q-25 -2 -106.5 -35t-155.5 -72q52 4 144 37t118 70z" />
    <glyph glyph-name="l" unicode="l" horiz-adv-x="559" 
d="M43 -61q-25 25 -25 71q0 80 72 203q90 158 283 387q160 191 344 379t287 272q9 7 21.5 6t21.5 -10q7 -9 5.5 -22t-10.5 -21q-98 -79 -279.5 -265.5t-342.5 -379.5q-191 -228 -277 -377q-47 -80 -59 -137q-13 -48 4 -65q39 -42 225 71q65 39 139.5 92t150.5 109.5t81 60.5
q26 15 43 -8q7 -11 5 -24t-13 -19q-1 -1 -145 -107t-234 -159q-151 -88 -221 -88q-45 0 -76 31z" />
    <glyph glyph-name="m" unicode="m" horiz-adv-x="1105" 
d="M29 119q28 46 86.5 134t87.5 136q6 11 18 14t23 -4q11 -6 14 -18t-4 -23q-14 -26 -44 -70.5t-42 -66.5l-14 -24q6 4 45.5 28.5t49.5 30.5t44 27t48.5 29t44 24t48.5 25t43.5 19.5t46.5 18.5q17 6 30 -5t11 -29q-5 -24 -15.5 -48t-27.5 -59.5t-28 -60.5l311 161
q17 7 31.5 -4t11.5 -28q-2 -12 -10 -35.5t-14.5 -41.5t-9.5 -40.5t5 -32.5q17 -24 55 -24q31 0 87 16t158 58.5t132 64.5q11 7 23 5t20 -13q7 -11 5 -23t-11 -20q-37 -25 -146 -70t-167 -61q-58 -15 -94 -15q-72 0 -107 41q-22 27 -22 70q0 31 10 61q-211 -111 -305 -153
q-17 -6 -31 5.5t-10 28.5q10 54 67 172q-88 -39 -231 -131t-182 -114q-20 -10 -36 8t-5 37z" />
    <glyph glyph-name="n" unicode="n" horiz-adv-x="856" 
d="M-20 102q39 52 49 62l178 203q7 10 20.5 11t22.5 -7t10 -21t-6 -22l-57 -66q92 46 214 83.5t193 29.5q27 -3 35 -26t-8 -46q-6 -9 -35.5 -43t-48.5 -62.5t-19 -45.5q6 -17 48 -15t96.5 15t97.5 30q119 49 215 113q11 6 23 3.5t20 -11.5q6 -11 3.5 -24t-11.5 -19
q-127 -82 -229 -119q-123 -49 -220 -49q-36 0 -57 8q-47 19 -47 66q0 44 33 86q38 52 67 86q-118 -11 -264 -73.5t-231 -129.5l-41 -47q-11 -13 -28 -11.5t-24 13t1 28.5z" />
    <glyph glyph-name="o" unicode="o" 
d="M125 31q-33 4 -50.5 23t-19.5 46q-5 41 23 103q30 58 83 110.5t120 83.5q18 6 34 -4l2 -2q8 31 43 31q5 0 21 -4q56 -20 59 -66v-2q70 -33 172 -33q69 0 162 19q12 3 24 -2.5t17 -16.5q3 -12 -2.5 -22.5t-15.5 -13.5q-99 -21 -176 -21q-90 0 -183 27l-2 -4
q-17 -57 -49 -97q-48 -62 -121 -112.5t-141 -42.5zM336 219q39 56 45 92q-43 28 -55 49l-4 -6q-1 -1 -11 -6q-65 -26 -133 -100q-25 -28 -44 -63.5t-22.5 -63t17.5 -35.5q41 -11 102 32.5t105 100.5z" />
    <glyph glyph-name="p" unicode="p" horiz-adv-x="622" 
d="M-446 -662q44 115 170 316l65 96l16 29q136 223 301.5 446.5t274.5 354.5q7 10 20 11t23 -7q10 -7 11 -20t-7 -23q-111 -138 -199 -258q86 89 172 112q30 8 57 -3.5t38 -43.5q16 -43 -14 -96.5t-83 -101.5l-12 -11l37 11q159 43 367 157q12 6 24.5 2.5t18.5 -14.5
q6 -12 2 -24.5t-15 -18.5q-103 -57 -222 -105.5t-202 -66.5q-98 -21 -153 -19h-11l-8 -2q-54 -3 -84 27l-10 10q-142 -159 -278 -360l-13 -19l-37 -61q-144 -246 -192 -342q-14 -26 -40.5 -15t-16.5 39zM334 176q54 40 82 85t20 67q-1 4 -4.5 6t-5.5 2.5t-6.5 0t-5.5 -0.5
q-41 -12 -84 -45q-88 -61 -156 -141l-6 -7l8 -4q10 -10 45 -16h6l11 2q43 10 96 51z" />
    <glyph glyph-name="q" unicode="q" horiz-adv-x="702" 
d="M-123 -723q-10 6 -14.5 18.5t0.5 22.5q119 243 289 483q-94 -11 -271 -39q-12 -2 -22 5.5t-11 19.5t6 22t19 13q142 25 324 43q71 95 135 174q16 20 44.5 54.5t35.5 43.5l4 4l69 90q-9 -6 -20.5 -13t-27 -15.5t-25.5 -14.5l-47 -24q-96 -50 -187 -80q-105 -31 -141 0
l-6 6q-23 26 -23 57q0 37 25 68q36 54 123 98q112 56 233 56q70 0 135 -23l21 -8h2l49 35l20 26q17 22 40 8.5t14 -38.5q-14 -37 -101 -138q-111 -132 -190 -231q-15 -18 -100 -127q127 12 272 21q33 1 42.5 -15t-4 -32.5t-36.5 -16.5q-141 -3 -322 -20q-198 -280 -313 -519
q-4 -10 -16.5 -14.5t-24.5 0.5zM98 129q30 4 62 14q85 27 176 76q69 34 135 74l6 4l-16 4q-35 6 -72 6q-105 0 -205 -49q-74 -38 -102 -80q-17 -26 -10 -41l4 -4q0 -4 22 -4z" />
    <glyph glyph-name="r" unicode="r" horiz-adv-x="616" 
d="M-47 70q13 40 280 329q7 10 20.5 11t22.5 -7t10.5 -21t-5.5 -22l-68 -79q98 50 225.5 94.5t192.5 32.5q18 -4 26.5 -16.5t6.5 -27t-11 -26.5q-21 -27 -53 -27q-21 0 -20 16q1 9 8 19l6 6h-8q-108 -11 -242.5 -74.5t-239.5 -136.5q-9 -6 -20 -17t-35.5 -37.5t-44.5 -47.5
q-17 -20 -39.5 -6t-11.5 37z" />
    <glyph glyph-name="s" unicode="s" horiz-adv-x="632" 
d="M41 80q-12 6 -16 18.5t2 22.5t18.5 14.5t22.5 -0.5q64 -33 211 -33q42 0 86 7l18 4l-14 4q-85 34 -109 45q-64 33 -94 63q-47 47 -21 99q36 68 189 92q64 10 162 10q61 0 88 -2q16 -1 23.5 -12.5t4 -25t-17.5 -19.5l-35 -23q-6 -4 -22 -20l-2 -5v-2q-3 -22 -29 -26
q-12 0 -22 8t-11 20q0 11 4 23l8 16l7 7h-27q-75 -4 -123 -11q-61 -10 -96 -24q-39 -17 -45 -33q-7 -14 10 -31q21 -24 76 -49q30 -15 67 -29t74.5 -27.5t48.5 -17.5q12 -6 15.5 -20.5t-3.5 -26.5q-22 -31 -88 -43q-53 -12 -122 -12q-164 0 -238 39z" />
    <glyph glyph-name="t" unicode="t" horiz-adv-x="294" 
d="M-469 -549q19 36 50 85t64.5 98t81 115t85.5 117.5t93.5 124t89.5 117t89.5 115t77.5 98.5t68.5 86.5t48.5 61.5q98 123 266 307q-8 -2 -21 -2q-324 -28 -575 -69q-19 -2 -28.5 10t-4 26.5t24.5 18.5q247 43 577 71l84 7q193 206 299 295q14 16 32.5 12.5t22.5 -19.5
t-12 -36q-92 -74 -254 -246q279 20 527 20q285 3 378 -16q28 -14 21 -41q-3 -11 -14.5 -17t-22.5 -4q-69 21 -289 21h-73q-242 0 -584 -25q-174 -187 -305 -350q-653 -817 -744 -1012q-10 -17 -23 -21t-21.5 3.5t-12.5 20t4 28.5z" />
    <glyph glyph-name="u" unicode="u" horiz-adv-x="729" 
d="M35 88q-35 35 -15 98q14 43 56 95q31 39 78 79q50 40 75 46q12 3 23 -4.5t14 -20.5q3 -12 -3.5 -23t-18.5 -12q-14 -4 -51 -33q-41 -32 -70 -71q-36 -48 -43 -76q-8 -23 -2 -35q12 -12 53 0q49 9 115 51q136 78 231 183q20 22 43 3t4 -42q-52 -73 -59 -84
q-36 -59 -29 -88q4 -12 35 -17q26 1 54.5 6.5t50.5 11.5t53.5 19.5t48.5 20.5t51.5 26t45.5 25.5t48 28.5t43 26q11 7 23 4t18 -14q8 -10 5 -22.5t-15 -18.5q-76 -48 -133.5 -80t-145 -64t-149.5 -28q-73 0 -92 57q-6 28 0 55v5l-31 -23q-37 -26 -70 -43q-106 -66 -176 -66
q-43 0 -65 25z" />
    <glyph glyph-name="v" unicode="v" horiz-adv-x="575" 
d="M92 106q-4 56 33 147t70 140q6 11 19 14t24 -4q11 -6 13 -19t-5 -24q-36 -58 -68.5 -143.5t-21.5 -118.5q29 10 66.5 43.5t61 61t69.5 86t57 71.5l2 13q5 40 61 63q22 7 35.5 -11.5t-0.5 -35.5l-29 -39l2 -2l4 -4q48 -31 150 -31q43 0 98 6q12 1 22 -6.5t13 -19.5
q2 -12 -6.5 -23t-20.5 -12q-49 -8 -104 -8q-123 0 -197 51q-7 -8 -27 -32.5t-31 -37.5t-31.5 -37.5t-34.5 -39.5t-34 -35t-36 -33t-34 -25.5t-34 -19t-31 -8.5q-26 -3 -39.5 21.5t-15.5 51.5z" />
    <glyph glyph-name="w" unicode="w" horiz-adv-x="864" 
d="M625 322v2q-3 31 10 55t35 35q28 12 39 -4.5t4 -38.5q-9 -27 -17 -41h2q51 -45 140 -45q54 0 110 22q10 3 21.5 -2t17.5 -16q5 -12 -0.5 -24.5t-17.5 -16.5q-64 -25 -129 -25q-104 0 -172 49q-12 -22 -52 -77q-98 -131 -182 -136q-41 -3 -74.5 25.5t-37.5 73.5
q-28 -33 -57.5 -59t-65 -47t-66 -21.5t-59.5 18.5q-33 28 -25 80q8 37 35 90q26 45 83 108.5t101 96.5q11 9 23 7t20 -11q8 -10 6 -23t-12 -20q-61 -47 -124 -124t-70 -134q-4 -20 9.5 -26t31.5 -1q40 12 107.5 80t92.5 104q16 24 19 27q17 23 41 7.5t10 -40.5
q-4 -8 -12 -18q-1 -3 -6.5 -17t-7.5 -20t-5.5 -18.5t-4 -20t-1 -17.5t2.5 -17t9 -13q13 -15 34 -9.5t41.5 18.5t41.5 33.5t34 35.5t19 24q40 54 58 91z" />
    <glyph glyph-name="x" unicode="x" horiz-adv-x="632" 
d="M47 61q-6 10 -3 23t13 20q80 52 191 115q-66 63 -90 117q-13 25 12 43q10 5 22.5 0.5t18.5 -14.5q24 -52 94 -115q181 96 309 145q12 5 24.5 -0.5t16.5 -17.5t-1 -23t-17 -16q-119 -46 -279 -129q86 -69 168 -103q11 -5 16 -16.5t1 -21.5q-5 -12 -17 -17.5t-24 0.5
q-106 46 -203 125q-108 -61 -209 -125q-10 -6 -23 -3t-20 13z" />
    <glyph glyph-name="y" unicode="y" horiz-adv-x="700" 
d="M-582 -684q-30 95 64 205q100 115 310 256t452 260l78 37l4 8l39 68l-46 -31q-106 -74 -180 -74q-35 0 -59 21q-35 33 -19 96q11 44 50 96q27 42 71 86q45 41 74 49q12 3 24 -2.5t15 -17.5t-3 -24t-18 -15t-49 -35q-31 -27 -65 -76q-32 -52 -39 -78q-7 -29 2 -34
q10 -10 51 2q52 17 113 57q128 84 219 197q2 4 10 8l4 4q20 15 38.5 -2t6.5 -39q-1 -1 -17 -26.5t-50 -79.5t-70 -109q285 121 416 153q12 3 23 -2.5t14 -17.5q3 -13 -4 -24.5t-19 -14.5q-127 -32 -405 -149l-91 -41l-16 -25l-139 -190q-406 -531 -653 -576
q-44 -8 -82.5 14.5t-53.5 65.5zM-457 -702q121 22 283 173.5t332 376.5q42 56 71 97l19 26l-70 -37q-212 -111 -388 -232.5t-261 -221.5q-71 -79 -53 -144q8 -22 26 -32t41 -6z" />
    <glyph glyph-name="z" unicode="z" horiz-adv-x="618" 
d="M92 47h-26q-7 0 -9 2q-4 0 -11.5 6t-10.5 17q-2 6 -0.5 12t3 9t4.5 6.5t3 4.5l10 5v2q253 114 359 182l14 10l-92 -10q-124 -15 -203 -17q-12 0 -21.5 8.5t-9.5 20.5q0 14 8.5 23.5t20.5 9.5q57 2 122 8t153.5 16.5t128.5 14.5q22 3 31.5 -17.5t-7.5 -35.5
q-118 -102 -336 -203l-4 -2h21q33 2 106 2q102 0 158 -12q12 -3 19 -14t5 -23q-3 -12 -13.5 -19.5t-22.5 -5.5q-57 14 -150 14q-32 0 -98 -4l-111 -6q-32 -4 -41 -4z" />
    <glyph glyph-name="braceleft" unicode="{" horiz-adv-x="1153" 
d="M225 -385q-49 104 -49 207q0 123 72 260q31 59 114.5 186t114.5 197q18 44 -24 92l-2 2l-25 4q-64 13 -107 70q-9 14 -3.5 29t20.5 20h8q52 9 125 -53l8 -8h6q20 0 52 8q51 15 99.5 46.5t78.5 67.5q42 51 90 143t104.5 212t96.5 190q92 166 184 236q68 53 147 53
q47 0 105 -25q12 -6 16 -18.5t-2 -22.5q-4 -12 -16.5 -16t-22.5 2q-46 19 -80 19q-57 0 -110 -41q-84 -64 -166 -215q-24 -42 -131.5 -262t-167.5 -293q-36 -44 -92.5 -80.5t-116.5 -53.5l-29 -8l4 -4q32 -63 9 -119q-33 -72 -118 -202t-114 -185q-65 -127 -65 -233
q0 -91 43 -178q73 -158 276 -158q62 0 111 8q12 2 22.5 -5t11.5 -19q3 -30 -24 -37q-56 -9 -117 -9q-246 0 -336 193z" />
    <glyph glyph-name="bar" unicode="|" horiz-adv-x="1495" 
d="M801 -588q-11 0 -21.5 8.5t-11.5 20.5q-4 45 -4 207q0 354 24.5 971t42.5 802q1 13 11 22t22 7q13 -1 22 -11t7 -22q-18 -189 -43 -811.5t-25 -967.5q0 -105 4 -191q0 -32 -28 -35z" />
    <glyph glyph-name="braceright" unicode="}" horiz-adv-x="1134" 
d="M-27 -481q-9 8 -9 21t9 22t21.5 9t21.5 -9q81 -78 172 -78q74 0 156 53q78 50 150.5 139.5t128.5 194.5q22 41 65.5 150t71.5 163q8 19 45 76l24 31l-14 10q-96 89 -65 209q8 32 86.5 250.5t103.5 345.5q14 71 14 141q0 78 -22 121q-51 96 -211 78q-13 -2 -23 6t-10 21
q-2 12 6 21.5t21 10.5q205 24 272 -108q29 -62 29 -150q0 -63 -17 -153q-25 -131 -104.5 -353t-85.5 -247q-10 -43 3 -82t44 -66l16 -12l23 16q55 36 125 39q12 0 21.5 -9t9.5 -22q3 -83 -62 -108q-39 -14 -90 2l-16 6l-9 -10q-51 -60 -118 -222.5t-78 -183.5
q-139 -253 -301 -356q-97 -64 -189 -64q-115 0 -215 97zM967 307q13 9 16 15l-12 -3l-17 -6l-12 -8q19 0 25 2z" />
    <glyph glyph-name="asciitilde" unicode="~" horiz-adv-x="882" 
d="M584 238q-7 2 -26 11.5t-32.5 15.5t-28 5.5t-20.5 -12.5q-8 -9 -21 -11t-22 5q-10 7 -12 20.5t6 22.5q20 29 51 35q32 5 76.5 -15t58.5 -22q27 -3 41 14q8 23 29 23q27 3 30.5 -23.5t-12.5 -40.5q-18 -22 -57 -30t-61 2z" />
    <glyph glyph-name="exclamdown" unicode="&#xa1;" horiz-adv-x="733" 
d="M1001 907q-2 -10 -24 -51q-7 -11 -25.5 -37t-25.5 -37q-17 -27 -41.5 -60.5t-59 -78.5t-53.5 -72q-388 -506 -453 -571q-26 -19 -47 2q-8 8 -8 21t8 22q22 21 63 70t97.5 120.5t102 129.5t108 138.5t82.5 106.5l149 203q34 49 50 76q18 30 18 33q3 12 14 19t23 5
q12 -5 18.5 -16t3.5 -23zM1112 1178q12 -1 18.5 -11t4.5 -22q0 -4 -2 -6q0 -5 -7 -19q-10 -14 -12 -16q-2 -5 -7.5 -13.5t-6.5 -11.5q-17 -21 -43 -10q-21 21 -8 45q1 0 16 21l6 14q0 2 4 6v2q0 11 12 18t25 3z" />
    <glyph glyph-name="cent" unicode="&#xa2;" horiz-adv-x="589" 
d="M78 -72q-12 4 -17 16t-2 23q12 29 123 242q-14 14 -24 37q-31 61 -31 133q0 97 59 190q44 65 106.5 113t121.5 63q52 9 65 9l109 190q6 11 18 14t23 -4q12 -4 15 -17.5t-3 -23.5l-98 -172l16 -8q54 -40 64 -139q1 -12 -7 -21.5t-20 -11.5q-13 -1 -23 7t-12 20
q-8 76 -37 94l-10 6q-48 -84 -147.5 -266.5t-106.5 -194.5q24 -11 66 -4q36 4 65 20t39 33q6 11 18 15t23 -2t14.5 -19t-2.5 -24q-18 -32 -60 -55t-89 -29q-58 -7 -103 12q-93 -172 -114 -229q-4 -12 -16 -17t-23 0zM428 686q-47 -13 -100.5 -53t-89.5 -96q-50 -76 -50 -158
q0 -52 25 -107v-2q205 374 231 420q-12 -4 -16 -4z" />
    <glyph glyph-name="sterling" unicode="&#xa3;" horiz-adv-x="768" 
d="M535 365h-211q-5 -15 -5 -17q-18 -74 -59 -139.5t-94 -110.5l-6 -4l100 -2h199q70 2 102 10v2q14 14 33 7q29 -15 16 -41q-5 -16 -20 -21q-29 -14 -129 -18h-203q-37 0 -104 1t-93 1h-6q-64 -22 -121 -10q-17 3 -22.5 20.5t6.5 30.5q10 10 19 10q21 8 86 8l18 2l16 6
q67 32 123 102.5t80 162.5h-135q-12 0 -21.5 9t-9.5 21t9.5 21.5t21.5 9.5h147q4 26 10.5 84t11.5 91.5t16 76.5t26 70q58 104 153 104q32 0 62 -12q52 -21 82 -71t16 -103q-3 -12 -15 -18t-24 -3t-17.5 14.5t-2.5 22.5q8 27 -10.5 57t-53.5 43q-22 8 -44.5 8.5t-48 -17.5
t-44.5 -54q-12 -23 -20.5 -60t-13 -67.5t-11 -84.5t-10.5 -81h203q12 0 21 -9.5t9 -21.5q-2 -13 -10.5 -21.5t-21.5 -8.5z" />
    <glyph glyph-name="yen" unicode="&#xa5;" horiz-adv-x="829" 
d="M586 240q-82 6 -244 6l-145 -244q-6 -12 -18.5 -15t-24.5 3q-11 6 -15 18t2 23q1 1 22.5 36.5t50 83t56.5 95.5q-98 0 -149 4q-12 1 -20.5 11t-8.5 22t10 20.5t23 7.5q59 -4 182 -4l58 96q2 3 2 5v14q-31 0 -91.5 -2t-89.5 -2q-13 0 -22.5 9.5t-9.5 21.5t9 21t21 9
q56 0 174 4q-7 33 -36 131l-35 111q-23 67 -27 98q-3 12 5 23t20 14q12 2 22.5 -5t11.5 -19l25 -93l37 -108q30 -102 37 -141q153 261 194 354q13 26 41 16q12 -4 17 -16.5t0 -24.5q-33 -75 -187 -340q65 0 191 -8q12 0 20 -9.5t8 -23.5q-2 -12 -11 -19.5t-21 -6.5
q-74 6 -224 6l-28 -49l-39 -66q115 0 211 -8q13 0 21.5 -9.5t6.5 -23.5q0 -12 -10 -20t-22 -6z" />
    <glyph glyph-name="section" unicode="&#xa7;" horiz-adv-x="782" 
d="M-164 -203q-18 35 -18 74q0 51 27 100t71 84q9 7 22 5t21 -11q8 -10 6 -23t-12 -20q-47 -37 -66 -90t2 -90q23 -45 67.5 -68.5t98.5 -23.5t104 23.5t83 66.5q34 45 34 88q0 44 -36 96q-6 9 -21 29t-27.5 38t-21.5 34q-40 68 -35 135q3 94 71 154t156 46q-16 50 -16 91
q0 89 80 153q45 37 115 37q79 0 133 -45q57 -47 49 -113q-6 -68 -92 -133q-9 -7 -22 -5t-21 11q-7 11 -5 23t11 20q62 47 70 92q3 32 -29 58q-39 31 -94 31q-50 0 -78 -25q-55 -42 -55 -102q0 -39 22 -88q12 -27 58.5 -108t56.5 -122q10 -38 10 -67q0 -85 -55 -140
q-65 -65 -170 -47q27 -87 -39 -178q-40 -54 -104 -83.5t-134 -29.5q-69 0 -127.5 31t-89.5 92zM293 41q47 -18 80 -18q52 0 84 32q25 25 32.5 64.5t-4.5 83.5q-5 17 -15.5 39t-20 39t-26.5 46.5t-26 45.5q-27 12 -57 12q-57 0 -98.5 -40.5t-44.5 -102.5q-3 -51 26 -103
q10 -20 34.5 -53t31.5 -43q2 -2 4 -2z" />
    <glyph glyph-name="dieresis" unicode="&#xa8;" horiz-adv-x="569" 
d="M129 502q-13 14 -13 34t13 33t33 13t33 -13t13 -33t-13 -34t-33 -14t-33 14zM358 502q-14 14 -14 34t14 33t33 13t33 -13t14 -33t-14 -34t-33 -14t-33 14z" />
    <glyph glyph-name="copyright" unicode="&#xa9;" horiz-adv-x="929" 
d="M446 63q-45 27 -72.5 71t-27.5 91q0 108 72 183q14 15 39 32l4 2v2q-3 10 6 19q18 21 53 36.5t74 16.5q44 3 87 -14.5t73 -59.5q41 -58 41 -127t-37.5 -133t-81.5 -96q-64 -45 -135 -45q-49 0 -95 22zM647 127q37 26 66.5 78.5t29.5 109.5q0 59 -30 99q-43 60 -117 53h-8
l22 -4q9 -3 14.5 -12.5t2.5 -18.5t-12 -14t-19 -2q-83 20 -141 -41q-60 -63 -60 -148q0 -34 20.5 -67.5t55.5 -53.5q36 -18 70 -18q50 0 106 39zM459 199q-14 41 1 84t48 73q42 39 90 39q37 0 70 -26q13 -13 8 -23v-6q0 -11 -10 -18q-9 -6 -19 -3.5t-16 11.5q-2 2 -2 6v2
l-6 2q-39 19 -82 -18q-24 -22 -34 -52.5t-1 -56.5q5 -22 35 -18q15 1 28.5 10t18.5 20q5 9 14.5 13t18.5 0q20 -10 12 -33q-24 -49 -84 -60q-29 -3 -54.5 10t-35.5 44z" />
    <glyph glyph-name="guillemotleft" unicode="&#xab;" horiz-adv-x="1626" 
d="M1030 633q11 7 23 4t18 -14q6 -10 3 -22.5t-13 -18.5q-47 -28 -197 -122.5t-243 -148.5q32 -24 179 -114.5t208 -151.5q9 -9 9 -21.5t-9 -21.5t-21.5 -9t-21.5 9q-61 60 -220 156t-208 147q-12 12 -6.5 27.5t22.5 23.5q77 34 153.5 78t174 106t149.5 93zM1358 633
q11 7 23 4t18 -14q6 -10 3 -22.5t-13 -18.5q-45 -27 -196.5 -122t-244.5 -149q32 -24 179 -114.5t208 -151.5q9 -9 9 -21.5t-9 -21.5t-21.5 -9t-21.5 9q-61 60 -220 156t-208 147q-12 12 -6.5 27.5t23.5 23.5q77 34 153.5 78t174 106t149.5 93z" />
    <glyph glyph-name="registered" unicode="&#xae;" horiz-adv-x="1034" 
d="M502 63q-46 26 -73.5 70.5t-29.5 91.5q0 50 19.5 99t54.5 84q9 10 39 32l2 2v2q0 10 6 19q19 21 53.5 35.5t73.5 17.5q101 7 160 -74q41 -58 41 -127t-37.5 -133t-81.5 -96q-64 -47 -135 -47q-46 0 -92 24zM666 156l-68 41l-20 10q-10 -27 -13 -41q-1 -10 -10 -16.5
t-18 -4.5q-10 3 -16.5 11.5t-4.5 17.5q3 22 16 51q-22 5 -19 27t26 22h8l4 -2h2q0 3 4 7q12 32 39 71q-31 0 -55 -6q-25 -4 -31 18q-3 6 0 15l-2 -2q-59 -62 -59 -150q2 -33 22.5 -66t54.5 -53q32 -18 68 -18q53 0 106 39q37 27 68 79.5t31 108.5q0 57 -31 99
q-46 60 -117 53h-8l21 -4q10 -3 15 -12t3 -19q-3 -9 -12.5 -14t-18.5 -2q-65 14 -119 -23q89 20 170 -20q46 -24 56 -49q5 -16 -2 -37q-19 -37 -105 -56l-12 -2l4 -2l49 -30q9 -4 11 -15t-3 -18q-14 -21 -34 -8zM608 274q6 0 17.5 3t15.5 4q34 7 51 14l19 12l-2 2
q-12 12 -29 19l-29 12q-13 -15 -43 -66z" />
    <glyph glyph-name="plusminus" unicode="&#xb1;" horiz-adv-x="1241" 
d="M686 215q-10 7 -16 19t0 22q15 35 63 119q-74 0 -125 2q-32 0 -35 26q0 11 9 22t20 11q5 0 28.5 1t39.5 1q14 0 46 -1t52 -1l82 142q6 10 19 13t22 -5q11 -6 14 -18.5t-4 -22.5l-61 -111q25 0 68.5 -2t60.5 -2q13 0 21.5 -10.5t6.5 -22.5q0 -13 -9.5 -20.5t-22.5 -7.5
q-39 0 -89 1t-73 1q-11 -18 -37 -64.5t-41 -73.5t-39 -18zM471 117q0 11 9 22t20 11q6 0 25.5 1t33.5 1q113 0 307 -9q13 0 22 -10t7 -22q0 -13 -10 -21t-23 -8q-70 1 -165 3.5t-191 4.5q-13 0 -23.5 7t-11.5 20z" />
    <glyph glyph-name="twosuperior" unicode="&#xb2;" horiz-adv-x="606" 
d="M322 508q-14 9 -31 12q-30 6 -68 6q-58 3 -114 -8h-11q-21 -2 -26.5 22t18.5 31l16 2q46 15 125 68q92 64 107 113q10 34 3.5 52.5t-22.5 27.5q-41 16 -104 -25q-24 -10 -33 6q-7 8 -5.5 19.5t9.5 19.5q38 26 81 33t77 -8q36 -14 49.5 -51.5t-0.5 -88.5
q-19 -55 -131 -141l-29 -18q98 -4 127 -33q6 -6 6 -19.5t-6 -19.5q-20 -20 -36 0h-2zM322 508h2h-2z" />
    <glyph glyph-name="threesuperior" unicode="&#xb3;" horiz-adv-x="626" 
d="M236 477q-39 3 -74.5 22t-57.5 44q-10 16 7 30q9 4 23.5 3.5t19.5 -5.5q8 -13 33 -24.5t53 -14.5q67 -4 100 64q16 29 -18 59q-49 36 -82 33q-17 0 -25.5 13t-2.5 26.5t24 15.5q54 12 102 41q44 25 35 45h-6q-12 4 -33 0q-49 -7 -62 -30q-19 -19 -36 -8q-10 6 -13 17.5
t4 20.5q24 38 97 54q75 9 96 -27v2q37 -54 -41 -110q-7 -4 -14 -9.5t-14.5 -10.5t-22.5 -11q18 -11 30 -23q25 -27 33.5 -60t-8.5 -71q-22 -48 -62.5 -68.5t-84.5 -17.5z" />
    <glyph glyph-name="acute" unicode="&#xb4;" horiz-adv-x="555" 
d="M137 489q-7 9 -4 22.5t14 18.5q10 7 95 45q12 5 31.5 15.5t21.5 11.5q10 5 22.5 1.5t18.5 -15.5q7 -9 2.5 -21.5t-14.5 -17.5l-54 -29q-15 -4 -48.5 -20.5t-41.5 -22.5q-9 -6 -22.5 -3t-20.5 15z" />
    <glyph glyph-name="mu" unicode="&#xb5;" horiz-adv-x="653" 
d="M-236 -213q-7 9 -4.5 22t13.5 21q33 23 65.5 54t67.5 74t61.5 78t65 94.5t59.5 92.5t63.5 102.5t59.5 96.5q16 30 64 104q63 97 143 205q72 100 74 103l4 8q10 10 22 10q12 1 21.5 -8t11.5 -21l-2 -14l-4 -6q-5 -9 -78 -109q-44 -58 -123 -174q0 -6 -4 -10
q-13 -19 -70 -111q-40 -68 -63 -125q-39 -94 -27 -137h9q13 0 32 8q41 18 99 70q95 87 243 274l4 7l2 4q104 162 205.5 301.5t151.5 187.5q22 20 43 0t2 -43q-13 -14 -55.5 -74.5t-112 -158.5t-129.5 -178l-55 -74l-48 -72q-44 -70 -126 -213q-35 -62 -56 -106
q-16 -41 -16 -52v-10q-7 -21 -25 -24q-30 -3 -37 26v8q0 22 23 78q2 4 41 80l8 14l-22 -20q-145 -127 -222 -84q-7 5 -12 14q-10 23 -10 52q-87 -134 -161.5 -226t-152.5 -147q-11 -7 -23 -5t-20 13z" />
    <glyph glyph-name="cedilla" unicode="&#xb8;" horiz-adv-x="411" 
d="M131 -104q-37 6 -43 49q-1 10 5.5 18t15.5 10q24 3 28 -22l2 -6q2 -2 4 -2q12 -4 31 4q24 7 37 20q12 12 12 17h2l-2 2l-8 4l-57 18q-22 7 -19 27q0 4 2 6q3 19 23 39q12 19 29 31q8 6 18 4.5t16 -9.5q13 -19 -6 -34q-5 -3 -20 -21l-2 -4h2q20 -8 30 -10q24 -10 35 -27
q8 -11 8 -26q-1 -27 -26.5 -50t-54.5 -34q-38 -11 -62 -4z" />
    <glyph glyph-name="onesuperior" unicode="&#xb9;" horiz-adv-x="557" 
d="M248 475q-25 18 -10 43q13 20 24 38t14.5 23t10.5 15.5t8.5 13t12 18t19 27.5t31 44.5t45.5 66.5q-58 -31 -67 -35q-29 -12 -41 12q-8 9 -4 22t16 19q85 52 176 84q20 7 33.5 -11.5t1.5 -37.5q-94 -130 -142 -203t-85 -125q-7 -12 -20 -15.5t-23 1.5z" />
    <glyph glyph-name="guillemotright" unicode="&#xbb;" horiz-adv-x="1705" 
d="M569 0q-11 -7 -23 -4t-18 14q-6 10 -2.5 22.5t13.5 18.5q47 28 197 122.5t243 148.5q-32 24 -179 114.5t-208 151.5q-9 9 -9 21.5t9 21.5t21.5 9t21.5 -9q61 -60 220 -156t208 -147q12 -12 6.5 -28t-22.5 -24q-77 -34 -153 -77.5t-175.5 -106.5t-149.5 -92zM979 0
q-11 -7 -23 -4t-18 14q-6 10 -3 22.5t13 18.5q45 27 196.5 122t244.5 149q-33 24 -180 114.5t-208 151.5q-9 9 -9 21.5t9 21.5t21.5 9t21.5 -9q61 -60 220.5 -156t208.5 -147q12 -12 6.5 -28t-23.5 -24q-77 -34 -153 -77.5t-174.5 -106t-149.5 -92.5z" />
    <glyph glyph-name="questiondown" unicode="&#xbf;" horiz-adv-x="1398" 
d="M1116 825q11 -5 16 -16t-2 -23q-39 -67 -97 -115.5t-125.5 -79t-134 -54.5t-143 -57.5t-132.5 -73.5q-74 -50 -74 -150q0 -52 23.5 -104.5t65.5 -96t110 -71t149 -27.5q43 0 68 4q86 12 153.5 50t105 85t56.5 101q10 31 10 75q0 37 -8 58q-21 55 -76 61q-26 7 -26 35
q2 13 12 21.5t23 5.5q90 -12 124 -101q15 -38 15 -78t-17 -96q-33 -103 -126.5 -180t-237.5 -98q-25 -4 -74 -4q-94 0 -173.5 33t-130.5 85.5t-79.5 116.5t-28.5 129q0 129 99 197q60 41 137 75t141.5 57t128 50.5t117.5 70t90 101.5q4 12 16.5 16t24.5 -2zM1206 979
q-2 -2 -2 -6q-2 -3 -4 -9.5t-4 -7.5l-8 -16q-2 -5 -5.5 -11t-6 -10t-2.5 -6q-6 -10 -20 -13t-24 3q-11 8 -13.5 20t5.5 23l13 23q6 12 6 14q4 2 4 6v2q3 12 14 18.5t23 4.5q12 -1 19 -12t5 -23z" />
    <glyph glyph-name="Agrave" unicode="&#xc0;" horiz-adv-x="1542" 
d="M934 -430q8 302 -166 616l-2 2l-43 9q-83 15 -182 47l-52 16l-872 -643q-9 -6 -22.5 -4t-20.5 12q-7 9 -5 21.5t11 21.5l842 617l-37 16q-181 82 -275 187t-57 188q41 90 140 90q47 0 96 -18q147 -50 313 -228q7 -10 22.5 -26.5t16.5 -18.5l14 -16l1282 968l2 3h5v2l4 2
q24 14 40 -10.5t-8 -41.5l-6 -6h-2q-19 -15 -43 -51q-34 -44 -90 -133q-126 -193 -260 -438q-107 -190 -229 -424l-56 -113q228 15 328 41q11 5 22.5 -1t14.5 -19q4 -10 -2 -22t-17 -15q-111 -30 -376 -47l-64 -134q-110 -228 -207 -460q-6 -16 -21 -19.5t-27 5t-11 24.5z
M1171 215h54l71 141q137 266 228 428q171 301 264 443l12 18l-1108 -833l25 -35q32 -42 71 -105l19 -28h-6q179 -29 370 -29zM457 338l22 -8l125 92l-8 12l-39 43q-155 166 -289 213q-44 15 -73 15q-63 0 -84 -56q-12 -12 -0.5 -47.5t47.5 -75.5q82 -92 252 -168
q12 -7 47 -20zM1145 49l51 103l-25 2q-177 0 -311 20l-16 2l10 -18q96 -200 127 -385l8 -66l12 29q59 136 144 313zM1935 1526v2l-12 6l-16 10l-43 29l-39 29l-23 14q0 2 -2 2l-4 4q-7 11 -6 23t10 20q9 7 20.5 7t18.5 -7l21 -14l38 -27l41 -29q2 -1 8.5 -4.5t8.5 -5.5l8 -4
l2 -2q23 -16 10 -39q-6 -10 -18.5 -14.5t-22.5 0.5zM670 342l-27 33l-94 -70l8 -4l117 -31l51 -10l-23 33z" />
    <glyph glyph-name="Aacute" unicode="&#xc1;" horiz-adv-x="1542" 
d="M2040 1501q-3 12 3.5 24t18.5 13q10 4 48 11.5t55 9.5q22 2 57 10q12 3 23 -4t14 -19q3 -11 -5 -22.5t-20 -12.5q-26 -9 -57 -12l-98 -18q-11 -5 -23 1t-16 19zM934 -430q8 302 -166 616l-2 2l-43 9q-83 15 -182 47l-52 16l-872 -643q-9 -6 -22.5 -4t-20.5 12
q-7 9 -5 21.5t11 21.5l842 617l-37 16q-181 82 -275 187t-57 188q41 90 140 90q47 0 96 -18q147 -50 313 -228q7 -10 22.5 -26.5t16.5 -18.5l14 -16l1282 968l2 3h5v2l4 2q24 14 40 -10.5t-8 -41.5l-6 -6h-2q-19 -15 -43 -51q-34 -44 -90 -133q-126 -193 -260 -438
q-107 -190 -229 -424l-56 -113q228 15 328 41q11 5 22.5 -1t14.5 -19q4 -10 -2 -22t-17 -15q-111 -30 -376 -47l-64 -134q-110 -228 -207 -460q-6 -16 -21 -19.5t-27 5t-11 24.5zM1145 49l51 103l-25 2q-177 0 -311 20l-16 2l10 -18q96 -200 127 -385l8 -66l12 29
q59 136 144 313zM1171 215h54l71 141q137 266 228 428q171 301 264 443l12 18l-1108 -833l25 -35q32 -42 71 -105l19 -28h-6q179 -29 370 -29zM670 342l-27 33l-94 -70l8 -4l117 -31l51 -10l-23 33zM457 338l22 -8l125 92l-8 12l-39 43q-155 166 -289 213q-44 15 -73 15
q-63 0 -84 -56q-12 -12 -0.5 -47.5t47.5 -75.5q82 -92 252 -168q12 -7 47 -20z" />
    <glyph glyph-name="Acircumflex" unicode="&#xc2;" horiz-adv-x="1632" 
d="M993 -389q8 302 -166 616l-2 2l-43 9q-83 15 -182 47l-51 16l-686 -500q-348 -224 -477 -209q-11 -2 -21.5 7t-11.5 22q-3 13 5 26t21 9q85 -29 431 186q15 9 22 13l649 471l-37 16q-181 82 -274.5 187t-56.5 188q41 90 139 90q44 0 96 -19q149 -51 314 -227q4 -5 38 -45
l15 -16l1282 968l2 2h4v3l4 2q24 14 40.5 -10.5t-7.5 -41.5l-6 -6h-2q-19 -15 -43 -51q-40 -53 -91 -133q-126 -193 -260 -438q-107 -190 -229 -424l-55 -113q272 18 415 55q11 5 22.5 -1t14.5 -19q4 -10 -1.5 -22t-16.5 -15q-152 -41 -465 -61l-63 -134
q-110 -228 -207 -460q-6 -16 -21 -19.5t-27.5 5t-11.5 24.5zM1204 90l51 103l-24 2q-177 0 -311 20l-17 2l10 -18q96 -200 127 -385l9 -66l12 29q68 157 143 313zM1231 256h53l72 141q147 286 227 428q171 301 264 443l13 18l-1108 -833l24 -35q38 -50 72 -105l18 -28h-6
q179 -29 371 -29zM729 383l-27 33l-94 -70l8 -4l117 -31l51 -10l-22 33zM516 379l23 -8l125 92l-9 12l-39 43q-155 166 -288 213q-41 14 -74 14q-63 0 -84 -55q-12 -12 -0.5 -47.5t47.5 -75.5q82 -92 252 -168q12 -7 47 -20zM2161 1563q-30 39 -39 61l-2 2l-11 -6l-14 -12
l-53 -37q-9 -9 -23.5 -7.5t-21.5 13.5q-8 7 -7 20.5t11 22.5q10 8 25.5 18t25.5 19l70 49q15 9 30 0.5t17 -23.5q7 -37 41 -77q9 -9 7.5 -23.5t-11.5 -21.5q-19 -16 -45 2z" />
    <glyph glyph-name="Atilde" unicode="&#xc3;" horiz-adv-x="1632" 
d="M993 -389q8 302 -166 616l-2 2l-43 9q-83 15 -182 47l-51 16l-686 -500q-348 -224 -477 -209q-11 -2 -21.5 7t-11.5 22q-3 13 5 26t21 9q85 -29 431 186q15 9 22 13l649 471l-37 16q-181 82 -274.5 187t-56.5 188q41 90 139 90q44 0 96 -19q149 -51 314 -227q4 -5 38 -45
l15 -16l1282 968l2 2h4v3l4 2q24 14 40.5 -10.5t-7.5 -41.5l-6 -6h-2q-19 -15 -43 -51q-40 -53 -91 -133q-126 -193 -260 -438q-107 -190 -229 -424l-55 -113q272 18 415 55q11 5 22.5 -1t14.5 -19q4 -10 -1.5 -22t-16.5 -15q-152 -41 -465 -61l-63 -134
q-110 -228 -207 -460q-6 -16 -21 -19.5t-27.5 5t-11.5 24.5zM1204 90l51 103l-24 2q-177 0 -311 20l-17 2l10 -18q96 -200 127 -385l9 -66l12 29q68 157 143 313zM1231 256h53l72 141q147 286 227 428q171 301 264 443l13 18l-1108 -833l24 -35q38 -50 72 -105l18 -28h-6
q179 -29 371 -29zM729 383l-27 33l-94 -70l8 -4l117 -31l51 -10l-22 33zM516 379l23 -8l125 92l-9 12l-39 43q-155 166 -288 213q-41 14 -74 14q-63 0 -84 -55q-12 -12 -0.5 -47.5t47.5 -75.5q82 -92 252 -168q12 -7 47 -20zM2107 1581l-18 6q-2 1 -8 4.5t-8 5.5q-5 2 -16 7
t-17 6q-12 4 -25 4q-11 -5 -14 -12q-8 -9 -21 -11.5t-22 4.5q-10 7 -12 20.5t6 22.5q20 29 51 35q23 5 53 -4q14 -3 43 -18l17 -6q2 -2 12 -7l3 -1q3 -1 7 -1l19 4q9 0 16 7l6 2v2q7 22 29 22q12 1 21.5 -7.5t11.5 -20.5q0 -20 -15 -35q-15 -20 -55 -29q-35 -12 -64 0z" />
    <glyph glyph-name="Adieresis" unicode="&#xc4;" horiz-adv-x="1632" 
d="M993 -389q8 302 -166 616l-2 2l-43 9q-83 15 -182 47l-51 16l-686 -500q-348 -224 -477 -209q-11 -2 -21.5 7t-11.5 22q-3 13 5 26t21 9q85 -29 431 186q15 9 22 13l649 471l-37 16q-181 82 -274.5 187t-56.5 188q41 90 139 90q44 0 96 -19q149 -51 314 -227q4 -5 38 -45
l15 -16l1282 968l2 2h4v3l4 2q24 14 40.5 -10.5t-7.5 -41.5l-6 -6h-2q-19 -15 -43 -51q-40 -53 -91 -133q-126 -193 -260 -438q-107 -190 -229 -424l-55 -113q272 18 415 55q11 5 22.5 -1t14.5 -19q4 -10 -1.5 -22t-16.5 -15q-152 -41 -465 -61l-63 -134
q-110 -228 -207 -460q-6 -16 -21 -19.5t-27.5 5t-11.5 24.5zM1204 90l51 103l-24 2q-177 0 -311 20l-17 2l10 -18q96 -200 127 -385l9 -66l12 29q68 157 143 313zM1231 256h53l72 141q147 286 227 428q171 301 264 443l13 18l-1108 -833l24 -35q38 -50 72 -105l18 -28h-6
q179 -29 371 -29zM729 383l-27 33l-94 -70l8 -4l117 -31l51 -10l-22 33zM516 379l23 -8l125 92l-9 12l-39 43q-155 166 -288 213q-41 14 -74 14q-63 0 -84 -55q-12 -12 -0.5 -47.5t47.5 -75.5q82 -92 252 -168q12 -7 47 -20zM1935 1577q-13 13 -13 34t13 34t33 13t33 -13
t13 -34t-13 -34t-33 -13t-33 13zM2165 1577q-13 13 -13 34t13 34t32 13t33 -13t14 -34t-14 -34t-33 -13t-32 13z" />
    <glyph glyph-name="Aring" unicode="&#xc5;" horiz-adv-x="1632" 
d="M993 -389q8 302 -166 616l-2 2l-43 9q-83 15 -182 47l-51 16l-686 -500q-348 -224 -477 -209q-11 -2 -21.5 7t-11.5 22q-3 13 5 26t21 9q85 -29 431 186q15 9 22 13l649 471l-37 16q-181 82 -274.5 187t-56.5 188q41 90 139 90q44 0 96 -19q149 -51 314 -227q4 -5 38 -45
l15 -16l1274 962l-15 6q-27 15 -32 39q-6 26 8 47q14 20 35 27q33 16 77 12q9 0 16 -8t7 -18q-1 -9 -9.5 -16t-17.5 -7q-30 4 -53 -8q-8 -2 -14 -8q-2 -2 -2 -6v-4q1 0 1.5 -1t2 -2t4.5 -2q10 -6 31 -10q6 0 19 -1t19 -1q19 0 27 4q22 2 29 17q2 0 0 4q-13 13 -19 16
q-9 6 -11.5 16t3.5 19q13 19 35 8q28 -21 35 -37q11 -21 4 -45q-13 -35 -66 -47q-16 -4 -37 -4h-14q3 -17 -12 -29l-6 -6h-2q-19 -15 -43 -51q-40 -53 -91 -133q-126 -193 -260 -438q-107 -190 -229 -424l-55 -113q272 18 415 55q11 5 22.5 -1t14.5 -19q4 -10 -1.5 -22
t-16.5 -15q-152 -41 -465 -61l-63 -134q-110 -228 -207 -460q-6 -16 -21 -19.5t-27.5 5t-11.5 24.5zM1231 256h53l72 141q147 286 227 428q171 301 264 443l13 18l-1108 -833l24 -35q38 -50 72 -105l18 -28h-6q179 -29 371 -29zM516 379l23 -8l125 92l-9 12l-39 43
q-155 166 -288 213q-41 14 -74 14q-63 0 -84 -55q-12 -12 -0.5 -47.5t47.5 -75.5q82 -92 252 -168q12 -7 47 -20zM1204 90l51 103l-24 2q-177 0 -311 20l-17 2l10 -18q96 -200 127 -385l9 -66l12 29q68 157 143 313zM729 383l-27 33l-94 -70l8 -4l117 -31l51 -10l-22 33z
" />
    <glyph glyph-name="AE" unicode="&#xc6;" horiz-adv-x="2770" 
d="M993 -389q8 302 -166 616l-2 2l-43 9q-83 15 -182 47l-51 16l-686 -500q-348 -224 -477 -209q-11 -2 -21.5 7t-11.5 22q-3 13 5 26t21 9q85 -29 431 186q15 9 22 13l649 471l-37 16q-181 82 -274.5 187t-56.5 188q41 90 139 90q44 0 96 -19q149 -51 314 -227q4 -5 38 -45
l15 -16l1282 968l2 2h4v3l4 2q24 14 40.5 -10.5t-7.5 -41.5l-6 -6h-2q-19 -15 -43 -51q-40 -53 -91 -133q-21 -31 -47 -74q142 97 340 154q161 45 318 45q161 0 280.5 -51t163.5 -154q15 -38 15 -70q0 -93 -93 -159q-64 -47 -133 -47q-42 0 -67 22q-10 7 -12 20.5t6 22.5
q7 10 20 12t23 -6q11 -14 51.5 -7.5t77.5 32.5q77 56 63 133l-6 24l-19 29q-43 66 -140 100.5t-226 34.5q-149 0 -303 -43q-147 -39 -269 -109t-198 -161l-74 -129q-19 -62 -16 -125q6 -133 149 -211l19 -10l32 12q201 65 326 78q54 4 80 4q147 0 180 -76q0 -1 1 -3t1 -3
q8 -53 -35 -90q-33 -28 -94 -45q-60 -14 -145 -14q-78 0 -137 10q-112 15 -187 49l-26 10l-60 -20q-274 -110 -463 -283q-128 -269 -186 -403q41 -92 168 -141.5t285 -49.5q264 0 516.5 99.5t455.5 310.5q9 9 22 8.5t21 -8.5q9 -7 9.5 -20.5t-7.5 -22.5q-213 -220 -478 -324
t-541 -104q-161 0 -290.5 47.5t-191.5 132.5l-24 -59q-6 -16 -21 -19.5t-27.5 5t-11.5 24.5zM1231 256h53l72 141q147 286 227 428l33 58q28 77 78 135q63 110 153 250l13 18l-1108 -833l24 -35q38 -50 72 -105l18 -28h-6q179 -29 371 -29zM516 379l23 -8l125 92l-9 12
l-39 43q-155 166 -288 213q-41 14 -74 14q-63 0 -84 -55q-12 -12 -0.5 -47.5t47.5 -75.5q82 -92 252 -168q12 -7 47 -20zM1358 264q180 131 377 211l10 2l-6 4q-137 94 -148 230q-108 -194 -233 -447zM1159 86q34 39 86 88l10 19l-24 2q-177 0 -311 20l-17 2l10 -18
q85 -176 119 -342q22 110 127 229zM2298 444q46 11 69 31q13 10 13 23l2 4l-6 8q-29 29 -117 29q-45 0 -74 -4q-116 -13 -254 -56l-26 -10l26 -6q86 -23 109 -27q59 -6 110 -6q91 0 148 14zM729 383l-27 33l-94 -70l8 -4l117 -31l51 -10l-22 33z" />
    <glyph glyph-name="Ccedilla" unicode="&#xc7;" horiz-adv-x="1705" 
d="M283 -760q-22 3 -36.5 20.5t-19.5 43.5q-1 13 7 24t20 13q14 2 25 -7t12 -22l4 -8q2 -4 4 -4q18 -4 41 6q31 10 47 26q16 13 16 23h3l-3 2q-1 1 -10 4l-76 25q-28 12 -22 34q0 7 2 9q2 20 29 51l6 10q-55 13 -115 47q-178 112 -166 375q7 153 68 313t159 302t226 273.5
t269 234t289.5 177.5t285.5 111q128 35 254 35q79 0 153 -19q96 -26 151.5 -90.5t55.5 -167.5q0 -98 -60.5 -203.5t-153 -194.5t-206 -169.5t-217.5 -136t-188 -86.5q-12 -4 -23 1t-16 17q-4 12 1 23t17 16q69 25 152 68t171.5 99.5t170.5 125.5t147.5 140.5t104.5 150
t39 149.5q0 155 -162 199q-55 16 -137 16q-109 0 -240 -32q-132 -35 -275 -108t-279 -172t-259.5 -226t-218 -263t-152.5 -289t-65 -298q-11 -227 137 -320q92 -57 244 -57q56 0 131 10q229 36 472.5 165.5t395.5 301.5q7 9 20.5 9.5t22.5 -7.5q22 -22 2 -43
q-160 -180 -412.5 -314.5t-492.5 -170.5q-59 -10 -139 -10q-59 0 -88 4q0 -1 -5 -6q-8 -5 -26 -27l-2 -6h2q12 -6 39 -15q26 -8 47 -32q10 -20 10 -35q-3 -35 -36 -66t-70 -45q-47 -14 -82 -4z" />
    <glyph glyph-name="Egrave" unicode="&#xc8;" horiz-adv-x="1783" 
d="M180 86q98 113 250 215t326 174l10 2l-6 4q-143 99 -148 244q-5 106 43.5 203t136 170t194 127.5t226.5 87.5q161 45 318 45q161 0 280.5 -51t163.5 -154q15 -38 15 -70q0 -93 -93 -159q-64 -47 -133 -47q-42 0 -67 22q-10 7 -12 20.5t6 22.5q7 10 20 12t23 -6
q11 -14 51.5 -7.5t77.5 32.5q77 56 63 133l-6 24l-18 29q-43 66 -140.5 100.5t-226.5 34.5q-149 0 -303 -43q-117 -31 -218.5 -82t-179.5 -117t-120.5 -150.5t-38.5 -174.5q6 -133 149 -211l19 -10l32 12q201 65 326 78q54 4 80 4q147 0 180 -76q0 -1 1 -3t1 -3
q8 -53 -35 -90q-33 -28 -94 -45q-60 -14 -145 -14q-78 0 -137 10q-112 15 -187 49l-26 10l-60 -20q-171 -68 -317 -168.5t-238 -210.5q-108 -128 -108 -234q0 -85 69.5 -147t173.5 -90t224 -27q264 0 516.5 99.5t455.5 310.5q9 9 22 8.5t21 -8.5q9 -7 9.5 -20.5t-7.5 -22.5
q-213 -220 -478 -324t-541 -104q-145 0 -264.5 37.5t-193 112.5t-73.5 173q0 135 131 283zM1319 444q47 11 70 31q12 9 12 23l2 4l-6 8q-29 29 -117 29q-45 0 -74 -4q-116 -13 -254 -56l-26 -10l26 -6q86 -23 109 -27q59 -6 110 -6q91 0 148 14zM1485 1434v2l-12 6l-17 10
l-43 29l-39 28l-22 15q0 2 -2 2l-4 4q-7 11 -6 23t10 20q9 7 20.5 7t18.5 -7l20 -14l39 -27l41 -29q2 -1 8 -4.5t8 -5.5l8 -4l3 -2q23 -16 10 -39q-6 -10 -18.5 -14.5t-22.5 0.5z" />
    <glyph glyph-name="Eacute" unicode="&#xc9;" horiz-adv-x="1783" 
d="M180 86q98 113 250 215t326 174l10 2l-6 4q-143 99 -148 244q-5 106 43.5 203t136 170t194 127.5t226.5 87.5q161 45 318 45q161 0 280.5 -51t163.5 -154q15 -38 15 -70q0 -93 -93 -159q-64 -47 -133 -47q-42 0 -67 22q-10 7 -12 20.5t6 22.5q7 10 20 12t23 -6
q11 -14 51.5 -7.5t77.5 32.5q77 56 63 133l-6 24l-18 29q-43 66 -140.5 100.5t-226.5 34.5q-149 0 -303 -43q-117 -31 -218.5 -82t-179.5 -117t-120.5 -150.5t-38.5 -174.5q6 -133 149 -211l19 -10l32 12q201 65 326 78q54 4 80 4q147 0 180 -76q0 -1 1 -3t1 -3
q8 -53 -35 -90q-33 -28 -94 -45q-60 -14 -145 -14q-78 0 -137 10q-112 15 -187 49l-26 10l-60 -20q-171 -68 -317 -168.5t-238 -210.5q-108 -128 -108 -234q0 -85 69.5 -147t173.5 -90t224 -27q264 0 516.5 99.5t455.5 310.5q9 9 22 8.5t21 -8.5q9 -7 9.5 -20.5t-7.5 -22.5
q-213 -220 -478 -324t-541 -104q-145 0 -264.5 37.5t-193 112.5t-73.5 173q0 135 131 283zM1319 444q47 11 70 31q12 9 12 23l2 4l-6 8q-29 29 -117 29q-45 0 -74 -4q-116 -13 -254 -56l-26 -10l26 -6q86 -23 109 -27q59 -6 110 -6q91 0 148 14zM1511 1440q-7 9 -3.5 22.5
t14.5 18.5q12 9 94 45q5 2 53 26q10 5 22.5 1.5t18.5 -15.5q7 -9 2.5 -21.5t-14.5 -17.5l-53 -29q-15 -4 -49 -20.5t-42 -22.5q-9 -6 -22.5 -2.5t-20.5 15.5z" />
    <glyph glyph-name="Ecircumflex" unicode="&#xca;" horiz-adv-x="1783" 
d="M180 86q98 113 250 215t326 174l10 2l-6 4q-143 99 -148 244q-5 106 43.5 203t136 170t194 127.5t226.5 87.5q161 45 318 45q161 0 280.5 -51t163.5 -154q15 -38 15 -70q0 -93 -93 -159q-64 -47 -133 -47q-42 0 -67 22q-10 7 -12 20.5t6 22.5q7 10 20 12t23 -6
q11 -14 51.5 -7.5t77.5 32.5q77 56 63 133l-6 24l-18 29q-43 66 -140.5 100.5t-226.5 34.5q-149 0 -303 -43q-117 -31 -218.5 -82t-179.5 -117t-120.5 -150.5t-38.5 -174.5q6 -133 149 -211l19 -10l32 12q201 65 326 78q54 4 80 4q147 0 180 -76q0 -1 1 -3t1 -3
q8 -53 -35 -90q-33 -28 -94 -45q-60 -14 -145 -14q-78 0 -137 10q-112 15 -187 49l-26 10l-60 -20q-171 -68 -317 -168.5t-238 -210.5q-108 -128 -108 -234q0 -85 69.5 -147t173.5 -90t224 -27q264 0 516.5 99.5t455.5 310.5q9 9 22 8.5t21 -8.5q9 -7 9.5 -20.5t-7.5 -22.5
q-213 -220 -478 -324t-541 -104q-145 0 -264.5 37.5t-193 112.5t-73.5 173q0 135 131 283zM1319 444q47 11 70 31q12 9 12 23l2 4l-6 8q-29 29 -117 29q-45 0 -74 -4q-116 -13 -254 -56l-26 -10l26 -6q86 -23 109 -27q59 -6 110 -6q91 0 148 14zM1712 1473q-30 35 -37 57
l-4 2l-8 -8l-14 -11q-8 -7 -23.5 -16.5t-26.5 -17.5q-9 -9 -21.5 -7.5t-18.5 13.5q-8 7 -7.5 19.5t9.5 19.5q11 9 26 18.5t23 16.5q10 8 32 24t33 25q13 7 27 -1t16 -22q7 -34 39 -74q9 -9 8 -22t-12 -21q-19 -13 -41 5z" />
    <glyph glyph-name="Edieresis" unicode="&#xcb;" horiz-adv-x="1783" 
d="M180 86q98 113 250 215t326 174l10 2l-6 4q-143 99 -148 244q-5 106 43.5 203t136 170t194 127.5t226.5 87.5q161 45 318 45q161 0 280.5 -51t163.5 -154q15 -38 15 -70q0 -93 -93 -159q-64 -47 -133 -47q-42 0 -67 22q-10 7 -12 20.5t6 22.5q7 10 20 12t23 -6
q11 -14 51.5 -7.5t77.5 32.5q77 56 63 133l-6 24l-18 29q-43 66 -140.5 100.5t-226.5 34.5q-149 0 -303 -43q-117 -31 -218.5 -82t-179.5 -117t-120.5 -150.5t-38.5 -174.5q6 -133 149 -211l19 -10l32 12q201 65 326 78q54 4 80 4q147 0 180 -76q0 -1 1 -3t1 -3
q8 -53 -35 -90q-33 -28 -94 -45q-60 -14 -145 -14q-78 0 -137 10q-112 15 -187 49l-26 10l-60 -20q-171 -68 -317 -168.5t-238 -210.5q-108 -128 -108 -234q0 -85 69.5 -147t173.5 -90t224 -27q264 0 516.5 99.5t455.5 310.5q9 9 22 8.5t21 -8.5q9 -7 9.5 -20.5t-7.5 -22.5
q-213 -220 -478 -324t-541 -104q-145 0 -264.5 37.5t-193 112.5t-73.5 173q0 135 131 283zM1319 444q47 11 70 31q12 9 12 23l2 4l-6 8q-29 29 -117 29q-45 0 -74 -4q-116 -13 -254 -56l-26 -10l26 -6q86 -23 109 -27q59 -6 110 -6q91 0 148 14zM1438 1450q-14 14 -14 34
t14 34t33 14t32 -14t13 -34t-13 -34t-32 -14t-33 14zM1667 1450q-13 14 -13 34t13 34t33 14t33 -14t13 -34t-13 -34t-33 -14t-33 14z" />
    <glyph glyph-name="Igrave" unicode="&#xcc;" horiz-adv-x="1531" 
d="M659 1196q-2 12 6 23t21 12q389 60 936 104q44 44 74 64q9 7 22 5t21 -13q5 -9 1.5 -22.5t-14.5 -20.5l-6 -5q380 28 684 43q14 0 23.5 -8t9.5 -20q1 -13 -8 -23t-21 -10q-352 -19 -757 -49q-69 -77 -207 -248q-32 -41 -90 -114t-89 -113t-83.5 -109.5t-108.5 -146.5
q-205 -282 -422 -608q-99 -153 -139 -218q-43 -74 -51 -92q242 34 370 45q319 29 506 29q143 0 238 -14q12 -3 19 -13t5 -22q-1 -13 -11.5 -21t-22.5 -6q-99 15 -238 15q-209 0 -489 -29q-210 -21 -570 -73.5t-504 -82.5q-12 -2 -22.5 5.5t-11.5 19.5q-3 12 3.5 23t18.5 14
q138 29 643 102q2 2 2 4v6q4 24 62 123q67 109 141 217q163 246 424 613q56 78 108.5 147.5t81.5 106.5t90.5 115t90.5 114q92 118 168 203q-529 -46 -869 -99q-12 -2 -23 6.5t-12 20.5zM1647 1505v2l-13 6l-16 11l-43 28l-39 29l-23 14q0 2 -2 2l-4 5q-7 11 -6 23t10 20
q9 7 20 7t19 -7l21 -15l39 -26l41 -29q2 -1 8 -4.5t8 -5.5l8 -4l2 -2q9 -6 13 -17t-2 -22t-18.5 -15t-22.5 0z" />
    <glyph glyph-name="Iacute" unicode="&#xcd;" horiz-adv-x="1531" 
d="M659 1196q-2 12 6 23t21 12q389 60 936 104q44 44 74 64q9 7 22 5t21 -13q5 -9 1.5 -22.5t-14.5 -20.5l-6 -5q380 28 684 43q14 0 23.5 -8t9.5 -20q1 -13 -8 -23t-21 -10q-352 -19 -757 -49q-69 -77 -207 -248q-32 -41 -90 -114t-89 -113t-83.5 -109.5t-108.5 -146.5
q-205 -282 -422 -608q-99 -153 -139 -218q-43 -74 -51 -92q242 34 370 45q319 29 506 29q143 0 238 -14q12 -3 19 -13t5 -22q-1 -13 -11.5 -21t-22.5 -6q-99 15 -238 15q-209 0 -489 -29q-210 -21 -570 -73.5t-504 -82.5q-12 -2 -22.5 5.5t-11.5 19.5q-3 12 3.5 23t18.5 14
q138 29 643 102q2 2 2 4v6q4 24 62 123q67 109 141 217q163 246 424 613q56 78 108.5 147.5t81.5 106.5t90.5 115t90.5 114q92 118 168 203q-529 -46 -869 -99q-12 -2 -23 6.5t-12 20.5zM1751 1491q-7 9 -4 22.5t14 18.5q12 9 94 45l54 27q10 5 22.5 1t18.5 -16
q7 -9 2 -21.5t-15 -17.5l-53 -28q-15 -4 -48.5 -20.5t-41.5 -22.5q-9 -6 -22.5 -3t-20.5 15z" />
    <glyph glyph-name="Icircumflex" unicode="&#xce;" horiz-adv-x="1531" 
d="M659 1196q-2 12 6 23t21 12q389 60 936 104q44 44 74 64q9 7 22 5t21 -13q5 -9 1.5 -22.5t-14.5 -20.5l-6 -5q380 28 684 43q14 0 23.5 -8t9.5 -20q1 -13 -8 -23t-21 -10q-352 -19 -757 -49q-69 -77 -207 -248q-32 -41 -90 -114t-89 -113t-83.5 -109.5t-108.5 -146.5
q-205 -282 -422 -608q-99 -153 -139 -218q-43 -74 -51 -92q242 34 370 45q319 29 506 29q143 0 238 -14q12 -3 19 -13t5 -22q-1 -13 -11.5 -21t-22.5 -6q-99 15 -238 15q-209 0 -489 -29q-210 -21 -570 -73.5t-504 -82.5q-12 -2 -22.5 5.5t-11.5 19.5q-3 12 3.5 23t18.5 14
q138 29 643 102q2 2 2 4v6q4 24 62 123q67 109 141 217q163 246 424 613q56 78 108.5 147.5t81.5 106.5t90.5 115t90.5 114q92 118 168 203q-529 -46 -869 -99q-12 -2 -23 6.5t-12 20.5zM1829 1491q-31 40 -37 59l-4 4l-10 -8q-5 -7 -13 -10q-10 -8 -25.5 -18.5t-25.5 -18.5
q-9 -9 -22.5 -7.5t-20.5 13.5q-8 7 -7.5 20.5t9.5 20.5q10 8 26 17.5t25 17.5l68 49q15 7 29 0t16 -22q7 -34 39 -74q9 -11 8 -24t-10 -21q-21 -15 -45 2z" />
    <glyph glyph-name="Idieresis" unicode="&#xcf;" horiz-adv-x="1531" 
d="M659 1196q-2 12 6 23t21 12q389 60 936 104q44 44 74 64q9 7 22 5t21 -13q5 -9 1.5 -22.5t-14.5 -20.5l-6 -5q380 28 684 43q14 0 23.5 -8t9.5 -20q1 -13 -8 -23t-21 -10q-352 -19 -757 -49q-69 -77 -207 -248q-32 -41 -90 -114t-89 -113t-83.5 -109.5t-108.5 -146.5
q-205 -282 -422 -608q-99 -153 -139 -218q-43 -74 -51 -92q242 34 370 45q319 29 506 29q143 0 238 -14q12 -3 19 -13t5 -22q-1 -13 -11.5 -21t-22.5 -6q-99 15 -238 15q-209 0 -489 -29q-210 -21 -570 -73.5t-504 -82.5q-12 -2 -22.5 5.5t-11.5 19.5q-3 12 3.5 23t18.5 14
q138 29 643 102q2 2 2 4v6q4 24 62 123q67 109 141 217q163 246 424 613q56 78 108.5 147.5t81.5 106.5t90.5 115t90.5 114q92 118 168 203q-529 -46 -869 -99q-12 -2 -23 6.5t-12 20.5zM1872 1536q-14 14 -14 34t14 34t33 14t32 -14t13 -34t-13 -34t-32 -14t-33 14z
M1642 1536q-14 14 -14 34t14 34t33 14t33 -14t14 -34t-14 -34t-33 -14t-33 14z" />
    <glyph glyph-name="Eth" unicode="&#xd0;" horiz-adv-x="1982" 
d="M502 475q265 8 401 10q10 12 66.5 80.5t87.5 104.5q328 395 524 614q-131 35 -283 35q-164 0 -333 -40t-320 -113t-273.5 -185t-185.5 -246q-36 -71 -36 -160q0 -126 82 -213.5t206 -87.5q28 0 78 11q13 3 24.5 -4t14.5 -19t-4 -23t-19 -14q-50 -12 -96 -12
q-151 0 -249.5 107.5t-98.5 259.5q0 96 41 182q67 142 196 260.5t288.5 196t338 120.5t351.5 43q180 0 325 -45q191 210 256 260q10 8 23.5 6t19.5 -12q8 -10 6 -23t-12 -20q-65 -51 -229 -233q188 -74 288 -221q78 -121 78 -260q0 -142 -74 -295.5t-206 -300.5l-39 -43
l22 2l271 16q12 0 21 -9t9 -22q1 -12 -7.5 -21t-20.5 -9l-269 -17l-92 -6l-22 -23q-230 -216 -504 -364q-173 -94 -354.5 -154.5t-341.5 -83.5q-79 -12 -156 -12q-213 0 -260 96q-15 34 -15 58q0 71 78 143q111 100 344 180l72 25l66 84q149 194 274 348q-113 -2 -350 -10
q-14 -1 -21.5 13t-2 29t21.5 17zM1634 186l13 2h2q161 161 253.5 329t92.5 319q0 120 -66 223q-96 140 -282 207q-227 -254 -543 -635l-119 -144q359 0 438 -20q9 -1 15 -12.5t4 -22.5q-7 -30 -27 -24q-78 20 -407 20h-72q-186 -229 -307 -387q-9 -9 -15 -18
q392 109 1020 163zM348 -262q0 1 1 3t1 3q9 36 72 123l29 41q-219 -76 -310 -164q-79 -71 -51 -129q20 -39 107 -53q40 -6 92 -6q59 0 151 10q342 47 676 229q241 129 447 314l12 10l-55 -4q-577 -57 -969 -172l-80 -113q-54 -80 -61 -100l-4 -11q-6 -16 -29 -16
q-13 1 -22 12t-7 23z" />
    <glyph glyph-name="Ntilde" unicode="&#xd1;" horiz-adv-x="1867" 
d="M-287 -508q-6 11 -2 23t15 18q150 80 484.5 395.5t641.5 655t395 493.5l6 13l9 18q11 32 26 53q15 22 38.5 10t14.5 -38q-3 -9 -26 -62l-4 -6l-4 -12q-178 -537 -254 -1422q203 305 369.5 539.5t331.5 442t307 354.5t282 254t270 163q12 6 24 1.5t17 -15.5
q5 -12 0.5 -24.5t-16.5 -16.5q-132 -57 -278.5 -174t-292.5 -273t-317.5 -376.5t-336.5 -455.5t-366 -539q-13 -19 -35.5 -12t-22.5 30q2 170 64 630t143 730l-45 -58q-136 -177 -410.5 -465.5t-561.5 -550t-423 -335.5q-12 -6 -24.5 -2.5t-18.5 14.5zM1788 1159l-19 6
q-15 10 -16 11q-4 1 -15.5 6t-17.5 6q-12 4 -24 4q-12 -6 -15 -12q-8 -9 -21 -11t-22 5q-10 7 -12 20.5t6 22.5q19 28 51 34q24 5 54 -4q14 -3 43 -18l16 -6l12 -6l4 -1q4 -2 7 -2l18 5q10 0 16 6l7 2v2q7 22 28 22q12 1 21.5 -7.5t11.5 -20.5q0 -21 -14 -35
q-15 -20 -56 -29q-34 -11 -63 0z" />
    <glyph glyph-name="Ograve" unicode="&#xd2;" horiz-adv-x="1486" 
d="M164 -500l-2 2q-144 83 -144 301q0 211 129 500l15 31l-6 18q-21 70 -21 162q0 38 2 61q14 161 102.5 318.5t214 270.5t275 180.5t281.5 60.5q42 -2 84 -12t87.5 -30t87.5 -56.5t72 -85.5q68 -113 68 -271q0 -186 -90 -440q-58 -165 -172 -342l-25 -39l25 4
q102 24 277 89.5t251 103.5q12 6 24 1.5t17 -16.5q6 -10 2 -22.5t-16 -18.5q-89 -44 -282.5 -113.5t-315.5 -95.5l-35 -6l-22 -32q-111 -148 -232 -263q-135 -130 -273 -207t-257 -77q-63 0 -121 24zM1034 111l31 43q135 200 197 376q86 245 86 420q0 147 -58 238
q-48 77 -125 113.5t-159 41.5q-119 6 -256.5 -56.5t-254 -167.5t-200 -252.5t-96.5 -297.5q-5 -57 2 -125l4 -26l6 12q116 225 266 395q181 211 318 219q12 1 21 -6.5t11 -19.5q2 -14 -6.5 -23.5t-21.5 -9.5q-53 -5 -125.5 -57t-151.5 -144q-167 -191 -289 -444l-4 -8
l15 -33q106 -201 444 -215q18 -2 60 -2q116 0 286 29zM772 -197q80 77 154 166l57 70l-59 -6q-96 -13 -179 -13q-29 0 -59 3q-263 10 -403 131q-51 45 -84 98l-4 6l-19 -47q-96 -236 -96 -406q0 -173 96 -239l14 -10q46 -19 95 -19q101 0 228.5 70.5t258.5 195.5zM1040 1511
v2l-12 7l-16 10l-43 29l-39 28l-23 15q0 2 -2 2l-4 4q-7 11 -6 23t10 20q9 7 20 7t19 -7l21 -15l39 -26l40 -29q2 -1 8.5 -4.5t8.5 -5.5l8 -4l2 -2q23 -16 10 -39q-6 -11 -18.5 -15t-22.5 0z" />
    <glyph glyph-name="Oacute" unicode="&#xd3;" horiz-adv-x="1486" 
d="M164 -500l-2 2q-144 83 -144 301q0 211 129 500l15 31l-6 18q-21 70 -21 162q0 38 2 61q14 161 102.5 318.5t214 270.5t275 180.5t281.5 60.5q42 -2 84 -12t87.5 -30t87.5 -56.5t72 -85.5q68 -113 68 -271q0 -186 -90 -440q-58 -165 -172 -342l-25 -39l25 4
q102 24 277 89.5t251 103.5q12 6 24 1.5t17 -16.5q6 -10 2 -22.5t-16 -18.5q-89 -44 -282.5 -113.5t-315.5 -95.5l-35 -6l-22 -32q-111 -148 -232 -263q-135 -130 -273 -207t-257 -77q-63 0 -121 24zM1034 111l31 43q135 200 197 376q86 245 86 420q0 147 -58 238
q-48 77 -125 113.5t-159 41.5q-119 6 -256.5 -56.5t-254 -167.5t-200 -252.5t-96.5 -297.5q-5 -57 2 -125l4 -26l6 12q116 225 266 395q181 211 318 219q12 1 21 -6.5t11 -19.5q2 -14 -6.5 -23.5t-21.5 -9.5q-53 -5 -125.5 -57t-151.5 -144q-167 -191 -289 -444l-4 -8
l15 -33q106 -201 444 -215q18 -2 60 -2q116 0 286 29zM772 -197q80 77 154 166l57 70l-59 -6q-96 -13 -179 -13q-29 0 -59 3q-263 10 -403 131q-51 45 -84 98l-4 6l-19 -47q-96 -236 -96 -406q0 -173 96 -239l14 -10q46 -19 95 -19q101 0 228.5 70.5t258.5 195.5zM1126 1477
q-7 9 -3.5 22.5t14.5 18.5q12 9 94 45q5 2 53 26q10 5 22.5 1.5t18.5 -15.5q7 -9 2.5 -21.5t-14.5 -17.5l-53 -29q-15 -4 -49 -20.5t-42 -22.5q-9 -6 -22.5 -2.5t-20.5 15.5z" />
    <glyph glyph-name="Ocircumflex" unicode="&#xd4;" horiz-adv-x="1486" 
d="M164 -500l-2 2q-144 83 -144 301q0 211 129 500l15 31l-6 18q-21 70 -21 162q0 38 2 61q14 161 102.5 318.5t214 270.5t275 180.5t281.5 60.5q42 -2 84 -12t87.5 -30t87.5 -56.5t72 -85.5q68 -113 68 -271q0 -186 -90 -440q-58 -165 -172 -342l-25 -39l25 4
q102 24 277 89.5t251 103.5q12 6 24 1.5t17 -16.5q6 -10 2 -22.5t-16 -18.5q-89 -44 -282.5 -113.5t-315.5 -95.5l-35 -6l-22 -32q-111 -148 -232 -263q-135 -130 -273 -207t-257 -77q-63 0 -121 24zM1034 111l31 43q135 200 197 376q86 245 86 420q0 147 -58 238
q-48 77 -125 113.5t-159 41.5q-119 6 -256.5 -56.5t-254 -167.5t-200 -252.5t-96.5 -297.5q-5 -57 2 -125l4 -26l6 12q116 225 266 395q181 211 318 219q12 1 21 -6.5t11 -19.5q2 -14 -6.5 -23.5t-21.5 -9.5q-53 -5 -125.5 -57t-151.5 -144q-167 -191 -289 -444l-4 -8
l15 -33q106 -201 444 -215q18 -2 60 -2q116 0 286 29zM772 -197q80 77 154 166l57 70l-59 -6q-96 -13 -179 -13q-29 0 -59 3q-263 10 -403 131q-51 45 -84 98l-4 6l-19 -47q-96 -236 -96 -406q0 -173 96 -239l14 -10q46 -19 95 -19q101 0 228.5 70.5t258.5 195.5zM1167 1473
q-32 41 -39 61l-2 2l-10 -8q-3 -2 -6.5 -5.5t-5.5 -4.5q-10 -8 -26.5 -18.5t-26.5 -18.5q-9 -9 -22.5 -7.5t-20.5 13.5q-8 7 -7.5 20.5t9.5 20.5q10 8 25.5 18t25.5 19q20 12 67 49q17 7 31.5 -0.5t16.5 -22.5q8 -37 38 -75q10 -11 9 -24.5t-11 -21.5q-19 -16 -45 3z" />
    <glyph glyph-name="Otilde" unicode="&#xd5;" horiz-adv-x="1486" 
d="M164 -500l-2 2q-144 83 -144 301q0 211 129 500l15 31l-6 18q-21 70 -21 162q0 38 2 61q14 161 102.5 318.5t214 270.5t275 180.5t281.5 60.5q42 -2 84 -12t87.5 -30t87.5 -56.5t72 -85.5q68 -113 68 -271q0 -186 -90 -440q-58 -165 -172 -342l-25 -39l25 4
q102 24 277 89.5t251 103.5q12 6 24 1.5t17 -16.5q6 -10 2 -22.5t-16 -18.5q-89 -44 -282.5 -113.5t-315.5 -95.5l-35 -6l-22 -32q-111 -148 -232 -263q-135 -130 -273 -207t-257 -77q-63 0 -121 24zM1034 111l31 43q135 200 197 376q86 245 86 420q0 147 -58 238
q-48 77 -125 113.5t-159 41.5q-119 6 -256.5 -56.5t-254 -167.5t-200 -252.5t-96.5 -297.5q-5 -57 2 -125l4 -26l6 12q116 225 266 395q181 211 318 219q12 1 21 -6.5t11 -19.5q2 -14 -6.5 -23.5t-21.5 -9.5q-53 -5 -125.5 -57t-151.5 -144q-167 -191 -289 -444l-4 -8
l15 -33q106 -201 444 -215q18 -2 60 -2q116 0 286 29zM772 -197q80 77 154 166l57 70l-59 -6q-96 -13 -179 -13q-29 0 -59 3q-263 10 -403 131q-51 45 -84 98l-4 6l-19 -47q-96 -236 -96 -406q0 -173 96 -239l14 -10q46 -19 95 -19q101 0 228.5 70.5t258.5 195.5zM1159 1468
l-18 7q-2 1 -8.5 4.5t-8.5 5.5q-4 2 -15 6.5t-17 5.5q-12 4 -25 4q-11 -5 -14 -12q-8 -9 -21 -11t-22 5q-10 7 -12 20.5t6 22.5q20 29 51 35q21 4 53 -5q14 -4 43 -18l16 -6q2 -2 7 -4l6 -2l3 -1q3 -1 7 -1l18 4q11 0 17 6l6 2v2q8 23 29 23q12 1 21 -8t11 -21
q0 -21 -14 -35q-15 -20 -55 -29q-35 -12 -64 0z" />
    <glyph glyph-name="Odieresis" unicode="&#xd6;" horiz-adv-x="1486" 
d="M164 -500l-2 2q-144 83 -144 301q0 211 129 500l15 31l-6 18q-21 70 -21 162q0 38 2 61q14 161 102.5 318.5t214 270.5t275 180.5t281.5 60.5q42 -2 84 -12t87.5 -30t87.5 -56.5t72 -85.5q68 -113 68 -271q0 -186 -90 -440q-58 -165 -172 -342l-25 -39l25 4
q102 24 277 89.5t251 103.5q12 6 24 1.5t17 -16.5q6 -10 2 -22.5t-16 -18.5q-89 -44 -282.5 -113.5t-315.5 -95.5l-35 -6l-22 -32q-111 -148 -232 -263q-135 -130 -273 -207t-257 -77q-63 0 -121 24zM1034 111l31 43q135 200 197 376q86 245 86 420q0 147 -58 238
q-48 77 -125 113.5t-159 41.5q-119 6 -256.5 -56.5t-254 -167.5t-200 -252.5t-96.5 -297.5q-5 -57 2 -125l4 -26l6 12q116 225 266 395q181 211 318 219q12 1 21 -6.5t11 -19.5q2 -14 -6.5 -23.5t-21.5 -9.5q-53 -5 -125.5 -57t-151.5 -144q-167 -191 -289 -444l-4 -8
l15 -33q106 -201 444 -215q18 -2 60 -2q116 0 286 29zM772 -197q80 77 154 166l57 70l-59 -6q-96 -13 -179 -13q-29 0 -59 3q-263 10 -403 131q-51 45 -84 98l-4 6l-19 -47q-96 -236 -96 -406q0 -173 96 -239l14 -10q46 -19 95 -19q101 0 228.5 70.5t258.5 195.5zM1217 1497
q-13 13 -13 34t13 34t32 13t33 -13t14 -34t-14 -34t-33 -13t-32 13zM987 1497q-13 13 -13 34t13 34t33 13t33 -13t13 -34t-13 -34t-33 -13t-33 13z" />
    <glyph glyph-name="multiply" unicode="&#xd7;" horiz-adv-x="897" 
d="M612 276q-20 -17 -41 0l-129 91q-76 -42 -168 -86q-9 -5 -22 -2.5t-19 12.5q-8 12 -4 24.5t17 18.5l137 72q-14 11 -48.5 33.5t-58.5 39.5q-10 8 -12.5 20t4.5 23q5 11 17.5 14t21.5 -4q19 -14 66 -45.5t71 -48.5q109 58 150 76q9 4 21.5 -2.5t17.5 -17.5q8 -21 -21 -39
l-110 -58q86 -60 108 -78q20 -11 2 -43z" />
    <glyph glyph-name="Oslash" unicode="&#xd8;" horiz-adv-x="1486" 
d="M164 -500l-2 2q-74 45 -109 123q-81 -101 -106 -137q-8 -11 -20 -13t-23 5q-9 8 -11 21t5 22q11 15 30 40t48.5 63t52.5 69q-11 61 -11 106q0 221 129 502l15 31l-6 18q-21 70 -21 162q0 38 2 61q14 161 102.5 318.5t214 270.5t275 180.5t281.5 60.5q86 -5 170.5 -42
t142.5 -116q152 173 195 213q9 9 21.5 9t21.5 -9t9 -22.5t-9 -20.5q-80 -80 -205 -225q53 -101 53 -244q0 -184 -90 -438q-58 -165 -172 -342l-25 -39l25 4q102 24 277 89.5t251 103.5q12 6 24 1.5t17 -16.5q6 -10 2 -22.5t-16 -18.5q-89 -44 -282.5 -113.5t-315.5 -95.5
l-35 -6l-22 -32q-111 -148 -232 -263q-135 -130 -273 -207t-257 -77q-63 0 -121 24zM1282 1200q-49 70 -124 104t-152 39q-119 6 -256.5 -56.5t-254 -167.5t-200 -252.5t-96.5 -297.5q-5 -57 2 -125l4 -26l6 12q116 225 266 395q181 211 318 219q12 1 21 -6.5t11 -19.5
q2 -14 -6.5 -23.5t-21.5 -9.5q-53 -5 -125.5 -57t-151.5 -144q-167 -191 -289 -444l-4 -8l15 -33q50 -96 155 -149q573 695 883 1050zM1034 111l31 43q135 200 197 376q86 245 86 418q0 106 -35 195q-312 -362 -854 -1020q100 -36 229 -39q18 -2 60 -2q116 0 286 29z
M772 -197q80 77 154 166l57 70l-59 -6q-96 -13 -179 -13q-29 0 -59 3q-161 7 -268 51q-119 -143 -322 -393q24 -73 80 -115l14 -10q46 -19 95 -19q101 0 228.5 70.5t258.5 195.5zM358 100q-32 17 -75 54q-51 45 -84 98l-4 6l-19 -47q-112 -271 -94 -453q28 34 122.5 152
t153.5 190z" />
    <glyph glyph-name="Ugrave" unicode="&#xd9;" horiz-adv-x="1748" 
d="M1163 -743q-84 55 -84 206q0 140 64 324q38 107 100 224.5t127 207.5q-181 -160 -350.5 -283t-344.5 -207.5t-298 -84.5q-147 0 -213 116q-4 4 -4 9q-10 34 -10 86q0 298 477 817q308 336 782 733q7 9 20.5 8.5t22.5 -12.5q7 -9 6 -21.5t-10 -21.5q-494 -419 -776 -725
q-508 -555 -459 -828l4 -16l8 -14q57 -72 160 -72q325 0 1063 659l72 64l67 86q173 218 797 881q13 11 27.5 9t24 -14.5t1.5 -25.5q-79 -136 -351.5 -436.5t-516.5 -542.5l-25 -31q-245 -321 -338 -575q-24 -66 -43.5 -156t-19.5 -164q0 -118 55 -145q13 -7 16 -21t-2 -24
q-16 -26 -49 -10zM1948 1481v2l-13 6l-16 10l-43 29l-39 28l-22 15q0 2 -3 2l-4 4q-7 11 -6 23t10 20t20.5 8t18.5 -8l21 -14l39 -27l41 -29q2 -1 8 -4.5t8 -5.5l8 -4l2 -2q9 -6 13 -17t-2 -22q-6 -10 -18.5 -14.5t-22.5 0.5z" />
    <glyph glyph-name="Uacute" unicode="&#xda;" horiz-adv-x="1748" 
d="M1163 -743q-84 55 -84 206q0 140 64 324q38 107 100 224.5t127 207.5q-181 -160 -350.5 -283t-344.5 -207.5t-298 -84.5q-147 0 -213 116q-4 4 -4 9q-10 34 -10 86q0 298 477 817q308 336 782 733q7 9 20.5 8.5t22.5 -12.5q7 -9 6 -21.5t-10 -21.5q-494 -419 -776 -725
q-508 -555 -459 -828l4 -16l8 -14q57 -72 160 -72q325 0 1063 659l72 64l67 86q173 218 797 881q13 11 27.5 9t24 -14.5t1.5 -25.5q-79 -136 -351.5 -436.5t-516.5 -542.5l-25 -31q-245 -321 -338 -575q-24 -66 -43.5 -156t-19.5 -164q0 -118 55 -145q13 -7 16 -21t-2 -24
q-16 -26 -49 -10zM1890 1491q-7 9 -3.5 22.5t14.5 18.5q12 9 94 45q12 5 31.5 15.5t21.5 11.5q10 5 22.5 1t18.5 -16q7 -9 2.5 -21.5t-14.5 -17.5l-54 -28q-15 -4 -48.5 -20.5t-41.5 -22.5q-9 -6 -22.5 -3t-20.5 15z" />
    <glyph glyph-name="Ucircumflex" unicode="&#xdb;" horiz-adv-x="1748" 
d="M1163 -743q-84 55 -84 206q0 140 64 324q38 107 100 224.5t127 207.5q-181 -160 -350.5 -283t-344.5 -207.5t-298 -84.5q-147 0 -213 116q-4 4 -4 9q-10 34 -10 86q0 298 477 817q308 336 782 733q7 9 20.5 8.5t22.5 -12.5q7 -9 6 -21.5t-10 -21.5q-494 -419 -776 -725
q-508 -555 -459 -828l4 -16l8 -14q57 -72 160 -72q325 0 1063 659l72 64l67 86q173 218 797 881q13 11 27.5 9t24 -14.5t1.5 -25.5q-79 -136 -351.5 -436.5t-516.5 -542.5l-25 -31q-245 -321 -338 -575q-24 -66 -43.5 -156t-19.5 -164q0 -118 55 -145q13 -7 16 -21t-2 -24
q-16 -26 -49 -10zM2001 1450q-31 34 -43 63l-2 5l-10 -9l-15 -12l-57 -39q-9 -11 -23.5 -9t-23.5 15q-8 7 -7.5 21.5t9.5 23.5q50 33 57 39l72 54q17 9 33 0.5t18 -25.5q7 -37 43 -82q10 -11 8.5 -25.5t-12.5 -23.5q-9 -7 -22.5 -6t-24.5 10z" />
    <glyph glyph-name="Udieresis" unicode="&#xdc;" horiz-adv-x="1748" 
d="M1163 -743q-84 55 -84 206q0 140 64 324q38 107 100 224.5t127 207.5q-181 -160 -350.5 -283t-344.5 -207.5t-298 -84.5q-147 0 -213 116q-4 4 -4 9q-10 34 -10 86q0 298 477 817q308 336 782 733q7 9 20.5 8.5t22.5 -12.5q7 -9 6 -21.5t-10 -21.5q-494 -419 -776 -725
q-508 -555 -459 -828l4 -16l8 -14q57 -72 160 -72q325 0 1063 659l72 64l67 86q173 218 797 881q13 11 27.5 9t24 -14.5t1.5 -25.5q-79 -136 -351.5 -436.5t-516.5 -542.5l-25 -31q-245 -321 -338 -575q-24 -66 -43.5 -156t-19.5 -164q0 -118 55 -145q13 -7 16 -21t-2 -24
q-16 -26 -49 -10zM1776 1444q-14 14 -14 34t14 33t33 13t32 -13t13 -33t-13 -34t-32 -14t-33 14zM2005 1444q-13 14 -13 34t13 33t33 13t33 -13t13 -33t-13 -34t-33 -14t-33 14z" />
    <glyph glyph-name="Yacute" unicode="&#xdd;" horiz-adv-x="1443" 
d="M313 -842q-14 6 -18.5 19.5t2.5 23.5q95 156 252.5 359.5t382 475t303.5 370.5q-20 -14 -78 -55.5t-100.5 -71.5t-112.5 -76t-126 -79.5t-128 -70.5t-132 -61t-124.5 -39.5t-118.5 -15.5q-101 0 -165 53q-72 60 -72 172q0 113 67.5 261t182.5 298q259 337 680 600
q10 6 23 3t20 -13q6 -11 3 -23t-14 -20q-44 -27 -98 -65t-154 -115t-210 -184.5t-201 -223.5q-110 -139 -175 -279t-65 -239q0 -84 51 -123q48 -37 129 -37q82 0 196.5 42.5t219.5 102t232 145t208.5 147t176.5 135.5t110 85q232 261 301 336q106 119 247 269t157 163
q5 5 14 7q9 4 23.5 -4t15.5 -25q0 -11 -4 -14q-24 -50 -159 -206.5t-275 -305.5q-167 -179 -350 -353l-17 -16l-31 -33q-123 -142 -159 -186q-154 -185 -238.5 -288.5t-219 -271t-235.5 -303t-178 -251.5q-7 -11 -19 -17.5t-20 -1.5zM1587 1460q-7 9 -4 22.5t14 18.5
q10 7 95 45q12 5 31.5 15.5t21.5 11.5q10 5 22.5 1t18.5 -15q7 -9 2.5 -21.5t-14.5 -17.5l-54 -29q-15 -4 -48.5 -20.5t-41.5 -22.5q-9 -6 -22.5 -3t-20.5 15z" />
    <glyph glyph-name="germandbls" unicode="&#xdf;" horiz-adv-x="774" 
d="M-195 -248q-11 6 -14.5 18.5t2.5 24.5q42 72 102.5 161t106.5 152t116.5 159t98.5 134q9 12 51 67t54.5 70.5t51.5 65t56.5 68t56 59.5t63 60.5t63 51t71.5 50t73.5 38.5t82.5 34q58 17 94 -2q35 -18 39 -68q3 -35 -11.5 -76t-39.5 -71q-39 -45 -86 -74.5t-75 -39
t-90.5 -24t-82.5 -20.5l-21 -6l8 -15q42 -87 56 -131q26 -84 26 -155q0 -86 -30 -158q-33 -84 -125.5 -132t-188.5 -50q-104 0 -153 57q-29 37 -29 80q0 39 27 98q5 11 17 15t24 0q10 -6 14.5 -18.5t-0.5 -22.5q-36 -75 -6 -113q31 -35 106 -35q79 2 155 41.5t101 101.5
q25 63 25 134q0 64 -20 128t-47.5 119t-30.5 66q-3 12 2 23t16 16q42 16 100 28.5t94 20.5t81.5 34.5t84.5 71.5q19 22 29.5 50.5t7.5 50.5q0 12 -8 20q-14 7 -43 -4q-41 -13 -80 -32t-72 -38t-68.5 -47t-61.5 -50.5t-59 -57.5t-53.5 -58.5t-52.5 -63.5t-49 -62t-49 -65
t-47 -62q-15 -20 -65 -88l-75 -102t-71.5 -99t-77.5 -110t-67.5 -102t-65.5 -106q-6 -10 -18.5 -13t-22.5 3z" />
    <glyph glyph-name="agrave" unicode="&#xe0;" horiz-adv-x="811" 
d="M37 84l-6 6q-23 26 -23 57q0 37 25 68q36 54 123 98q112 56 233 56q70 0 135 -23l21 -8h2l49 35l2 2l4 2q6 6 8 6v2q23 17 42 -5.5t-3 -41.5l-6 -6l-6 -4l-2 -2q-58 -52 -92 -95q-35 -41 -35 -65v-10q7 -7 20 -11q69 -18 234 58q109 48 201 110q10 8 23 6t20 -12
q8 -9 5.5 -22.5t-12.5 -20.5q-76 -56 -213 -119q-184 -84 -274 -59q-35 11 -52.5 34t-13.5 54q1 8 11 37l2 4l-47 -27l-47 -24q-96 -50 -187 -80q-105 -31 -141 0zM98 129q30 4 62 14q85 27 176 76q69 34 135 74l6 4l-16 4q-35 6 -72 6q-105 0 -205 -49q-74 -38 -102 -80
q-17 -26 -10 -41l4 -4q0 -4 22 -4zM455 494v2l-13 6l-16 10l-43 29l-39 28l-22 15q0 2 -3 2l-4 4q-7 11 -6 23t10 20q9 7 20 7t19 -7l21 -15l39 -26l41 -29q2 -1 8 -4.5t8 -5.5l8 -4l2 -2q9 -6 13 -17t-2 -22q-6 -10 -18.5 -14.5t-22.5 0.5z" />
    <glyph glyph-name="aacute" unicode="&#xe1;" horiz-adv-x="811" 
d="M465 489q-7 9 -4 22.5t14 18.5q12 9 94 45q9 4 18.5 8.5t20 10t15.5 8.5q10 5 22.5 1.5t18.5 -15.5q7 -9 2 -21.5t-15 -17.5l-53 -29q-15 -4 -48.5 -20.5t-41.5 -22.5q-9 -6 -22.5 -3t-20.5 15zM37 84l-6 6q-23 26 -23 57q0 37 25 68q36 54 123 98q112 56 233 56
q70 0 135 -23l21 -8h2l49 35l2 2l4 2q6 6 8 6v2q23 17 42 -5.5t-3 -41.5l-6 -6l-6 -4l-2 -2q-58 -52 -92 -95q-35 -41 -35 -65v-10q7 -7 20 -11q69 -18 234 58q109 48 201 110q10 8 23 6t20 -12q8 -9 5.5 -22.5t-12.5 -20.5q-76 -56 -213 -119q-184 -84 -274 -59
q-35 11 -52.5 34t-13.5 54q1 8 11 37l2 4l-47 -27l-47 -24q-96 -50 -187 -80q-105 -31 -141 0zM98 129q30 4 62 14q85 27 176 76q69 34 135 74l6 4l-16 4q-35 6 -72 6q-105 0 -205 -49q-74 -38 -102 -80q-17 -26 -10 -41l4 -4q0 -4 22 -4z" />
    <glyph glyph-name="acircumflex" unicode="&#xe2;" horiz-adv-x="811" 
d="M37 84l-6 6q-23 26 -23 57q0 37 25 68q36 54 123 98q112 56 233 56q70 0 135 -23l21 -8h2l49 35l2 2l4 2q6 6 8 6v2q23 17 42 -5.5t-3 -41.5l-6 -6l-6 -4l-2 -2q-58 -52 -92 -95q-35 -41 -35 -65v-10q7 -7 20 -11q69 -18 234 58q109 48 201 110q10 8 23 6t20 -12
q8 -9 5.5 -22.5t-12.5 -20.5q-76 -56 -213 -119q-184 -84 -274 -59q-35 11 -52.5 34t-13.5 54q1 8 11 37l2 4l-47 -27l-47 -24q-96 -50 -187 -80q-105 -31 -141 0zM98 129q30 4 62 14q85 27 176 76q69 34 135 74l6 4l-16 4q-35 6 -72 6q-105 0 -205 -49q-74 -38 -102 -80
q-17 -26 -10 -41l4 -4q0 -4 22 -4zM518 487q-23 27 -31 48l-2 2l-8 -7l-10 -8l-41 -28q-8 -7 -18.5 -6t-16.5 10q-6 6 -5.5 16t7.5 16q8 7 21 15t20 14l53 39q12 6 23.5 0t13.5 -18q5 -27 31 -60q7 -8 6.5 -18.5t-8.5 -16.5q-16 -13 -35 2z" />
    <glyph glyph-name="atilde" unicode="&#xe3;" horiz-adv-x="811" 
d="M37 84l-6 6q-23 26 -23 57q0 37 25 68q36 54 123 98q112 56 233 56q70 0 135 -23l21 -8h2l49 35l2 2l4 2q6 6 8 6v2q23 17 42 -5.5t-3 -41.5l-6 -6l-6 -4l-2 -2q-58 -52 -92 -95q-35 -41 -35 -65v-10q7 -7 20 -11q69 -18 234 58q109 48 201 110q10 8 23 6t20 -12
q8 -9 5.5 -22.5t-12.5 -20.5q-76 -56 -213 -119q-184 -84 -274 -59q-35 11 -52.5 34t-13.5 54q1 8 11 37l2 4l-47 -27l-47 -24q-96 -50 -187 -80q-105 -31 -141 0zM98 129q30 4 62 14q85 27 176 76q69 34 135 74l6 4l-16 4q-35 6 -72 6q-105 0 -205 -49q-74 -38 -102 -80
q-17 -26 -10 -41l4 -4q0 -4 22 -4zM424 461l-18 6q-2 1 -8.5 4.5t-8.5 5.5q-4 1 -15.5 6t-17.5 6q-15 5 -24 5q-11 -6 -15 -13q-8 -9 -21 -11t-22 5q-10 7 -12 20.5t6 22.5q20 29 51 35q24 5 54 -4q10 -3 43 -19l16 -6l12 -6l4 -1q4 -1 7 -1l18 4q10 0 16 6l7 2v2
q8 23 28 23q12 1 21.5 -8t11.5 -21q0 -21 -14 -35q-14 -19 -56 -28q-34 -11 -63 0z" />
    <glyph glyph-name="adieresis" unicode="&#xe4;" horiz-adv-x="811" 
d="M293 481q-13 13 -13 34t13 34t32 13t33 -13t14 -34t-14 -34t-33 -13t-32 13zM522 481q-14 13 -14 34t14 34t33 13t33 -13t14 -34t-14 -34t-33 -13t-33 13zM37 84l-6 6q-23 26 -23 57q0 37 25 68q36 54 123 98q112 56 233 56q70 0 135 -23l21 -8h2l49 35l2 2l4 2q6 6 8 6
v2q23 17 42 -5.5t-3 -41.5l-6 -6l-6 -4l-2 -2q-58 -52 -92 -95q-35 -41 -35 -65v-10q7 -7 20 -11q69 -18 234 58q109 48 201 110q10 8 23 6t20 -12q8 -9 5.5 -22.5t-12.5 -20.5q-76 -56 -213 -119q-184 -84 -274 -59q-35 11 -52.5 34t-13.5 54q1 8 11 37l2 4l-47 -27
l-47 -24q-96 -50 -187 -80q-105 -31 -141 0zM98 129q30 4 62 14q85 27 176 76q69 34 135 74l6 4l-16 4q-35 6 -72 6q-105 0 -205 -49q-74 -38 -102 -80q-17 -26 -10 -41l4 -4q0 -4 22 -4z" />
    <glyph glyph-name="aring" unicode="&#xe5;" horiz-adv-x="811" 
d="M37 84l-6 6q-23 26 -23 57q0 37 25 68q36 54 123 98q112 56 233 56q70 0 135 -23l21 -8h2l49 35l2 2l4 2q6 6 8 6v2q23 17 42 -5.5t-3 -41.5l-6 -6l-6 -4l-2 -2q-58 -52 -92 -95q-35 -41 -35 -65v-10q7 -7 20 -11q69 -18 234 58q109 48 201 110q10 8 23 6t20 -12
q8 -9 5.5 -22.5t-12.5 -20.5q-76 -56 -213 -119q-184 -84 -274 -59q-35 11 -52.5 34t-13.5 54q1 8 11 37l2 4l-47 -27l-47 -24q-96 -50 -187 -80q-105 -31 -141 0zM98 129q30 4 62 14q85 27 176 76q69 34 135 74l6 4l-16 4q-35 6 -72 6q-105 0 -205 -49q-74 -38 -102 -80
q-17 -26 -10 -41l4 -4q0 -4 22 -4zM395 469q-26 4 -45 12q-28 16 -33 39q-6 25 9 47q15 21 34 27q33 16 78 12q9 0 16 -8t7 -18q-1 -9 -9.5 -16t-17.5 -7q-30 4 -53 -8q-8 -2 -14 -8q-2 -2 -2 -6v-5q1 0 1.5 -0.5t2 -1.5t4.5 -2q10 -7 30 -10q6 0 19.5 -1t19.5 -1q19 0 27 4
q22 2 29 17q2 0 0 4q-13 13 -19 16q-9 6 -11.5 16t3.5 19q13 19 35 8q28 -21 35 -37q11 -21 4 -45q-13 -35 -66 -47q-16 -4 -37 -4q-15 0 -47 4z" />
    <glyph glyph-name="ae" unicode="&#xe6;" horiz-adv-x="997" 
d="M446 111q-16 -3 -108 -54q-97 -51 -186 -80q-106 -32 -142 0l-6 7q-22 25 -22 57q0 38 24 68q36 54 123 98q117 55 231 55q59 0 111 -14q9 13 31.5 39t37.5 48t23 48q-20 14 -57 14q-52 0 -184 -45q-42 -19 -57 4q-13 19 10 39q10 10 26 15q1 0 18.5 7l22.5 9t22.5 8
t26.5 8t26 6.5t29.5 6t28.5 2.5t31 0q93 -5 127 -58q120 54 178 31l16 -8q14 -10 19 -27.5t-2 -32.5q-14 -28 -74 -68.5t-133 -64t-111 -4.5l-8 -14q-24 -50 -14 -80q17 -41 84 -41q75 0 187.5 40.5t164.5 68.5q41 21 84.5 45.5t78 45.5t42.5 25q12 6 24.5 3t18.5 -15
q6 -11 2.5 -23t-14.5 -18q-126 -77 -205 -117q-80 -40 -187.5 -76t-193.5 -36q-117 0 -144 78zM72 23q28 4 61 14q85 27 176 76q13 6 119 63l8 17l-2 2q-34 6 -72 6q-104 0 -204 -49q-75 -38 -103 -80q-17 -26 -10 -41l4 -4q0 -4 23 -4zM778 377q-92 12 -211 -98
q28 -11 102.5 26t108.5 72z" />
    <glyph glyph-name="ccedilla" unicode="&#xe7;" horiz-adv-x="589" 
d="M178 -127q-37 6 -43 49q-1 10 5.5 18.5t15.5 10.5q10 1 18 -5.5t10 -17.5l2 -6q2 -2 4 -2q12 -4 31 4q22 6 37 21q12 12 12 16h2l-2 2l-8 4l-57 19q-22 7 -19 26q0 4 2 6q0 10 7 17q-93 9 -117 76q-23 68 28 147q51 84 154 141q111 62 182 31l17 -8q31 -22 16 -60
q-20 -43 -74 -65q-19 -10 -34 4t6 33q30 30 39 47q-35 9 -111 -27q-60 -27 -121.5 -100.5t-44.5 -122.5q14 -37 84 -35q154 10 332 103q55 28 121 70t67 42q12 6 24.5 3t18.5 -15q6 -11 2.5 -23t-14.5 -18q-2 -2 -36 -24t-63 -40t-81 -45.5t-100.5 -47.5t-112 -38.5
t-123.5 -25.5l-6 -8l-2 -4h2q24 -10 31 -11q23 -10 34 -26q9 -12 9 -27q-1 -27 -27 -50t-55 -34q-38 -11 -62 -4z" />
    <glyph glyph-name="egrave" unicode="&#xe8;" 
d="M45 111q-23 67 29 147q52 84 153 141q111 62 183 31l16 -8q31 -22 16 -60q-14 -28 -74 -68.5t-132.5 -64t-110.5 -4.5l-8 -14q-25 -51 -15 -80q17 -41 84 -41q75 0 188 40.5t165 68.5q41 21 84.5 46t77.5 45.5t42 24.5q12 6 24.5 3t18.5 -15q6 -11 2.5 -23t-14.5 -18
q-126 -77 -205 -117q-80 -40 -187.5 -76t-193.5 -36q-116 0 -143 78zM342 494v2l-12 6l-17 10l-43 29l-39 28l-22 15q0 2 -2 2l-4 4q-7 11 -6 23t10 20q9 7 20 7t19 -7l20 -15l39 -26l41 -29q2 -1 8 -4.5t8 -5.5q8 -4 9 -4l2 -2q23 -16 10 -39q-6 -10 -18.5 -14.5t-22.5 0.5
zM377 377q-92 12 -211 -98q28 -11 102.5 26t108.5 72z" />
    <glyph glyph-name="eacute" unicode="&#xe9;" 
d="M45 111q-23 67 29 147q52 84 153 141q111 62 183 31l16 -8q31 -22 16 -60q-14 -28 -74 -68.5t-132.5 -64t-110.5 -4.5l-8 -14q-25 -51 -15 -80q17 -41 84 -41q75 0 188 40.5t165 68.5q41 21 84.5 46t77.5 45.5t42 24.5q12 6 24.5 3t18.5 -15q6 -11 2.5 -23t-14.5 -18
q-126 -77 -205 -117q-80 -40 -187.5 -76t-193.5 -36q-116 0 -143 78zM377 377q-92 12 -211 -98q28 -11 102.5 26t108.5 72zM193 489q-7 9 -4 22.5t14 18.5q12 9 94 45q12 5 31.5 15.5t21.5 11.5q10 5 22.5 1.5t18.5 -15.5q7 -9 2.5 -21.5t-14.5 -17.5l-53 -29
q-15 -4 -48.5 -20.5t-41.5 -22.5q-9 -6 -22.5 -3t-20.5 15z" />
    <glyph glyph-name="ecircumflex" unicode="&#xea;" 
d="M45 111q-23 67 29 147q52 84 153 141q111 62 183 31l16 -8q31 -22 16 -60q-14 -28 -74 -68.5t-132.5 -64t-110.5 -4.5l-8 -14q-25 -51 -15 -80q17 -41 84 -41q75 0 188 40.5t165 68.5q41 21 84.5 46t77.5 45.5t42 24.5q12 6 24.5 3t18.5 -15q6 -11 2.5 -23t-14.5 -18
q-126 -77 -205 -117q-80 -40 -187.5 -76t-193.5 -36q-116 0 -143 78zM377 377q-92 12 -211 -98q28 -11 102.5 26t108.5 72zM336 504q-24 28 -31 47l-2 2l-8 -6l-10 -8l-41 -29q-8 -7 -18.5 -6t-16.5 10q-6 6 -5.5 16.5t7.5 16.5q9 7 21.5 14.5t19.5 13.5l53 39q12 6 23.5 0
t13.5 -18q4 -26 31 -59q7 -8 6.5 -18.5t-8.5 -16.5q-16 -13 -35 2z" />
    <glyph glyph-name="edieresis" unicode="&#xeb;" 
d="M45 111q-23 67 29 147q52 84 153 141q111 62 183 31l16 -8q31 -22 16 -60q-14 -28 -74 -68.5t-132.5 -64t-110.5 -4.5l-8 -14q-25 -51 -15 -80q17 -41 84 -41q75 0 188 40.5t165 68.5q41 21 84.5 46t77.5 45.5t42 24.5q12 6 24.5 3t18.5 -15q6 -11 2.5 -23t-14.5 -18
q-126 -77 -205 -117q-80 -40 -187.5 -76t-193.5 -36q-116 0 -143 78zM377 377q-92 12 -211 -98q28 -11 102.5 26t108.5 72zM145 502q-13 14 -13 34t13 33t33 13t33 -13t13 -33t-13 -34t-33 -14t-33 14zM375 502q-13 14 -13 34t13 33t32 13t33 -13t14 -33t-14 -34t-33 -14
t-32 14z" />
    <glyph glyph-name="igrave" unicode="&#xec;" horiz-adv-x="479" 
d="M51 123q-20 70 90 180q32 33 73.5 69t65 54.5t29.5 22.5q11 7 23 4.5t20 -13.5q7 -11 5 -23t-13 -20q-3 -2 -26.5 -20t-63 -52t-70.5 -65q-15 -15 -32 -34.5t-33 -47.5t-8 -39q11 -14 43.5 -15t73 9t72.5 19.5t56 19.5q57 23 148 70.5t129 70.5q11 7 23 5t18 -13
q7 -11 5 -23t-13 -20q-34 -22 -130.5 -73.5t-158.5 -75.5q-133 -50 -215 -50q-91 0 -111 60zM330 494v2l-13 6l-16 10l-43 29l-39 28l-22 15q0 2 -2 2l-5 4q-17 24 5 43q21 17 38 0l21 -15l39 -26l41 -29q2 -1 8 -4.5t8 -5.5l8 -4l2 -2q9 -6 13 -17t-2 -22
q-6 -10 -18.5 -14.5t-22.5 0.5z" />
    <glyph glyph-name="iacute" unicode="&#xed;" horiz-adv-x="479" 
d="M51 123q-20 70 90 180q32 33 73.5 69t65 54.5t29.5 22.5q11 7 23 4.5t20 -13.5q7 -11 5 -23t-13 -20q-3 -2 -26.5 -20t-63 -52t-70.5 -65q-15 -15 -32 -34.5t-33 -47.5t-8 -39q11 -14 43.5 -15t73 9t72.5 19.5t56 19.5q57 23 148 70.5t129 70.5q11 7 23 5t18 -13
q7 -11 5 -23t-13 -20q-34 -22 -130.5 -73.5t-158.5 -75.5q-133 -50 -215 -50q-91 0 -111 60zM371 496q-7 9 -4 22.5t14 18.5q12 9 94 45q5 2 53 26q10 5 22.5 1.5t18.5 -15.5q7 -9 2.5 -21.5t-14.5 -17.5l-53 -29q-15 -4 -48.5 -20.5t-41.5 -22.5q-9 -6 -22.5 -2.5
t-20.5 15.5z" />
    <glyph glyph-name="icircumflex" unicode="&#xee;" horiz-adv-x="479" 
d="M51 123q-20 70 90 180q32 33 73.5 69t65 54.5t29.5 22.5q11 7 23 4.5t20 -13.5q7 -11 5 -23t-13 -20q-3 -2 -26.5 -20t-63 -52t-70.5 -65q-15 -15 -32 -34.5t-33 -47.5t-8 -39q11 -14 43.5 -15t73 9t72.5 19.5t56 19.5q57 23 148 70.5t129 70.5q11 7 23 5t18 -13
q7 -11 5 -23t-13 -20q-34 -22 -130.5 -73.5t-158.5 -75.5q-133 -50 -215 -50q-91 0 -111 60zM424 510q-24 28 -31 47l-2 2l-8 -6l-10 -8l-41 -29q-8 -7 -18.5 -6t-16.5 10q-6 6 -5.5 16.5t7.5 16.5q8 7 21 15t20 14l53 39q12 6 23.5 -0.5t13.5 -18.5q4 -26 31 -59
q7 -8 6.5 -18.5t-8.5 -16.5q-16 -13 -35 2z" />
    <glyph glyph-name="idieresis" unicode="&#xef;" horiz-adv-x="479" 
d="M51 123q-20 70 90 180q32 33 73.5 69t65 54.5t29.5 22.5q11 7 23 4.5t20 -13.5q7 -11 5 -23t-13 -20q-3 -2 -26.5 -20t-63 -52t-70.5 -65q-15 -15 -32 -34.5t-33 -47.5t-8 -39q11 -14 43.5 -15t73 9t72.5 19.5t56 19.5q57 23 148 70.5t129 70.5q11 7 23 5t18 -13
q7 -11 5 -23t-13 -20q-34 -22 -130.5 -73.5t-158.5 -75.5q-133 -50 -215 -50q-91 0 -111 60zM223 526q-13 14 -13 34t13 34t33 14t33 -14t13 -34t-13 -34t-33 -14t-33 14zM453 526q-13 14 -13 34t13 34t32 14t33 -14t14 -34t-14 -34t-33 -14t-32 14z" />
    <glyph glyph-name="ntilde" unicode="&#xf1;" horiz-adv-x="856" 
d="M-20 102q39 52 49 62l178 203q7 10 20.5 11t22.5 -7t10 -21t-6 -22l-57 -66q92 46 214 83.5t193 29.5q27 -3 35 -26t-8 -46q-6 -9 -35.5 -43t-48.5 -62.5t-19 -45.5q6 -17 48 -15t96.5 15t97.5 30q119 49 215 113q11 6 23 3.5t20 -11.5q6 -11 3.5 -24t-11.5 -19
q-127 -82 -229 -119q-123 -49 -220 -49q-36 0 -57 8q-47 19 -47 66q0 44 33 86q38 52 67 86q-118 -11 -264 -73.5t-231 -129.5l-41 -47q-11 -13 -28 -11.5t-24 13t1 28.5zM475 475l-18 6q-1 1 -8 5t-9 6q-4 2 -15 6.5t-17 5.5q-12 4 -25 4q-11 -5 -14 -12q-8 -9 -21 -11.5
t-22 4.5q-10 7 -12.5 20.5t5.5 22.5q20 29 52 35q23 5 53 -4q14 -3 43 -18l16 -6q1 -1 13 -7l3 -1q3 -1 7 -1l18 5q11 0 17 6l6 2v2q7 22 28 22q12 1 21.5 -7.5t11.5 -20.5q0 -21 -14 -35q-15 -20 -55 -29q-35 -12 -64 0z" />
    <glyph glyph-name="ograve" unicode="&#xf2;" 
d="M125 31q-33 4 -50.5 23t-19.5 46q-5 41 23 103q30 58 83 110.5t120 83.5q18 6 34 -4l2 -2q8 31 43 31q5 0 21 -4q56 -20 59 -66v-2q70 -33 172 -33q69 0 162 19q12 3 24 -2.5t17 -16.5q3 -12 -2.5 -22.5t-15.5 -13.5q-99 -21 -176 -21q-90 0 -183 27l-2 -4
q-17 -57 -49 -97q-48 -62 -121 -112.5t-141 -42.5zM336 219q39 56 45 92q-43 28 -55 49l-4 -6q-1 -1 -11 -6q-65 -26 -133 -100q-25 -28 -44 -63.5t-22.5 -63t17.5 -35.5q41 -11 102 32.5t105 100.5zM342 494v2l-12 6l-17 10l-43 29l-39 28l-22 15q0 2 -2 2l-4 4
q-7 11 -6 23t10 20q9 7 20 7t19 -7l20 -15l39 -26l41 -29q2 -1 8 -4.5t8 -5.5q8 -4 9 -4l2 -2q23 -16 10 -39q-6 -10 -18.5 -14.5t-22.5 0.5z" />
    <glyph glyph-name="oacute" unicode="&#xf3;" 
d="M125 31q-33 4 -50.5 23t-19.5 46q-5 41 23 103q30 58 83 110.5t120 83.5q18 6 34 -4l2 -2q8 31 43 31q5 0 21 -4q56 -20 59 -66v-2q70 -33 172 -33q69 0 162 19q12 3 24 -2.5t17 -16.5q3 -12 -2.5 -22.5t-15.5 -13.5q-99 -21 -176 -21q-90 0 -183 27l-2 -4
q-17 -57 -49 -97q-48 -62 -121 -112.5t-141 -42.5zM336 219q39 56 45 92q-43 28 -55 49l-4 -6q-1 -1 -11 -6q-65 -26 -133 -100q-25 -28 -44 -63.5t-22.5 -63t17.5 -35.5q41 -11 102 32.5t105 100.5zM418 504q-7 9 -4 22.5t14 18.5q12 9 94 45q5 2 53 26q10 5 22.5 1.5
t18.5 -15.5q7 -9 2.5 -21.5t-14.5 -17.5l-53 -28q-15 -4 -48.5 -20.5t-41.5 -22.5q-9 -6 -22.5 -3t-20.5 15z" />
    <glyph glyph-name="ocircumflex" unicode="&#xf4;" 
d="M125 31q-33 4 -50.5 23t-19.5 46q-5 41 23 103q30 58 83 110.5t120 83.5q18 6 34 -4l2 -2q8 31 43 31q5 0 21 -4q56 -20 59 -66v-2q70 -33 172 -33q69 0 162 19q12 3 24 -2.5t17 -16.5q3 -12 -2.5 -22.5t-15.5 -13.5q-99 -21 -176 -21q-90 0 -183 27l-2 -4
q-17 -57 -49 -97q-48 -62 -121 -112.5t-141 -42.5zM336 219q39 56 45 92q-43 28 -55 49l-4 -6q-1 -1 -11 -6q-65 -26 -133 -100q-25 -28 -44 -63.5t-22.5 -63t17.5 -35.5q41 -11 102 32.5t105 100.5zM471 504q-24 28 -31 47l-2 2l-8 -6l-10 -8l-41 -29q-8 -7 -18.5 -6
t-16.5 10q-6 6 -5.5 16.5t7.5 16.5q9 7 21.5 14.5t19.5 13.5l53 39q12 6 23.5 0t13.5 -18q5 -26 31 -59q7 -8 6.5 -18.5t-8.5 -16.5q-16 -13 -35 2z" />
    <glyph glyph-name="otilde" unicode="&#xf5;" 
d="M125 31q-33 4 -50.5 23t-19.5 46q-5 41 23 103q30 58 83 110.5t120 83.5q18 6 34 -4l2 -2q8 31 43 31q5 0 21 -4q56 -20 59 -66v-2q70 -33 172 -33q69 0 162 19q12 3 24 -2.5t17 -16.5q3 -12 -2.5 -22.5t-15.5 -13.5q-99 -21 -176 -21q-90 0 -183 27l-2 -4
q-17 -57 -49 -97q-48 -62 -121 -112.5t-141 -42.5zM336 219q39 56 45 92q-43 28 -55 49l-4 -6q-1 -1 -11 -6q-65 -26 -133 -100q-25 -28 -44 -63.5t-22.5 -63t17.5 -35.5q41 -11 102 32.5t105 100.5zM430 483l-18 6q-1 1 -8 5t-9 6q-4 1 -15.5 6t-17.5 6q-12 4 -24 4
q-11 -5 -14 -12q-8 -9 -21 -11t-22 5q-10 7 -12.5 20.5t5.5 22.5q19 27 52 34q23 5 53 -4q14 -3 43 -18l16 -6q2 -2 7 -4t6 -2t4 -1t6 -1l18 4q11 0 17 6l6 2v2q7 22 28 22q12 1 21.5 -7.5t11.5 -20.5q0 -21 -14 -35q-15 -20 -55 -29q-35 -12 -64 0z" />
    <glyph glyph-name="odieresis" unicode="&#xf6;" 
d="M125 31q-33 4 -50.5 23t-19.5 46q-5 41 23 103q30 58 83 110.5t120 83.5q18 6 34 -4l2 -2q8 31 43 31q5 0 21 -4q56 -20 59 -66v-2q70 -33 172 -33q69 0 162 19q12 3 24 -2.5t17 -16.5q3 -12 -2.5 -22.5t-15.5 -13.5q-99 -21 -176 -21q-90 0 -183 27l-2 -4
q-17 -57 -49 -97q-48 -62 -121 -112.5t-141 -42.5zM336 219q39 56 45 92q-43 28 -55 49l-4 -6q-1 -1 -11 -6q-65 -26 -133 -100q-25 -28 -44 -63.5t-22.5 -63t17.5 -35.5q41 -11 102 32.5t105 100.5zM272 502q-14 14 -14 34t14 33t33 13t33 -13t14 -33t-14 -34t-33 -14
t-33 14zM502 502q-14 14 -14 34t14 33t33 13t32 -13t13 -33t-13 -34t-32 -14t-33 14z" />
    <glyph glyph-name="oslash" unicode="&#xf8;" 
d="M125 31q-10 0 -14 2q-70 -84 -103 -131q-15 -19 -35 -6q-8 6 -9 16t5 18q43 62 99 129q-13 19 -13 41q-5 41 23 103q30 58 83 110.5t120 83.5q18 6 34 -4l2 -2q8 31 43 31q5 0 21 -4q0 -2 2 -2q67 72 154 155q17 17 34 0q7 -7 7 -17.5t-7 -16.5q-54 -51 -147 -148
q12 -13 16 -37v-2q70 -33 172 -33q69 0 162 19q12 3 24 -2.5t17 -16.5q3 -12 -2.5 -22.5t-15.5 -13.5q-99 -21 -176 -21q-90 0 -183 27l-2 -4q-17 -57 -49 -97q-48 -62 -121 -112.5t-141 -42.5zM336 219q39 56 45 92l-19 13q-59 -64 -208 -240q40 4 92 45t90 90zM326 358v2
l-4 -6q-1 -1 -11 -6q-65 -26 -133 -100q-28 -31 -47.5 -70t-19.5 -65q94 110 215 245z" />
    <glyph glyph-name="ugrave" unicode="&#xf9;" horiz-adv-x="729" 
d="M35 88q-35 35 -15 98q14 43 56 95q31 39 78 79q50 40 75 46q12 3 23 -4.5t14 -20.5q3 -12 -3.5 -23t-18.5 -12q-14 -4 -51 -33q-41 -32 -70 -71q-36 -48 -43 -76q-8 -23 -2 -35q12 -12 53 0q49 9 115 51q136 78 231 183q20 22 43 3t4 -42q-52 -73 -59 -84
q-36 -59 -29 -88q4 -12 35 -17q26 1 54.5 6.5t50.5 11.5t53.5 19.5t48.5 20.5t51.5 26t45.5 25.5t48 28.5t43 26q11 7 23 4t18 -14q8 -10 5 -22.5t-15 -18.5q-76 -48 -133.5 -80t-145 -64t-149.5 -28q-73 0 -92 57q-6 28 0 55v5l-31 -23q-37 -26 -70 -43q-106 -66 -176 -66
q-43 0 -65 25zM414 494v2l-13 6l-16 10l-43 29l-39 28l-22 15q0 2 -2 2l-5 4q-17 24 5 43q21 17 38 0l21 -15l39 -26l41 -29q2 -1 8 -4.5t8 -5.5l8 -4l2 -2q9 -6 13 -17t-2 -22q-6 -10 -18.5 -14.5t-22.5 0.5z" />
    <glyph glyph-name="uacute" unicode="&#xfa;" horiz-adv-x="729" 
d="M35 88q-35 35 -15 98q14 43 56 95q31 39 78 79q50 40 75 46q12 3 23 -4.5t14 -20.5q3 -12 -3.5 -23t-18.5 -12q-14 -4 -51 -33q-41 -32 -70 -71q-36 -48 -43 -76q-8 -23 -2 -35q12 -12 53 0q49 9 115 51q136 78 231 183q20 22 43 3t4 -42q-52 -73 -59 -84
q-36 -59 -29 -88q4 -12 35 -17q26 1 54.5 6.5t50.5 11.5t53.5 19.5t48.5 20.5t51.5 26t45.5 25.5t48 28.5t43 26q11 7 23 4t18 -14q8 -10 5 -22.5t-15 -18.5q-76 -48 -133.5 -80t-145 -64t-149.5 -28q-73 0 -92 57q-6 28 0 55v5l-31 -23q-37 -26 -70 -43q-106 -66 -176 -66
q-43 0 -65 25zM371 489q-7 9 -4 22.5t14 18.5q12 9 94 45q12 5 31.5 15.5t21.5 11.5q10 5 22.5 1.5t18.5 -15.5q7 -9 2.5 -21.5t-14.5 -17.5l-53 -29q-15 -4 -48.5 -20.5t-41.5 -22.5q-9 -6 -22.5 -3t-20.5 15z" />
    <glyph glyph-name="ucircumflex" unicode="&#xfb;" horiz-adv-x="729" 
d="M35 88q-35 35 -15 98q14 43 56 95q31 39 78 79q50 40 75 46q12 3 23 -4.5t14 -20.5q3 -12 -3.5 -23t-18.5 -12q-14 -4 -51 -33q-41 -32 -70 -71q-36 -48 -43 -76q-8 -23 -2 -35q12 -12 53 0q49 9 115 51q136 78 231 183q20 22 43 3t4 -42q-52 -73 -59 -84
q-36 -59 -29 -88q4 -12 35 -17q26 1 54.5 6.5t50.5 11.5t53.5 19.5t48.5 20.5t51.5 26t45.5 25.5t48 28.5t43 26q11 7 23 4t18 -14q8 -10 5 -22.5t-15 -18.5q-76 -48 -133.5 -80t-145 -64t-149.5 -28q-73 0 -92 57q-6 28 0 55v5l-31 -23q-37 -26 -70 -43q-106 -66 -176 -66
q-43 0 -65 25zM461 481q-24 28 -31 47l-2 2l-8 -6l-10 -8l-41 -29q-8 -7 -18.5 -5.5t-16.5 10.5q-6 6 -5.5 16t7.5 16q8 7 21 15t20 14l53 39q12 6 23.5 -0.5t13.5 -18.5q5 -26 31 -59q7 -8 6.5 -18.5t-8.5 -16.5q-16 -13 -35 2z" />
    <glyph glyph-name="udieresis" unicode="&#xfc;" horiz-adv-x="729" 
d="M35 88q-35 35 -15 98q14 43 56 95q31 39 78 79q50 40 75 46q12 3 23 -4.5t14 -20.5q3 -12 -3.5 -23t-18.5 -12q-14 -4 -51 -33q-41 -32 -70 -71q-36 -48 -43 -76q-8 -23 -2 -35q12 -12 53 0q49 9 115 51q136 78 231 183q20 22 43 3t4 -42q-52 -73 -59 -84
q-36 -59 -29 -88q4 -12 35 -17q26 1 54.5 6.5t50.5 11.5t53.5 19.5t48.5 20.5t51.5 26t45.5 25.5t48 28.5t43 26q11 7 23 4t18 -14q8 -10 5 -22.5t-15 -18.5q-76 -48 -133.5 -80t-145 -64t-149.5 -28q-73 0 -92 57q-6 28 0 55v5l-31 -23q-37 -26 -70 -43q-106 -66 -176 -66
q-43 0 -65 25zM276 481q-14 13 -14 34t14 34t33 13t33 -13t14 -34t-14 -34t-33 -13t-33 13zM506 481q-14 13 -14 34t14 34t33 13t32 -13t13 -34t-13 -34t-32 -13t-33 13z" />
    <glyph glyph-name="yacute" unicode="&#xfd;" horiz-adv-x="700" 
d="M-582 -684q-30 95 64 205q100 115 310 256t452 260l78 37l4 8l39 68l-46 -31q-106 -74 -180 -74q-35 0 -59 21q-35 33 -19 96q11 44 50 96q27 42 71 86q45 41 74 49q12 3 24 -2.5t15 -17.5t-3 -24t-18 -15t-49 -35q-31 -27 -65 -76q-32 -52 -39 -78q-7 -29 2 -34
q10 -10 51 2q52 17 113 57q128 84 219 197q2 4 10 8l4 4q20 15 38.5 -2t6.5 -39q-1 -1 -17 -26.5t-50 -79.5t-70 -109q285 121 416 153q12 3 23 -2.5t14 -17.5q3 -13 -4 -24.5t-19 -14.5q-127 -32 -405 -149l-91 -41l-16 -25l-139 -190q-406 -531 -653 -576
q-44 -8 -82.5 14.5t-53.5 65.5zM-457 -702q121 22 283 173.5t332 376.5q42 56 71 97l19 26l-70 -37q-212 -111 -388 -232.5t-261 -221.5q-71 -79 -53 -144q8 -22 26 -32t41 -6zM377 481q-7 9 -4 22.5t14 18.5q12 9 94 45l54 27q10 5 22 1.5t18 -15.5q7 -9 2.5 -21.5
t-14.5 -17.5l-53 -29q-15 -4 -48.5 -20.5t-41.5 -22.5q-9 -6 -22.5 -3t-20.5 15z" />
    <glyph glyph-name="ydieresis" unicode="&#xff;" horiz-adv-x="700" 
d="M-582 -684q-30 95 64 205q100 115 310 256t452 260l78 37l4 8l39 68l-46 -31q-106 -74 -180 -74q-35 0 -59 21q-35 33 -19 96q11 44 50 96q27 42 71 86q45 41 74 49q12 3 24 -2.5t15 -17.5t-3 -24t-18 -15t-49 -35q-31 -27 -65 -76q-32 -52 -39 -78q-7 -29 2 -34
q10 -10 51 2q52 17 113 57q128 84 219 197q2 4 10 8l4 4q20 15 38.5 -2t6.5 -39q-1 -1 -17 -26.5t-50 -79.5t-70 -109q285 121 416 153q12 3 23 -2.5t14 -17.5q3 -13 -4 -24.5t-19 -14.5q-127 -32 -405 -149l-91 -41l-16 -25l-139 -190q-406 -531 -653 -576
q-44 -8 -82.5 14.5t-53.5 65.5zM-457 -702q121 22 283 173.5t332 376.5q42 56 71 97l19 26l-70 -37q-212 -111 -388 -232.5t-261 -221.5q-71 -79 -53 -144q8 -22 26 -32t41 -6zM322 485q-14 13 -14 34t14 34t33 13t32 -13t13 -34t-13 -34t-32 -13t-33 13zM551 485
q-13 13 -13 34t13 34t32 13t33 -13t14 -34t-14 -34t-33 -13t-32 13z" />
    <glyph glyph-name="dotlessi" unicode="&#x131;" horiz-adv-x="479" 
d="M51 123q-20 70 90 180q32 33 73.5 69t65 54.5t29.5 22.5q11 7 23 4.5t20 -13.5q7 -11 5 -23t-13 -20q-3 -2 -26.5 -20t-63 -52t-70.5 -65q-15 -15 -32 -34.5t-33 -47.5t-8 -39q11 -14 43.5 -15t73 9t72.5 19.5t56 19.5q57 23 148 70.5t129 70.5q11 7 23 5t18 -13
q7 -11 5 -23t-13 -20q-34 -22 -130.5 -73.5t-158.5 -75.5q-133 -50 -215 -50q-91 0 -111 60z" />
    <glyph glyph-name="OE" unicode="&#x152;" horiz-adv-x="2402" 
d="M164 -500l-2 2q-144 83 -144 301q0 211 129 500l15 31l-6 18q-21 70 -21 162q0 38 2 61q14 161 102.5 318.5t214 270.5t275 180.5t281.5 60.5q42 -2 84 -12t87.5 -30t87.5 -56.5t72 -85.5q38 -62 56 -146q160 145 428 221q161 45 317 45q161 0 281 -51t164 -153
q14 -35 14 -70q0 -94 -92 -160q-64 -47 -133 -47q-42 0 -68 23q-10 7 -12 20.5t6 22.5q7 10 20 12t23 -6q11 -14 51.5 -8t77.5 32q77 57 63 134l-6 24l-18 29q-43 66 -140.5 100.5t-226.5 34.5q-149 0 -303 -43q-285 -77 -436 -238q10 -178 -68 -424q36 -42 97 -73l18 -11
l33 13q201 65 325 78q54 4 80 4q148 0 181 -76q0 -1 1 -3t1 -3q8 -53 -35 -90q-33 -28 -94 -45q-64 -15 -146 -15q-78 0 -137 10q-108 14 -186 50l-27 10l-59 -21q-84 -33 -148 -67q-47 -88 -96 -166l-78 -113l-22 -32q-111 -148 -232 -263q-8 -7 -30 -28t-35 -31
q45 -85 169.5 -130.5t274.5 -45.5q264 0 517 99t456 310q9 9 22 8.5t21 -8.5q9 -7 9.5 -20.5t-7.5 -22.5q-213 -220 -478.5 -324t-541.5 -104q-168 0 -301.5 52t-192.5 145q-227 -184 -415 -184q-63 0 -119 24zM793 70q150 172 403 307q43 87 66 153q8 19 10 31
q-44 65 -47 148q-9 170 118 313q-11 93 -53 166q-48 77 -125 113.5t-159 41.5q-119 6 -256.5 -56.5t-254 -167.5t-200 -252.5t-96.5 -297.5q-5 -57 2 -125l4 -26l6 12q116 225 266 395q181 211 318 219q12 1 21 -6.5t11 -19.5q2 -14 -6.5 -23.5t-21.5 -9.5
q-53 -5 -125.5 -57t-151.5 -144q-167 -191 -289 -444l-4 -8l15 -33q63 -120 213 -174q19 -4 26 -26q9 -26 -17 -31q-15 -2 -38 4q-85 31 -145 82q-51 45 -84 98l-4 6l-19 -47q-96 -236 -96 -406q0 -173 96 -239l14 -10q46 -19 95 -19q168 0 387 178q-10 29 -10 72
q0 135 131 283zM729 -236l43 39q80 77 154 166l57 70l82 115q45 69 78 125q-195 -120 -307 -256q-124 -143 -107 -259zM1931 428q47 11 70 31q12 9 12 22l2 4l-6 9q-28 28 -117 28q-44 0 -73 -4q-121 -13 -254 -55l-27 -10l27 -7q78 -21 108 -26q59 -6 111 -6q90 0 147 14z
M1348 924q-68 -100 -62 -213q0 -26 12 -66q47 155 50 279zM1284 422l84 37l10 2l-6 4q-30 18 -55 43q-13 -38 -33 -86z" />
    <glyph glyph-name="oe" unicode="&#x153;" horiz-adv-x="876" 
d="M125 31q-33 4 -50.5 23t-19.5 46q-5 41 23 103q30 58 83 110.5t120 83.5q18 6 34 -4l2 -2q8 31 43 31q5 0 21 -4q50 -19 57 -74q44 35 80 55q111 62 182 31l17 -8q31 -22 16 -60q-14 -28 -74 -68.5t-132.5 -64t-110.5 -4.5l-8 -14q-25 -51 -15 -80q17 -41 84 -41
q75 0 187.5 40.5t164.5 68.5l48 24q44 23 101 57l56 35q12 6 24.5 3t18.5 -15q6 -11 2.5 -23t-14.5 -18q-126 -77 -205 -117q-80 -40 -187.5 -76t-193.5 -36q-116 0 -143 78q-4 8 -4 14q-115 -107 -207 -94zM336 219q39 56 45 92q4 30 -13 40.5t-42 8.5l-4 -6q-1 -1 -11 -6
q-65 -26 -133 -100q-25 -28 -44 -63.5t-22.5 -63t17.5 -35.5q41 -11 102 32.5t105 100.5zM668 377q-92 12 -211 -98q28 -11 102.5 26t108.5 72z" />
    <glyph glyph-name="Scaron" unicode="&#x160;" horiz-adv-x="1392" 
d="M504 -403q-70 18 -132.5 46t-117.5 69.5t-95 92.5t-61.5 117.5t-19.5 140.5q0 13 8 22.5t20 8.5q32 0 29 -33q-2 -102 51 -186.5t138.5 -138t195.5 -80.5q103 -25 195 -25q113 0 205.5 33.5t138.5 95.5q33 42 33 84q0 46 -48 107q-38 50 -102 115t-124 119.5
t-125.5 123.5t-113.5 132.5t-79 141t-31 154.5q0 49 12 99q23 92 83.5 174t138 141t175 109t186.5 81t181 54q140 35 275 35q162 0 277.5 -53.5t144.5 -157.5v-5q10 -58 -9.5 -120.5t-63 -122.5t-96.5 -114t-120 -107q-33 -25 -52.5 -5t13.5 52q274 221 268 387v20l-12 25
q-33 67 -123.5 102t-220.5 35q-131 0 -266 -33q-119 -27 -235 -75t-218.5 -113t-174.5 -151.5t-93 -180.5q-9 -52 -9 -70q0 -68 30 -139.5t76 -132t109.5 -127.5t122 -121t122 -118t102.5 -113q61 -77 61 -148q0 -60 -45 -120q-58 -76 -162.5 -115t-230.5 -39
q-109 0 -211 27zM1534 1526q-8 10 -16 26l-11 25q-10 23 -18 29q-18 11 -8 32q13 20 35 9q21 -13 38 -52q0 -2 5 -12v-2l4 4q8 7 39.5 29t44.5 35q18 14 34 -2q15 -18 -2 -35q-16 -15 -55 -42t-55 -44q-7 -8 -18 -8t-17 8z" />
    <glyph glyph-name="scaron" unicode="&#x161;" horiz-adv-x="632" 
d="M41 80q-12 6 -16 18.5t2 22.5t18.5 14.5t22.5 -0.5q64 -33 211 -33q42 0 86 7l18 4l-14 4q-85 34 -109 45q-64 33 -94 63q-47 47 -21 99q36 68 189 92q64 10 162 10q61 0 88 -2q16 -1 23.5 -12.5t4 -25t-17.5 -19.5l-35 -23q-6 -4 -22 -20l-2 -5v-2q-3 -22 -29 -26
q-12 0 -22 8t-11 20q0 11 4 23l8 16l7 7h-27q-75 -4 -123 -11q-61 -10 -96 -24q-39 -17 -45 -33q-7 -14 10 -31q21 -24 76 -49q30 -15 67 -29t74.5 -27.5t48.5 -17.5q12 -6 15.5 -20.5t-3.5 -26.5q-22 -31 -88 -43q-53 -12 -122 -12q-164 0 -238 39zM393 498q-8 10 -16 26
l-10 25q-9 22 -19 29q-18 11 -8 32q13 19 35 8q23 -14 39 -51q0 -4 4 -12v-2l4 4q8 7 39.5 29t44.5 35q18 14 35 -3q14 -18 -2 -34q-16 -15 -55.5 -42t-55.5 -44q-8 -8 -18.5 -8t-16.5 8z" />
    <glyph glyph-name="Ydieresis" unicode="&#x178;" horiz-adv-x="1443" 
d="M313 -842q-14 6 -18.5 19.5t2.5 23.5q95 156 252.5 359.5t382 475t303.5 370.5q-20 -14 -78 -55.5t-100.5 -71.5t-112.5 -76t-126 -79.5t-128 -70.5t-132 -61t-124.5 -39.5t-118.5 -15.5q-101 0 -165 53q-72 60 -72 172q0 113 67.5 261t182.5 298q259 337 680 600
q10 6 23 3t20 -13q6 -11 3 -23t-14 -20q-44 -27 -98 -65t-154 -115t-210 -184.5t-201 -223.5q-110 -139 -175 -279t-65 -239q0 -84 51 -123q48 -37 129 -37q82 0 196.5 42.5t219.5 102t232 145t208.5 147t176.5 135.5t110 85q232 261 301 336q106 119 247 269t157 163
q5 5 14 7q9 4 23.5 -4t15.5 -25q0 -11 -4 -14q-24 -50 -159 -206.5t-275 -305.5q-167 -179 -350 -353l-17 -16l-31 -33q-123 -142 -159 -186q-154 -185 -238.5 -288.5t-219 -271t-235.5 -303t-178 -251.5q-7 -11 -19 -17.5t-20 -1.5zM1399 1452q-19 20 -19 47t19 47
q20 19 45.5 19t44.5 -19q20 -20 20 -47t-20 -47q-19 -19 -44.5 -19t-45.5 19zM1714 1452q-20 20 -20 47t20 47q19 19 44.5 19t45.5 -19q19 -20 19 -47t-19 -47q-20 -19 -45.5 -19t-44.5 19z" />
    <glyph glyph-name="Zcaron" unicode="&#x17d;" horiz-adv-x="1425" 
d="M1853 -526q-75 53 -185 98.5t-221.5 77t-260.5 59.5t-264 45t-271.5 33t-244 23t-221 16.5t-165.5 11.5h-10l-28 -6q-33 -8 -72 -8q-79 0 -143 41q-22 12 -13.5 35.5t33.5 19.5q65 -8 201 -18l14 -2l16 6q76 27 164 90q294 198 621 493q91 83 271 249t280 257t232.5 202
t230.5 179q-122 -4 -271 -4q-778 0 -1063 82q-12 5 -18.5 16t-3.5 23t14 18t23 2q284 -86 987 -86q210 0 444 9q17 1 24 -10.5t2 -27t-20 -24.5q-117 -71 -241.5 -166.5t-239 -197.5t-233 -214t-243.5 -229t-250.5 -228t-273.5 -225t-294 -208l-29 -15l43 -4
q443 -39 624 -62q807 -103 1090 -302q10 -6 12 -19t-4 -22q-8 -11 -21 -13t-22 5zM1520 1538q-9 12 -17 27l-10 24q-10 23 -18 29q-8 5 -10.5 14.5t1.5 18.5q13 19 35 8q23 -14 39 -51q0 -5 4 -13v-2l4 4q8 7 39.5 29t44.5 35q18 15 35 -2q15 -18 -2 -35q-16 -15 -55.5 -42
t-55.5 -44q-8 -8 -18 -8t-16 8z" />
    <glyph glyph-name="zcaron" unicode="&#x17e;" horiz-adv-x="618" 
d="M92 47h-26q-7 0 -9 2q-4 0 -11.5 6t-10.5 17q-2 6 -0.5 12t3 9t4.5 6.5t3 4.5l10 5v2q253 114 359 182l14 10l-92 -10q-124 -15 -203 -17q-12 0 -21.5 8.5t-9.5 20.5q0 14 8.5 23.5t20.5 9.5q57 2 122 8t153.5 16.5t128.5 14.5q22 3 31.5 -17.5t-7.5 -35.5
q-118 -102 -336 -203l-4 -2h21q33 2 106 2q102 0 158 -12q12 -3 19 -14t5 -23q-3 -12 -13.5 -19.5t-22.5 -5.5q-57 14 -150 14q-32 0 -98 -4l-111 -6q-32 -4 -41 -4zM324 446q-9 12 -17 27l-10 25q-9 21 -18 28q-8 5 -10.5 14.5t1.5 18.5q13 19 35 8q23 -14 39 -51
q0 -4 4 -12v-2l4 4q10 8 40.5 29t43.5 34q18 15 35 -2q15 -18 -2 -35q-16 -15 -55.5 -42t-55.5 -44q-8 -8 -18 -8t-16 8z" />
    <glyph glyph-name="circumflex" unicode="&#x2c6;" horiz-adv-x="514" 
d="M276 504q-22 26 -30 47l-2 2l-8 -6l-11 -8l-41 -29q-8 -7 -18 -6t-16 10q-6 6 -5.5 16.5t7.5 16.5q9 7 21.5 14.5t19.5 13.5l53 39q12 6 23.5 0t13.5 -18q5 -27 30 -59q7 -8 6.5 -18.5t-8.5 -16.5q-16 -13 -35 2z" />
    <glyph glyph-name="caron" unicode="&#x2c7;" horiz-adv-x="630" 
d="M264 504q-8 10 -16 26l-10 25q-9 22 -19 29q-18 11 -8 32q13 20 35 9q23 -14 39 -52q0 -4 4 -12v-2l4 4q8 7 39.5 29t44.5 35q18 15 35 -2q15 -18 -2 -35q-16 -15 -55.5 -42t-55.5 -44q-7 -8 -18 -8t-17 8z" />
    <glyph glyph-name="ring" unicode="&#x2da;" horiz-adv-x="602" 
d="M246 489q-22 3 -45 13q-28 16 -33 39q-6 26 8 47q13 19 35 26q35 17 78 13q9 0 15.5 -8t6.5 -19q-1 -9 -9 -15.5t-17 -6.5q-29 4 -54 -9q-8 -2 -14 -8q-2 -2 -2 -6v-4q1 0 1.5 -0.5t2 -1.5t4.5 -2q10 -6 31 -10q6 0 19.5 -1t19.5 -1q18 0 26 4q22 2 29 16q2 0 0 4
q-14 14 -18 16q-9 6 -11.5 16t3.5 19q12 19 34 8q29 -22 35 -36q11 -21 4 -45q-14 -37 -65 -48q-16 -4 -37 -4q-15 0 -47 4z" />
    <glyph glyph-name="ogonek" unicode="&#x2db;" horiz-adv-x="438" 
d="M182 -106q-48 8 -57 49q-11 33 6 63q8 12 39 33l37 16q3 1 6 2.5t5 3t3 2t2 0.5q-1 10 5.5 18.5t15.5 10.5q11 0 18.5 -6.5t7.5 -15.5q2 -4 2 -11q-5 -15 -8 -18q-7 -14 -35 -31q-7 -4 -21 -9t-15 -5q-13 -7 -21 -16q-5 -9 0 -25q3 -11 22.5 -13t34.5 9q8 6 18.5 5
t16.5 -9q14 -21 -4 -35q-32 -25 -78 -18z" />
    <glyph glyph-name="tilde" unicode="&#x2dc;" horiz-adv-x="743" 
d="M350 496l-18 6q-2 2 -8.5 5t-8.5 5q-5 2 -15.5 6.5t-16.5 5.5q-12 4 -25 4q-11 -5 -14 -12q-8 -9 -21 -11t-22 5q-10 7 -12 20.5t6 22.5q20 29 51 35q23 5 53 -4q10 -2 43 -19l16 -6q2 -2 7 -4t6 -2t4 -1t6 -1l18 4q11 0 17 6l6 2v2q8 23 29 23q12 1 21 -8t11 -21
q0 -21 -14 -35q-14 -19 -55 -28q-35 -12 -64 0z" />
    <glyph glyph-name="hungarumlaut" unicode="&#x2dd;" horiz-adv-x="583" 
d="M166 500q-11 6 -14 18t4 23q10 17 22 26l25 19l24 16q2 2 5.5 5t6 5t3.5 4q20 23 45 5q9 -8 10 -21t-6 -22q-5 -6 -15 -14.5t-12 -10.5l-26 -18q-5 -2 -12.5 -8t-8.5 -7l-10 -10q-6 -11 -18 -14t-23 4zM285 498q-9 8 -10 21t8 22q4 5 10.5 11.5t15 14.5t13.5 13
q20 15 43 38q9 9 21.5 9t21.5 -9q9 -8 9 -21t-9 -22l-43 -40l-37 -35q-8 -9 -21 -10t-22 8z" />
    <glyph glyph-name="endash" unicode="&#x2013;" horiz-adv-x="1705" 
d="M524 375q0 11 9 22t20 11q29 2 338 2q322 0 379 -2q13 0 21.5 -10.5t6.5 -22.5q0 -13 -9.5 -21t-22.5 -8h-435q-198 0 -272 2q-13 0 -23.5 7t-11.5 20z" />
    <glyph glyph-name="emdash" unicode="&#x2014;" horiz-adv-x="2027" 
d="M524 375q0 11 9 22t20 11q29 2 543 2q526 0 583 -2q13 0 22 -10.5t7 -22.5q0 -13 -10 -21t-23 -8h-719q-323 0 -397 2q-13 0 -23.5 7t-11.5 20z" />
    <glyph glyph-name="quoteleft" unicode="&#x2018;" horiz-adv-x="311" 
d="M229 1118q6 -17 -7 -34.5t-29.5 -32t-16.5 -21.5q2 -2 4 -6q5 -9 1.5 -21.5t-13.5 -19.5t-24.5 -4t-20.5 14q-22 35 3 81.5t67 60.5q27 7 36 -17z" />
    <glyph glyph-name="quoteright" unicode="&#x2019;" horiz-adv-x="264" 
d="M106 995q-6 17 7.5 34.5t30 32t16.5 21.5q-2 3 -4 7q-5 9 -1.5 21t13.5 19t24.5 4t20.5 -14q22 -35 -3 -81t-67 -60q-28 -7 -37 16z" />
    <glyph glyph-name="quotedblleft" unicode="&#x201c;" horiz-adv-x="407" 
d="M229 1118q6 -17 -7 -34.5t-29.5 -32t-16.5 -21.5q2 -2 4 -6q5 -9 1.5 -21.5t-13.5 -19.5t-24.5 -4t-20.5 14q-22 35 3 81.5t67 60.5q27 7 36 -17zM373 1118q6 -17 -7.5 -34.5t-30 -32t-16.5 -21.5q3 -2 5 -6q5 -9 1 -21.5t-14 -19.5t-24.5 -4t-20.5 14q-22 35 3 81.5
t67 60.5q28 7 37 -17z" />
    <glyph glyph-name="quotedblright" unicode="&#x201d;" horiz-adv-x="446" 
d="M106 995q-6 17 7.5 34.5t30 32t16.5 21.5q-2 3 -4 7q-5 9 -1.5 21t13.5 19t24.5 4t20.5 -14q22 -35 -3 -81t-67 -60q-28 -7 -37 16zM250 995q-6 17 7 34.5t29.5 32t16.5 21.5q-2 3 -4 7q-5 9 -1.5 21t13.5 19t24.5 4t20.5 -14q22 -35 -2.5 -81t-66.5 -60q-28 -7 -37 16z
" />
    <glyph glyph-name="dagger" unicode="&#x2020;" horiz-adv-x="792" 
d="M215 836q0 11 9 21.5t20 10.5q25 2 207 2q14 345 32 551q1 13 11 22t22 7q13 -1 22 -11t7 -22q-15 -165 -33 -547q193 0 244 -2q13 0 21.5 -10t6.5 -22q0 -13 -9.5 -21t-22.5 -8h-242q-33 -819 -33 -1163q0 -154 4 -197q0 -32 -28 -35q-11 0 -21.5 8.5t-11.5 20.5
q-4 47 -4 217q0 420 30 1149q-124 0 -196 2q-13 0 -23.5 7t-11.5 20z" />
    <glyph glyph-name="daggerdbl" unicode="&#x2021;" horiz-adv-x="1241" 
d="M420 221q0 11 9 22t20 11q23 2 182 2q12 382 20 551q-124 0 -196 2q-13 0 -23.5 7t-11.5 20q0 11 9 21.5t20 10.5q25 2 206 2q13 325 33 551q1 13 11 22t22 7q13 -1 22 -11t7 -22q-15 -165 -33 -547q193 0 244 -2q13 0 21.5 -10t6.5 -22q0 -13 -10 -21t-23 -8h-241
q-11 -244 -21 -551q212 0 267 -2q13 0 21.5 -10.5t6.5 -22.5q0 -13 -10 -20.5t-23 -7.5h-264q-10 -348 -10 -551q0 -109 4 -195q0 -14 -8 -24t-21 -11q-11 0 -21 8.5t-11 20.5q-7 82 -7 223q0 164 11 529q-113 0 -174 2q-32 0 -35 26z" />
    <glyph glyph-name="bullet" unicode="&#x2022;" horiz-adv-x="933" 
d="M461 270q-31 28 -31 72q0 43 31 74q27 30 71 30q42 0 72 -30q29 -32 29 -74q0 -43 -29 -72q-30 -30 -72 -30q-44 0 -71 30z" />
    <glyph glyph-name="perthousand" unicode="&#x2030;" horiz-adv-x="1587" 
d="M221 346q-33 20 -49 57.5t-16 75.5q0 69 50 149t118 120l6 4q-9 15 2 34q43 53 102 62q74 7 113 -72q14 -32 14 -69q0 -76 -47 -163t-96 -136q-114 -111 -197 -62zM375 453q56 54 98.5 148.5t15.5 150.5q-17 38 -49 34q-15 -3 -30 -12h6q13 0 21.5 -9.5t8.5 -21.5
q-3 -30 -32 -30q-58 3 -127 -78q-70 -83 -70 -158q0 -24 10 -46.5t27 -31.5q42 -25 121 54zM197 -12q-10 7 -12.5 20t5.5 23q104 132 695 776q9 9 21.5 10t21.5 -8q9 -8 10 -21t-8 -22q-20 -22 -111 -122t-166 -183t-165.5 -184t-156 -176t-91.5 -109q-8 -9 -21 -10t-22 6z
M668 -6q-33 20 -49.5 57.5t-16.5 75.5q0 69 50 148.5t118 119.5l6 4q-10 16 2 35q45 56 103 62q71 10 112 -70q15 -35 15 -70q0 -77 -47.5 -163.5t-96.5 -135.5q-110 -110 -196 -63zM821 100q57 57 99.5 150.5t15.5 148.5q-17 39 -49 35q-16 0 -31 -12h6q13 0 22 -9.5
t9 -21.5q-2 -12 -11.5 -21.5t-21.5 -9.5q-59 3 -127 -77q-32 -36 -50.5 -79t-18.5 -77q0 -24 9.5 -47t26.5 -33q42 -25 121 53zM1098 -6q-33 20 -49.5 57.5t-16.5 75.5q0 69 50 148.5t118 119.5l6 4q-10 16 2 35q45 56 103 62q71 10 112 -70q15 -35 15 -70
q0 -77 -47.5 -163.5t-96.5 -135.5q-110 -110 -196 -63zM1251 100q57 57 99.5 150.5t15.5 148.5q-17 39 -49 35q-16 0 -31 -12h6q13 0 22 -9.5t9 -21.5q-2 -12 -11.5 -21.5t-21.5 -9.5q-59 3 -127 -77q-32 -36 -50.5 -79t-18.5 -77q0 -24 9.5 -47t26.5 -33q42 -26 121 53z
" />
    <glyph glyph-name="guilsinglleft" unicode="&#x2039;" horiz-adv-x="1253" 
d="M1030 633q11 7 23 4t18 -14q6 -10 3 -22.5t-13 -18.5q-47 -28 -197 -122.5t-243 -148.5q32 -24 179 -114.5t208 -151.5q9 -9 9 -21.5t-9 -21.5t-21.5 -9t-21.5 9q-61 60 -220 156t-208 147q-12 12 -6.5 27.5t22.5 23.5q77 34 153.5 78t174 106t149.5 93z" />
    <glyph glyph-name="guilsinglright" unicode="&#x203a;" horiz-adv-x="1210" 
d="M569 0q-11 -7 -23 -4t-18 14q-6 10 -2.5 22.5t13.5 18.5q47 28 197 122.5t243 148.5q-32 24 -179 114.5t-208 151.5q-9 9 -9 21.5t9 21.5t21.5 9t21.5 -9q61 -60 220 -156t208 -147q12 -12 6.5 -28t-22.5 -24q-77 -34 -153 -77.5t-175.5 -106.5t-149.5 -92z" />
    <glyph glyph-name="Euro" unicode="&#x20ac;" horiz-adv-x="727" 
d="M119 471q-13 0 -22 9.5t-7 23.5q0 12 9.5 20t23.5 8q24 -4 41 -4q78 163 256 265q37 21 89 33t99 8q58 -3 96.5 -35t34.5 -92q0 -12 -9 -21t-21 -8q-13 0 -22 9.5t-9 21.5q2 25 -10 39.5t-26.5 18.5t-37.5 7q-82 3 -153 -35q-144 -82 -218 -209h3q20 0 122 5q86 4 125 4
q78 0 113 -4q12 -2 20 -11.5t7 -21.5t-11 -20.5t-22 -8.5q-33 4 -107 4q-39 0 -121 -4q-80 -6 -159 -6q-18 -53 -23 -90h363q12 -2 21 -11t9 -22q-4 -29 -32 -29h-365q0 -54 27 -120q18 -44 67 -75.5t111 -31.5q64 0 129 39q11 7 23 5t18 -13q7 -11 5 -24t-13 -19
q-74 -47 -162 -47q-81 0 -145.5 40.5t-90.5 100.5q-30 70 -30 145h-47q-14 0 -22.5 8.5t-8.5 22.5q0 12 9 21.5t22 9.5h49q5 40 22 92q-14 0 -20 2z" />
    <glyph glyph-name="trademark" unicode="&#x2122;" horiz-adv-x="1007" 
d="M608 500q-9 4 -11 15t3 20q10 16 34.5 53.5t40 63t27.5 50.5q6 15 24.5 13t21.5 -19q8 -30 10 -61l6 8q10 18 27 39q21 26 26 29q6 6 10 6q10 3 19.5 -2.5t11.5 -14.5q7 -27 -2 -96l-6 -47q-2 -14 -2 -35q1 -9 -5.5 -16.5t-15.5 -9.5q-11 0 -18.5 6.5t-7.5 15.5
q-3 23 0 45l6 47l2 13l-4 -7l-25 -38q-2 -3 -8.5 -13.5t-9.5 -13.5q-2 0 -2 -2q-10 -9 -25 -4t-16 20l-4 31l-4 20l-68 -108q-13 -19 -35 -8zM459 498q-7 4 -10 14t2 18q12 20 31.5 66t31.5 70h-16q-13 0 -19 -2h-6q-4 0 -4 -2q-24 -3 -31 18q-3 9 3 18.5t16 12.5q2 0 7.5 1
t8.5 1q6 2 23 2h47h51q6 -2 20 -2q3 0 9.5 -1t9.5 -1q9 -2 15 -10.5t5 -18.5q-2 -9 -10 -15t-18 -5q-2 0 -7 1t-8 1t-9.5 1t-10.5 1h-21q-18 -30 -39.5 -84t-35.5 -76q-6 -9 -16 -11.5t-19 3.5z" />
    <glyph glyph-name="b.end" unicode="&#xe2a1;" horiz-adv-x="692" 
d="M6 -12q-14 10 -14 26q0 4 1 8t1 5q3 11 37 73l78 131q117 192 249 377q145 208 279 382t197 229q9 7 22 5.5t21 -10.5q9 -9 7.5 -22.5t-10.5 -22.5q-109 -93 -466 -596q-129 -181 -246 -374l12 12q11 13 35.5 35t32.5 30q85 75 141 115q78 54 121 45q27 -3 39 -28l4 -9
q16 -44 -25 -115.5t-100 -121.5q-114 -96 -199 -96q-50 0 -76 30v2l-18 -20l-53 -58q-13 -18 -29 -30q-1 0 -4 -2.5t-6 -3.5h-3q-4 -1 -8 -1.5t-9.5 1t-10.5 4.5zM369 201q59 52 94 106q26 42 26 62v8h-4q-22 -4 -67 -37q-61 -40 -133 -109l-70 -65l-27 -25l5 -2
q43 -43 176 62z" />
    <glyph glyph-name="e.end" unicode="&#xe2a4;" horiz-adv-x="1042" 
d="M43 113q-18 69 31 145q52 84 153 141q111 62 183 31l16 -8q31 -22 16 -60q-14 -28 -74 -68.5t-132.5 -64t-110.5 -4.5q-25 -38 -26 -72.5t28 -48.5q35 -14 102 -14q173 0 479.5 85t397.5 132q12 6 24 1t17 -17q10 -27 -17 -41q-181 -76 -440.5 -143.5t-460.5 -75.5
q-77 -3 -126 20.5t-60 61.5zM377 377q-92 12 -211 -98q28 -11 102.5 26t108.5 72z" />
    <glyph glyph-name="h.end" unicode="&#xe2a7;" horiz-adv-x="1470" 
d="M772 92q-140 0 -192 14q-35 10 -52 34t-12 55q2 47 70 122q-85 0 -276 -84t-234 -135l-19 -26q-15 -23 -39.5 -10t-13.5 38q3 8 105 152q363 508 796 950q9 9 22.5 9.5t22.5 -7.5q8 -9 8.5 -22.5t-8.5 -22.5q-387 -397 -688 -801l-88 -120q362 170 463 137q22 -7 24 -33
t-14 -43q-5 -5 -11 -12t-13 -15.5t-11 -13.5q-16 -18 -25.5 -36t-8 -34t19.5 -22q38 -12 174 -12q86 -2 291 6q154 6 287.5 17t169.5 20q12 3 23.5 -4t12.5 -19q3 -12 -3.5 -23t-18.5 -14q-96 -24 -469 -39q-205 -8 -293 -6z" />
    <glyph glyph-name="i.end" unicode="&#xe2a8;" horiz-adv-x="987" 
d="M426 539q-6 10 -2 23.5t16 17.5l33 22l33 29q9 9 22 8t21 -10q9 -9 8 -22t-10 -21q-21 -21 -35 -31q-37 -26 -45 -31q-10 -4 -22.5 0t-18.5 15zM319 57q-137 0 -192 15q-35 10 -52 33.5t-12 54.5q4 49 66 122t109 109l4 2l2 2l8 8q23 17 42 -5.5t-3 -41.5l-6 -6l-6 -4
l-3 -2q-16 -12 -52.5 -51.5t-59.5 -67.5q-16 -18 -25.5 -36.5t-8 -35t19.5 -22.5q38 -12 169 -12q86 -2 291 6q154 6 287.5 17t169.5 20q12 3 24 -4t13 -19q3 -12 -4 -23t-19 -14q-96 -24 -469 -39q-205 -8 -293 -6z" />
    <glyph glyph-name="k.end" unicode="&#xe2aa;" horiz-adv-x="1167" 
d="M-45 -76q-15 -23 -39 -9t-14 40q189 297 475.5 650t521.5 593q9 9 21.5 9.5t21.5 -7.5q9 -9 9.5 -22.5t-7.5 -22.5q-375 -381 -770 -911q102 72 251.5 137t219.5 49q27 -6 33 -29t-8 -43q-33 -51 -111.5 -88.5t-145.5 -51.5t-104 -13q-6 -33 16.5 -59t60 -40t73.5 -21
t65 -7q113 -3 381 31t346 53q12 3 24 -4t13 -19q3 -12 -3.5 -23t-18.5 -14q-86 -22 -353 -55.5t-389 -30.5q-125 0 -211 48.5t-82 140.5q-58 -35 -136.5 -113t-139.5 -168zM596 373q-25 -2 -106.5 -35t-155.5 -72q52 4 144 37t118 70z" />
    <glyph glyph-name="l.end" unicode="&#xe2ab;" horiz-adv-x="755" 
d="M43 -61q-25 25 -25 71q0 80 72 203q90 158 283 387q160 191 344 379t287 272q9 7 21.5 6t21.5 -10q7 -9 5.5 -22t-10.5 -21q-98 -79 -279.5 -265.5t-342.5 -379.5q-191 -228 -277 -377q-93 -164 -55 -202q20 -21 129 1t211 58q235 80 418 164q27 10 41 -17q4 -12 -1 -24
t-16 -17q-23 -9 -102.5 -42.5t-165 -67.5t-158.5 -58q-203 -67 -307 -67q-65 0 -94 29z" />
    <glyph glyph-name="m.end" unicode="&#xe2ac;" horiz-adv-x="1417" 
d="M786 76q-69 34 -69 98q0 38 20 80q-196 -103 -280 -141q-17 -6 -31 5.5t-10 28.5q10 54 67 172q-88 -39 -231 -131t-182 -114q-20 -10 -36 8t-5 37q28 46 86.5 134t87.5 136q6 11 18 14t23 -4q11 -6 14 -18t-4 -23q-14 -26 -44 -70.5t-42 -66.5l-14 -24q6 4 45.5 28.5
t49.5 30.5t44 27t48.5 29t44 24t48.5 25t43.5 19.5t46.5 18.5q17 6 30 -5t11 -29q-5 -24 -15.5 -48t-27.5 -59.5t-28 -60.5l311 161q15 6 29 -3.5t14 -24.5q4 -16 -4 -27l-4 -8l-4 -4l-2 -4q-54 -72 -54 -111q0 -34 41 -47q47 -16 156 -16q111 0 244.5 15.5t205.5 33.5
q12 3 24 -4t13 -19q3 -12 -3.5 -23t-18.5 -14q-76 -17 -215 -35t-254 -18q-125 0 -187 27z" />
    <glyph glyph-name="n.end" unicode="&#xe2ad;" horiz-adv-x="1249" 
d="M770 74q-157 0 -192 14q-68 31 -68 92q0 65 55 142q-118 -11 -263 -73t-230 -130l-41 -47q-11 -13 -28 -11.5t-24 13t1 28.5q39 52 49 62l178 203q7 10 20.5 11t22.5 -7t10 -21t-6 -22l-57 -66q92 46 214 83.5t193 29.5q29 -4 35 -29t-10 -43q-54 -74 -54 -110
q0 -14 6.5 -24.5t22.5 -16.5t29 -10t42 -5.5t44 -1.5h51q128 -3 313.5 7.5t245.5 25.5q12 3 24 -4t13 -19q3 -12 -4 -22.5t-19 -13.5q-62 -16 -211.5 -25.5t-295.5 -9.5h-66z" />
    <glyph glyph-name="o.end" unicode="&#xe2ae;" horiz-adv-x="1038" 
d="M125 31q-33 4 -50.5 23t-19.5 46q-5 41 23 103q30 58 83 110.5t120 83.5q18 6 34 -4l2 -2q8 31 43 31q5 0 21 -4q56 -20 59 -66v-2q52 -24 242 -24q124 0 258.5 9.5t183.5 20.5q12 3 24.5 -2.5t16.5 -15.5q3 -12 -2.5 -23t-15.5 -14q-64 -15 -196.5 -24t-262.5 -9
q-185 0 -250 19l-2 -4q-17 -57 -49 -97q-48 -62 -121 -112.5t-141 -42.5zM336 219q39 56 45 92q-43 28 -55 49l-4 -6q-1 -1 -11 -6q-65 -26 -133 -100q-25 -28 -44 -63.5t-22.5 -63t17.5 -35.5q41 -11 102 32.5t105 100.5z" />
    <glyph glyph-name="p.end" unicode="&#xe2af;" horiz-adv-x="622" 
d="M-446 -662q44 115 170 316l65 96l16 29q136 223 301.5 446.5t274.5 354.5q7 10 20 11t23 -7q10 -7 11 -20t-7 -23q-111 -138 -199 -258q86 89 172 112q30 8 57 -3.5t38 -43.5q31 -84 -109 -209q-92 -73 -176 -73q-50 0 -70 20l-10 10q-142 -159 -278 -360l-13 -19
l-37 -61q-144 -246 -192 -342q-14 -26 -40.5 -15t-16.5 39zM334 176q54 40 82 85t20 67q-1 4 -4.5 6t-5.5 2.5t-6.5 0t-5.5 -0.5q-41 -12 -84 -45q-88 -61 -156 -141l-6 -7q15 -16 36.5 -19t45.5 5.5t44.5 20t39.5 26.5z" />
    <glyph glyph-name="u.end" unicode="&#xe2b4;" horiz-adv-x="729" 
d="M635 57q-155 0 -193 15q-79 34 -65 118v5l-31 -23q-37 -26 -70 -43q-106 -66 -176 -66q-43 0 -65 25q-35 35 -15 98q14 43 56 95q31 39 78 79q50 40 75 46q12 3 23 -4.5t14 -20.5q3 -12 -3.5 -23t-18.5 -12q-14 -4 -51 -33q-41 -32 -70 -71q-36 -48 -43 -76
q-8 -23 -2 -35q12 -12 53 0q49 9 115 51q136 78 231 183q20 22 43 3t4 -42q-52 -73 -59 -84l-4 -2q-23 -44 -23 -64t13.5 -32.5t45.5 -17.5t56 -6t72 -1h10q128 -3 313.5 7.5t245.5 25.5q12 3 24 -4t13 -19q3 -12 -4 -23t-19 -14q-62 -16 -212 -25.5t-296 -9.5h-65z" />
    <glyph glyph-name="a.1" horiz-adv-x="1705" 
d="M743 92q-140 0 -192 14q-35 10 -52 34t-12 55q0 16 11 38l2 5l-2 -2l-95 -50q-117 -55 -186 -75q-51 -15 -84 -15q-37 0 -59 19q0 4 -4 4q-21 27 -21 55q0 39 25 70q35 52 125 96q100 51 223 51q72 0 143 -24l23 -9l14 11l35 22l4 2l2 2l8 8q23 17 42 -5.5t-3 -41.5
l-6 -6l-6 -4l-2 -2q-52 -41 -92 -92q-35 -41 -35 -64v-10q3 -6 20 -12q38 -12 174 -12q86 -2 291 6q154 6 287.5 17t169.5 20q12 3 24 -4t13 -19q3 -12 -4 -23t-19 -14q-96 -24 -469 -39q-205 -8 -293 -6zM137 158q23 0 64 12q71 20 176 72q94 46 135 71l6 4l-18 5
q-36 8 -78 8q-102 0 -197 -45q-76 -39 -102 -78q-19 -27 -10 -41l4 -4q0 -4 20 -4z" />
    <glyph glyph-name="swsh" horiz-adv-x="0" 
d="M-6324 -537q-3 12 2.5 23t17.5 14q476 132 1341 205.5t1789 73.5q630 0 1171 -37t887 -107q12 -3 19 -13.5t5 -22.5q-3 -12 -13.5 -19t-22.5 -4q-340 70 -876 105.5t-1168 35.5q-921 0 -1782 -73t-1333 -203q-12 -3 -23 3.5t-14 18.5z" />
    <glyph glyph-name="r.1" horiz-adv-x="714" 
d="M401 487l27 27l4 6q4 5 11 13.5t13 15.5t11 12q30 37 53 51q23 15 40.5 -5t0.5 -40l-53 -59l-33 -35l-8 -8q-29 -29 -29 -51q0 -16 17 -26.5t49 -10.5q22 0 28.5 -20.5t-10.5 -34.5q-54 -43 -70.5 -83.5t-9.5 -62.5q14 -37 60 -37q36 0 95 24t102.5 48.5t108.5 64.5
t75 46q11 6 23.5 1t17.5 -16q10 -25 -11 -39q-55 -37 -93 -60.5t-101 -58t-118.5 -53t-100.5 -18.5q-87 0 -119 74q-26 75 53 176q-47 17 -57 59q-156 -108 -201 -131q-12 -6 -24.5 -2.5t-18.5 14.5t-2.5 23t14.5 18q70 39 256 178z" />
    <glyph glyph-name="y.1" horiz-adv-x="577" 
d="M-205 -723q-10 6 -14.5 18.5t0.5 22.5q165 340 469 721q16 20 44.5 54.5t35.5 43.5l4 4l-15 -8q-93 -55 -151 -55q-34 0 -57 20q-25 22 -25 60q0 59 53 133q33 48 74.5 87.5t73.5 47.5q12 3 23 -2.5t14 -17.5t-3 -24t-18 -15t-49 -35q-34 -30 -66 -76q-30 -49 -38 -78
q-7 -30 2 -35q10 -10 51 2q44 13 112 58q61 40 121.5 94.5t98.5 101.5q17 21 39.5 8t13.5 -38q-14 -37 -101 -138q-111 -132 -190 -231q-297 -373 -461 -709q-4 -10 -16.5 -14.5t-24.5 0.5z" />
    <glyph glyph-name="swsh2" horiz-adv-x="1673" 
d="M74 -297q-1 12 6.5 21.5t19.5 11.5q604 76 1018 76q121 0 312 -11q18 -1 26 -16t0 -29.5t-26 -15.5q-17 0 -33 -2q-50 -7 -54 -8q-24 -5 -51 -17q-22 -8 -26 -16q-8 -9 -21 -11t-22 7q-10 7 -12 20t6 23q3 7 10 10l2 2h-8q-19 0 -56 1t-55 1q-394 0 -1004 -74
q-12 -1 -21 7t-11 20z" />
    <glyph glyph-name="s.1" horiz-adv-x="548" 
d="M78 84q-9 8 -11 20t5 23q7 10 20 12t23 -6q16 -11 55.5 -15.5t87.5 1.5q40 7 61 14l13 4l-15 4q-12 4 -75 29q-44 19 -64 39q-34 30 -28 70q12 81 151 129q123 42 223 32q22 -2 27.5 -23.5t-14.5 -33.5l-23 -21q-5 -5 -9 -10.5t-6 -9t-3 -4.5v-4q-2 -11 -10.5 -19
t-18.5 -8q-12 0 -21.5 8.5t-9.5 20.5v14l6 15l7 12l-23 -2q-50 -8 -104 -25q-51 -18 -79.5 -39.5t-31.5 -40.5q0 -8 8 -16q21 -17 49 -29q30 -12 142 -49q12 -5 17 -18t-1 -25q-16 -31 -62.5 -50t-97.5 -24q-40 -4 -63 -4q-83 0 -125 29z" />
    <glyph glyph-name="B.1" horiz-adv-x="1652" 
d="M10 -422q-41 41 -41 90q0 46 35 96q79 102 270 187q55 25 113 45q10 13 31.5 40.5t32.5 41.5q104 136 340 426q-17 0 -23 2q-123 11 -211 43q-66 26 -94 57q-45 52 -17 109q25 53 94.5 74t161.5 14q137 -10 281 -68q221 267 449 527q-83 12 -177 12q-92 0 -225 -17
q-135 -20 -262 -63t-240 -107t-203 -154.5t-141 -197.5q-39 -82 -39 -170q0 -97 50 -176q71 -115 202 -115q27 0 76 11q12 3 24 -4t15 -19t-4 -23t-19 -14q-47 -12 -88 -12q-81 0 -148.5 38.5t-109.5 104.5q-59 89 -59 209q0 101 45 197q55 116 151.5 213t217 165t252.5 113
t272 66q122 16 227 16q129 0 232 -20q210 233 276 282q11 7 23 5t20 -11q7 -11 5 -23t-11 -20q-54 -38 -244 -248q233 -64 314 -208q32 -57 32 -117q0 -80 -63 -156q-93 -107 -295 -184q-85 -35 -195 -64l-73 -16l26 -29q125 -141 125 -309v-24l29 4q83 6 250 14
q12 1 21.5 -8t11.5 -21q0 -12 -9 -21.5t-22 -10.5q-126 -6 -248 -15l-41 -4l-6 -29q-19 -78 -64 -155q-89 -156 -269.5 -268.5t-393.5 -165.5q-158 -41 -311 -41q-250 0 -359 106zM221 -262v6q7 30 72 121l24 37q-12 -4 -18 -8q-183 -81 -244 -166q-48 -64 -4 -105
q96 -90 320 -90q146 0 293 39q205 50 374.5 155.5t251.5 249.5q41 72 56 138l4 10h-11q-564 -58 -913 -180q-59 -76 -82 -115q-56 -79 -63 -100l-2 -11q-10 -16 -31 -16q-12 1 -20.5 12t-6.5 23zM1040 711l47 -23q55 -28 91 -57l34 -27l17 4q150 31 287 82q188 74 270 168
q49 58 49 117q0 38 -25 86q-76 133 -307 186q-268 -303 -463 -536zM1333 184l27 4v2q11 185 -143 332l-21 17l-57 -11q-136 -23 -271 -26q-200 -246 -368 -461l-8 -10q345 104 841 153zM698 741q-81 6 -132 -8.5t-64 -42.5q-10 -23 6 -43q20 -23 72 -41q90 -34 192 -39
q40 -4 68 -4l88 107l14 16q-123 48 -244 55zM1128 590h2l-30 20l-43 25q-24 14 -58 27l-24 -31l-55 -66q91 6 208 25z" />
    <glyph glyph-name="L.1" horiz-adv-x="1705" 
d="M573 158q-153 25 -247.5 112t-104.5 217q-1 12 8 22.5t21 10.5q12 2 22 -5.5t11 -20.5q8 -106 86 -180t213 -97q47 -8 110 -8q68 0 125 8l43 8l55 80q45 67 218 348q36 61 98 168t99.5 171.5t87.5 142.5t91 133q162 223 297 223q37 0 62 -10q60 -25 90.5 -78t32.5 -123
q3 -129 -80 -309q-83 -177 -230.5 -345t-326.5 -276q-203 -126 -455 -178q-16 -22 -63 -90t-79.5 -113t-79 -98.5t-83.5 -81.5q580 -129 1130 -129q189 0 381 23q12 1 23 -7.5t16 -21.5q-7 -28 -30 -33q-166 -22 -396 -22q-564 0 -1181 135l-9 -4q-84 -46 -151 -64l-8 -2
q-69 -4 -136 57t-83 127q-2 19 10 30t30 7q216 -58 320 -82l8 4q34 22 79 71t70.5 81.5t83 111.5t64.5 89q-75 -10 -133 -10q-62 0 -109 8zM1325 403q169 102 309.5 263t218.5 329q79 164 76 285q-6 112 -84 141q-60 23 -128.5 -24.5t-157.5 -165.5q-33 -44 -67 -95
t-77 -121t-69.5 -114.5t-82.5 -141t-79 -134.5q-130 -227 -213 -349l-21 -30l6 2q171 46 369 155zM360 -276l84 30q-47 11 -109.5 28t-82.5 21l-19 7q17 -22 33 -37.5t33.5 -25t28 -13.5t30.5 -10h2z" />
    <glyph glyph-name="Y.1" horiz-adv-x="1280" 
d="M-397 -240q0 12 9 21t21 8q12 -2 21.5 -11.5t9.5 -21.5q-9 -129 85 -213t245 -84q75 0 151 23q92 26 184.5 85t175 135.5t179 194t179.5 232t194 279.5q32 47 56.5 81.5t41.5 59t49 74.5l21 26l-29 -26q-19 -18 -41.5 -38.5t-50.5 -45.5t-43 -39q-551 -494 -825 -494
q-87 0 -144 51q-53 47 -53 144q0 94 49.5 219.5t134.5 255.5q132 203 318 383t389 280q12 5 24.5 0.5t18.5 -14.5q5 -12 0 -24.5t-17 -18.5q-195 -95 -375 -268.5t-307 -372.5q-117 -183 -161 -342q-13 -60 -13 -96q0 -69 33 -99q40 -34 103 -34q102 0 251 82
q222 116 533 393q182 164 319 307l43 45l29 43q105 160 173.5 252.5t111.5 120.5q20 12 30 14q22 11 39 -6q18 -18 11 -39q-11 -35 -72 -113q-75 -93 -160 -186q-54 -64 -102 -115l-10 -8l-17 -26q-115 -178 -305 -461q-94 -138 -161.5 -232.5t-152 -204.5t-155.5 -184.5
t-151.5 -145t-162 -116t-165.5 -68.5q-78 -22 -166 -22q-178 0 -290.5 100.5t-102.5 259.5z" />
    <glyph glyph-name="F.1" horiz-adv-x="1703" 
d="M330 266q-2 12 6 23t20 12q223 29 430 49q41 116 68 232q23 103 23 194q0 94 -27 156q-53 120 -213 106q-28 -1 -32 26.5t22 35.5q498 135 1032 196l41 4q90 93 119 115q24 17 45 -4q8 -10 6 -23t-12 -20l-50 -43l-12 -14h6q382 35 746 41q20 0 27.5 -14t-2 -29
t-31.5 -19q-363 -7 -736 -39l-77 -10l-27 -27q-358 -378 -721 -847q274 20 758 43q12 0 21 -9t9 -22q1 -12 -7.5 -21.5t-20.5 -9.5q-457 -21 -811 -47l-238 -315l-20 -43q-120 -221 -332 -500q-17 -22 -40.5 -8t-12.5 39q77 180 344 546l14 19l12 24q56 110 103 224
q-128 -11 -395 -45q-12 -3 -22 4.5t-13 19.5zM1614 1210l18 21l-106 -12q-307 -42 -643 -119l-95 -23l15 -6q66 -37 102 -113q35 -75 35 -180q0 -81 -27 -209q-22 -105 -61 -213q6 0 18.5 1t18.5 1q392 491 725 852z" />
    <glyph glyph-name="g.1" horiz-adv-x="677" 
d="M-535 -729q-53 38 -53 102q0 72 68 152q156 184 635 289l80 16l12 18q38 45 67 86q91 119 218 299l4 9q-65 -42 -117 -68q-89 -52 -156 -72q-88 -30 -127 0q-2 1 -5.5 5.5t-4.5 5.5q-18 23 -18 59q0 42 31 84t81 72q79 47 176 47q86 0 164 -41l2 -2l4 4q48 30 62 41
q22 15 40.5 -2t4.5 -39q-1 -1 -16 -24.5t-43.5 -65.5t-64 -94t-85 -120t-98.5 -132l-41 -52h8q164 31 379 54q527 57 1196 57q169 0 241 -2q12 0 21.5 -9.5t9.5 -21.5t-9.5 -21t-21.5 -9q-72 2 -241 2q-656 0 -1190 -58q-229 -24 -379 -53l-72 -12l-41 -51
q-270 -323 -452 -435q-79 -49 -162 -49q-62 0 -107 31zM-299 -659q154 96 365 335l65 78l-6 -2q-456 -100 -598 -266q-53 -64 -53 -111q0 -34 26 -53q30 -20 74 -20q66 0 127 39zM154 147q17 3 51 13q60 20 145 67q40 21 78 45l35 21l-10 4q-44 16 -97 16q-75 0 -145 -39
q-44 -27 -65 -58t-15 -54l4 -12q5 -3 19 -3z" />
    <glyph glyph-name="g.2" horiz-adv-x="741" 
d="M-797 -840q-73 76 -73 170q0 73 47 131q129 166 635 269q124 28 368 61l103 12l6 11q168 224 307 458l-39 -22q-55 -31 -135 -70q-105 -53 -180 -76q-98 -33 -140 -6q-7 5 -14 15q-20 26 -20 59q0 42 31.5 84t82.5 70q79 47 176 47q90 0 164 -39q10 -5 15 -19v-4l28 17
q68 38 101 61q20 15 38.5 -1.5t6.5 -39.5l-9 -16q-9 -15 -24.5 -42t-36.5 -62.5t-50 -81.5t-60.5 -95t-71.5 -107t-80 -114l-14 -18l90 10q203 20 434 33q431 24 864 24q751 0 1208 -55q12 -1 20.5 -12t6.5 -23t-12 -20t-23 -7q-458 56 -1200 56q-412 0 -860 -25
q-266 -14 -571 -47h-7l-18 -25q-84 -110 -169 -205.5t-181.5 -185.5t-198.5 -156t-197 -96q-56 -18 -110 -18q-141 0 -238 100zM-469 -864q302 97 674 567l24 33l-41 -6q-185 -23 -364 -60q-482 -99 -598 -245q-33 -42 -33 -95q0 -68 55 -129q77 -80 193 -80q43 0 90 15z
M160 147q26 3 63 15q74 24 172 74l90 45v2l-30 12q-44 16 -97 16q-75 0 -145 -39q-43 -25 -65 -57t-17 -55l6 -10h-2q10 -5 25 -3z" />
    <glyph glyph-name="g.3" horiz-adv-x="686" 
d="M635 338q-74 -115 -125 -186q-108 -152 -196.5 -261.5t-188.5 -209.5t-201.5 -164.5t-206.5 -94.5q-78 -22 -166 -22q-178 0 -290.5 100.5t-102.5 259.5q0 12 9.5 21t21.5 8q12 -2 21.5 -11.5t9.5 -21.5q-9 -129 84.5 -213t244.5 -84q76 0 152 23q83 24 164.5 72.5
t156 113t157 158.5t157 191.5t166.5 228.5l-4 -2q-72 -45 -117 -70q-91 -50 -156 -72q-92 -27 -127 0q-7 7 -10 13q-20 26 -20 59q0 42 31.5 84t82.5 72q85 47 176 47q86 0 164 -41l2 -2l4 2q17 11 39 26.5t23 16.5q20 15 38.5 -2t6.5 -39zM154 150q18 0 53 12q60 20 145 67
l76 43l35 23l-8 4q-53 16 -97 16q-75 0 -145 -39q-44 -27 -65.5 -58.5t-16.5 -55.5l6 -10q5 -2 17 -2z" />
    <glyph glyph-name="y.2" horiz-adv-x="634" 
d="M-604 -729q-53 38 -53 102q0 73 67 152q156 184 635 289l80 16q103 128 199 264l34 53l-39 -28q-106 -74 -180 -74q-35 0 -59 21q-35 33 -19 96q11 44 50 96q27 42 71 86q45 41 74 49q12 3 24 -2.5t15 -17.5t-3 -24t-18 -15t-49 -35q-31 -27 -65 -76q-32 -52 -39 -78
q-7 -29 2 -34q10 -10 51 2q52 17 113 57q128 84 219 197q2 4 10 8l4 4q13 10 29 4t20.5 -19t-4.5 -26l-2 -2q-1 -1 -16 -24.5t-43.5 -65.5t-64 -94t-85 -120t-98.5 -132l-41 -52h8q164 31 379 54q527 57 1196 57q170 0 242 -2q12 0 21.5 -9.5t9.5 -21.5t-9.5 -21t-21.5 -9
q-72 2 -242 2q-656 0 -1190 -58q-229 -24 -379 -53l-71 -12l-41 -51q-268 -321 -453 -435q-79 -49 -162 -49q-61 0 -106 31zM-369 -659q154 96 365 335l65 78l-6 -2q-456 -100 -598 -266q-53 -64 -53 -111q0 -34 27 -53q30 -20 73 -20q66 0 127 39z" />
    <glyph glyph-name="y.3" horiz-adv-x="641" 
d="M-936 -840q-74 77 -74 170q0 73 47 131q129 166 635 269q123 27 369 61l102 12l7 11q118 161 256 374l-41 -38l-46 -31q-106 -74 -180 -74q-35 0 -59 21q-35 33 -19 96q11 44 50 96q27 42 71 86q45 41 74 49q12 3 24 -2.5t15 -17.5t-3 -24t-18 -15t-49 -35
q-31 -27 -65 -76q-32 -52 -39 -78q-7 -29 2 -34q10 -10 51 2q52 17 113 57q103 66 190 164q5 10 10.5 18t12 14.5t10 9.5t9.5 7.5t7 5.5q20 15 38.5 -1.5t6.5 -39.5q0 -1 -9 -16t-24.5 -42t-36.5 -62.5t-49.5 -81.5t-60 -95t-71.5 -107t-80 -114l-15 -18l90 10
q201 20 435 33q430 24 864 24q751 0 1208 -55q12 -1 20.5 -12t6.5 -23t-12 -20t-23 -7q-458 56 -1200 56q-412 0 -860 -25q-268 -14 -572 -47h-6l-18 -25q-84 -110 -169 -205.5t-181.5 -185.5t-198.5 -156t-197 -96q-56 -18 -110 -18q-141 0 -238 100zM-608 -864
q302 97 674 567l24 33l-41 -6q-185 -23 -364 -60q-482 -99 -598 -245q-33 -42 -33 -95q0 -68 55 -129q77 -80 193 -80q44 0 90 15z" />
    <glyph glyph-name="y.4" horiz-adv-x="630" 
d="M569 338q-74 -115 -125 -186q-108 -152 -196.5 -261.5t-188 -209.5t-201 -164.5t-206.5 -94.5q-78 -22 -166 -22q-178 0 -290.5 100.5t-102.5 259.5q0 12 9 21t21 8q12 -2 21.5 -11.5t9.5 -21.5q-9 -129 85 -213t245 -84q75 0 151 23q183 52 355 217t385 459l-10 -8
l-46 -31q-106 -74 -180 -74q-35 0 -59 21q-35 33 -19 96q11 44 50 96q27 42 71 86q45 41 74 49q12 3 24 -2.5t15 -17.5t-3 -24t-18 -15t-49 -35q-31 -27 -65 -76q-32 -52 -39 -78q-7 -29 2 -34q10 -10 51 2q52 17 113 57q128 84 219 197q2 4 10 8l4 4q6 6 17 6q18 3 30 -13
t2 -34z" />
    </font>
</defs>
</svg>
