<?xml version="1.0" standalone="no"?>
<!DOCTYPE svg PUBLIC "-//W3C//DTD SVG 1.1//EN" "http://www.w3.org/Graphics/SVG/1.1/DTD/svg11.dtd" >
<svg xmlns="http://www.w3.org/2000/svg" xmlns:xlink="http://www.w3.org/1999/xlink" version="1.1">
<metadata>
Created by FontForge 20170731 at Mon Mar  7 18:27:46 2011
 By Aleksey,,,
Copyright (c) 2011 by Ryoichi Tsunekawa. All rights reserved.
</metadata>
<defs>
<font id="RamaGothicC-Bold" horiz-adv-x="186" >
  <font-face 
    font-family="Rama Gothic C Bold"
    font-weight="700"
    font-stretch="normal"
    units-per-em="1000"
    panose-1="4 5 4 2 2 11 2 2 2 2"
    ascent="800"
    descent="-200"
    x-height="564"
    cap-height="700"
    bbox="-19 -169 1001 798"
    underline-thickness="20"
    underline-position="-130"
    unicode-range="U+0020-FB02"
  />
<missing-glyph horiz-adv-x="253" 
d="M236 -1h-219v700h219v-700zM33 12h188v673h-188v-673z" />
    <glyph glyph-name="fi" unicode="fi" horiz-adv-x="208" 
d="M83 637v-73h33v-50h-33v-514h-60v514h-19v50h19v83q0 31 14 45.5t45 14.5q20 0 34 -7v-51q-8 5 -17 5q-16 0 -16 -17zM191 0h-60v564h60v-564zM191 598h-60v72h60v-72z" />
    <glyph glyph-name="fl" unicode="fl" horiz-adv-x="208" 
d="M83 637v-73h33v-50h-33v-514h-60v514h-19v50h19v83q0 31 14 45.5t45 14.5q20 0 34 -7v-51q-8 5 -17 5q-16 0 -16 -17zM191 0h-60v700h60v-700z" />
    <glyph glyph-name=".notdef" horiz-adv-x="253" 
d="M236 -1h-219v700h219v-700zM33 12h188v673h-188v-673z" />
    <glyph glyph-name=".null" horiz-adv-x="0" 
 />
    <glyph glyph-name="nonmarkingreturn" horiz-adv-x="333" 
 />
    <glyph glyph-name="space" unicode=" " horiz-adv-x="95" 
 />
    <glyph glyph-name="exclam" unicode="!" horiz-adv-x="101" 
d="M18 0v69h64v-69h-64zM85 401l-14 -310h-41l-14 310v299h69v-299z" />
    <glyph glyph-name="quotedbl" unicode="&#x22;" horiz-adv-x="178" 
d="M161 615l-8 -184h-43l-9 184v85h60v-85zM76 615l-8 -184h-43l-9 184v85h60v-85z" />
    <glyph glyph-name="numbersign" unicode="#" 
d="M17 467l3 47h23l10 186h43l-10 -186h31l10 186h43l-10 -186h24l-3 -47h-23l-12 -234h23l-2 -47h-24l-10 -186h-43l10 186h-31l-10 -186h-43l10 186h-23l2 47h23l13 234h-24zM84 467l-12 -234h30l13 234h-31z" />
    <glyph glyph-name="dollar" unicode="$" 
d="M82 -30v30q-72 6 -72 89v178h61v-187q0 -23 19 -23q20 0 20 23v99q0 52 -15.5 98.5t-34.5 77t-34.5 82t-15.5 112.5v62q0 83 72 88v31h20v-31q73 -5 73 -88v-158h-62v167q0 23 -18 23q-20 0 -20 -23v-78q0 -52 15.5 -98.5t34.5 -77t34.5 -81.5t15.5 -112v-84
q0 -83 -73 -89v-30h-20z" />
    <glyph glyph-name="percent" unicode="%" horiz-adv-x="318" 
d="M57 0l163 700h41l-163 -700h-41zM305 332v-284q0 -55 -56 -55t-56 55v284q0 55 56 55t56 -55zM261 44v292q0 14 -12 14t-12 -14v-292q0 -14 12 -14t12 14zM125 652v-284q0 -55 -56 -55t-56 55v284q0 55 56 55t56 -55zM81 364v292q0 14 -12 14t-12 -14v-292q0 -14 12 -14
t12 14z" />
    <glyph glyph-name="ampersand" unicode="&#x26;" horiz-adv-x="258" 
d="M141 415q33 -158 42 -233q3 35 3 80v158h55v-162q0 -114 -26 -182q8 -24 23 -24q8 0 15 4v-57q-11 -6 -25 -6q-36 0 -56 19q-23 -19 -50 -19q-30 0 -48.5 15.5t-28.5 57.5l-28 123q-10 46 -10 85q0 75 46 124l19 20l-6 31q-19 101 -19 151q0 47 21.5 77t60.5 30
q78 0 78 -108q0 -109 -66 -184zM130 66q10 0 16 5l-60 283q-18 -23 -18 -52q0 -16 7 -49l32 -150q9 -37 23 -37zM113 595q0 -33 11 -117q25 45 25 117q0 50 -18 50t-18 -50z" />
    <glyph glyph-name="quotesingle" unicode="'" horiz-adv-x="93" 
d="M76 615l-8 -184h-43l-9 184v85h60v-85z" />
    <glyph glyph-name="parenleft" unicode="(" horiz-adv-x="119" 
d="M14 611q0 89 82 89h22v-44h-11q-18 0 -25 -8t-7 -28v-608q0 -20 6.5 -27.5t25.5 -7.5h11v-45h-22q-82 0 -82 90v589z" />
    <glyph glyph-name="parenright" unicode=")" horiz-adv-x="119" 
d="M105 611v-589q0 -90 -82 -90h-22v45h11q19 0 25.5 7.5t6.5 27.5v608q0 20 -7 28t-25 8h-11v44h22q82 0 82 -89z" />
    <glyph glyph-name="asterisk" unicode="*" horiz-adv-x="191" 
d="M0 571l61 31l-61 31l21 36l57 -38l-4 69h43l-5 -69l58 38l21 -36l-63 -31l63 -31l-21 -36l-58 37l5 -68h-43l4 68l-57 -37z" />
    <glyph glyph-name="plus" unicode="+" 
d="M117 261h-49v64h-54v49h54v65h49v-65h54v-49h-54v-64z" />
    <glyph glyph-name="comma" unicode="," horiz-adv-x="93" 
d="M16 0v81h60v-81l-54 -64l-5 3l32 61h-33z" />
    <glyph glyph-name="hyphen" unicode="-" horiz-adv-x="146" 
d="M133 308v-52h-120v52h120z" />
    <glyph glyph-name="period" unicode="." horiz-adv-x="93" 
d="M16 0v81h60v-81h-60z" />
    <glyph glyph-name="slash" unicode="/" horiz-adv-x="172" 
d="M2 0l108 700h60l-108 -700h-60z" />
    <glyph glyph-name="zero" unicode="0" 
d="M171 75q0 -82 -78 -82q-79 0 -79 82v550q0 82 79 82q78 0 78 -82v-550zM111 634q0 21 -18 21q-19 0 -19 -21v-568q0 -21 19 -21q18 0 18 21v568z" />
    <glyph glyph-name="one" unicode="1" horiz-adv-x="114" 
d="M9 624v50h23q29 0 32 26h31v-700h-60v624h-26z" />
    <glyph glyph-name="two" unicode="2" horiz-adv-x="182" 
d="M72 426h-56v199q0 82 76 82q77 0 77 -82v-127q0 -78 -48 -202.5t-48 -199.5v-36h92v-60h-152v87q0 71 24 143.5t48 138.5t24 120v145q0 21 -19 21q-18 0 -18 -21v-208z" />
    <glyph glyph-name="three" unicode="3" horiz-adv-x="179" 
d="M13 293h56v-227q0 -21 18 -21q19 0 19 21v252q0 21 -19 21h-24v52h24q19 0 19 21v222q0 21 -19 21q-18 0 -18 -21v-198h-56v189q0 82 76 82q77 0 77 -82v-192q0 -55 -35 -69q35 -12 35 -67v-222q0 -82 -77 -82q-76 0 -76 82v218z" />
    <glyph glyph-name="four" unicode="4" horiz-adv-x="184" 
d="M178 234v-59h-18v-175h-60v175h-94v56l86 469h68v-466h18zM80 354l-20 -120h40v118q0 74 8 197q-20 -147 -28 -195z" />
    <glyph glyph-name="five" unicode="5" horiz-adv-x="183" 
d="M15 258h57v-192q0 -21 18 -21q19 0 19 21v394q0 21 -17 21q-20 0 -20 -22v-121h-57v362h150v-60h-93v-135q14 28 46 28q51 0 51 -68v-390q0 -82 -78 -82q-76 0 -76 82v183z" />
    <glyph glyph-name="six" unicode="6" horiz-adv-x="184" 
d="M171 396v-321q0 -82 -78 -82q-79 0 -79 82v550q0 82 78 82q76 0 76 -82v-117h-57v126q0 21 -18 21q-19 0 -19 -21v-200q14 30 46 30q51 0 51 -68zM94 411q-20 0 -20 -22v-323q0 -21 19 -21q18 0 18 21v325q0 20 -17 20z" />
    <glyph glyph-name="seven" unicode="7" horiz-adv-x="172" 
d="M12 640v60h154v-57l-87 -643h-67l99 640h-99z" />
    <glyph glyph-name="eight" unicode="8" horiz-adv-x="181" 
d="M168 433q0 -55 -37 -68q37 -14 37 -68v-222q0 -82 -78 -82q-77 0 -77 82v222q0 54 36 68q-36 12 -36 68v192q0 82 77 82q78 0 78 -82v-192zM90 339q-17 0 -17 -23v-250q0 -22 17 -22q18 0 18 22v250q0 23 -18 23zM90 391q18 0 18 23v219q0 22 -18 22q-17 0 -17 -22v-219
q0 -23 17 -23z" />
    <glyph glyph-name="nine" unicode="9" horiz-adv-x="184" 
d="M13 324v301q0 82 78 82q79 0 79 -82v-550q0 -82 -77 -82q-76 0 -76 82v137h56v-146q0 -21 18 -21q19 0 19 21v218q-15 -28 -46 -28q-51 0 -51 68zM90 309q20 0 20 22v303q0 21 -19 21q-18 0 -18 -21v-305q0 -20 17 -20z" />
    <glyph glyph-name="colon" unicode=":" horiz-adv-x="93" 
d="M16 347v81h60v-81h-60zM16 0v81h60v-81h-60z" />
    <glyph glyph-name="semicolon" unicode=";" horiz-adv-x="93" 
d="M16 0v81h60v-81l-54 -64l-5 3l32 61h-33zM16 347v81h60v-81h-60z" />
    <glyph glyph-name="less" unicode="&#x3c;" 
d="M66 350l105 -46v-51l-157 72v49l157 72v-51z" />
    <glyph glyph-name="equal" unicode="=" 
d="M171 333v-49h-157v49h157zM171 417v-48h-157v48h157z" />
    <glyph glyph-name="greater" unicode="&#x3e;" 
d="M15 304l105 46l-105 45v51l157 -72v-49l-157 -72v51z" />
    <glyph glyph-name="question" unicode="?" horiz-adv-x="174" 
d="M66 426h-56v199q0 82 76 82q78 0 78 -82v-119q0 -81 -34.5 -176t-34.5 -162v-67h-41v75q0 78 25 170.5t25 162.5v125q0 21 -19 21t-19 -21v-208zM44 0v79h61v-79h-61z" />
    <glyph glyph-name="at" unicode="@" horiz-adv-x="309" 
d="M14 350q0 202 29.5 279.5t110.5 77.5q82 0 111 -77.5t29 -279.5t-29 -279.5t-111 -77.5q-81 0 -110.5 77.5t-29.5 279.5zM47 350q0 -183 20.5 -255t86.5 -72t87 72t21 255t-21 255t-87 72t-86.5 -72t-20.5 -255zM210 533v-367q0 -39 4 -56h-42q-3 4 -5 22q-8 -27 -36 -27
q-38 0 -38 51v126q0 32 11 54t24.5 32t24.5 26.5t11 38.5v105q0 16 -11 16q-13 0 -13 -16v-139h-42v134q0 60 56 60t56 -60zM164 159v201q-26 -40 -26 -75v-126q0 -15 12 -15q14 0 14 15z" />
    <glyph glyph-name="A" unicode="A" horiz-adv-x="204" 
d="M131 0l-6 80h-53l-6 -80h-63l55 700h87l55 -700h-69zM83 226l-7 -86h44l-6 86q-7 92 -16 308q-11 -262 -15 -308z" />
    <glyph glyph-name="B" unicode="B" horiz-adv-x="208" 
d="M17 700h88q85 0 85 -85v-180q0 -57 -35 -71q38 -14 38 -69v-210q0 -85 -88 -85h-88v700zM102 335h-16v-276h16q23 0 23 24v230q0 22 -23 22zM86 395h16q23 0 23 22v200q0 24 -23 24h-16v-246z" />
    <glyph glyph-name="C" unicode="C" horiz-adv-x="200" 
d="M82 75q0 -23 20 -23q21 0 21 23v231h63v-221q0 -92 -86 -92t-86 92v530q0 92 86 92t86 -92v-202h-63v212q0 23 -21 23q-20 0 -20 -23v-550z" />
    <glyph glyph-name="D" unicode="D" horiz-adv-x="208" 
d="M17 0v700h87q89 0 89 -85v-530q0 -85 -89 -85h-87zM102 641h-16v-582h16q23 0 23 24v534q0 24 -23 24z" />
    <glyph glyph-name="E" unicode="E" horiz-adv-x="163" 
d="M86 335v-276h68v-59h-137v700h136v-59h-67v-246h56v-60h-56z" />
    <glyph glyph-name="F" unicode="F" horiz-adv-x="151" 
d="M86 322v-322h-69v700h132v-59h-63v-260h53v-59h-53z" />
    <glyph glyph-name="G" unicode="G" horiz-adv-x="202" 
d="M123 75v256h-21v59h86v-390h-36l-6 24q-15 -31 -59 -31q-73 0 -73 92v530q0 92 86 92t86 -92v-189h-63v199q0 23 -21 23q-20 0 -20 -23v-550q0 -23 20 -23q21 0 21 23z" />
    <glyph glyph-name="H" unicode="H" horiz-adv-x="212" 
d="M86 335v-335h-69v700h69v-305h40v305h68v-700h-68v335h-40z" />
    <glyph glyph-name="I" unicode="I" horiz-adv-x="103" 
d="M17 0v700h68v-700h-68z" />
    <glyph glyph-name="J" unicode="J" horiz-adv-x="193" 
d="M177 81q0 -88 -86 -88t-86 88v220h63v-226q0 -23 21 -23q20 0 20 23v625h68v-619z" />
    <glyph glyph-name="K" unicode="K" horiz-adv-x="208" 
d="M85 700v-319q17 102 31 181l25 138h65l-57 -307l57 -393h-71l-37 276l-13 -52v-224h-68v700h68z" />
    <glyph glyph-name="L" unicode="L" horiz-adv-x="150" 
d="M17 0v700h69v-641h63v-59h-132z" />
    <glyph glyph-name="M" unicode="M" horiz-adv-x="286" 
d="M143 316q5 99 11 174l19 210h95v-700h-66v261q0 14 6 275q-4 -44 -11.5 -137.5t-10.5 -137.5l-25 -261h-46l-24 261q-4 39 -7.5 86t-8 103t-6.5 86q0 -37 3 -132.5t3 -142.5v-261h-58v700h97l20 -210q7 -74 9 -174z" />
    <glyph glyph-name="N" unicode="N" horiz-adv-x="223" 
d="M148 700h58v-700h-73l-42 310q-9 67 -21 174q0 -17 3 -82t3 -93v-309h-59v700h85l32 -232q3 -22 10 -86.5t10 -88.5q0 15 -3 82t-3 95v230z" />
    <glyph glyph-name="O" unicode="O" horiz-adv-x="205" 
d="M14 85v530q0 92 88 92q89 0 89 -92v-530q0 -92 -89 -92q-88 0 -88 92zM82 75q0 -23 20 -23q21 0 21 23v550q0 23 -21 23q-20 0 -20 -23v-550z" />
    <glyph glyph-name="P" unicode="P" horiz-adv-x="202" 
d="M86 291v-291h-69v700h87q89 0 89 -85v-239q0 -85 -89 -85h-18zM102 641h-16v-290h16q22 0 22 23v243q0 24 -22 24z" />
    <glyph glyph-name="Q" unicode="Q" horiz-adv-x="208" 
d="M200 55q4 0 8 3v-59q-6 -6 -20 -6q-26 0 -38 17q-20 -17 -54 -17q-82 0 -82 92v530q0 92 88 92q89 0 89 -92v-548q0 -12 9 -12zM82 625v-550q0 -23 20 -23q21 0 21 23v550q0 23 -21 23q-20 0 -20 -23z" />
    <glyph glyph-name="R" unicode="R" horiz-adv-x="212" 
d="M94 320h-8v-320h-69v700h88q88 0 88 -85v-196q0 -57 -37 -70q37 -15 37 -70v-153q0 -98 13 -126h-72q-9 22 -9 66v211q0 25 -7 34t-24 9zM86 379h16q23 0 23 22v216q0 24 -23 24h-16v-262z" />
    <glyph glyph-name="S" unicode="S" horiz-adv-x="197" 
d="M76 260v-185q0 -23 20 -23t20 23v99q0 55 -16 103t-35.5 78.5t-35.5 83.5t-16 118v58q0 92 85 92q86 0 86 -92v-154h-64v164q0 23 -19 23q-20 0 -20 -23v-77q0 -56 16 -103.5t35.5 -78t35.5 -83.5t16 -118v-80q0 -92 -86 -92q-85 0 -85 92v175h63z" />
    <glyph glyph-name="T" unicode="T" horiz-adv-x="164" 
d="M163 700v-59h-47v-641h-68v641h-47v59h162z" />
    <glyph glyph-name="U" unicode="U" horiz-adv-x="204" 
d="M84 75q0 -23 20 -23t20 23v625h64v-619q0 -88 -86 -88t-86 88v619h68v-625z" />
    <glyph glyph-name="V" unicode="V" horiz-adv-x="202" 
d="M73 700l17 -223q10 -119 15 -274q6 177 14 274l17 223h63l-55 -700h-85l-55 700h69z" />
    <glyph glyph-name="W" unicode="W" horiz-adv-x="299" 
d="M251 0h-79l-14 219q-2 30 -9 192q-4 -141 -8 -192l-14 -219h-77l-46 700h69l16 -234q2 -32 5 -104t5 -104q5 163 8 208l16 234h61l15 -234q2 -32 5 -104t5 -104q1 24 3.5 98t4.5 110l16 234h63z" />
    <glyph glyph-name="X" unicode="X" horiz-adv-x="203" 
d="M52 359l-45 341h69l14 -103q9 -66 14 -168q5 90 15 167l13 104h64l-45 -341l47 -359h-70l-15 123q-10 74 -15 166q-5 -85 -14 -166l-16 -123h-63z" />
    <glyph glyph-name="Y" unicode="Y" horiz-adv-x="204" 
d="M117 511l21 189h63l-65 -483v-217h-68v217l-64 483h69l21 -189q7 -65 12 -144q3 72 11 144z" />
    <glyph glyph-name="Z" unicode="Z" horiz-adv-x="171" 
d="M11 641v59h152v-43l-84 -598h84v-59h-155v43l84 598h-81z" />
    <glyph glyph-name="bracketleft" unicode="[" horiz-adv-x="122" 
d="M79 667v-690h42v-45h-104v780h104v-45h-42z" />
    <glyph glyph-name="backslash" unicode="\" horiz-adv-x="172" 
d="M62 700l108 -700h-60l-108 700h60z" />
    <glyph glyph-name="bracketright" unicode="]" horiz-adv-x="122" 
d="M43 -23v690h-42v45h104v-780h-104v45h42z" />
    <glyph glyph-name="asciicircum" unicode="^" 
d="M93 640l-32 -104h-53l60 164h50l61 -164h-53z" />
    <glyph glyph-name="underscore" unicode="_" horiz-adv-x="500" 
d="M500 -41v-29h-500v29h500z" />
    <glyph glyph-name="grave" unicode="`" horiz-adv-x="146" 
d="M86 659l30 -70h-41l-46 70h57z" />
    <glyph glyph-name="a" unicode="a" horiz-adv-x="185" 
d="M109 391v107q0 21 -17 21q-18 0 -18 -21v-149h-56v140q0 82 75 82q76 0 76 -82v-412q0 -49 6 -77h-57q-5 8 -7 28q-12 -35 -48 -35q-51 0 -51 67v130q0 38 10 65t24 41.5t28.5 26t24.5 28.5t10 40zM109 67v219q-1 -2 -8 -9.5t-9.5 -10.5t-7.5 -11.5t-6.5 -15.5
t-3.5 -18.5t-2 -25.5v-129q0 -21 17 -21q20 0 20 22z" />
    <glyph glyph-name="b" unicode="b" horiz-adv-x="188" 
d="M76 497v-430q0 -22 20 -22q18 0 18 21v432q0 21 -18 21q-20 0 -20 -22zM16 700h60v-159q14 30 46 30q52 0 52 -67v-444q0 -67 -52 -67q-39 0 -50 39l-9 -32h-47v700z" />
    <glyph glyph-name="c" unicode="c" horiz-adv-x="181" 
d="M168 339h-57v159q0 21 -18 21q-19 0 -19 -21v-432q0 -21 19 -21q18 0 18 21v170h57v-161q0 -82 -76 -82q-78 0 -78 82v414q0 82 78 82q76 0 76 -82v-150z" />
    <glyph glyph-name="d" unicode="d" horiz-adv-x="188" 
d="M112 67v430q0 22 -20 22q-17 0 -17 -21v-432q0 -21 17 -21q20 0 20 22zM121 0q-4 9 -6 27q-14 -34 -49 -34q-51 0 -51 67v444q0 67 51 67q30 0 46 -28v157h60v-623q0 -49 6 -77h-57z" />
    <glyph glyph-name="e" unicode="e" horiz-adv-x="182" 
d="M168 273h-94v-207q0 -21 19 -21q18 0 18 21v166h57v-157q0 -82 -76 -82q-78 0 -78 82v414q0 82 78 82q76 0 76 -82v-216zM74 498v-175h37v175q0 21 -18 21q-19 0 -19 -21z" />
    <glyph glyph-name="f" unicode="f" horiz-adv-x="115" 
d="M83 637v-73h33v-50h-33v-514h-60v514h-19v50h19v83q0 31 14 45.5t45 14.5q20 0 34 -7v-51q-8 5 -17 5q-16 0 -16 -17z" />
    <glyph glyph-name="g" unicode="g" horiz-adv-x="194" 
d="M15 -53q0 32 22 42q-16 12 -16 40q0 29 22 45q-30 20 -30 70v345q0 82 76 82q44 0 62 -30q6 24 26 24q7 0 14 -3v-48q-8 2 -10 2q-11 0 -11 -20v-352q0 -82 -78 -82q-14 0 -20 1q-5 -5 -5 -11q0 -13 14 -13h41q69 0 69 -70q0 -72 -69 -72h-49q-58 0 -58 50zM110 498
q0 21 -18 21q-19 0 -19 -21v-363q0 -21 19 -21q18 0 18 21v363zM79 -58h40q18 0 18 19q0 18 -18 18h-41q-19 0 -19 -18q0 -19 20 -19z" />
    <glyph glyph-name="h" unicode="h" horiz-adv-x="189" 
d="M174 0h-60v498q0 21 -18 21q-20 0 -20 -22v-497h-60v700h60v-159q14 30 46 30q52 0 52 -67v-504z" />
    <glyph glyph-name="i" unicode="i" horiz-adv-x="92" 
d="M76 0h-60v564h60v-564zM76 598h-60v72h60v-72z" />
    <glyph glyph-name="j" unicode="j" horiz-adv-x="92" 
d="M76 598h-60v72h60v-72zM22 -101q-13 0 -25 3v51q6 -2 10 -2q9 0 9 13v600h60v-611q0 -29 -12.5 -41.5t-41.5 -12.5z" />
    <glyph glyph-name="k" unicode="k" horiz-adv-x="185" 
d="M76 700v-373q3 17 6.5 37t9 46t8.5 42l22 112h57l-51 -240l55 -324h-62l-33 217l-12 -35v-182h-60v700h60z" />
    <glyph glyph-name="l" unicode="l" horiz-adv-x="92" 
d="M76 0h-60v700h60v-700z" />
    <glyph glyph-name="m" unicode="m" horiz-adv-x="284" 
d="M76 0h-60v564h56v-33q9 40 50 40q36 0 46 -36q13 36 50 36q50 0 50 -67v-504h-60v498q0 21 -16 21q-20 0 -20 -22v-497h-60v498q0 21 -16 21q-20 0 -20 -22v-497z" />
    <glyph glyph-name="n" unicode="n" horiz-adv-x="189" 
d="M76 0h-60v564h56v-33q10 40 50 40q52 0 52 -67v-504h-60v498q0 21 -18 21q-20 0 -20 -22v-497z" />
    <glyph glyph-name="o" unicode="o" 
d="M171 75q0 -82 -78 -82q-79 0 -79 82v414q0 82 79 82q78 0 78 -82v-414zM111 498q0 21 -18 21q-19 0 -19 -21v-432q0 -21 19 -21q18 0 18 21v432z" />
    <glyph glyph-name="p" unicode="p" horiz-adv-x="188" 
d="M76 497v-430q0 -22 20 -22q18 0 18 21v432q0 21 -18 21q-20 0 -20 -22zM76 -96h-60v660h56v-33q10 40 50 40q52 0 52 -67v-444q0 -67 -52 -67q-32 0 -46 29v-118z" />
    <glyph glyph-name="q" unicode="q" horiz-adv-x="188" 
d="M112 67v430q0 22 -20 22q-17 0 -17 -21v-432q0 -21 17 -21q20 0 20 22zM172 -96h-60v116q-15 -27 -46 -27q-51 0 -51 67v444q0 67 51 67q37 0 50 -38l9 31h47v-660z" />
    <glyph glyph-name="r" unicode="r" horiz-adv-x="178" 
d="M76 0h-60v564h56v-33q9 40 50 40q46 0 46 -67v-256h-55v250q0 21 -17 21q-20 0 -20 -22v-497z" />
    <glyph glyph-name="s" unicode="s" horiz-adv-x="178" 
d="M105 66v74q0 40 -14.5 77.5t-31.5 62.5t-31.5 66.5t-14.5 89.5v53q0 82 77 82q75 0 75 -82v-129h-56v138q0 21 -18 21t-18 -21v-65q0 -50 23 -94.5t46 -93t23 -109.5v-61q0 -82 -77 -82q-75 0 -75 82v141h56v-150q0 -21 18 -21t18 21z" />
    <glyph glyph-name="t" unicode="t" horiz-adv-x="116" 
d="M79 -5q-30 0 -43.5 13.5t-13.5 45.5v460h-18v50h18v88h61v-88h30v-50h-30v-451q0 -16 14 -16q4 0 16 2v-49q-17 -5 -34 -5z" />
    <glyph glyph-name="u" unicode="u" horiz-adv-x="189" 
d="M113 67v497h60v-487q0 -49 6 -77h-56q-5 8 -7 26q-14 -33 -49 -33q-51 0 -51 67v504h60v-498q0 -21 17 -21q20 0 20 22z" />
    <glyph glyph-name="v" unicode="v" horiz-adv-x="178" 
d="M103 369l16 195h55l-48 -564h-74l-48 564h62l15 -194q7 -116 11 -219q1 18 2.5 61t3.5 83t5 74z" />
    <glyph glyph-name="w" unicode="w" horiz-adv-x="286" 
d="M180 564l15 -196q4 -57 6 -131t3 -89q9 214 9 220l15 196h54l-43 -564h-75l-14 186q-2 26 -4 85.5t-3 85.5q-1 -26 -3 -85.5t-4 -85.5l-14 -186h-75l-43 564h62l14 -196q1 -9 9 -220q1 18 3.5 90t5.5 127l14 199h68z" />
    <glyph glyph-name="x" unicode="x" horiz-adv-x="182" 
d="M49 297l-40 267h61l13 -90q8 -56 11 -120q5 73 12 120l13 90h55l-41 -267l45 -297h-63l-15 119q-7 46 -12 118q-5 -72 -12 -118l-15 -119h-56z" />
    <glyph glyph-name="y" unicode="y" horiz-adv-x="178" 
d="M43 -49q17 0 17 25q0 15 -1 24l-55 564h62l15 -194q8 -118 11 -219q1 18 2.5 61t3.5 83t5 74l16 195h55l-52 -601q-8 -64 -67 -64q-24 0 -37 5v51q18 -4 25 -4z" />
    <glyph glyph-name="z" unicode="z" horiz-adv-x="158" 
d="M13 514v50h138v-44l-83 -470h83v-50h-144v44l82 470h-76z" />
    <glyph glyph-name="braceleft" unicode="{" horiz-adv-x="128" 
d="M31 271q0 13 -4 17.5t-14 4.5h-12v54h12q10 0 14 4.5t4 17.5q0 20 -3.5 126t-3.5 124q0 90 82 90h21v-45h-10q-18 0 -25 -8t-7 -27q0 -18 3.5 -121.5t3.5 -120.5q0 -53 -33 -67q33 -14 33 -66q0 -18 -3.5 -121.5t-3.5 -120.5q0 -19 7 -27t25 -8h10v-45h-21q-82 0 -82 90
q0 18 3.5 124t3.5 125z" />
    <glyph glyph-name="bar" unicode="|" horiz-adv-x="146" 
d="M44 -96v796h56v-796h-56z" />
    <glyph glyph-name="braceright" unicode="}" horiz-adv-x="128" 
d="M97 271q0 -19 3.5 -125t3.5 -124q0 -90 -82 -90h-21v45h10q18 0 25 8t7 27q0 17 -3.5 120.5t-3.5 121.5q0 52 33 66q-33 14 -33 67q0 17 3.5 120.5t3.5 121.5q0 19 -7 27t-25 8h-10v45h21q82 0 82 -90q0 -18 -3.5 -124t-3.5 -126q0 -13 4 -17.5t14 -4.5h12v-54h-12
q-10 0 -14 -4.5t-4 -17.5z" />
    <glyph glyph-name="asciitilde" unicode="~" 
d="M171 386v-49q-18 -21 -42 -21q-14 0 -40 9t-38 9q-20 0 -37 -18v48q18 21 42 21q14 0 40 -9t38 -9q21 0 37 19z" />
    <glyph glyph-name="uni00A0" unicode="&#xa0;" horiz-adv-x="95" 
 />
    <glyph glyph-name="exclamdown" unicode="&#xa1;" horiz-adv-x="101" 
d="M83 599v-69h-64v69h64zM16 198l14 310h41l14 -310v-299h-69v299z" />
    <glyph glyph-name="cent" unicode="&#xa2;" 
d="M169 414h-56v174q0 21 -18 21q-19 0 -19 -21v-462q0 -21 19 -21q18 0 18 21v185h56v-176q0 -77 -66 -82v-34h-19v34q-68 5 -68 82v444q0 76 68 82v35h19v-35q66 -6 66 -82v-165z" />
    <glyph glyph-name="sterling" unicode="&#xa3;" 
d="M159 174h-50q-7 -77 -46 -114h112v-60h-167v50q45 30 48 124h-37v51h36q-2 23 -23 107.5t-21 151.5v135q0 88 82 88t82 -88v-223h-60v232q0 22 -20 22q-19 0 -19 -22v-144q0 -60 15.5 -141t17.5 -118h50v-51z" />
    <glyph glyph-name="currency" unicode="&#xa4;" 
d="M55 350q0 -17 10.5 -27.5t27.5 -10.5t27.5 10.5t10.5 27.5t-10.5 27.5t-27.5 10.5t-27.5 -10.5t-10.5 -27.5zM26 350q0 17 12 36l-27 26l21 21l24 -28q19 12 37 12q19 0 36 -12l25 28l22 -21l-28 -26q12 -16 12 -36t-12 -36l28 -26l-22 -21l-25 28q-17 -12 -36 -12
q-18 0 -37 12l-24 -28l-21 21l27 26q-12 19 -12 36z" />
    <glyph glyph-name="yen" unicode="&#xa5;" 
d="M106 511l19 189h55l-55 -466h47v-33h-50v-43h50v-33h-50v-125h-59v125h-50v33h50v43h-50v33h48l-54 466h60l19 -189q8 -94 10 -144q2 50 10 144z" />
    <glyph glyph-name="brokenbar" unicode="&#xa6;" horiz-adv-x="146" 
d="M44 344v356h56v-356h-56zM44 -96v357h56v-357h-56z" />
    <glyph glyph-name="section" unicode="&#xa7;" horiz-adv-x="187" 
d="M72 133v-111q0 -23 19 -23q20 0 20 23v37q0 35 -15.5 67t-33.5 53.5t-33.5 59t-15.5 82.5v56q0 66 45 78q-45 67 -45 139v31q0 82 81 82q80 0 80 -82v-108h-59v111q0 23 -19 23t-19 -23v-37q0 -35 15 -67t33.5 -53.5t33.5 -59t15 -82.5v-56q0 -67 -45 -79q45 -70 45 -138
v-31q0 -82 -81 -82q-80 0 -80 82v108h59zM113 327q0 44 -30 90q-8 -8 -8 -23v-71q0 -41 29 -90q9 11 9 23v71z" />
    <glyph glyph-name="dieresis" unicode="&#xa8;" horiz-adv-x="146" 
d="M62 593h-54v56h54v-56zM138 593h-54v56h54v-56z" />
    <glyph glyph-name="copyright" unicode="&#xa9;" horiz-adv-x="309" 
d="M14 350q0 202 29.5 279.5t110.5 77.5q82 0 111 -77.5t29 -279.5t-29 -279.5t-111 -77.5q-81 0 -110.5 77.5t-29.5 279.5zM47 350q0 -183 20.5 -255t86.5 -72t87 72t21 255t-21 255t-87 72t-86.5 -72t-20.5 -255zM143 162q0 -14 13 -14q12 0 12 14v158h42v-156
q0 -57 -56 -57q-57 0 -57 57v372q0 57 57 57q56 0 56 -57v-157h-42v158q0 15 -12 15q-13 0 -13 -15v-375z" />
    <glyph glyph-name="ordfeminine" unicode="&#xaa;" horiz-adv-x="136" 
d="M86 303q-4 7 -5 22q-7 -27 -34 -27q-36 0 -36 49v95q0 30 10.5 50.5t23.5 29.5t23.5 24.5t10.5 36.5v72q0 15 -11 15q-12 0 -12 -15v-104h-40v98q0 58 53 58t53 -58v-292q0 -33 5 -54h-41zM12 232v45h113v-45h-113zM54 443v-93q0 -15 12 -15q13 0 13 15v157
q-25 -31 -25 -64z" />
    <glyph glyph-name="guillemotleft" unicode="&#xab;" horiz-adv-x="216" 
d="M95 282l55 282h59l-55 -282l55 -282h-59zM7 282l55 282h59l-55 -282l55 -282h-59z" />
    <glyph glyph-name="logicalnot" unicode="&#xac;" 
d="M171 374v-113h-48v64h-109v49h157z" />
    <glyph glyph-name="uni00AD" unicode="&#xad;" horiz-adv-x="146" 
d="M133 308v-52h-120v52h120z" />
    <glyph glyph-name="registered" unicode="&#xae;" horiz-adv-x="309" 
d="M14 350q0 202 29.5 279.5t110.5 77.5q82 0 111 -77.5t29 -279.5t-29 -279.5t-111 -77.5q-81 0 -110.5 77.5t-29.5 279.5zM47 350q0 -183 20.5 -255t86.5 -72t87 72t21 255t-21 255t-87 72t-86.5 -72t-20.5 -255zM97 589h61q57 0 57 -55v-139q0 -36 -24 -46q24 -10 24 -46
v-124q0 -55 12 -69h-52q-6 21 -6 44v150q0 24 -18 24h-8v-218h-46v479zM143 549v-180h13q13 0 13 15v152q0 13 -13 13h-13z" />
    <glyph glyph-name="macron" unicode="&#xaf;" horiz-adv-x="146" 
d="M133 595h-121v42h121v-42z" />
    <glyph glyph-name="degree" unicode="&#xb0;" horiz-adv-x="150" 
d="M75 690q27 0 45.5 -18t18.5 -45t-18.5 -45t-45.5 -18t-45.5 18t-18.5 45t18.5 45t45.5 18zM75 651q-24 0 -24 -24q0 -11 6.5 -17.5t17.5 -6.5t17.5 6.5t6.5 17.5q0 24 -24 24z" />
    <glyph glyph-name="plusminus" unicode="&#xb1;" 
d="M171 290v-48h-157v48h54v55h-54v48h54v65h49v-65h54v-48h-54v-55h54z" />
    <glyph glyph-name="twosuperior" unicode="&#xb2;" horiz-adv-x="138" 
d="M55 705v-112h-40v109q0 55 54 55t54 -55v-70q0 -50 -33 -113t-33 -93v-14h66v-42h-109v48q0 43 33 107.5t33 103.5v76q0 15 -13 15q-12 0 -12 -15z" />
    <glyph glyph-name="threesuperior" unicode="&#xb3;" horiz-adv-x="138" 
d="M54 549v37h14q7 0 9.5 2.5t2.5 10.5v106q0 15 -12 15q-13 0 -13 -15v-92h-40v89q0 55 53 55q55 0 55 -55v-92q0 -36 -22 -43q22 -8 22 -43v-106q0 -55 -55 -55q-53 0 -53 55v104h40v-107q0 -15 13 -15q12 0 12 15v120q0 14 -12 14h-14z" />
    <glyph glyph-name="acute" unicode="&#xb4;" horiz-adv-x="146" 
d="M29 589l30 70h57l-46 -70h-41z" />
    <glyph glyph-name="uni00B5" unicode="&#xb5;" horiz-adv-x="190" 
d="M16 -96v660h60v-498q0 -21 17 -21q21 0 21 22v497h60v-487q0 -48 5 -77h-56q-5 8 -7 27q-10 -29 -40 -33v-90h-60z" />
    <glyph glyph-name="paragraph" unicode="&#xb6;" horiz-adv-x="236" 
d="M218 700v-750h-47v699h-28v-699h-47v351h-1q-86 0 -86 82v236q0 81 86 81h123z" />
    <glyph glyph-name="periodcentered" unicode="&#xb7;" horiz-adv-x="93" 
d="M16 310v81h60v-81h-60z" />
    <glyph glyph-name="cedilla" unicode="&#xb8;" horiz-adv-x="146" 
d="M85 -62q0 24 -29 20v42h23v-27q53 0 53 -34q0 -17 -18 -28.5t-44 -11.5q-28 0 -43 10t-13 30h38q-3 -18 17 -18q16 0 16 17z" />
    <glyph glyph-name="onesuperior" unicode="&#xb9;" horiz-adv-x="138" 
d="M34 732h20q23 0 28 18h21v-380h-43v320h-26v42z" />
    <glyph glyph-name="ordmasculine" unicode="&#xba;" horiz-adv-x="136" 
d="M123 356q0 -58 -54 -58q-56 0 -56 58v293q0 58 56 58q54 0 54 -58v-293zM13 232v45h110v-45h-110zM80 655q0 15 -11 15q-13 0 -13 -15v-305q0 -14 13 -14q11 0 11 14v305z" />
    <glyph glyph-name="guillemotright" unicode="&#xbb;" horiz-adv-x="216" 
d="M154 564l55 -282l-55 -282h-59l55 282l-55 282h59zM66 564l55 -282l-55 -282h-59l55 282l-55 282h59z" />
    <glyph glyph-name="onequarter" unicode="&#xbc;" horiz-adv-x="278" 
d="M38 0l163 700h41l-163 -700h-41zM14 682h20q23 0 28 18h21v-380h-43v320h-26v42zM258 380v-252h12v-41h-12v-87h-43v87h-66v39l59 254h50zM198 196l-15 -68h32v61q0 50 7 125q-17 -87 -24 -118z" />
    <glyph glyph-name="onehalf" unicode="&#xbd;" horiz-adv-x="298" 
d="M38 0l163 700h41l-163 -700h-41zM14 682h20q23 0 28 18h21v-380h-43v320h-26v42zM216 335v-112h-40v109q0 55 54 55t54 -55v-70q0 -50 -33 -113t-33 -93v-14h66v-42h-109v48q0 43 33 107.5t33 103.5v76q0 15 -13 15q-12 0 -12 -15z" />
    <glyph glyph-name="threequarters" unicode="&#xbe;" horiz-adv-x="298" 
d="M58 0l163 700h41l-163 -700h-41zM278 380v-252h12v-41h-12v-87h-43v87h-66v39l59 254h50zM218 196l-15 -68h32v61q0 50 7 125q-17 -87 -24 -118zM54 499v37h14q7 0 9.5 2.5t2.5 10.5v106q0 15 -12 15q-13 0 -13 -15v-92h-40v89q0 55 53 55q55 0 55 -55v-92q0 -36 -22 -43
q22 -8 22 -43v-106q0 -55 -55 -55q-53 0 -53 55v104h40v-107q0 -15 13 -15q12 0 12 15v120q0 14 -12 14h-14z" />
    <glyph glyph-name="questiondown" unicode="&#xbf;" horiz-adv-x="174" 
d="M108 173h56v-199q0 -82 -76 -82q-78 0 -78 82v119q0 81 34.5 176t34.5 162v67h41v-75q0 -78 -25 -170.5t-25 -162.5v-125q0 -21 19 -21t19 21v208zM130 599v-79h-61v79h61z" />
    <glyph glyph-name="Agrave" unicode="&#xc0;" horiz-adv-x="204" 
d="M131 0l-6 80h-53l-6 -80h-63l55 700h87l55 -700h-69zM83 226l-7 -86h44l-6 86q-7 92 -16 308q-11 -262 -15 -308zM102 788l30 -70h-41l-46 70h57z" />
    <glyph glyph-name="Aacute" unicode="&#xc1;" horiz-adv-x="204" 
d="M131 0l-6 80h-53l-6 -80h-63l55 700h87l55 -700h-69zM83 226l-7 -86h44l-6 86q-7 92 -16 308q-11 -262 -15 -308zM72 718l30 70h57l-46 -70h-41z" />
    <glyph glyph-name="Acircumflex" unicode="&#xc2;" horiz-adv-x="204" 
d="M131 0l-6 80h-53l-6 -80h-63l55 700h87l55 -700h-69zM83 226l-7 -86h44l-6 86q-7 92 -16 308q-11 -262 -15 -308zM125 718l-23 31l-23 -31h-42l41 70h47l42 -70h-42z" />
    <glyph glyph-name="Atilde" unicode="&#xc3;" horiz-adv-x="204" 
d="M131 0l-6 80h-53l-6 -80h-63l55 700h87l55 -700h-69zM83 226l-7 -86h44l-6 86q-7 92 -16 308q-11 -262 -15 -308zM137 780h30q0 -56 -39 -56q-12 0 -27.5 6.5t-22.5 6.5q-10 0 -12 -15h-30q0 56 40 56q12 0 27 -6.5t22 -6.5q12 0 12 15z" />
    <glyph glyph-name="Adieresis" unicode="&#xc4;" horiz-adv-x="204" 
d="M131 0l-6 80h-53l-6 -80h-63l55 700h87l55 -700h-69zM83 226l-7 -86h44l-6 86q-7 92 -16 308q-11 -262 -15 -308zM90 722h-54v56h54v-56zM166 722h-54v56h54v-56z" />
    <glyph glyph-name="Aring" unicode="&#xc5;" horiz-adv-x="204" 
d="M131 0l-6 80h-53l-6 -80h-63l55 700h87l55 -700h-69zM83 226l-7 -86h44l-6 86q-7 92 -16 308q-11 -262 -15 -308zM61 757q0 18 12 29.5t29 11.5t28.5 -11.5t11.5 -29.5t-11.5 -29.5t-28.5 -11.5q-18 0 -29.5 11.5t-11.5 29.5zM88 757q0 -15 14 -15t14 15t-14 15t-14 -15z
" />
    <glyph glyph-name="AE" unicode="&#xc6;" horiz-adv-x="265" 
d="M119 0v80h-44l-10 -80h-63l85 700h168v-59h-67v-246h56v-60h-56v-276h68v-59h-137zM90 207l-8 -67h37v113q0 102 3 263q-16 -180 -32 -309z" />
    <glyph glyph-name="Ccedilla" unicode="&#xc7;" horiz-adv-x="200" 
d="M111 -62q0 24 -29 20v37q-68 8 -68 90v530q0 92 86 92t86 -92v-202h-63v212q0 23 -21 23q-20 0 -20 -23v-550q0 -23 20 -23q21 0 21 23v231h63v-221q0 -89 -81 -92v-20q53 0 53 -34q0 -17 -18 -28.5t-44 -11.5q-28 0 -43 10t-13 30h38q-3 -18 17 -18q16 0 16 17z" />
    <glyph glyph-name="Egrave" unicode="&#xc8;" horiz-adv-x="163" 
d="M86 335v-276h68v-59h-137v700h136v-59h-67v-246h56v-60h-56zM86 788l30 -70h-41l-46 70h57z" />
    <glyph glyph-name="Eacute" unicode="&#xc9;" horiz-adv-x="163" 
d="M86 335v-276h68v-59h-137v700h136v-59h-67v-246h56v-60h-56zM56 718l30 70h57l-46 -70h-41z" />
    <glyph glyph-name="Ecircumflex" unicode="&#xca;" horiz-adv-x="163" 
d="M86 335v-276h68v-59h-137v700h136v-59h-67v-246h56v-60h-56zM108 718l-23 31l-23 -31h-42l41 70h47l42 -70h-42z" />
    <glyph glyph-name="Edieresis" unicode="&#xcb;" horiz-adv-x="163" 
d="M86 335v-276h68v-59h-137v700h136v-59h-67v-246h56v-60h-56zM74 722h-54v56h54v-56zM150 722h-54v56h54v-56z" />
    <glyph glyph-name="Igrave" unicode="&#xcc;" horiz-adv-x="103" 
d="M17 0v700h68v-700h-68zM51 788l30 -70h-41l-46 70h57z" />
    <glyph glyph-name="Iacute" unicode="&#xcd;" horiz-adv-x="103" 
d="M17 0v700h68v-700h-68zM22 718l30 70h57l-46 -70h-41z" />
    <glyph glyph-name="Icircumflex" unicode="&#xce;" horiz-adv-x="103" 
d="M17 0v700h68v-700h-68zM75 718l-23 31l-23 -31h-42l41 70h47l42 -70h-42z" />
    <glyph glyph-name="Idieresis" unicode="&#xcf;" horiz-adv-x="103" 
d="M17 0v700h68v-700h-68zM40 722h-54v56h54v-56zM116 722h-54v56h54v-56z" />
    <glyph glyph-name="Eth" unicode="&#xd0;" horiz-adv-x="209" 
d="M18 0v340h-14v50h14v310h87q89 0 89 -85v-530q0 -85 -89 -85h-87zM103 641h-16v-251h20v-50h-20v-281h16q23 0 23 24v534q0 24 -23 24z" />
    <glyph glyph-name="Ntilde" unicode="&#xd1;" horiz-adv-x="223" 
d="M148 700h58v-700h-73l-42 310q-9 67 -21 174q0 -17 3 -82t3 -93v-309h-59v700h85l32 -232q3 -22 10 -86.5t10 -88.5q0 15 -3 82t-3 95v230zM147 780h30q0 -56 -39 -56q-12 0 -27.5 6.5t-22.5 6.5q-10 0 -12 -15h-30q0 56 40 56q12 0 27 -6.5t22 -6.5q12 0 12 15z" />
    <glyph glyph-name="Ograve" unicode="&#xd2;" horiz-adv-x="205" 
d="M14 85v530q0 92 88 92q89 0 89 -92v-530q0 -92 -89 -92q-88 0 -88 92zM82 75q0 -23 20 -23q21 0 21 23v550q0 23 -21 23q-20 0 -20 -23v-550zM102 788l30 -70h-41l-46 70h57z" />
    <glyph glyph-name="Oacute" unicode="&#xd3;" horiz-adv-x="205" 
d="M14 85v530q0 92 88 92q89 0 89 -92v-530q0 -92 -89 -92q-88 0 -88 92zM82 75q0 -23 20 -23q21 0 21 23v550q0 23 -21 23q-20 0 -20 -23v-550zM72 718l30 70h57l-46 -70h-41z" />
    <glyph glyph-name="Ocircumflex" unicode="&#xd4;" horiz-adv-x="205" 
d="M14 85v530q0 92 88 92q89 0 89 -92v-530q0 -92 -89 -92q-88 0 -88 92zM82 75q0 -23 20 -23q21 0 21 23v550q0 23 -21 23q-20 0 -20 -23v-550zM126 718l-23 31l-23 -31h-42l41 70h47l42 -70h-42z" />
    <glyph glyph-name="Otilde" unicode="&#xd5;" horiz-adv-x="205" 
d="M14 85v530q0 92 88 92q89 0 89 -92v-530q0 -92 -89 -92q-88 0 -88 92zM82 75q0 -23 20 -23q21 0 21 23v550q0 23 -21 23q-20 0 -20 -23v-550zM137 780h30q0 -56 -39 -56q-12 0 -27.5 6.5t-22.5 6.5q-10 0 -12 -15h-30q0 56 40 56q12 0 27 -6.5t22 -6.5q12 0 12 15z" />
    <glyph glyph-name="Odieresis" unicode="&#xd6;" horiz-adv-x="205" 
d="M14 85v530q0 92 88 92q89 0 89 -92v-530q0 -92 -89 -92q-88 0 -88 92zM82 75q0 -23 20 -23q21 0 21 23v550q0 23 -21 23q-20 0 -20 -23v-550zM91 722h-54v56h54v-56zM167 722h-54v56h54v-56z" />
    <glyph glyph-name="multiply" unicode="&#xd7;" 
d="M137 428l34 -35l-46 -44l46 -43l-34 -35l-45 45l-43 -44l-34 34l45 43l-45 44l34 34l43 -45z" />
    <glyph glyph-name="Oslash" unicode="&#xd8;" horiz-adv-x="205" 
d="M14 85v530q0 92 88 92q17 0 34 -5l6 33l48 -7l-10 -59q11 -22 11 -54v-530q0 -92 -89 -92q-17 0 -34 5l-5 -33l-47 7l9 58q-11 22 -11 55zM82 625v-283l41 278v5q0 23 -21 23q-20 0 -20 -23zM82 75q0 -23 20 -23q21 0 21 23v280l-41 -277v-3z" />
    <glyph glyph-name="Ugrave" unicode="&#xd9;" horiz-adv-x="204" 
d="M84 75q0 -23 20 -23t20 23v625h64v-619q0 -88 -86 -88t-86 88v619h68v-625zM101 788l30 -70h-41l-46 70h57z" />
    <glyph glyph-name="Uacute" unicode="&#xda;" horiz-adv-x="204" 
d="M84 75q0 -23 20 -23t20 23v625h64v-619q0 -88 -86 -88t-86 88v619h68v-625zM71 718l30 70h57l-46 -70h-41z" />
    <glyph glyph-name="Ucircumflex" unicode="&#xdb;" horiz-adv-x="204" 
d="M84 75q0 -23 20 -23t20 23v625h64v-619q0 -88 -86 -88t-86 88v619h68v-625zM125 718l-23 31l-23 -31h-42l41 70h47l42 -70h-42z" />
    <glyph glyph-name="Udieresis" unicode="&#xdc;" horiz-adv-x="204" 
d="M84 75q0 -23 20 -23t20 23v625h64v-619q0 -88 -86 -88t-86 88v619h68v-625zM90 722h-54v56h54v-56zM166 722h-54v56h54v-56z" />
    <glyph glyph-name="Yacute" unicode="&#xdd;" horiz-adv-x="204" 
d="M117 511l21 189h63l-65 -483v-217h-68v217l-64 483h69l21 -189q7 -65 12 -144q3 72 11 144zM72 718l30 70h57l-46 -70h-41z" />
    <glyph glyph-name="Thorn" unicode="&#xde;" horiz-adv-x="202" 
d="M17 700h69v-46h18q89 0 89 -85v-239q0 -85 -89 -85h-18v-245h-69v700zM86 594v-289h16q22 0 22 23v243q0 23 -22 23h-16z" />
    <glyph glyph-name="germandbls" unicode="&#xdf;" horiz-adv-x="187" 
d="M174 625v-136q0 -54 -36 -67q36 -10 36 -58v-310q0 -32 -14 -45.5t-45 -13.5q-16 0 -26 5v50q8 -2 11 -2q14 0 14 17v313q0 18 -19 18h-6v50h6q19 0 19 19v169q0 21 -19 21t-19 -21v-634h-60v625q0 82 79 82t79 -82z" />
    <glyph glyph-name="agrave" unicode="&#xe0;" horiz-adv-x="185" 
d="M109 391v107q0 21 -17 21q-18 0 -18 -21v-149h-56v140q0 82 75 82q76 0 76 -82v-412q0 -49 6 -77h-57q-5 8 -7 28q-12 -35 -48 -35q-51 0 -51 67v130q0 38 10 65t24 41.5t28.5 26t24.5 28.5t10 40zM109 67v219q-1 -2 -8 -9.5t-9.5 -10.5t-7.5 -11.5t-6.5 -15.5
t-3.5 -18.5t-2 -25.5v-129q0 -21 17 -21q20 0 20 22zM92 659l30 -70h-41l-46 70h57z" />
    <glyph glyph-name="aacute" unicode="&#xe1;" horiz-adv-x="185" 
d="M109 391v107q0 21 -17 21q-18 0 -18 -21v-149h-56v140q0 82 75 82q76 0 76 -82v-412q0 -49 6 -77h-57q-5 8 -7 28q-12 -35 -48 -35q-51 0 -51 67v130q0 38 10 65t24 41.5t28.5 26t24.5 28.5t10 40zM109 67v219q-1 -2 -8 -9.5t-9.5 -10.5t-7.5 -11.5t-6.5 -15.5
t-3.5 -18.5t-2 -25.5v-129q0 -21 17 -21q20 0 20 22zM63 589l30 70h57l-46 -70h-41z" />
    <glyph glyph-name="acircumflex" unicode="&#xe2;" horiz-adv-x="185" 
d="M109 391v107q0 21 -17 21q-18 0 -18 -21v-149h-56v140q0 82 75 82q76 0 76 -82v-412q0 -49 6 -77h-57q-5 8 -7 28q-12 -35 -48 -35q-51 0 -51 67v130q0 38 10 65t24 41.5t28.5 26t24.5 28.5t10 40zM109 67v219q-1 -2 -8 -9.5t-9.5 -10.5t-7.5 -11.5t-6.5 -15.5
t-3.5 -18.5t-2 -25.5v-129q0 -21 17 -21q20 0 20 22zM115 589l-23 31l-23 -31h-42l41 70h47l42 -70h-42z" />
    <glyph glyph-name="atilde" unicode="&#xe3;" horiz-adv-x="185" 
d="M109 391v107q0 21 -17 21q-18 0 -18 -21v-149h-56v140q0 82 75 82q76 0 76 -82v-412q0 -49 6 -77h-57q-5 8 -7 28q-12 -35 -48 -35q-51 0 -51 67v130q0 38 10 65t24 41.5t28.5 26t24.5 28.5t10 40zM109 67v219q-1 -2 -8 -9.5t-9.5 -10.5t-7.5 -11.5t-6.5 -15.5
t-3.5 -18.5t-2 -25.5v-129q0 -21 17 -21q20 0 20 22zM128 651h30q0 -56 -39 -56q-12 0 -27.5 6.5t-22.5 6.5q-10 0 -12 -15h-30q0 56 40 56q12 0 27 -6.5t22 -6.5q12 0 12 15z" />
    <glyph glyph-name="adieresis" unicode="&#xe4;" horiz-adv-x="185" 
d="M109 391v107q0 21 -17 21q-18 0 -18 -21v-149h-56v140q0 82 75 82q76 0 76 -82v-412q0 -49 6 -77h-57q-5 8 -7 28q-12 -35 -48 -35q-51 0 -51 67v130q0 38 10 65t24 41.5t28.5 26t24.5 28.5t10 40zM109 67v219q-1 -2 -8 -9.5t-9.5 -10.5t-7.5 -11.5t-6.5 -15.5
t-3.5 -18.5t-2 -25.5v-129q0 -21 17 -21q20 0 20 22zM81 593h-54v56h54v-56zM157 593h-54v56h54v-56z" />
    <glyph glyph-name="aring" unicode="&#xe5;" horiz-adv-x="185" 
d="M109 391v107q0 21 -17 21q-18 0 -18 -21v-149h-56v140q0 82 75 82q76 0 76 -82v-412q0 -49 6 -77h-57q-5 8 -7 28q-12 -35 -48 -35q-51 0 -51 67v130q0 38 10 65t24 41.5t28.5 26t24.5 28.5t10 40zM109 67v219q-1 -2 -8 -9.5t-9.5 -10.5t-7.5 -11.5t-6.5 -15.5
t-3.5 -18.5t-2 -25.5v-129q0 -21 17 -21q20 0 20 22zM51 628q0 18 12 29.5t29 11.5t28.5 -11.5t11.5 -29.5t-11.5 -29.5t-28.5 -11.5q-18 0 -29.5 11.5t-11.5 29.5zM78 628q0 -15 14 -15t14 15t-14 15t-14 -15z" />
    <glyph glyph-name="ae" unicode="&#xe6;" horiz-adv-x="277" 
d="M12 60v130q0 38 10 65t24 41.5t28.5 26t24.5 28.5t10 40v107q0 21 -17 21q-18 0 -18 -21v-149h-56v141q0 81 68 81q35 0 52 -23q18 23 54 23q70 0 70 -82v-216h-93v-207q0 -21 19 -21q18 0 18 21v166h56v-157q0 -82 -75 -82q-58 0 -73 45q-3 -19 -17 -32t-34 -13
q-51 0 -51 67zM109 67v219q-1 -2 -8 -9.5t-9.5 -10.5t-7.5 -11.5t-6.5 -15.5t-3.5 -18.5t-2 -25.5v-129q0 -21 17 -21q20 0 20 22zM169 498v-175h37v175q0 21 -18 21q-19 0 -19 -21z" />
    <glyph glyph-name="ccedilla" unicode="&#xe7;" horiz-adv-x="181" 
d="M102 -62q0 24 -29 20v37q-59 9 -59 80v414q0 82 78 82q76 0 76 -82v-150h-57v159q0 21 -18 21q-19 0 -19 -21v-432q0 -21 19 -21q18 0 18 21v170h57v-161q0 -79 -72 -82v-20q53 0 53 -34q0 -17 -18 -28.5t-44 -11.5q-28 0 -43 10t-13 30h38q-3 -18 17 -18q16 0 16 17z
" />
    <glyph glyph-name="egrave" unicode="&#xe8;" horiz-adv-x="182" 
d="M168 273h-94v-207q0 -21 19 -21q18 0 18 21v166h57v-157q0 -82 -76 -82q-78 0 -78 82v414q0 82 78 82q76 0 76 -82v-216zM74 498v-175h37v175q0 21 -18 21q-19 0 -19 -21zM93 659l30 -70h-41l-46 70h57z" />
    <glyph glyph-name="eacute" unicode="&#xe9;" horiz-adv-x="182" 
d="M168 273h-94v-207q0 -21 19 -21q18 0 18 21v166h57v-157q0 -82 -76 -82q-78 0 -78 82v414q0 82 78 82q76 0 76 -82v-216zM74 498v-175h37v175q0 21 -18 21q-19 0 -19 -21zM63 589l30 70h57l-46 -70h-41z" />
    <glyph glyph-name="ecircumflex" unicode="&#xea;" horiz-adv-x="182" 
d="M168 273h-94v-207q0 -21 19 -21q18 0 18 21v166h57v-157q0 -82 -76 -82q-78 0 -78 82v414q0 82 78 82q76 0 76 -82v-216zM74 498v-175h37v175q0 21 -18 21q-19 0 -19 -21zM116 589l-23 31l-23 -31h-42l41 70h47l42 -70h-42z" />
    <glyph glyph-name="edieresis" unicode="&#xeb;" horiz-adv-x="182" 
d="M168 273h-94v-207q0 -21 19 -21q18 0 18 21v166h57v-157q0 -82 -76 -82q-78 0 -78 82v414q0 82 78 82q76 0 76 -82v-216zM74 498v-175h37v175q0 21 -18 21q-19 0 -19 -21zM82 593h-54v56h54v-56zM158 593h-54v56h54v-56z" />
    <glyph glyph-name="igrave" unicode="&#xec;" horiz-adv-x="92" 
d="M46 659l30 -70h-41l-46 70h57zM76 0h-60v564h60v-564z" />
    <glyph glyph-name="iacute" unicode="&#xed;" horiz-adv-x="92" 
d="M17 589l30 70h57l-46 -70h-41zM76 0h-60v564h60v-564z" />
    <glyph glyph-name="icircumflex" unicode="&#xee;" horiz-adv-x="92" 
d="M76 0h-60v564h60v-564zM70 589l-23 31l-23 -31h-42l41 70h47l42 -70h-42z" />
    <glyph glyph-name="idieresis" unicode="&#xef;" horiz-adv-x="92" 
d="M36 593h-54v56h54v-56zM112 593h-54v56h54v-56zM76 0h-60v564h60v-564z" />
    <glyph glyph-name="eth" unicode="&#xf0;" horiz-adv-x="187" 
d="M74 601l-10 10l34 34q-10 4 -21 4h-18l9 51h18q35 0 54 -13l13 13h21l-22 -22q19 -20 19 -65v-538q0 -82 -78 -82q-79 0 -79 82v429q0 67 51 67q30 0 46 -28v68q0 14 -3 23zM111 66v431q0 22 -20 22q-17 0 -17 -21v-432q0 -21 19 -21q18 0 18 21z" />
    <glyph glyph-name="ntilde" unicode="&#xf1;" horiz-adv-x="189" 
d="M76 0h-60v564h56v-33q10 40 50 40q52 0 52 -67v-504h-60v498q0 21 -18 21q-20 0 -20 -22v-497zM130 651h30q0 -56 -39 -56q-12 0 -27.5 6.5t-22.5 6.5q-10 0 -12 -15h-30q0 56 40 56q12 0 27 -6.5t22 -6.5q12 0 12 15z" />
    <glyph glyph-name="ograve" unicode="&#xf2;" 
d="M171 75q0 -82 -78 -82q-79 0 -79 82v414q0 82 79 82q78 0 78 -82v-414zM111 498q0 21 -18 21q-19 0 -19 -21v-432q0 -21 19 -21q18 0 18 21v432zM92 659l30 -70h-41l-46 70h57z" />
    <glyph glyph-name="oacute" unicode="&#xf3;" 
d="M171 75q0 -82 -78 -82q-79 0 -79 82v414q0 82 79 82q78 0 78 -82v-414zM111 498q0 21 -18 21q-19 0 -19 -21v-432q0 -21 19 -21q18 0 18 21v432zM63 589l30 70h57l-46 -70h-41z" />
    <glyph glyph-name="ocircumflex" unicode="&#xf4;" 
d="M171 75q0 -82 -78 -82q-79 0 -79 82v414q0 82 79 82q78 0 78 -82v-414zM111 498q0 21 -18 21q-19 0 -19 -21v-432q0 -21 19 -21q18 0 18 21v432zM116 589l-23 31l-23 -31h-42l41 70h47l42 -70h-42z" />
    <glyph glyph-name="otilde" unicode="&#xf5;" 
d="M171 75q0 -82 -78 -82q-79 0 -79 82v414q0 82 79 82q78 0 78 -82v-414zM111 498q0 21 -18 21q-19 0 -19 -21v-432q0 -21 19 -21q18 0 18 21v432zM128 651h30q0 -56 -39 -56q-12 0 -27.5 6.5t-22.5 6.5q-10 0 -12 -15h-30q0 56 40 56q12 0 27 -6.5t22 -6.5q12 0 12 15z
" />
    <glyph glyph-name="odieresis" unicode="&#xf6;" 
d="M171 75q0 -82 -78 -82q-79 0 -79 82v414q0 82 79 82q78 0 78 -82v-414zM111 498q0 21 -18 21q-19 0 -19 -21v-432q0 -21 19 -21q18 0 18 21v432zM82 593h-54v56h54v-56zM158 593h-54v56h54v-56z" />
    <glyph glyph-name="divide" unicode="&#xf7;" 
d="M59 424q0 14 9.5 24t23.5 10t24 -10t10 -24t-10 -23.5t-24 -9.5t-23.5 9.5t-9.5 23.5zM59 274q0 14 9.5 23.5t23.5 9.5t24 -9.5t10 -23.5t-10 -24t-24 -10t-23.5 10t-9.5 24zM171 374v-49h-157v49h157z" />
    <glyph glyph-name="oslash" unicode="&#xf8;" 
d="M171 75q0 -82 -78 -82q-18 0 -30 4l-6 -32l-43 7l10 55q-10 19 -10 48v414q0 82 79 82q12 0 30 -4l6 31l42 -7l-10 -54q10 -22 10 -48v-414zM74 498v-229l37 232q-1 18 -18 18q-19 0 -19 -21zM93 45q18 0 18 21v225l-37 -232q3 -14 19 -14z" />
    <glyph glyph-name="ugrave" unicode="&#xf9;" horiz-adv-x="189" 
d="M113 67v497h60v-487q0 -49 6 -77h-56q-5 8 -7 26q-14 -33 -49 -33q-51 0 -51 67v504h60v-498q0 -21 17 -21q20 0 20 22zM95 659l30 -70h-41l-46 70h57z" />
    <glyph glyph-name="uacute" unicode="&#xfa;" horiz-adv-x="189" 
d="M113 67v497h60v-487q0 -49 6 -77h-56q-5 8 -7 26q-14 -33 -49 -33q-51 0 -51 67v504h60v-498q0 -21 17 -21q20 0 20 22zM65 589l30 70h57l-46 -70h-41z" />
    <glyph glyph-name="ucircumflex" unicode="&#xfb;" horiz-adv-x="189" 
d="M113 67v497h60v-487q0 -49 6 -77h-56q-5 8 -7 26q-14 -33 -49 -33q-51 0 -51 67v504h60v-498q0 -21 17 -21q20 0 20 22zM117 589l-23 31l-23 -31h-42l41 70h47l42 -70h-42z" />
    <glyph glyph-name="udieresis" unicode="&#xfc;" horiz-adv-x="189" 
d="M113 67v497h60v-487q0 -49 6 -77h-56q-5 8 -7 26q-14 -33 -49 -33q-51 0 -51 67v504h60v-498q0 -21 17 -21q20 0 20 22zM83 593h-54v56h54v-56zM159 593h-54v56h54v-56z" />
    <glyph glyph-name="yacute" unicode="&#xfd;" horiz-adv-x="178" 
d="M43 -49q17 0 17 25q0 15 -1 24l-55 564h62l15 -194q8 -118 11 -219q1 18 2.5 61t3.5 83t5 74l16 195h55l-52 -601q-8 -64 -67 -64q-24 0 -37 5v51q18 -4 25 -4zM63 589l30 70h57l-46 -70h-41z" />
    <glyph glyph-name="thorn" unicode="&#xfe;" horiz-adv-x="188" 
d="M76 497v-430q0 -22 20 -22q18 0 18 21v432q0 21 -18 21q-20 0 -20 -22zM174 504v-444q0 -67 -52 -67q-32 0 -46 29v-118h-60v796h60v-159q14 30 46 30q52 0 52 -67z" />
    <glyph glyph-name="ydieresis" unicode="&#xff;" horiz-adv-x="178" 
d="M43 -49q17 0 17 25q0 15 -1 24l-55 564h62l15 -194q8 -118 11 -219q1 18 2.5 61t3.5 83t5 74l16 195h55l-52 -601q-8 -64 -67 -64q-24 0 -37 5v51q18 -4 25 -4zM81 593h-54v56h54v-56zM157 593h-54v56h54v-56z" />
    <glyph glyph-name="Amacron" unicode="&#x100;" horiz-adv-x="204" 
d="M131 0l-6 80h-53l-6 -80h-63l55 700h87l55 -700h-69zM83 226l-7 -86h44l-6 86q-7 92 -16 308q-11 -262 -15 -308zM162 724h-121v42h121v-42z" />
    <glyph glyph-name="amacron" unicode="&#x101;" horiz-adv-x="185" 
d="M109 391v107q0 21 -17 21q-18 0 -18 -21v-149h-56v140q0 82 75 82q76 0 76 -82v-412q0 -49 6 -77h-57q-5 8 -7 28q-12 -35 -48 -35q-51 0 -51 67v130q0 38 10 65t24 41.5t28.5 26t24.5 28.5t10 40zM109 67v219q-1 -2 -8 -9.5t-9.5 -10.5t-7.5 -11.5t-6.5 -15.5
t-3.5 -18.5t-2 -25.5v-129q0 -21 17 -21q20 0 20 22zM153 595h-121v42h121v-42z" />
    <glyph glyph-name="Abreve" unicode="&#x102;" horiz-adv-x="204" 
d="M131 0l-6 80h-53l-6 -80h-63l55 700h87l55 -700h-69zM83 226l-7 -86h44l-6 86q-7 92 -16 308q-11 -262 -15 -308zM102 757q26 0 26 29h34q0 -68 -60 -68q-61 0 -61 68h34q0 -29 27 -29z" />
    <glyph glyph-name="abreve" unicode="&#x103;" horiz-adv-x="185" 
d="M109 391v107q0 21 -17 21q-18 0 -18 -21v-149h-56v140q0 82 75 82q76 0 76 -82v-412q0 -49 6 -77h-57q-5 8 -7 28q-12 -35 -48 -35q-51 0 -51 67v130q0 38 10 65t24 41.5t28.5 26t24.5 28.5t10 40zM109 67v219q-1 -2 -8 -9.5t-9.5 -10.5t-7.5 -11.5t-6.5 -15.5
t-3.5 -18.5t-2 -25.5v-129q0 -21 17 -21q20 0 20 22zM92 628q26 0 26 29h34q0 -68 -60 -68q-61 0 -61 68h34q0 -29 27 -29z" />
    <glyph glyph-name="Aogonek" unicode="&#x104;" horiz-adv-x="204" 
d="M131 0l-6 80h-53l-6 -80h-63l55 700h87l55 -700h-21q-23 -26 -23 -52q0 -25 23 -25q9 0 21 3v-22q-18 -5 -38 -5q-21 0 -36 10.5t-15 30.5q0 37 36 60h-16zM83 226l-7 -86h44l-6 86q-7 92 -16 308q-11 -248 -15 -308z" />
    <glyph glyph-name="aogonek" unicode="&#x105;" horiz-adv-x="185" 
d="M172 -74v-22q-18 -5 -38 -5q-21 0 -36 10.5t-15 30.5q0 37 35 60q-5 8 -7 28q-12 -35 -48 -35q-51 0 -51 67v130q0 38 10 65t24 41.5t28.5 26t24.5 28.5t10 40v107q0 21 -17 21q-18 0 -18 -21v-149h-56v140q0 82 75 82q76 0 76 -82v-412q0 -49 6 -77h-24q-23 -26 -23 -52
q0 -25 23 -25q9 0 21 3zM109 67v219q-1 -2 -8 -9.5t-9.5 -10.5t-7.5 -11.5t-6.5 -15.5t-3.5 -18.5t-2 -25.5v-129q0 -21 17 -21q20 0 20 22z" />
    <glyph glyph-name="Cacute" unicode="&#x106;" horiz-adv-x="200" 
d="M82 75q0 -23 20 -23q21 0 21 23v231h63v-221q0 -92 -86 -92t-86 92v530q0 92 86 92t86 -92v-202h-63v212q0 23 -21 23q-20 0 -20 -23v-550zM72 718l30 70h57l-46 -70h-41z" />
    <glyph glyph-name="cacute" unicode="&#x107;" horiz-adv-x="181" 
d="M168 339h-57v159q0 21 -18 21q-19 0 -19 -21v-432q0 -21 19 -21q18 0 18 21v170h57v-161q0 -82 -76 -82q-78 0 -78 82v414q0 82 78 82q76 0 76 -82v-150zM63 589l30 70h57l-46 -70h-41z" />
    <glyph glyph-name="Ccircumflex" unicode="&#x108;" horiz-adv-x="200" 
d="M82 75q0 -23 20 -23q21 0 21 23v231h63v-221q0 -92 -86 -92t-86 92v530q0 92 86 92t86 -92v-202h-63v212q0 23 -21 23q-20 0 -20 -23v-550zM124 718l-23 31l-23 -31h-42l41 70h47l42 -70h-42z" />
    <glyph glyph-name="ccircumflex" unicode="&#x109;" horiz-adv-x="181" 
d="M168 339h-57v159q0 21 -18 21q-19 0 -19 -21v-432q0 -21 19 -21q18 0 18 21v170h57v-161q0 -82 -76 -82q-78 0 -78 82v414q0 82 78 82q76 0 76 -82v-150zM116 589l-23 31l-23 -31h-42l41 70h47l42 -70h-42z" />
    <glyph glyph-name="Cdotaccent" unicode="&#x10a;" horiz-adv-x="200" 
d="M82 75q0 -23 20 -23q21 0 21 23v231h63v-221q0 -92 -86 -92t-86 92v530q0 92 86 92t86 -92v-202h-63v212q0 23 -21 23q-20 0 -20 -23v-550zM128 722h-54v56h54v-56z" />
    <glyph glyph-name="cdotaccent" unicode="&#x10b;" horiz-adv-x="181" 
d="M168 339h-57v159q0 21 -18 21q-19 0 -19 -21v-432q0 -21 19 -21q18 0 18 21v170h57v-161q0 -82 -76 -82q-78 0 -78 82v414q0 82 78 82q76 0 76 -82v-150zM120 593h-54v56h54v-56z" />
    <glyph glyph-name="Ccaron" unicode="&#x10c;" horiz-adv-x="200" 
d="M82 75q0 -23 20 -23q21 0 21 23v231h63v-221q0 -92 -86 -92t-86 92v530q0 92 86 92t86 -92v-202h-63v212q0 23 -21 23q-20 0 -20 -23v-550zM101 756l23 32h42l-42 -70h-47l-41 70h42z" />
    <glyph glyph-name="ccaron" unicode="&#x10d;" horiz-adv-x="181" 
d="M168 339h-57v159q0 21 -18 21q-19 0 -19 -21v-432q0 -21 19 -21q18 0 18 21v170h57v-161q0 -82 -76 -82q-78 0 -78 82v414q0 82 78 82q76 0 76 -82v-150zM93 627l23 32h42l-42 -70h-47l-41 70h42z" />
    <glyph glyph-name="Dcaron" unicode="&#x10e;" horiz-adv-x="208" 
d="M17 0v700h87q89 0 89 -85v-530q0 -85 -89 -85h-87zM102 641h-16v-582h16q23 0 23 24v534q0 24 -23 24zM96 756l23 32h42l-42 -70h-47l-41 70h42z" />
    <glyph glyph-name="dcaron" unicode="&#x10f;" horiz-adv-x="252" 
d="M193 626v74h54v-74l-49 -58l-5 3l30 55h-30zM112 67v430q0 22 -20 22q-17 0 -17 -21v-432q0 -21 17 -21q20 0 20 22zM121 0q-4 9 -6 27q-14 -34 -49 -34q-51 0 -51 67v444q0 67 51 67q30 0 46 -28v157h60v-623q0 -49 6 -77h-57z" />
    <glyph glyph-name="Dcroat" unicode="&#x110;" horiz-adv-x="209" 
d="M18 0v340h-14v50h14v310h87q89 0 89 -85v-530q0 -85 -89 -85h-87zM103 641h-16v-251h20v-50h-20v-281h16q23 0 23 24v534q0 24 -23 24z" />
    <glyph glyph-name="dcroat" unicode="&#x111;" horiz-adv-x="189" 
d="M121 0q-4 9 -6 27q-14 -34 -49 -34q-51 0 -51 67v444q0 67 51 67q30 0 46 -28v58h-43v42h43v57h60v-57h15v-42h-15v-524q0 -49 6 -77h-57zM112 67v430q0 22 -20 22q-17 0 -17 -21v-432q0 -21 17 -21q20 0 20 22z" />
    <glyph glyph-name="Emacron" unicode="&#x112;" horiz-adv-x="163" 
d="M86 335v-276h68v-59h-137v700h136v-59h-67v-246h56v-60h-56zM146 724h-121v42h121v-42z" />
    <glyph glyph-name="emacron" unicode="&#x113;" horiz-adv-x="182" 
d="M168 273h-94v-207q0 -21 19 -21q18 0 18 21v166h57v-157q0 -82 -76 -82q-78 0 -78 82v414q0 82 78 82q76 0 76 -82v-216zM74 498v-175h37v175q0 21 -18 21q-19 0 -19 -21zM153 595h-121v42h121v-42z" />
    <glyph glyph-name="Ebreve" unicode="&#x114;" horiz-adv-x="163" 
d="M86 335v-276h68v-59h-137v700h136v-59h-67v-246h56v-60h-56zM85 757q26 0 26 29h34q0 -68 -60 -68q-61 0 -61 68h34q0 -29 27 -29z" />
    <glyph glyph-name="ebreve" unicode="&#x115;" horiz-adv-x="182" 
d="M168 273h-94v-207q0 -21 19 -21q18 0 18 21v166h57v-157q0 -82 -76 -82q-78 0 -78 82v414q0 82 78 82q76 0 76 -82v-216zM74 498v-175h37v175q0 21 -18 21q-19 0 -19 -21zM93 628q26 0 26 29h34q0 -68 -60 -68q-61 0 -61 68h34q0 -29 27 -29z" />
    <glyph glyph-name="Edotaccent" unicode="&#x116;" horiz-adv-x="163" 
d="M86 335v-276h68v-59h-137v700h136v-59h-67v-246h56v-60h-56zM112 722h-54v56h54v-56z" />
    <glyph glyph-name="edotaccent" unicode="&#x117;" horiz-adv-x="182" 
d="M168 273h-94v-207q0 -21 19 -21q18 0 18 21v166h57v-157q0 -82 -76 -82q-78 0 -78 82v414q0 82 78 82q76 0 76 -82v-216zM74 498v-175h37v175q0 21 -18 21q-19 0 -19 -21zM120 593h-54v56h54v-56z" />
    <glyph glyph-name="Eogonek" unicode="&#x118;" horiz-adv-x="163" 
d="M154 -74v-22q-18 -5 -36 -5q-53 0 -53 38q0 39 49 63h-97v700h136v-59h-67v-246h56v-60h-56v-276h68v-59h-4q-39 -11 -39 -50q0 -27 22 -27q9 0 21 3z" />
    <glyph glyph-name="eogonek" unicode="&#x119;" horiz-adv-x="182" 
d="M164 -74v-22q-18 -5 -38 -5q-21 0 -36 11t-15 31q0 34 32 53q-3 0 -8 -0.5t-7 -0.5q-78 0 -78 82v414q0 82 78 82q76 0 76 -82v-216h-94v-207q0 -21 19 -21q18 0 18 21v166h57v-157q0 -52 -31 -71q-17 -22 -17 -55q0 -26 23 -26q9 0 21 3zM74 498v-175h37v175
q0 21 -18 21q-19 0 -19 -21z" />
    <glyph glyph-name="Ecaron" unicode="&#x11a;" horiz-adv-x="163" 
d="M86 335v-276h68v-59h-137v700h136v-59h-67v-246h56v-60h-56zM85 756l23 32h42l-42 -70h-47l-41 70h42z" />
    <glyph glyph-name="ecaron" unicode="&#x11b;" horiz-adv-x="182" 
d="M168 273h-94v-207q0 -21 19 -21q18 0 18 21v166h57v-157q0 -82 -76 -82q-78 0 -78 82v414q0 82 78 82q76 0 76 -82v-216zM74 498v-175h37v175q0 21 -18 21q-19 0 -19 -21zM93 627l23 32h42l-42 -70h-47l-41 70h42z" />
    <glyph glyph-name="Gcircumflex" unicode="&#x11c;" horiz-adv-x="202" 
d="M123 75v256h-21v59h86v-390h-36l-6 24q-15 -31 -59 -31q-73 0 -73 92v530q0 92 86 92t86 -92v-189h-63v199q0 23 -21 23q-20 0 -20 -23v-550q0 -23 20 -23q21 0 21 23zM124 718l-23 31l-23 -31h-42l41 70h47l42 -70h-42z" />
    <glyph glyph-name="gcircumflex" unicode="&#x11d;" horiz-adv-x="194" 
d="M15 -53q0 32 22 42q-16 12 -16 40q0 29 22 45q-30 20 -30 70v345q0 82 76 82q44 0 62 -30q6 24 26 24q7 0 14 -3v-48q-8 2 -10 2q-11 0 -11 -20v-352q0 -82 -78 -82q-14 0 -20 1q-5 -5 -5 -11q0 -13 14 -13h41q69 0 69 -70q0 -72 -69 -72h-49q-58 0 -58 50zM110 498
q0 21 -18 21q-19 0 -19 -21v-363q0 -21 19 -21q18 0 18 21v363zM79 -58h40q18 0 18 19q0 18 -18 18h-41q-19 0 -19 -18q0 -19 20 -19zM120 589l-23 31l-23 -31h-42l41 70h47l42 -70h-42z" />
    <glyph glyph-name="Gbreve" unicode="&#x11e;" horiz-adv-x="202" 
d="M123 75v256h-21v59h86v-390h-36l-6 24q-15 -31 -59 -31q-73 0 -73 92v530q0 92 86 92t86 -92v-189h-63v199q0 23 -21 23q-20 0 -20 -23v-550q0 -23 20 -23q21 0 21 23zM101 757q26 0 26 29h34q0 -68 -60 -68q-61 0 -61 68h34q0 -29 27 -29z" />
    <glyph glyph-name="gbreve" unicode="&#x11f;" horiz-adv-x="194" 
d="M15 -53q0 32 22 42q-16 12 -16 40q0 29 22 45q-30 20 -30 70v345q0 82 76 82q44 0 62 -30q6 24 26 24q7 0 14 -3v-48q-8 2 -10 2q-11 0 -11 -20v-352q0 -82 -78 -82q-14 0 -20 1q-5 -5 -5 -11q0 -13 14 -13h41q69 0 69 -70q0 -72 -69 -72h-49q-58 0 -58 50zM110 498
q0 21 -18 21q-19 0 -19 -21v-363q0 -21 19 -21q18 0 18 21v363zM79 -58h40q18 0 18 19q0 18 -18 18h-41q-19 0 -19 -18q0 -19 20 -19zM97 628q26 0 26 29h34q0 -68 -60 -68q-61 0 -61 68h34q0 -29 27 -29z" />
    <glyph glyph-name="Gdotaccent" unicode="&#x120;" horiz-adv-x="202" 
d="M123 75v256h-21v59h86v-390h-36l-6 24q-15 -31 -59 -31q-73 0 -73 92v530q0 92 86 92t86 -92v-189h-63v199q0 23 -21 23q-20 0 -20 -23v-550q0 -23 20 -23q21 0 21 23zM128 722h-54v56h54v-56z" />
    <glyph glyph-name="gdotaccent" unicode="&#x121;" horiz-adv-x="194" 
d="M15 -53q0 32 22 42q-16 12 -16 40q0 29 22 45q-30 20 -30 70v345q0 82 76 82q44 0 62 -30q6 24 26 24q7 0 14 -3v-48q-8 2 -10 2q-11 0 -11 -20v-352q0 -82 -78 -82q-14 0 -20 1q-5 -5 -5 -11q0 -13 14 -13h41q69 0 69 -70q0 -72 -69 -72h-49q-58 0 -58 50zM110 498
q0 21 -18 21q-19 0 -19 -21v-363q0 -21 19 -21q18 0 18 21v363zM79 -58h40q18 0 18 19q0 18 -18 18h-41q-19 0 -19 -18q0 -19 20 -19zM124 593h-54v56h54v-56z" />
    <glyph glyph-name="uni0122" unicode="&#x122;" horiz-adv-x="202" 
d="M123 75v256h-21v59h86v-390h-36l-6 24q-15 -31 -59 -31q-73 0 -73 92v530q0 92 86 92t86 -92v-189h-63v199q0 23 -21 23q-20 0 -20 -23v-550q0 -23 20 -23q21 0 21 23zM77 -81v56h54v-56l-47 -51l-5 2l27 49h-29z" />
    <glyph glyph-name="uni0123" unicode="&#x123;" horiz-adv-x="194" 
d="M123 649v-56h-54v56l47 52l5 -3l-27 -49h29zM15 -53q0 32 22 42q-16 12 -16 40q0 29 22 45q-30 20 -30 70v345q0 82 76 82q44 0 62 -30q6 24 26 24q7 0 14 -3v-48q-8 2 -10 2q-11 0 -11 -20v-352q0 -82 -78 -82q-14 0 -20 1q-5 -5 -5 -11q0 -13 14 -13h41q69 0 69 -70
q0 -72 -69 -72h-49q-58 0 -58 50zM110 498q0 21 -18 21q-19 0 -19 -21v-363q0 -21 19 -21q18 0 18 21v363zM79 -58h40q18 0 18 19q0 18 -18 18h-41q-19 0 -19 -18q0 -19 20 -19z" />
    <glyph glyph-name="Hcircumflex" unicode="&#x124;" horiz-adv-x="212" 
d="M86 335v-335h-69v700h69v-305h40v305h68v-700h-68v335h-40zM129 718l-23 31l-23 -31h-42l41 70h47l42 -70h-42z" />
    <glyph glyph-name="hcircumflex" unicode="&#x125;" horiz-adv-x="189" 
d="M174 0h-60v498q0 21 -18 21q-20 0 -20 -22v-497h-60v700h60v-159q14 30 46 30q52 0 52 -67v-504zM70 718l-23 31l-23 -31h-42l41 70h47l42 -70h-42z" />
    <glyph glyph-name="Hbar" unicode="&#x126;" horiz-adv-x="213" 
d="M87 335v-335h-69v518h-14v49h14v133h69v-133h40v133h68v-133h14v-49h-14v-518h-68v335h-40zM87 395h40v123h-40v-123z" />
    <glyph glyph-name="hbar" unicode="&#x127;" horiz-adv-x="190" 
d="M175 0h-60v498q0 21 -18 21q-20 0 -20 -22v-497h-60v601h-15v42h15v57h60v-57h43v-42h-43v-60q14 30 46 30q52 0 52 -67v-504z" />
    <glyph glyph-name="Itilde" unicode="&#x128;" horiz-adv-x="103" 
d="M17 0v700h68v-700h-68zM87 780h30q0 -56 -39 -56q-12 0 -27.5 6.5t-22.5 6.5q-10 0 -12 -15h-30q0 56 40 56q12 0 27 -6.5t22 -6.5q12 0 12 15z" />
    <glyph glyph-name="itilde" unicode="&#x129;" horiz-adv-x="92" 
d="M82 651h30q0 -56 -39 -56q-12 0 -27.5 6.5t-22.5 6.5q-10 0 -12 -15h-30q0 56 40 56q12 0 27 -6.5t22 -6.5q12 0 12 15zM76 0h-60v564h60v-564z" />
    <glyph glyph-name="Imacron" unicode="&#x12a;" horiz-adv-x="103" 
d="M17 0v700h68v-700h-68zM112 724h-121v42h121v-42z" />
    <glyph glyph-name="imacron" unicode="&#x12b;" horiz-adv-x="92" 
d="M107 595h-121v42h121v-42zM76 0h-60v564h60v-564z" />
    <glyph glyph-name="Ibreve" unicode="&#x12c;" horiz-adv-x="103" 
d="M17 0v700h68v-700h-68zM52 757q26 0 26 29h34q0 -68 -60 -68q-61 0 -61 68h34q0 -29 27 -29z" />
    <glyph glyph-name="ibreve" unicode="&#x12d;" horiz-adv-x="92" 
d="M47 628q26 0 26 29h34q0 -68 -60 -68q-61 0 -61 68h34q0 -29 27 -29zM76 0h-60v564h60v-564z" />
    <glyph glyph-name="Iogonek" unicode="&#x12e;" horiz-adv-x="103" 
d="M17 0v700h68v-700h-19q-18 -28 -18 -51q0 -26 23 -26q9 0 21 3v-22q-18 -5 -38 -5q-21 0 -36 11t-15 31q0 37 36 59h-22z" />
    <glyph glyph-name="iogonek" unicode="&#x12f;" horiz-adv-x="92" 
d="M86 -74v-22q-18 -5 -38 -5q-21 0 -36 11t-15 31q0 37 36 59h-17v564h60v-564h-16q-18 -28 -18 -51q0 -26 23 -26q9 0 21 3zM76 598h-60v72h60v-72z" />
    <glyph glyph-name="Idotaccent" unicode="&#x130;" horiz-adv-x="103" 
d="M17 0v700h68v-700h-68zM79 722h-54v56h54v-56z" />
    <glyph glyph-name="dotlessi" unicode="&#x131;" horiz-adv-x="92" 
d="M76 0h-60v564h60v-564z" />
    <glyph glyph-name="IJ" unicode="&#x132;" horiz-adv-x="296" 
d="M17 0v700h68v-700h-68zM280 81q0 -88 -86 -88t-86 88v220h63v-226q0 -23 21 -23q20 0 20 23v625h68v-619z" />
    <glyph glyph-name="ij" unicode="&#x133;" horiz-adv-x="185" 
d="M76 0h-60v564h60v-564zM76 598h-60v72h60v-72zM168 598h-60v72h60v-72zM114 -101q-13 0 -25 3v51q6 -2 10 -2q9 0 9 13v600h60v-611q0 -29 -12.5 -41.5t-41.5 -12.5z" />
    <glyph glyph-name="Jcircumflex" unicode="&#x134;" horiz-adv-x="193" 
d="M177 81q0 -88 -86 -88t-86 88v220h63v-226q0 -23 21 -23q20 0 20 23v625h68v-619zM166 718l-23 31l-23 -31h-42l41 70h47l42 -70h-42z" />
    <glyph glyph-name="jcircumflex" unicode="&#x135;" horiz-adv-x="92" 
d="M22 -101q-13 0 -25 3v51q6 -2 10 -2q9 0 9 13v600h60v-611q0 -29 -12.5 -41.5t-41.5 -12.5zM70 589l-23 31l-23 -31h-42l41 70h47l42 -70h-42z" />
    <glyph glyph-name="uni0136" unicode="&#x136;" horiz-adv-x="208" 
d="M85 700v-319q17 102 31 181l25 138h65l-57 -307l57 -393h-71l-37 276l-13 -52v-224h-68v700h68zM80 -81v56h54v-56l-47 -51l-5 2l27 49h-29z" />
    <glyph glyph-name="uni0137" unicode="&#x137;" horiz-adv-x="185" 
d="M76 700v-373q3 17 6.5 37t9 46t8.5 42l22 112h57l-51 -240l55 -324h-62l-33 217l-12 -35v-182h-60v700h60zM72 -81v56h54v-56l-47 -51l-5 2l27 49h-29z" />
    <glyph glyph-name="kgreenlandic" unicode="&#x138;" horiz-adv-x="185" 
d="M76 564v-237q3 17 6.5 37t9 46t8.5 42l22 112h57l-51 -240l55 -324h-62l-33 217l-12 -35v-182h-60v564h60z" />
    <glyph glyph-name="Lacute" unicode="&#x139;" horiz-adv-x="150" 
d="M17 0v700h69v-641h63v-59h-132zM31 718l30 70h57l-46 -70h-41z" />
    <glyph glyph-name="lacute" unicode="&#x13a;" horiz-adv-x="92" 
d="M76 0h-60v700h60v-700zM17 718l30 70h57l-46 -70h-41z" />
    <glyph glyph-name="uni013B" unicode="&#x13b;" horiz-adv-x="150" 
d="M17 0v700h69v-641h63v-59h-132zM57 -81v56h54v-56l-47 -51l-5 2l27 49h-29z" />
    <glyph glyph-name="uni013C" unicode="&#x13c;" horiz-adv-x="92" 
d="M76 0h-60v700h60v-700zM19 -81v56h54v-56l-47 -51l-5 2l27 49h-29z" />
    <glyph glyph-name="Lcaron" unicode="&#x13d;" horiz-adv-x="170" 
d="M109 626v74h55v-74l-50 -58l-5 3l30 55h-30zM17 0v700h69v-641h63v-59h-132z" />
    <glyph glyph-name="lcaron" unicode="&#x13e;" horiz-adv-x="159" 
d="M97 626v74h54v-74l-49 -58l-5 3l30 55h-30zM76 0h-60v700h60v-700z" />
    <glyph glyph-name="Ldot" unicode="&#x13f;" horiz-adv-x="170" 
d="M109 329v73h55v-73h-55zM17 0v700h69v-641h63v-59h-132z" />
    <glyph glyph-name="ldot" unicode="&#x140;" horiz-adv-x="159" 
d="M97 314v73h54v-73h-54zM76 0h-60v700h60v-700z" />
    <glyph glyph-name="Lslash" unicode="&#x141;" horiz-adv-x="151" 
d="M18 0v220l-14 -14v60l14 14v420h68v-352l38 38v-61l-38 -38v-228h64v-59h-132z" />
    <glyph glyph-name="lslash" unicode="&#x142;" horiz-adv-x="94" 
d="M77 -4h-60v257l-23 -23v53l23 23v390h60v-331l23 23v-53l-23 -23v-316z" />
    <glyph glyph-name="Nacute" unicode="&#x143;" horiz-adv-x="223" 
d="M148 700h58v-700h-73l-42 310q-9 67 -21 174q0 -17 3 -82t3 -93v-309h-59v700h85l32 -232q3 -22 10 -86.5t10 -88.5q0 15 -3 82t-3 95v230zM82 718l30 70h57l-46 -70h-41z" />
    <glyph glyph-name="nacute" unicode="&#x144;" horiz-adv-x="189" 
d="M76 0h-60v564h56v-33q10 40 50 40q52 0 52 -67v-504h-60v498q0 21 -18 21q-20 0 -20 -22v-497zM65 589l30 70h57l-46 -70h-41z" />
    <glyph glyph-name="uni0145" unicode="&#x145;" horiz-adv-x="223" 
d="M148 700h58v-700h-73l-42 310q-9 67 -21 174q0 -17 3 -82t3 -93v-309h-59v700h85l32 -232q3 -22 10 -86.5t10 -88.5q0 15 -3 82t-3 95v230zM84 -81v56h54v-56l-47 -51l-5 2l27 49h-29z" />
    <glyph glyph-name="uni0146" unicode="&#x146;" horiz-adv-x="189" 
d="M76 0h-60v564h56v-33q10 40 50 40q52 0 52 -67v-504h-60v498q0 21 -18 21q-20 0 -20 -22v-497zM69 -81v56h54v-56l-47 -51l-5 2l27 49h-29z" />
    <glyph glyph-name="Ncaron" unicode="&#x147;" horiz-adv-x="223" 
d="M148 700h58v-700h-73l-42 310q-9 67 -21 174q0 -17 3 -82t3 -93v-309h-59v700h85l32 -232q3 -22 10 -86.5t10 -88.5q0 15 -3 82t-3 95v230zM112 756l23 32h42l-42 -70h-47l-41 70h42z" />
    <glyph glyph-name="ncaron" unicode="&#x148;" horiz-adv-x="189" 
d="M76 0h-60v564h56v-33q10 40 50 40q52 0 52 -67v-504h-60v498q0 21 -18 21q-20 0 -20 -22v-497zM94 627l23 32h42l-42 -70h-47l-41 70h42z" />
    <glyph glyph-name="napostrophe" unicode="&#x149;" horiz-adv-x="243" 
d="M15 626v74h54v-74l-50 -58l-5 3l30 55h-29zM129 0h-60v564h56v-33q10 40 50 40q52 0 52 -67v-504h-60v498q0 21 -18 21q-20 0 -20 -22v-497z" />
    <glyph glyph-name="Omacron" unicode="&#x14c;" horiz-adv-x="205" 
d="M14 85v530q0 92 88 92q89 0 89 -92v-530q0 -92 -89 -92q-88 0 -88 92zM82 75q0 -23 20 -23q21 0 21 23v550q0 23 -21 23q-20 0 -20 -23v-550zM162 724h-121v42h121v-42z" />
    <glyph glyph-name="omacron" unicode="&#x14d;" 
d="M171 75q0 -82 -78 -82q-79 0 -79 82v414q0 82 79 82q78 0 78 -82v-414zM111 498q0 21 -18 21q-19 0 -19 -21v-432q0 -21 19 -21q18 0 18 21v432zM153 595h-121v42h121v-42z" />
    <glyph glyph-name="Obreve" unicode="&#x14e;" horiz-adv-x="205" 
d="M14 85v530q0 92 88 92q89 0 89 -92v-530q0 -92 -89 -92q-88 0 -88 92zM82 75q0 -23 20 -23q21 0 21 23v550q0 23 -21 23q-20 0 -20 -23v-550zM103 757q26 0 26 29h34q0 -68 -60 -68q-61 0 -61 68h34q0 -29 27 -29z" />
    <glyph glyph-name="obreve" unicode="&#x14f;" 
d="M171 75q0 -82 -78 -82q-79 0 -79 82v414q0 82 79 82q78 0 78 -82v-414zM111 498q0 21 -18 21q-19 0 -19 -21v-432q0 -21 19 -21q18 0 18 21v432zM93 628q26 0 26 29h34q0 -68 -60 -68q-61 0 -61 68h34q0 -29 27 -29z" />
    <glyph glyph-name="Ohungarumlaut" unicode="&#x150;" horiz-adv-x="205" 
d="M14 85v530q0 92 88 92q89 0 89 -92v-530q0 -92 -89 -92q-88 0 -88 92zM82 75q0 -23 20 -23q21 0 21 23v550q0 23 -21 23q-20 0 -20 -23v-550zM109 718l27 70h51l-41 -70h-37zM43 718l27 70h51l-41 -70h-37z" />
    <glyph glyph-name="ohungarumlaut" unicode="&#x151;" 
d="M171 75q0 -82 -78 -82q-79 0 -79 82v414q0 82 79 82q78 0 78 -82v-414zM111 498q0 21 -18 21q-19 0 -19 -21v-432q0 -21 19 -21q18 0 18 21v432zM99 589l27 70h51l-41 -70h-37zM33 589l27 70h51l-41 -70h-37z" />
    <glyph glyph-name="OE" unicode="&#x152;" horiz-adv-x="268" 
d="M191 335v-276h68v-59h-155q-89 0 -89 85v530q0 85 89 85h154v-59h-67v-246h56v-60h-56zM123 59v582h-17q-22 0 -22 -24v-534q0 -24 22 -24h17z" />
    <glyph glyph-name="oe" unicode="&#x153;" horiz-adv-x="279" 
d="M209 236h56v-161q0 -82 -70 -82q-38 0 -54 25q-18 -25 -54 -25q-73 0 -73 82v414q0 82 73 82q36 0 54 -25q16 25 54 25q70 0 70 -82v-216h-94v-207q0 -21 19 -21t19 21v170zM111 66v432q0 21 -18 21q-19 0 -19 -21v-432q0 -21 19 -21q18 0 18 21zM171 323h38v175
q0 21 -19 21t-19 -21v-175z" />
    <glyph glyph-name="Racute" unicode="&#x154;" horiz-adv-x="212" 
d="M94 320h-8v-320h-69v700h88q88 0 88 -85v-196q0 -57 -37 -70q37 -15 37 -70v-153q0 -98 13 -126h-72q-9 22 -9 66v211q0 25 -7 34t-24 9zM86 379h16q23 0 23 22v216q0 24 -23 24h-16v-262zM70 718l30 70h57l-46 -70h-41z" />
    <glyph glyph-name="racute" unicode="&#x155;" horiz-adv-x="178" 
d="M76 0h-60v564h56v-33q9 40 50 40q46 0 46 -67v-256h-55v250q0 21 -17 21q-20 0 -20 -22v-497zM62 589l30 70h57l-46 -70h-41z" />
    <glyph glyph-name="uni0156" unicode="&#x156;" horiz-adv-x="212" 
d="M94 320h-8v-320h-69v700h88q88 0 88 -85v-196q0 -57 -37 -70q37 -15 37 -70v-153q0 -98 13 -126h-72q-9 22 -9 66v211q0 25 -7 34t-24 9zM86 379h16q23 0 23 22v216q0 24 -23 24h-16v-262zM80 -81v56h54v-56l-47 -51l-5 2l27 49h-29z" />
    <glyph glyph-name="uni0157" unicode="&#x157;" horiz-adv-x="178" 
d="M76 0h-60v564h56v-33q9 40 50 40q46 0 46 -67v-256h-55v250q0 21 -17 21q-20 0 -20 -22v-497zM19 -81v56h54v-56l-47 -51l-5 2l27 49h-29z" />
    <glyph glyph-name="Rcaron" unicode="&#x158;" horiz-adv-x="212" 
d="M94 320h-8v-320h-69v700h88q88 0 88 -85v-196q0 -57 -37 -70q37 -15 37 -70v-153q0 -98 13 -126h-72q-9 22 -9 66v211q0 25 -7 34t-24 9zM86 379h16q23 0 23 22v216q0 24 -23 24h-16v-262zM100 756l23 32h42l-42 -70h-47l-41 70h42z" />
    <glyph glyph-name="rcaron" unicode="&#x159;" horiz-adv-x="178" 
d="M76 0h-60v564h56v-33q9 40 50 40q46 0 46 -67v-256h-55v250q0 21 -17 21q-20 0 -20 -22v-497zM92 627l23 32h42l-42 -70h-47l-41 70h42z" />
    <glyph glyph-name="Sacute" unicode="&#x15a;" horiz-adv-x="197" 
d="M76 260v-185q0 -23 20 -23t20 23v99q0 55 -16 103t-35.5 78.5t-35.5 83.5t-16 118v58q0 92 85 92q86 0 86 -92v-154h-64v164q0 23 -19 23q-20 0 -20 -23v-77q0 -56 16 -103.5t35.5 -78t35.5 -83.5t16 -118v-80q0 -92 -86 -92q-85 0 -85 92v175h63zM68 718l30 70h57
l-46 -70h-41z" />
    <glyph glyph-name="sacute" unicode="&#x15b;" horiz-adv-x="178" 
d="M105 66v74q0 40 -14.5 77.5t-31.5 62.5t-31.5 66.5t-14.5 89.5v53q0 82 77 82q75 0 75 -82v-129h-56v138q0 21 -18 21t-18 -21v-65q0 -50 23 -94.5t46 -93t23 -109.5v-61q0 -82 -77 -82q-75 0 -75 82v141h56v-150q0 -21 18 -21t18 21zM59 589l30 70h57l-46 -70h-41z" />
    <glyph glyph-name="Scircumflex" unicode="&#x15c;" horiz-adv-x="197" 
d="M76 260v-185q0 -23 20 -23t20 23v99q0 55 -16 103t-35.5 78.5t-35.5 83.5t-16 118v58q0 92 85 92q86 0 86 -92v-154h-64v164q0 23 -19 23q-20 0 -20 -23v-77q0 -56 16 -103.5t35.5 -78t35.5 -83.5t16 -118v-80q0 -92 -86 -92q-85 0 -85 92v175h63zM121 718l-23 31
l-23 -31h-42l41 70h47l42 -70h-42z" />
    <glyph glyph-name="scircumflex" unicode="&#x15d;" horiz-adv-x="178" 
d="M105 66v74q0 40 -14.5 77.5t-31.5 62.5t-31.5 66.5t-14.5 89.5v53q0 82 77 82q75 0 75 -82v-129h-56v138q0 21 -18 21t-18 -21v-65q0 -50 23 -94.5t46 -93t23 -109.5v-61q0 -82 -77 -82q-75 0 -75 82v141h56v-150q0 -21 18 -21t18 21zM112 589l-23 31l-23 -31h-42l41 70
h47l42 -70h-42z" />
    <glyph glyph-name="Scedilla" unicode="&#x15e;" horiz-adv-x="197" 
d="M109 -62q0 24 -29 20v37q-67 8 -67 90v175h63v-185q0 -23 20 -23t20 23v99q0 55 -16 103t-35.5 78.5t-35.5 83.5t-16 118v58q0 92 85 92q86 0 86 -92v-154h-64v164q0 23 -19 23q-20 0 -20 -23v-77q0 -56 16 -103.5t35.5 -78t35.5 -83.5t16 -118v-80q0 -89 -81 -92v-20
q53 0 53 -34q0 -17 -18 -28.5t-44 -11.5q-28 0 -43 10t-13 30h38q-3 -18 17 -18q16 0 16 17z" />
    <glyph glyph-name="scedilla" unicode="&#x15f;" horiz-adv-x="178" 
d="M98 -62q0 24 -29 20v37q-56 9 -56 80v141h56v-150q0 -21 18 -21t18 21v74q0 40 -14.5 77.5t-31.5 62.5t-31.5 66.5t-14.5 89.5v53q0 82 77 82q75 0 75 -82v-129h-56v138q0 21 -18 21t-18 -21v-65q0 -50 23 -94.5t46 -93t23 -109.5v-61q0 -79 -73 -82v-20q53 0 53 -34
q0 -17 -18 -28.5t-44 -11.5q-28 0 -43 10t-13 30h38q-3 -18 17 -18q16 0 16 17z" />
    <glyph glyph-name="Scaron" unicode="&#x160;" horiz-adv-x="197" 
d="M76 260v-185q0 -23 20 -23t20 23v99q0 55 -16 103t-35.5 78.5t-35.5 83.5t-16 118v58q0 92 85 92q86 0 86 -92v-154h-64v164q0 23 -19 23q-20 0 -20 -23v-77q0 -56 16 -103.5t35.5 -78t35.5 -83.5t16 -118v-80q0 -92 -86 -92q-85 0 -85 92v175h63zM98 756l23 32h42
l-42 -70h-47l-41 70h42z" />
    <glyph glyph-name="scaron" unicode="&#x161;" horiz-adv-x="178" 
d="M105 66v74q0 40 -14.5 77.5t-31.5 62.5t-31.5 66.5t-14.5 89.5v53q0 82 77 82q75 0 75 -82v-129h-56v138q0 21 -18 21t-18 -21v-65q0 -50 23 -94.5t46 -93t23 -109.5v-61q0 -82 -77 -82q-75 0 -75 82v141h56v-150q0 -21 18 -21t18 21zM89 627l23 32h42l-42 -70h-47
l-41 70h42z" />
    <glyph glyph-name="uni0162" unicode="&#x162;" horiz-adv-x="164" 
d="M96 -62q0 24 -29 20v42h-19v641h-47v59h162v-59h-47v-641h-26v-27q53 0 53 -34q0 -17 -18 -28.5t-44 -11.5q-28 0 -43 10t-13 30h38q-3 -18 17 -18q16 0 16 17z" />
    <glyph glyph-name="uni0163" unicode="&#x163;" horiz-adv-x="116" 
d="M73 -62q0 24 -29 20v44q-22 13 -22 52v460h-18v50h18v88h61v-88h30v-50h-30v-451q0 -16 14 -16q4 0 16 2v-49q-17 -5 -34 -5q-8 0 -12 1v-23q53 0 53 -34q0 -17 -18 -28.5t-44 -11.5q-28 0 -43 10t-13 30h38q-3 -18 17 -18q16 0 16 17z" />
    <glyph glyph-name="Tcaron" unicode="&#x164;" horiz-adv-x="164" 
d="M163 700v-59h-47v-641h-68v641h-47v59h162zM82 756l23 32h42l-42 -70h-47l-41 70h42z" />
    <glyph glyph-name="tcaron" unicode="&#x165;" horiz-adv-x="194" 
d="M126 626v74h55v-74l-50 -58l-5 3l30 55h-30zM79 -5q-30 0 -43.5 13.5t-13.5 45.5v460h-18v50h18v88h61v-88h30v-50h-30v-451q0 -16 14 -16q4 0 16 2v-49q-17 -5 -34 -5z" />
    <glyph glyph-name="Tbar" unicode="&#x166;" horiz-adv-x="164" 
d="M163 700v-59h-47v-101h27v-49h-27v-491h-68v491h-26v49h26v101h-47v59h162z" />
    <glyph glyph-name="tbar" unicode="&#x167;" horiz-adv-x="116" 
d="M79 -5q-30 0 -43.5 13.5t-13.5 45.5v380h-18v42h18v38h-18v50h18v88h61v-88h30v-50h-30v-38h30v-42h-30v-371q0 -16 14 -16q4 0 16 2v-49q-17 -5 -34 -5z" />
    <glyph glyph-name="Utilde" unicode="&#x168;" horiz-adv-x="204" 
d="M84 75q0 -23 20 -23t20 23v625h64v-619q0 -88 -86 -88t-86 88v619h68v-625zM137 780h30q0 -56 -39 -56q-12 0 -27.5 6.5t-22.5 6.5q-10 0 -12 -15h-30q0 56 40 56q12 0 27 -6.5t22 -6.5q12 0 12 15z" />
    <glyph glyph-name="utilde" unicode="&#x169;" horiz-adv-x="189" 
d="M113 67v497h60v-487q0 -49 6 -77h-56q-5 8 -7 26q-14 -33 -49 -33q-51 0 -51 67v504h60v-498q0 -21 17 -21q20 0 20 22zM130 651h30q0 -56 -39 -56q-12 0 -27.5 6.5t-22.5 6.5q-10 0 -12 -15h-30q0 56 40 56q12 0 27 -6.5t22 -6.5q12 0 12 15z" />
    <glyph glyph-name="Umacron" unicode="&#x16a;" horiz-adv-x="204" 
d="M84 75q0 -23 20 -23t20 23v625h64v-619q0 -88 -86 -88t-86 88v619h68v-625zM162 724h-121v42h121v-42z" />
    <glyph glyph-name="umacron" unicode="&#x16b;" horiz-adv-x="189" 
d="M113 67v497h60v-487q0 -49 6 -77h-56q-5 8 -7 26q-14 -33 -49 -33q-51 0 -51 67v504h60v-498q0 -21 17 -21q20 0 20 22zM155 595h-121v42h121v-42z" />
    <glyph glyph-name="Ubreve" unicode="&#x16c;" horiz-adv-x="204" 
d="M84 75q0 -23 20 -23t20 23v625h64v-619q0 -88 -86 -88t-86 88v619h68v-625zM102 757q26 0 26 29h34q0 -68 -60 -68q-61 0 -61 68h34q0 -29 27 -29z" />
    <glyph glyph-name="ubreve" unicode="&#x16d;" horiz-adv-x="189" 
d="M113 67v497h60v-487q0 -49 6 -77h-56q-5 8 -7 26q-14 -33 -49 -33q-51 0 -51 67v504h60v-498q0 -21 17 -21q20 0 20 22zM94 628q26 0 26 29h34q0 -68 -60 -68q-61 0 -61 68h34q0 -29 27 -29z" />
    <glyph glyph-name="Uring" unicode="&#x16e;" horiz-adv-x="204" 
d="M84 75q0 -23 20 -23t20 23v625h64v-619q0 -88 -86 -88t-86 88v619h68v-625zM61 757q0 18 12 29.5t29 11.5t28.5 -11.5t11.5 -29.5t-11.5 -29.5t-28.5 -11.5q-18 0 -29.5 11.5t-11.5 29.5zM88 757q0 -15 14 -15t14 15t-14 15t-14 -15z" />
    <glyph glyph-name="uring" unicode="&#x16f;" horiz-adv-x="189" 
d="M113 67v497h60v-487q0 -49 6 -77h-56q-5 8 -7 26q-14 -33 -49 -33q-51 0 -51 67v504h60v-498q0 -21 17 -21q20 0 20 22zM53 628q0 18 12 29.5t29 11.5t28.5 -11.5t11.5 -29.5t-11.5 -29.5t-28.5 -11.5q-18 0 -29.5 11.5t-11.5 29.5zM80 628q0 -15 14 -15t14 15t-14 15
t-14 -15z" />
    <glyph glyph-name="Uhungarumlaut" unicode="&#x170;" horiz-adv-x="204" 
d="M84 75q0 -23 20 -23t20 23v625h64v-619q0 -88 -86 -88t-86 88v619h68v-625zM109 718l27 70h51l-41 -70h-37zM43 718l27 70h51l-41 -70h-37z" />
    <glyph glyph-name="uhungarumlaut" unicode="&#x171;" horiz-adv-x="189" 
d="M113 67v497h60v-487q0 -49 6 -77h-56q-5 8 -7 26q-14 -33 -49 -33q-51 0 -51 67v504h60v-498q0 -21 17 -21q20 0 20 22zM101 589l27 70h51l-41 -70h-37zM35 589l27 70h51l-41 -70h-37z" />
    <glyph glyph-name="Uogonek" unicode="&#x172;" horiz-adv-x="204" 
d="M179 -74v-22q-18 -5 -38 -5q-21 0 -36 11t-15 31q0 33 33 54q-14 -2 -21 -2q-86 0 -86 88v619h68v-625q0 -23 20 -23t20 23v625h64v-619q0 -58 -37 -78q-16 -19 -16 -54q0 -26 23 -26q9 0 21 3z" />
    <glyph glyph-name="uogonek" unicode="&#x173;" horiz-adv-x="189" 
d="M176 -74v-22q-18 -5 -38 -5q-21 0 -36 10.5t-15 30.5q0 37 36 60q-5 8 -7 26q-14 -33 -49 -33q-51 0 -51 67v504h60v-498q0 -21 17 -21q20 0 20 22v497h60v-487q0 -49 6 -77h-24q-23 -26 -23 -52q0 -25 23 -25q9 0 21 3z" />
    <glyph glyph-name="Wcircumflex" unicode="&#x174;" horiz-adv-x="299" 
d="M173 718l-23 31l-23 -31h-42l41 70h47l42 -70h-42zM251 0h-79l-14 219q-2 30 -9 192q-4 -141 -8 -192l-14 -219h-77l-46 700h69l16 -234q2 -32 5 -104t5 -104q5 163 8 208l16 234h61l15 -234q2 -32 5 -104t5 -104q1 24 3.5 98t4.5 110l16 234h63z" />
    <glyph glyph-name="wcircumflex" unicode="&#x175;" horiz-adv-x="286" 
d="M180 564l15 -196q4 -57 6 -131t3 -89q9 214 9 220l15 196h54l-43 -564h-75l-14 186q-2 26 -4 85.5t-3 85.5q-1 -26 -3 -85.5t-4 -85.5l-14 -186h-75l-43 564h62l14 -196q1 -9 9 -220q1 18 3.5 90t5.5 127l14 199h68zM166 589l-23 31l-23 -31h-42l41 70h47l42 -70h-42z
" />
    <glyph glyph-name="Ycircumflex" unicode="&#x176;" horiz-adv-x="204" 
d="M117 511l21 189h63l-65 -483v-217h-68v217l-64 483h69l21 -189q7 -65 12 -144q3 72 11 144zM125 718l-23 31l-23 -31h-42l41 70h47l42 -70h-42z" />
    <glyph glyph-name="ycircumflex" unicode="&#x177;" horiz-adv-x="178" 
d="M43 -49q17 0 17 25q0 15 -1 24l-55 564h62l15 -194q8 -118 11 -219q1 18 2.5 61t3.5 83t5 74l16 195h55l-52 -601q-8 -64 -67 -64q-24 0 -37 5v51q18 -4 25 -4zM116 589l-23 31l-23 -31h-42l41 70h47l42 -70h-42z" />
    <glyph glyph-name="Ydieresis" unicode="&#x178;" horiz-adv-x="204" 
d="M117 511l21 189h63l-65 -483v-217h-68v217l-64 483h69l21 -189q7 -65 12 -144q3 72 11 144zM91 722h-54v56h54v-56zM167 722h-54v56h54v-56z" />
    <glyph glyph-name="Zacute" unicode="&#x179;" horiz-adv-x="171" 
d="M11 641v59h152v-43l-84 -598h84v-59h-155v43l84 598h-81zM60 718l30 70h57l-46 -70h-41z" />
    <glyph glyph-name="zacute" unicode="&#x17a;" horiz-adv-x="158" 
d="M13 514v50h138v-44l-83 -470h83v-50h-144v44l82 470h-76zM54 589l30 70h57l-46 -70h-41z" />
    <glyph glyph-name="Zdotaccent" unicode="&#x17b;" horiz-adv-x="171" 
d="M11 641v59h152v-43l-84 -598h84v-59h-155v43l84 598h-81zM113 722h-54v56h54v-56z" />
    <glyph glyph-name="zdotaccent" unicode="&#x17c;" horiz-adv-x="158" 
d="M13 514v50h138v-44l-83 -470h83v-50h-144v44l82 470h-76zM106 593h-54v56h54v-56z" />
    <glyph glyph-name="Zcaron" unicode="&#x17d;" horiz-adv-x="171" 
d="M11 641v59h152v-43l-84 -598h84v-59h-155v43l84 598h-81zM86 756l23 32h42l-42 -70h-47l-41 70h42z" />
    <glyph glyph-name="zcaron" unicode="&#x17e;" horiz-adv-x="158" 
d="M13 514v50h138v-44l-83 -470h83v-50h-144v44l82 470h-76zM79 627l23 32h42l-42 -70h-47l-41 70h42z" />
    <glyph glyph-name="florin" unicode="&#x192;" 
d="M47 418l4 50h19l15 178q6 61 63 61q21 0 35 -7l-4 -50q-6 3 -17 3q-17 0 -18 -18l-14 -167h33l-4 -50h-34l-44 -514h-60l44 514h-18z" />
    <glyph glyph-name="AEacute" unicode="&#x1fc;" horiz-adv-x="265" 
d="M119 0v80h-44l-10 -80h-63l85 700h168v-59h-67v-246h56v-60h-56v-276h68v-59h-137zM90 207l-8 -67h37v113q0 102 3 263q-16 -180 -32 -309zM102 718l30 70h57l-46 -70h-41z" />
    <glyph glyph-name="aeacute" unicode="&#x1fd;" horiz-adv-x="277" 
d="M12 60v130q0 38 10 65t24 41.5t28.5 26t24.5 28.5t10 40v107q0 21 -17 21q-18 0 -18 -21v-149h-56v141q0 81 68 81q35 0 52 -23q18 23 54 23q70 0 70 -82v-216h-93v-207q0 -21 19 -21q18 0 18 21v166h56v-157q0 -82 -75 -82q-58 0 -73 45q-3 -19 -17 -32t-34 -13
q-51 0 -51 67zM109 67v219q-1 -2 -8 -9.5t-9.5 -10.5t-7.5 -11.5t-6.5 -15.5t-3.5 -18.5t-2 -25.5v-129q0 -21 17 -21q20 0 20 22zM169 498v-175h37v175q0 21 -18 21q-19 0 -19 -21zM108 589l30 70h57l-46 -70h-41z" />
    <glyph glyph-name="Oslashacute" unicode="&#x1fe;" horiz-adv-x="205" 
d="M14 85v530q0 92 88 92q17 0 34 -5l6 33l48 -7l-10 -59q11 -22 11 -54v-530q0 -92 -89 -92q-17 0 -34 5l-5 -33l-47 7l9 58q-11 22 -11 55zM82 625v-283l41 278v5q0 23 -21 23q-20 0 -20 -23zM82 75q0 -23 20 -23q21 0 21 23v280l-41 -277v-3zM72 718l30 70h57l-46 -70
h-41z" />
    <glyph glyph-name="oslashacute" unicode="&#x1ff;" 
d="M171 75q0 -82 -78 -82q-18 0 -30 4l-6 -32l-43 7l10 55q-10 19 -10 48v414q0 82 79 82q12 0 30 -4l6 31l42 -7l-10 -54q10 -22 10 -48v-414zM74 498v-229l37 232q-1 18 -18 18q-19 0 -19 -21zM93 45q18 0 18 21v225l-37 -232q3 -14 19 -14zM63 589l30 70h57l-46 -70h-41z
" />
    <glyph glyph-name="uni0218" unicode="&#x218;" horiz-adv-x="197" 
d="M76 260v-185q0 -23 20 -23t20 23v99q0 55 -16 103t-35.5 78.5t-35.5 83.5t-16 118v58q0 92 85 92q86 0 86 -92v-154h-64v164q0 23 -19 23q-20 0 -20 -23v-77q0 -56 16 -103.5t35.5 -78t35.5 -83.5t16 -118v-80q0 -92 -86 -92q-85 0 -85 92v175h63zM71 -81v56h54v-56
l-47 -51l-5 2l27 49h-29z" />
    <glyph glyph-name="uni0219" unicode="&#x219;" horiz-adv-x="178" 
d="M105 66v74q0 40 -14.5 77.5t-31.5 62.5t-31.5 66.5t-14.5 89.5v53q0 82 77 82q75 0 75 -82v-129h-56v138q0 21 -18 21t-18 -21v-65q0 -50 23 -94.5t46 -93t23 -109.5v-61q0 -82 -77 -82q-75 0 -75 82v141h56v-150q0 -21 18 -21t18 21zM62 -81v56h54v-56l-47 -51l-5 2
l27 49h-29z" />
    <glyph glyph-name="uni021A" unicode="&#x21a;" horiz-adv-x="164" 
d="M163 700v-59h-47v-641h-68v641h-47v59h162zM55 -81v56h54v-56l-47 -51l-5 2l27 49h-29z" />
    <glyph glyph-name="uni021B" unicode="&#x21b;" horiz-adv-x="116" 
d="M32 -105v80h60v-80l-54 -64l-5 3l32 61h-33zM79 -5q-30 0 -43.5 13.5t-13.5 45.5v460h-18v50h18v88h61v-88h30v-50h-30v-451q0 -16 14 -16q4 0 16 2v-49q-17 -5 -34 -5z" />
    <glyph glyph-name="uni0237" unicode="&#x237;" horiz-adv-x="92" 
d="M22 -101q-13 0 -25 3v51q6 -2 10 -2q9 0 9 13v600h60v-611q0 -29 -12.5 -41.5t-41.5 -12.5z" />
    <glyph glyph-name="circumflex" unicode="&#x2c6;" horiz-adv-x="146" 
d="M96 589l-23 31l-23 -31h-42l41 70h47l42 -70h-42z" />
    <glyph glyph-name="caron" unicode="&#x2c7;" horiz-adv-x="146" 
d="M73 627l23 32h42l-42 -70h-47l-41 70h42z" />
    <glyph glyph-name="breve" unicode="&#x2d8;" horiz-adv-x="146" 
d="M73 628q26 0 26 29h34q0 -68 -60 -68q-61 0 -61 68h34q0 -29 27 -29z" />
    <glyph glyph-name="dotaccent" unicode="&#x2d9;" horiz-adv-x="146" 
d="M100 593h-54v56h54v-56z" />
    <glyph glyph-name="ring" unicode="&#x2da;" horiz-adv-x="146" 
d="M32 628q0 18 12 29.5t29 11.5t28.5 -11.5t11.5 -29.5t-11.5 -29.5t-28.5 -11.5q-18 0 -29.5 11.5t-11.5 29.5zM59 628q0 -15 14 -15t14 15t-14 15t-14 -15z" />
    <glyph glyph-name="ogonek" unicode="&#x2db;" horiz-adv-x="146" 
d="M117 -74v-22q-18 -5 -36 -5q-53 0 -53 38q0 39 49 63h36q-39 -11 -39 -50q0 -27 22 -27q9 0 21 3z" />
    <glyph glyph-name="tilde" unicode="&#x2dc;" horiz-adv-x="146" 
d="M108 651h30q0 -56 -39 -56q-12 0 -27.5 6.5t-22.5 6.5q-10 0 -12 -15h-30q0 56 40 56q12 0 27 -6.5t22 -6.5q12 0 12 15z" />
    <glyph glyph-name="hungarumlaut" unicode="&#x2dd;" horiz-adv-x="146" 
d="M67 589l27 70h51l-41 -70h-37zM1 589l27 70h51l-41 -70h-37z" />
    <glyph glyph-name="pi" unicode="&#x3c0;" horiz-adv-x="190" 
d="M76 514v-514h-60v564h158v-564h-60v514h-38z" />
    <glyph glyph-name="uni1E02" unicode="&#x1e02;" horiz-adv-x="208" 
d="M17 700h88q85 0 85 -85v-180q0 -57 -35 -71q38 -14 38 -69v-210q0 -85 -88 -85h-88v700zM102 335h-16v-276h16q23 0 23 24v230q0 22 -23 22zM86 395h16q23 0 23 22v200q0 24 -23 24h-16v-246zM127 722h-54v56h54v-56z" />
    <glyph glyph-name="uni1E03" unicode="&#x1e03;" horiz-adv-x="188" 
d="M76 497v-430q0 -22 20 -22q18 0 18 21v432q0 21 -18 21q-20 0 -20 -22zM16 700h60v-159q14 30 46 30q52 0 52 -67v-444q0 -67 -52 -67q-39 0 -50 39l-9 -32h-47v700zM74 722h-54v56h54v-56z" />
    <glyph glyph-name="uni1E0A" unicode="&#x1e0a;" horiz-adv-x="208" 
d="M17 0v700h87q89 0 89 -85v-530q0 -85 -89 -85h-87zM102 641h-16v-582h16q23 0 23 24v534q0 24 -23 24zM127 722h-54v56h54v-56z" />
    <glyph glyph-name="uni1E0B" unicode="&#x1e0b;" horiz-adv-x="188" 
d="M112 67v430q0 22 -20 22q-17 0 -17 -21v-432q0 -21 17 -21q20 0 20 22zM121 0q-4 9 -6 27q-14 -34 -49 -34q-51 0 -51 67v444q0 67 51 67q30 0 46 -28v157h60v-623q0 -49 6 -77h-57zM170 722h-54v56h54v-56z" />
    <glyph glyph-name="uni1E1E" unicode="&#x1e1e;" horiz-adv-x="151" 
d="M86 322v-322h-69v700h132v-59h-63v-260h53v-59h-53zM111 722h-54v56h54v-56z" />
    <glyph glyph-name="uni1E1F" unicode="&#x1e1f;" horiz-adv-x="115" 
d="M83 637v-73h33v-50h-33v-514h-60v514h-19v50h19v83q0 31 14 45.5t45 14.5q20 0 34 -7v-51q-8 5 -17 5q-16 0 -16 -17zM96 722h-54v56h54v-56z" />
    <glyph glyph-name="uni1E40" unicode="&#x1e40;" horiz-adv-x="286" 
d="M143 316q5 99 11 174l19 210h95v-700h-66v261q0 14 6 275q-4 -44 -11.5 -137.5t-10.5 -137.5l-25 -261h-46l-24 261q-4 39 -7.5 86t-8 103t-6.5 86q0 -37 3 -132.5t3 -142.5v-261h-58v700h97l20 -210q7 -74 9 -174zM170 722h-54v56h54v-56z" />
    <glyph glyph-name="uni1E41" unicode="&#x1e41;" horiz-adv-x="284" 
d="M76 0h-60v564h56v-33q9 40 50 40q36 0 46 -36q13 36 50 36q50 0 50 -67v-504h-60v498q0 21 -16 21q-20 0 -20 -22v-497h-60v498q0 21 -16 21q-20 0 -20 -22v-497zM169 593h-54v56h54v-56z" />
    <glyph glyph-name="uni1E56" unicode="&#x1e56;" horiz-adv-x="202" 
d="M86 291v-291h-69v700h87q89 0 89 -85v-239q0 -85 -89 -85h-18zM102 641h-16v-290h16q22 0 22 23v243q0 24 -22 24zM123 722h-54v56h54v-56z" />
    <glyph glyph-name="uni1E57" unicode="&#x1e57;" horiz-adv-x="188" 
d="M76 497v-430q0 -22 20 -22q18 0 18 21v432q0 21 -18 21q-20 0 -20 -22zM76 -96h-60v660h56v-33q10 40 50 40q52 0 52 -67v-444q0 -67 -52 -67q-32 0 -46 29v-118zM121 593h-54v56h54v-56z" />
    <glyph glyph-name="uni1E60" unicode="&#x1e60;" horiz-adv-x="197" 
d="M76 260v-185q0 -23 20 -23t20 23v99q0 55 -16 103t-35.5 78.5t-35.5 83.5t-16 118v58q0 92 85 92q86 0 86 -92v-154h-64v164q0 23 -19 23q-20 0 -20 -23v-77q0 -56 16 -103.5t35.5 -78t35.5 -83.5t16 -118v-80q0 -92 -86 -92q-85 0 -85 92v175h63zM125 722h-54v56h54v-56
z" />
    <glyph glyph-name="uni1E61" unicode="&#x1e61;" horiz-adv-x="178" 
d="M105 66v74q0 40 -14.5 77.5t-31.5 62.5t-31.5 66.5t-14.5 89.5v53q0 82 77 82q75 0 75 -82v-129h-56v138q0 21 -18 21t-18 -21v-65q0 -50 23 -94.5t46 -93t23 -109.5v-61q0 -82 -77 -82q-75 0 -75 82v141h56v-150q0 -21 18 -21t18 21zM116 593h-54v56h54v-56z" />
    <glyph glyph-name="uni1E6A" unicode="&#x1e6a;" horiz-adv-x="164" 
d="M163 700v-59h-47v-641h-68v641h-47v59h162zM109 722h-54v56h54v-56z" />
    <glyph glyph-name="uni1E6B" unicode="&#x1e6b;" horiz-adv-x="116" 
d="M79 -5q-30 0 -43.5 13.5t-13.5 45.5v460h-18v50h18v88h61v-88h30v-50h-30v-451q0 -16 14 -16q4 0 16 2v-49q-17 -5 -34 -5zM80 674h-54v56h54v-56z" />
    <glyph glyph-name="Wgrave" unicode="&#x1e80;" horiz-adv-x="299" 
d="M251 0h-79l-14 219q-2 30 -9 192q-4 -141 -8 -192l-14 -219h-77l-46 700h69l16 -234q2 -32 5 -104t5 -104q5 163 8 208l16 234h61l15 -234q2 -32 5 -104t5 -104q1 24 3.5 98t4.5 110l16 234h63zM149 788l30 -70h-41l-46 70h57z" />
    <glyph glyph-name="wgrave" unicode="&#x1e81;" horiz-adv-x="286" 
d="M180 564l15 -196q4 -57 6 -131t3 -89q9 214 9 220l15 196h54l-43 -564h-75l-14 186q-2 26 -4 85.5t-3 85.5q-1 -26 -3 -85.5t-4 -85.5l-14 -186h-75l-43 564h62l14 -196q1 -9 9 -220q1 18 3.5 90t5.5 127l14 199h68zM142 659l30 -70h-41l-46 70h57z" />
    <glyph glyph-name="Wacute" unicode="&#x1e82;" horiz-adv-x="299" 
d="M251 0h-79l-14 219q-2 30 -9 192q-4 -141 -8 -192l-14 -219h-77l-46 700h69l16 -234q2 -32 5 -104t5 -104q5 163 8 208l16 234h61l15 -234q2 -32 5 -104t5 -104q1 24 3.5 98t4.5 110l16 234h63zM119 718l30 70h57l-46 -70h-41z" />
    <glyph glyph-name="wacute" unicode="&#x1e83;" horiz-adv-x="286" 
d="M180 564l15 -196q4 -57 6 -131t3 -89q9 214 9 220l15 196h54l-43 -564h-75l-14 186q-2 26 -4 85.5t-3 85.5q-1 -26 -3 -85.5t-4 -85.5l-14 -186h-75l-43 564h62l14 -196q1 -9 9 -220q1 18 3.5 90t5.5 127l14 199h68zM113 589l30 70h57l-46 -70h-41z" />
    <glyph glyph-name="Wdieresis" unicode="&#x1e84;" horiz-adv-x="299" 
d="M251 0h-79l-14 219q-2 30 -9 192q-4 -141 -8 -192l-14 -219h-77l-46 700h69l16 -234q2 -32 5 -104t5 -104q5 163 8 208l16 234h61l15 -234q2 -32 5 -104t5 -104q1 24 3.5 98t4.5 110l16 234h63zM138 722h-54v56h54v-56zM214 722h-54v56h54v-56z" />
    <glyph glyph-name="wdieresis" unicode="&#x1e85;" horiz-adv-x="286" 
d="M180 564l15 -196q4 -57 6 -131t3 -89q9 214 9 220l15 196h54l-43 -564h-75l-14 186q-2 26 -4 85.5t-3 85.5q-1 -26 -3 -85.5t-4 -85.5l-14 -186h-75l-43 564h62l14 -196q1 -9 9 -220q1 18 3.5 90t5.5 127l14 199h68zM132 593h-54v56h54v-56zM208 593h-54v56h54v-56z" />
    <glyph glyph-name="Ygrave" unicode="&#x1ef2;" horiz-adv-x="204" 
d="M117 511l21 189h63l-65 -483v-217h-68v217l-64 483h69l21 -189q7 -65 12 -144q3 72 11 144zM102 788l30 -70h-41l-46 70h57z" />
    <glyph glyph-name="ygrave" unicode="&#x1ef3;" horiz-adv-x="178" 
d="M43 -49q17 0 17 25q0 15 -1 24l-55 564h62l15 -194q8 -118 11 -219q1 18 2.5 61t3.5 83t5 74l16 195h55l-52 -601q-8 -64 -67 -64q-24 0 -37 5v51q18 -4 25 -4zM93 659l30 -70h-41l-46 70h57z" />
    <glyph glyph-name="figuredash" unicode="&#x2012;" 
d="M186 308v-52h-186v52h186z" />
    <glyph glyph-name="endash" unicode="&#x2013;" horiz-adv-x="500" 
d="M500 308v-52h-500v52h500z" />
    <glyph glyph-name="emdash" unicode="&#x2014;" horiz-adv-x="1001" 
d="M1001 308v-52h-1000v52h1000z" />
    <glyph glyph-name="quoteleft" unicode="&#x2018;" horiz-adv-x="93" 
d="M77 636v-81h-60v81l54 64l5 -3l-32 -61h33z" />
    <glyph glyph-name="quoteright" unicode="&#x2019;" horiz-adv-x="93" 
d="M16 619v81h60v-81l-54 -64l-5 3l32 61h-33z" />
    <glyph glyph-name="quotesinglbase" unicode="&#x201a;" horiz-adv-x="93" 
d="M16 0v81h60v-81l-54 -64l-5 3l32 61h-33z" />
    <glyph glyph-name="quotedblleft" unicode="&#x201c;" horiz-adv-x="178" 
d="M163 636v-81h-60v81l54 64l5 -3l-32 -61h33zM77 636v-81h-60v81l54 64l5 -3l-32 -61h33z" />
    <glyph glyph-name="quotedblright" unicode="&#x201d;" horiz-adv-x="178" 
d="M101 619v81h60v-81l-54 -64l-5 3l32 61h-33zM16 619v81h60v-81l-54 -64l-5 3l32 61h-33z" />
    <glyph glyph-name="quotedblbase" unicode="&#x201e;" horiz-adv-x="178" 
d="M101 0v81h60v-81l-54 -64l-5 3l32 61h-33zM16 0v81h60v-81l-54 -64l-5 3l32 61h-33z" />
    <glyph glyph-name="dagger" unicode="&#x2020;" horiz-adv-x="203" 
d="M131 514v-564h-60v564h-67v50h67v136h60v-136h67v-50h-67z" />
    <glyph glyph-name="daggerdbl" unicode="&#x2021;" horiz-adv-x="203" 
d="M131 86v-136h-60v136h-67v50h67v378h-67v50h67v136h60v-136h67v-50h-67v-378h67v-50h-67z" />
    <glyph glyph-name="bullet" unicode="&#x2022;" horiz-adv-x="172" 
d="M21 350q0 27 19 46t46 19t46 -19t19 -46t-19 -46t-46 -19t-46 19t-19 46z" />
    <glyph glyph-name="ellipsis" unicode="&#x2026;" horiz-adv-x="263" 
d="M16 0v81h60v-81h-60zM101 0v81h60v-81h-60zM186 0v81h60v-81h-60z" />
    <glyph glyph-name="perthousand" unicode="&#x2030;" horiz-adv-x="456" 
d="M57 0l163 700h41l-163 -700h-41zM125 652v-284q0 -55 -56 -55t-56 55v284q0 55 56 55t56 -55zM81 364v292q0 14 -12 14t-12 -14v-292q0 -14 12 -14t12 14zM305 332v-284q0 -55 -56 -55t-56 55v284q0 55 56 55t56 -55zM261 44v292q0 14 -12 14t-12 -14v-292q0 -14 12 -14
t12 14zM443 332v-284q0 -55 -56 -55t-56 55v284q0 55 56 55t56 -55zM399 44v292q0 14 -12 14t-12 -14v-292q0 -14 12 -14t12 14z" />
    <glyph glyph-name="guilsinglleft" unicode="&#x2039;" horiz-adv-x="128" 
d="M7 282l55 282h59l-55 -282l55 -282h-59z" />
    <glyph glyph-name="guilsinglright" unicode="&#x203a;" horiz-adv-x="128" 
d="M66 564l55 -282l-55 -282h-59l55 282l-55 282h59z" />
    <glyph glyph-name="fraction" unicode="&#x2044;" 
d="M-9 0l163 700h41l-163 -700h-41z" />
    <glyph glyph-name="zerosuperior" unicode="&#x2070;" horiz-adv-x="138" 
d="M125 702v-284q0 -55 -56 -55t-56 55v284q0 55 56 55t56 -55zM81 414v292q0 14 -12 14t-12 -14v-292q0 -14 12 -14t12 14z" />
    <glyph glyph-name="foursuperior" unicode="&#x2074;" horiz-adv-x="138" 
d="M117 750v-252h12v-41h-12v-87h-43v87h-66v39l59 254h50zM57 566l-15 -68h32v61q0 50 7 125q-17 -87 -24 -118z" />
    <glyph glyph-name="zeroinferior" unicode="&#x2080;" horiz-adv-x="138" 
d="M125 292v-284q0 -55 -56 -55t-56 55v284q0 55 56 55t56 -55zM81 4v292q0 14 -12 14t-12 -14v-292q0 -14 12 -14t12 14z" />
    <glyph glyph-name="oneinferior" unicode="&#x2081;" horiz-adv-x="138" 
d="M34 322h20q23 0 28 18h21v-380h-43v320h-26v42z" />
    <glyph glyph-name="twoinferior" unicode="&#x2082;" horiz-adv-x="138" 
d="M55 295v-112h-40v109q0 55 54 55t54 -55v-70q0 -50 -33 -113t-33 -93v-14h66v-42h-109v48q0 43 33 107.5t33 103.5v76q0 15 -13 15q-12 0 -12 -15z" />
    <glyph glyph-name="threeinferior" unicode="&#x2083;" horiz-adv-x="138" 
d="M54 139v37h14q7 0 9.5 2.5t2.5 10.5v106q0 15 -12 15q-13 0 -13 -15v-92h-40v89q0 55 53 55q55 0 55 -55v-92q0 -36 -22 -43q22 -8 22 -43v-106q0 -55 -55 -55q-53 0 -53 55v104h40v-107q0 -15 13 -15q12 0 12 15v120q0 14 -12 14h-14z" />
    <glyph glyph-name="fourinferior" unicode="&#x2084;" horiz-adv-x="138" 
d="M117 340v-252h12v-41h-12v-87h-43v87h-66v39l59 254h50zM57 156l-15 -68h32v61q0 50 7 125q-17 -87 -24 -118z" />
    <glyph glyph-name="Euro" unicode="&#x20ac;" 
d="M1 304v33h14v26h-14v33h14v229q0 82 79 82q78 0 78 -82v-201h-60v210q0 21 -18 21q-19 0 -19 -21v-238h97v-33h-97v-26h97v-33h-97v-238q0 -21 19 -21q18 0 18 21v210h59l1 -201q0 -82 -78 -82q-79 0 -79 82v229h-14z" />
    <glyph glyph-name="numero" unicode="&#x2116;" horiz-adv-x="355" 
d="M149 700h58v-700h-73l-42 310q-9 67 -21 174q0 -17 3 -82t3 -93v-309h-59v700h85l32 -232q3 -22 10 -86.5t10 -88.5q0 15 -3 82t-3 95v230zM342 356q0 -58 -54 -58q-56 0 -56 58v293q0 58 56 58q54 0 54 -58v-293zM232 232v45h110v-45h-110zM299 655q0 15 -11 15
q-13 0 -13 -15v-305q0 -14 13 -14q11 0 11 14v305z" />
    <glyph glyph-name="uni2117" unicode="&#x2117;" horiz-adv-x="309" 
d="M14 350q0 202 29.5 279.5t110.5 77.5q82 0 111 -77.5t29 -279.5t-29 -279.5t-111 -77.5q-81 0 -110.5 77.5t-29.5 279.5zM47 350q0 -183 20.5 -255t86.5 -72t87 72t21 255t-21 255t-87 72t-86.5 -72t-20.5 -255zM100 587h61q57 0 57 -55v-176q0 -54 -57 -54h-15v-194h-46
v479zM146 548v-207h13q13 0 13 14v179q0 14 -13 14h-13z" />
    <glyph glyph-name="trademark" unicode="&#x2122;" horiz-adv-x="259" 
d="M209 337v117q0 17 3 170q-2 -24 -7 -80t-8 -90l-10 -117h-32l-9 117q-15 159 -16 170q2 -102 2 -170v-117h-31v363h58l7 -94q5 -50 8 -103q1 19 4 57t3 46l8 94h58v-363h-38zM0 668v32h88v-32h-25v-331h-38v331h-25z" />
    <glyph glyph-name="uni2126" unicode="&#x2126;" horiz-adv-x="205" 
d="M191 59v-59h-76v62q8 7 8 24v539q0 23 -21 23q-20 0 -20 -23v-541q0 -21 16 -24v-60h-84v59h41q-41 20 -41 82v474q0 92 88 92q89 0 89 -92v-474q0 -63 -36 -82h36z" />
    <glyph glyph-name="onethird" unicode="&#x2153;" horiz-adv-x="298" 
d="M38 0l163 700h41l-163 -700h-41zM14 682h20q23 0 28 18h21v-380h-43v320h-26v42zM215 179v37h14q7 0 9.5 2.5t2.5 10.5v106q0 15 -12 15q-13 0 -13 -15v-92h-40v89q0 55 53 55q55 0 55 -55v-92q0 -36 -22 -43q22 -8 22 -43v-106q0 -55 -55 -55q-53 0 -53 55v104h40v-107
q0 -15 13 -15q12 0 12 15v120q0 14 -12 14h-14z" />
    <glyph glyph-name="twothirds" unicode="&#x2154;" horiz-adv-x="318" 
d="M58 0l163 700h41l-163 -700h-41zM55 655v-112h-40v109q0 55 54 55t54 -55v-70q0 -50 -33 -113t-33 -93v-14h66v-42h-109v48q0 43 33 107.5t33 103.5v76q0 15 -13 15q-12 0 -12 -15zM235 179v37h14q7 0 9.5 2.5t2.5 10.5v106q0 15 -12 15q-13 0 -13 -15v-92h-40v89
q0 55 53 55q55 0 55 -55v-92q0 -36 -22 -43q22 -8 22 -43v-106q0 -55 -55 -55q-53 0 -53 55v104h40v-107q0 -15 13 -15q12 0 12 15v120q0 14 -12 14h-14z" />
    <glyph glyph-name="partialdiff" unicode="&#x2202;" 
d="M65 561q30 0 46 -28v68q0 48 -34 48h-18l9 51h18q85 0 85 -99v-526q0 -82 -78 -82q-79 0 -79 82v419q0 67 51 67zM111 66v421q0 22 -20 22q-17 0 -17 -21v-422q0 -21 19 -21q18 0 18 21z" />
    <glyph glyph-name="uni2206" unicode="&#x2206;" 
d="M173 0h-161l53 700h54zM76 223l-10 -170h47l-9 170q-11 215 -15 343q-7 -239 -13 -343z" />
    <glyph glyph-name="product" unicode="&#x220f;" horiz-adv-x="209" 
d="M125 -96v737h-41v-737h-68v796h177v-796h-68z" />
    <glyph glyph-name="summation" unicode="&#x2211;" horiz-adv-x="175" 
d="M169 -37v-59h-157v51l72 347l-72 347v51h157v-59h-90l66 -339l-66 -339h90z" />
    <glyph glyph-name="minus" unicode="&#x2212;" 
d="M171 374v-49h-157v49h157z" />
    <glyph glyph-name="radical" unicode="&#x221a;" 
d="M4 374h70l2 -24q6 -69 10 -207q7 230 15 329l18 228h63l-55 -700h-79l-26 325h-18v49z" />
    <glyph glyph-name="infinity" unicode="&#x221e;" horiz-adv-x="733" 
d="M345 317q-12 0 -23.5 12.5t-14.5 12.5t-11 -2t-14 -2q-8 0 -14.5 8t-6.5 17q0 22 8 35q-7 -7 -16 -37t-26 -41q-18 -12 -18 -40q0 -11 11 -21.5t11 -12.5q0 -4 -3 -4q-7 0 -12 5q13 -68 48 -104h-55q-35 114 -35 226q0 105 40.5 171.5t135.5 66.5q190 0 190 -254
q0 -75 -25 -210h-73q53 47 62 117q-4 -8 -13 -8q-3 0 -3 2l4 4q5 3 9.5 11.5t4.5 21.5q-4 -6 -15 -6q-1 0 -10.5 -4.5t-15.5 -4.5q-14 0 -40 3.5t-70 3.5q-22 0 -52.5 -6t-38.5 -6q-5 0 -13 2t-11 2q-28 0 -28 12q0 10 37 18.5t74 8.5q5 0 12 -0.5t12 -0.5t15.5 2t14.5 2
q112 0 127 -20q-1 16 -14 29t-30 13q-6 0 -6 7q0 57 -16 58q4 -7 4 -17q0 -18 -11 -32t-27 -14q-4 0 -10 2l-7 2q-1 0 -14.5 -14t-27.5 -14zM733 291v-148q-22 48 -69 112.5t-67 64.5q6 -85 -12 -177h-42q16 104 16 199q0 319 -213 319q-53 0 -91.5 -26.5t-59 -72.5
t-30 -97.5t-9.5 -111.5q0 -123 29 -210h-47q-19 67 -19 184q-17 -9 -39.5 -43.5t-49 -84.5t-30.5 -56v148q11 27 33 54t50 53.5t30 28.5q3 72 27 135t75.5 107.5t120.5 44.5q67 0 115.5 -22.5t76.5 -64t42.5 -87t22.5 -105.5q22 -5 68 -48t72 -96zM345 503q-3 3 -3 6
q0 2 2 2q1 0 6 -4.5t15 -8.5t22 -4q16 0 29 4t20 8l6 5q4 0 4 -2l-8 -8q24 0 52 -11q-29 80 -139 80q-55 0 -92 -33t-50 -85q37 20 41 39q-6 4 -6 7q0 4 3 4l2 -2q2 -1 6.5 -3.5t10 -5t13.5 -4t17 -1.5q24 0 49 17zM371 416q0 20 -4.5 40t-9.5 20q-10 0 -19 -39t-14 -39
q-3 0 -9.5 3t-11.5 3q-13 0 -21 -10.5t-8 -24.5t11 -14t18 6.5t9 6.5t12 -13.5t20 -13.5q14 0 25 10.5t12 10.5q3 0 10 -3.5t9 -3.5q10 0 18 11t8 24q0 10 -6 18t-16 8q-7 0 -14.5 -6.5t-11.5 -6.5q-7 0 -7 13zM510 318q0 95 -12 147l-5 3q0 -21 -18 -32t-41 -11
q-21 0 -37 12.5t-16 29.5q0 6 2 9q-12 2 -15 4q6 -9 10 -24t5.5 -24t4.5 -9q7 2 15 2q19 0 31 -14q34 0 34 -51q0 -3 8 -7t18.5 -13t15.5 -22zM383 310q-1 0 -8 -1t-15.5 -2t-13.5 -1t-13 1.5t-11 1.5q-15 0 -36 -4t-35 -9t-14 -8q0 -10 20 -10q24 0 54 6.5t44 6.5
q19 0 57.5 -3.5t52.5 -3.5q5 0 9.5 2t7.5 4t3 3q0 5 -36 11t-66 6zM267 413q-18 0 -31 10t-15 21q-4 -2 -15 -5q-4 -21 -4 -43q0 -50 3 -78q4 6 22 22t20 31q5 37 38 41q12 5 23 5q5 0 8.5 8.5t9.5 24.5t16 28l-13 -4q-1 -24 -18.5 -42.5t-43.5 -18.5zM419 465q-13 0 -16 13
q-5 0 -8.5 -5.5t-3.5 -9.5q0 -10 15 -17t31 -7q14 0 29 8.5t15 21.5q0 8 -14.5 12.5t-28.5 4.5q-5 -21 -19 -21zM267 427q14 0 30 11t16 24q0 6 -1 9q-20 0 -27 1q-5 -14 -18 -14q-10 0 -15 5q-4 -4 -18 -12q4 -24 33 -24zM266 288q-2 0 -2 3q0 12 107 12q93 0 93 -8
q0 -3 -3 -3q-1 0 -4 0.5t-10 1t-16 1.5t-24.5 1.5t-33.5 0.5q-36 0 -61 -2.5t-36 -4.5zM305 262q0 10 63 10q31 0 31 -8q0 -3 -2 -3q-4 0 -10 2t-10 2q-11 0 -26 -0.5t-20 -0.5q-4 0 -11.5 -3t-10.5 -3q-4 0 -4 4zM417 473q9 0 9 13q-1 0 -16 -6q0 -7 7 -7zM266 466
q7 0 10 9q-6 1 -11 4q0 -4 -6 -10q1 -3 7 -3zM325 34l-3 48l-10 -82h-21l15 125h25l4 -60l21 60h26l-15 -125h-22l10 82l-16 -48h-14zM21 125h35q23 0 20 -21l-10 -82q-3 -22 -22 -22h-38zM282 44q-1 -12 -10 -17l8 -27h-21l-7 23h-7l-3 -23h-22l15 125h36q21 0 18 -24z
M183 0l3 23h-14l-3 -23h-21l12 104q2 21 22 21h17q19 0 18 -21l-12 -104h-22zM594 0l15 125h35q23 0 20 -21l-8 -62q-3 -19 -22 -19h-15l-3 -23h-22zM111 0l3 23h-13l-3 -23h-22l15 125h22l-10 -83h13l10 83h22l-15 -125h-22zM539 125h22l-10 -79q0 -4 4 -4h5q5 0 5 4l9 79
h22l-10 -81q-3 -21 -19 -21l-9 -23h-23l9 23q-18 0 -15 21zM477 106l3 19h50l-3 -19h-13l-12 -106h-23l12 106h-14zM41 106l-11 -88h11q3 0 3 4l9 80q0 4 -4 4h-8zM629 106l-8 -64h8q5 0 5 4l7 56q0 4 -4 4h-8zM174 42h14l7 60q0 4 -4 4h-5q-5 0 -5 -4zM255 106l-8 -64h8
q5 0 5 4l7 56q0 4 -3 4h-9zM711 57l-3 -18h-19l-3 -21h27l-2 -18h-49l15 125h47l-3 -19h-24l-6 -49h20zM417 0l3 23h-14l-3 -23h-21l12 104q2 21 22 21h17q19 0 18 -21l-12 -104h-22zM408 42h14l7 60q0 4 -4 4h-5q-5 0 -5 -4z" />
    <glyph glyph-name="integral" unicode="&#x222b;" 
d="M64 -96h-33v51h17q12 0 12 12v678q0 30 13 42.5t44 12.5h38v-51h-23q-12 0 -12 -12v-678q0 -30 -13 -42.5t-43 -12.5z" />
    <glyph glyph-name="approxequal" unicode="&#x2248;" 
d="M171 343v-49q-18 -21 -42 -21q-14 0 -40 9t-38 9q-20 0 -37 -18v48q18 21 42 21q14 0 40 -9t38 -9q21 0 37 19zM171 429v-49q-18 -21 -42 -21q-14 0 -40 9t-38 9q-20 0 -37 -18v48q18 21 42 21q14 0 40 -9t38 -9q21 0 37 19z" />
    <glyph glyph-name="notequal" unicode="&#x2260;" 
d="M171 333v-49h-88l-24 -49h-45l24 49h-24v49h48l17 36h-65v48h89l24 48h45l-24 -48h23v-48h-47l-17 -36h64z" />
    <glyph glyph-name="lessequal" unicode="&#x2264;" 
d="M66 369l105 -45v-82h-157v48h120l-120 55v48l157 72v-51z" />
    <glyph glyph-name="greaterequal" unicode="&#x2265;" 
d="M15 324l105 45l-105 45v51l157 -72v-48l-120 -55h120v-48h-157v82z" />
    <glyph glyph-name="lozenge" unicode="&#x25ca;" 
d="M118 700l54 -350l-54 -350h-50l-55 350l55 350h50zM102 211l18 139l-18 139q-8 55 -10 100q-3 -57 -9 -100l-18 -139l18 -139q6 -43 9 -100q2 45 10 100z" />
    <glyph glyph-name="commaaccent" horiz-adv-x="146" 
d="M47 -81v56h54v-56l-47 -51l-5 2l27 49h-29z" />
    <glyph glyph-name="ampersand.alt" horiz-adv-x="202" 
d="M78 628v-212q0 -22 21 -22h101v-58h-18v-255q0 -88 -86 -88q-83 0 -83 88v217q0 53 39 67q-39 14 -39 67v187q0 88 82 88t82 -88v-184h-61v193q0 22 -20 22q-18 0 -18 -22zM116 72v264h-17q-21 0 -21 -22v-242q0 -22 18 -22q20 0 20 22z" />
    <glyph glyph-name="i.trk" horiz-adv-x="92" 
d="M76 0h-60v564h60v-564zM76 598h-60v72h60v-72z" />
    <glyph glyph-name="r.alt" horiz-adv-x="126" 
d="M76 466v-466h-60v564h56v-43q9 47 48 47h4v-55h-4q-22 0 -33 -10.5t-11 -36.5z" />
    <glyph glyph-name="zero.alt" 
d="M171 75q0 -82 -78 -82q-79 0 -79 82v550q0 82 79 82q78 0 78 -82v-550zM111 634q0 21 -18 21q-19 0 -19 -21v-568q0 -21 19 -21q18 0 18 21v568z" />
    <glyph glyph-name="one.alt" 
d="M34 624v50h44q27 0 32 26h31v-700h-60v624h-47z" />
    <glyph glyph-name="two.alt" 
d="M75 426h-56v199q0 82 76 82q77 0 77 -82v-127q0 -78 -48 -202.5t-48 -199.5v-36h92v-60h-152v87q0 71 24 143.5t48 138.5t24 120v145q0 21 -19 21q-18 0 -18 -21v-208z" />
    <glyph glyph-name="three.alt" 
d="M16 293h56v-227q0 -21 18 -21q19 0 19 21v252q0 21 -19 21h-24v52h24q19 0 19 21v222q0 21 -19 21q-18 0 -18 -21v-198h-56v189q0 82 76 82q77 0 77 -82v-192q0 -55 -35 -69q35 -12 35 -67v-222q0 -82 -77 -82q-76 0 -76 82v218z" />
    <glyph glyph-name="four.alt" 
d="M178 234v-59h-18v-175h-60v175h-94v56l86 469h68v-466h18zM80 354l-20 -120h40v118q0 74 8 197q-20 -147 -28 -195z" />
    <glyph glyph-name="five.alt" 
d="M16 258h57v-192q0 -21 18 -21q19 0 19 21v394q0 21 -17 21q-20 0 -20 -22v-121h-57v362h150v-60h-93v-135q14 28 46 28q51 0 51 -68v-390q0 -82 -78 -82q-76 0 -76 82v183z" />
    <glyph glyph-name="six.alt" 
d="M172 396v-321q0 -82 -78 -82q-79 0 -79 82v550q0 82 78 82q76 0 76 -82v-117h-57v126q0 21 -18 21q-19 0 -19 -21v-200q14 30 46 30q51 0 51 -68zM95 411q-20 0 -20 -22v-323q0 -21 19 -21q18 0 18 21v325q0 20 -17 20z" />
    <glyph glyph-name="seven.alt" 
d="M19 640v60h154v-57l-87 -643h-67l99 640h-99z" />
    <glyph glyph-name="eight.alt" 
d="M170 433q0 -55 -37 -68q37 -14 37 -68v-222q0 -82 -78 -82q-77 0 -77 82v222q0 54 36 68q-36 12 -36 68v192q0 82 77 82q78 0 78 -82v-192zM92 339q-17 0 -17 -23v-250q0 -22 17 -22q18 0 18 22v250q0 23 -18 23zM92 391q18 0 18 23v219q0 22 -18 22q-17 0 -17 -22v-219
q0 -23 17 -23z" />
    <glyph glyph-name="nine.alt" 
d="M13 324v301q0 82 78 82q79 0 79 -82v-550q0 -82 -77 -82q-76 0 -76 82v137h56v-146q0 -21 18 -21q19 0 19 21v218q-15 -28 -46 -28q-51 0 -51 68zM90 309q20 0 20 22v303q0 21 -19 21q-18 0 -18 -21v-305q0 -20 17 -20z" />
    </font>
</defs>
</svg>
